<?xml version="1.0" encoding="UTF-8"?>
<svg version="1.1" xmlns="http://www.w3.org/2000/svg" width="2030" height="242">
<path d="M0 0 C669.9 0 1339.8 0 2030 0 C2030 79.86 2030 159.72 2030 242 C1360.1 242 690.2 242 0 242 C0 162.14 0 82.28 0 0 Z " fill="#FEFEFE" transform="translate(0,0)"/>
<path d="M0 0 C13.86 0 27.72 0 42 0 C42.495 7.92 42.495 7.92 43 16 C46.06979492 21.31778465 46.06979492 21.31778465 51 24 C53.68358097 24.29719251 56.13802628 24.43771244 58.81958008 24.43237305 C59.97647339 24.44766052 59.97647339 24.44766052 61.15673828 24.46325684 C63.69441027 24.49334082 66.2317045 24.50264557 68.76953125 24.51171875 C70.53359731 24.52856888 72.29765139 24.54671957 74.06169128 24.56611633 C78.69599666 24.61358633 83.33025345 24.64341507 87.96472168 24.66955566 C93.52991539 24.7046229 99.09492252 24.76162713 104.65996552 24.81494904 C113.10661996 24.89342782 121.55303076 24.94405981 130 25 C130 37.54 130 50.08 130 63 C118.15067333 63.15890838 106.30206823 63.2870052 94.45191193 63.3626852 C88.94784066 63.39903003 83.44454373 63.44823306 77.94091797 63.52807617 C72.61752345 63.60481066 67.29486794 63.6461308 61.97096252 63.6641407 C59.95215744 63.67695493 57.93338726 63.7019744 55.91490173 63.7401104 C40.57247279 64.0181329 28.26839694 62.06647019 15.9375 52.25 C11.37256221 47.71984269 8.02824158 42.65071383 5 37 C4.49082031 36.0925 3.98164063 35.185 3.45703125 34.25 C-1.73263157 23.31827328 -0.33123456 11.8581973 0 0 Z " fill="#0C3E2F" transform="translate(155,166)"/>
<path d="M0 0 C25.08 0 50.16 0 76 0 C76.495 3.96 76.495 3.96 77 8 C79.97 8.495 79.97 8.495 83 9 C83 20.88 83 32.76 83 45 C71.9375 45.1875 71.9375 45.1875 68.49194336 45.20776367 C62.6701656 45.38638349 59.06908569 45.95987318 54.56933594 49.71801758 C49.35517273 53.97744058 43.61777596 54.55112591 37.1875 54.5 C36.39722412 54.49718018 35.60694824 54.49436035 34.79272461 54.49145508 C26.57865187 54.2646681 20.82520384 51.82520384 15 46 C10.05 45.67 5.1 45.34 0 45 C0 30.15 0 15.3 0 0 Z " fill="#0B3D2E" transform="translate(202,87)"/>
<path d="M0 0 C6.41904745 5.2530407 12.07892643 12.72789191 13.01171875 21.18359375 C13.05126216 30.96399741 11.91435903 39.92017482 5.515625 47.671875 C-2.43116583 55.5326616 -10.8639661 57.90849631 -21.81396484 57.89086914 C-30.22679308 57.67224809 -35.98691931 54.80258677 -42.1640625 49.14453125 C-45.42261004 45.61763274 -47.47240566 41.87543282 -49.2890625 37.45703125 C-49.9078125 36.06484375 -49.9078125 36.06484375 -50.5390625 34.64453125 C-52.62751267 25.76861804 -51.5254305 17.5240306 -47.2890625 9.45703125 C-42.48301518 2.47036201 -36.23767336 -3.05341353 -27.87109375 -5.1484375 C-17.86289113 -6.67767875 -8.53646362 -5.7541009 0 0 Z " fill="#104032" transform="translate(1333.2890625,49.54296875)"/>
<path d="M0 0 C18 0 18 0 23.046875 4.93359375 C24.34760187 7.06241496 25.58161464 9.23326639 26.75 11.4375 C27.69746094 13.04141602 27.69746094 13.04141602 28.6640625 14.67773438 C29.85194045 16.69244439 31.0131563 18.72333962 32.13574219 20.77514648 C34.56072819 24.96996578 37.31230347 28.96845521 40 33 C40.33 22.11 40.66 11.22 41 0 C46.61 0 52.22 0 58 0 C58 20.46 58 40.92 58 62 C52.06 62 46.12 62 40 62 C33.44190737 54.99914844 33.44190737 54.99914844 31.76171875 51.83789062 C31.38966309 51.15702393 31.01760742 50.47615723 30.63427734 49.7746582 C30.25996582 49.085896 29.8856543 48.39713379 29.5 47.6875 C28.68967572 46.31215368 27.87330065 44.94035362 27.05078125 43.57226562 C25.55712692 41.06886502 24.100295 38.55149219 22.68554688 36.00268555 C21.02419389 32.95350759 21.02419389 32.95350759 19 30 C18.67 40.56 18.34 51.12 18 62 C12.06 62 6.12 62 0 62 C0 41.54 0 21.08 0 0 Z " fill="#104032" transform="translate(731,45)"/>
<path d="M0 0 C5.94 0 11.88 0 18 0 C24.55809263 7.00085156 24.55809263 7.00085156 26.23828125 10.16210938 C26.61033691 10.84297607 26.98239258 11.52384277 27.36572266 12.2253418 C27.74003418 12.914104 28.1143457 13.60286621 28.5 14.3125 C29.31032428 15.68784632 30.12669935 17.05964638 30.94921875 18.42773438 C32.44287308 20.93113498 33.899705 23.44850781 35.31445312 25.99731445 C36.97580611 29.04649241 36.97580611 29.04649241 39 32 C39.33 21.44 39.66 10.88 40 0 C45.94 0 51.88 0 58 0 C58 20.46 58 40.92 58 62 C52.06 62 46.12 62 40 62 C33.72686909 55.56905448 33.72686909 55.56905448 32.16601562 52.64648438 C31.81966064 52.01701904 31.47330566 51.38755371 31.11645508 50.73901367 C30.7686499 50.10326416 30.42084473 49.46751465 30.0625 48.8125 C29.30875594 47.55042069 28.54901439 46.29190314 27.78320312 45.03710938 C25.78420174 41.7301791 23.88930358 38.3709196 22 35 C21.43079834 34.08436279 20.86159668 33.16872559 20.27514648 32.2253418 C19 30 19 30 19 28 C18.34 28 17.68 28 17 28 C17 39.22 17 50.44 17 62 C11.39 62 5.78 62 0 62 C0 41.54 0 21.08 0 0 Z " fill="#104033" transform="translate(1070,45)"/>
<path d="M0 0 C5.61 0 11.22 0 17 0 C20.84346353 3.89759682 22.54374247 6.32315998 25 11 C26.27643882 13.08486709 27.58998457 15.14336718 28.90649414 17.203125 C30.55473649 19.79095234 32.15694022 22.40556056 33.75488281 25.0246582 C35.45156271 27.71639096 37.23502906 30.35254359 39 33 C39.33 22.11 39.66 11.22 40 0 C45.61 0 51.22 0 57 0 C57 20.46 57 40.92 57 62 C51.39 62 45.78 62 40 62 C36.78821701 58.78821701 35.1946213 56.8815952 33.17431641 53.07421875 C31.1956323 49.5792291 28.89699922 46.29889971 26.64135742 42.97851562 C23.72955109 38.67338457 20.87023803 34.33295548 18 30 C17.67 40.56 17.34 51.12 17 62 C11.39 62 5.78 62 0 62 C0 41.54 0 21.08 0 0 Z " fill="#0D3D2F" transform="translate(1354,45)"/>
<path d="M0 0 C18 0 18 0 22.06640625 3.69921875 C23.40820312 6.11914062 23.40820312 6.11914062 24.5625 8.6875 C28.90920034 17.02372996 33.52318755 24.08904868 39 32 C39.33 21.44 39.66 10.88 40 0 C45.61 0 51.22 0 57 0 C57 20.46 57 40.92 57 62 C40 62 40 62 36.05053711 58.97070312 C34.7197113 56.96862793 34.7197113 56.96862793 33.52734375 54.78125 C32.83095543 53.68254578 32.83095543 53.68254578 32.12049866 52.56164551 C30.66630248 50.23879129 29.30354234 47.87553676 27.9375 45.5 C26.9606868 43.90670409 25.97830404 42.31680863 24.99023438 40.73046875 C22.58114542 36.85893537 20.30277288 32.94395207 18 29 C17.67 39.89 17.34 50.78 17 62 C11.39 62 5.78 62 0 62 C0 41.54 0 21.08 0 0 Z " fill="#0D3E30" transform="translate(843,45)"/>
<path d="M0 0 C7.8890625 -0.0928125 7.8890625 -0.0928125 15.9375 -0.1875 C17.578396 -0.21481201 19.21929199 -0.24212402 20.90991211 -0.27026367 C37.94608607 -0.3671489 37.94608607 -0.3671489 44.375 4.97265625 C44.91125 5.66230469 45.4475 6.35195313 46 7.0625 C46.556875 7.75472656 47.11375 8.44695313 47.6875 9.16015625 C51.25418813 14.15988872 50.51245091 20.0815529 50 26 C47.7246945 30.90065801 44.31539408 33.87822556 40 37 C39.01 37 38.02 37 37 37 C38.60274175 39.89662414 40.20744783 42.79215554 41.8125 45.6875 C42.26431641 46.50412109 42.71613281 47.32074219 43.18164062 48.16210938 C45.01297371 51.46385589 46.84148973 54.74305722 48.82421875 57.95703125 C50 60 50 60 50 62 C43.73 62 37.46 62 31 62 C29.73542969 59.63521484 29.73542969 59.63521484 28.4453125 57.22265625 C27.33883656 55.16911192 26.23204965 53.11573511 25.125 51.0625 C24.56941406 50.02158203 24.01382812 48.98066406 23.44140625 47.90820312 C22.63896484 46.42416992 22.63896484 46.42416992 21.8203125 44.91015625 C21.32805176 43.99371338 20.83579102 43.07727051 20.32861328 42.13305664 C19.17758138 39.87097458 19.17758138 39.87097458 17 39 C17 46.59 17 54.18 17 62 C11.39 62 5.78 62 0 62 C0 41.54 0 21.08 0 0 Z " fill="#0D3E30" transform="translate(1012,45)"/>
<path d="M0 0 C6.93 0 13.86 0 21 0 C25.78010147 12.18956954 30.43199832 24.4162863 34.93676758 36.71020508 C35.95636367 39.48890914 36.98306699 42.26492918 38.00976562 45.04101562 C38.66189191 46.81754924 39.31360118 48.59423599 39.96484375 50.37109375 C40.27099106 51.19596786 40.57713837 52.02084198 40.89256287 52.87071228 C41.1702803 53.63323807 41.44799774 54.39576385 41.73413086 55.18139648 C41.97949081 55.84880356 42.22485077 56.51621063 42.47764587 57.20384216 C43 59 43 59 43 62 C37.06 62 31.12 62 25 62 C24.01 58.7 23.02 55.4 22 52 C14.41 52 6.82 52 -1 52 C-1.66 55.3 -2.32 58.6 -3 62 C-9.27 62 -15.54 62 -22 62 C-17.07878359 47.89549939 -12.095048 33.81510609 -7.0625 19.75 C-6.37168423 17.81772998 -5.68092878 15.8854384 -4.99023438 13.953125 C-3.32762333 9.30179638 -1.66379139 4.6509072 0 0 Z " fill="#0F3F32" transform="translate(1155,45)"/>
<path d="M0 0 C6.93 0 13.86 0 21 0 C25.08663323 11.07753109 29.16977142 22.15633452 33.24707031 33.23730469 C34.31302839 36.13419576 35.37985161 39.03076301 36.44824219 41.92675781 C37.59362219 45.03336854 38.73514667 48.14135825 39.875 51.25 C40.20177734 52.13381348 40.52855469 53.01762695 40.86523438 53.92822266 C43 59.77030119 43 59.77030119 43 62 C37.06 62 31.12 62 25 62 C24.01 58.7 23.02 55.4 22 52 C14.41 52 6.82 52 -1 52 C-1.99 55.3 -2.98 58.6 -4 62 C-9.94 62 -15.88 62 -22 62 C-19.81133812 54.4269238 -17.27592642 47.0438246 -14.55078125 39.6484375 C-14.13330124 38.50839264 -13.71582123 37.36834778 -13.28569031 36.1937561 C-11.96402105 32.58649701 -10.6383282 28.9807323 -9.3125 25.375 C-8.41054004 22.91546257 -7.50884467 20.4558281 -6.60742188 17.99609375 C-4.4080059 11.9962693 -2.20498249 5.99778083 0 0 Z " fill="#0F3F32" transform="translate(1439,45)"/>
<path d="M0 0 C1.33212524 0.02030273 1.33212524 0.02030273 2.69116211 0.04101562 C3.36155518 0.05841797 4.03194824 0.07582031 4.72265625 0.09375 C4.7473033 5.77205078 4.76549087 11.45032069 4.77758789 17.12866211 C4.78262881 19.06193585 4.78946144 20.99520576 4.7980957 22.9284668 C4.8101719 25.70101872 4.81588682 28.47352041 4.8203125 31.24609375 C4.82547379 32.11588364 4.83063507 32.98567352 4.83595276 33.88182068 C4.8361481 35.95280814 4.78473793 38.02369324 4.72265625 40.09375 C4.39265625 40.42375 4.06265625 40.75375 3.72265625 41.09375 C3.5650122 42.87244726 3.47164948 44.65693476 3.40625 46.44140625 C3.36814209 47.41343994 3.33003418 48.38547363 3.29077148 49.38696289 C3.24766846 50.63082764 3.20456543 51.87469238 3.16015625 53.15625 C3.01578125 57.095625 2.87140625 61.035 2.72265625 65.09375 C-11.13734375 65.09375 -24.99734375 65.09375 -39.27734375 65.09375 C-39.35984375 60.88625 -39.44234375 56.67875 -39.52734375 52.34375 C-39.56375977 51.0434082 -39.60017578 49.74306641 -39.63769531 48.40332031 C-39.75111965 36.29618723 -36.64416715 26.68903748 -29.27734375 17.09375 C-28.66246094 16.26875 -28.04757813 15.44375 -27.4140625 14.59375 C-20.76869422 6.81854762 -10.48087943 -0.20805716 0 0 Z " fill="#0C3D2E" transform="translate(194.27734375,95.90625)"/>
<path d="M0 0 C1.3303125 0.00773438 1.3303125 0.00773438 2.6875 0.015625 C3.574375 0.01046875 4.46125 0.0053125 5.375 0 C7.6875 0.265625 7.6875 0.265625 9.6875 2.265625 C9.8125 4.890625 9.8125 4.890625 9.6875 7.265625 C11.4972229 7.25776978 11.4972229 7.25776978 13.34350586 7.24975586 C17.80313378 7.23170889 22.26275846 7.22019411 26.72241211 7.21069336 C28.65568585 7.20565244 30.58895576 7.19881981 32.5222168 7.19018555 C35.29476872 7.17810935 38.06727041 7.17239443 40.83984375 7.16796875 C42.14452858 7.16022682 42.14452858 7.16022682 43.47557068 7.15232849 C45.54655814 7.15213315 47.61744324 7.20354332 49.6875 7.265625 C50.6875 8.265625 50.6875 8.265625 50.75 11.328125 C50.729375 12.2975 50.70875 13.266875 50.6875 14.265625 C49.86660889 14.63324951 49.04571777 15.00087402 48.19995117 15.37963867 C45.10039616 16.76790605 42.00096462 18.15644839 38.90161133 19.54516602 C37.57027908 20.14162724 36.23890031 20.73798463 34.9074707 21.33422852 C26.82338324 24.95455996 18.74752059 28.59191605 10.6875 32.265625 C10.3575 35.895625 10.0275 39.525625 9.6875 43.265625 C12.3790625 43.2346875 12.3790625 43.2346875 15.125 43.203125 C16.97916122 43.1818128 18.83462498 43.19335998 20.6875 43.265625 C21.6875 44.265625 21.6875 44.265625 21.78515625 46.98828125 C21.77355469 48.09042969 21.76195312 49.19257812 21.75 50.328125 C21.74097656 51.43285156 21.73195313 52.53757813 21.72265625 53.67578125 C21.71105469 54.53042969 21.69945312 55.38507812 21.6875 56.265625 C16.43644558 56.29027428 11.18542455 56.30846068 5.93432617 56.32055664 C4.14655979 56.32559718 2.35879755 56.33242954 0.57104492 56.34106445 C-1.99301168 56.3531423 -4.55701397 56.35885594 -7.12109375 56.36328125 C-8.32734657 56.37102318 -8.32734657 56.37102318 -9.55796814 56.37892151 C-11.47651715 56.37911715 -13.39495368 56.32764483 -15.3125 56.265625 C-16.3125 55.265625 -16.3125 55.265625 -16.4453125 52.796875 C-16.44273437 51.7965625 -16.44015625 50.79625 -16.4375 49.765625 C-16.44007813 48.7653125 -16.44265625 47.765 -16.4453125 46.734375 C-16.3125 44.265625 -16.3125 44.265625 -15.3125 43.265625 C-11.6433423 43.12252213 -7.98534559 43.22340838 -4.3125 43.265625 C-4.3125 39.305625 -4.3125 35.345625 -4.3125 31.265625 C-5.9625 30.935625 -7.6125 30.605625 -9.3125 30.265625 C-11.9745641 29.19683564 -14.5869236 28.0924458 -17.203125 26.921875 C-18.32095367 26.42814392 -18.32095367 26.42814392 -19.46136475 25.92443848 C-21.02901236 25.2308211 -22.59558405 24.53476752 -24.16113281 23.83642578 C-26.56586106 22.76412626 -28.97401001 21.69982975 -31.3828125 20.63671875 C-32.9064562 19.96140253 -34.42990086 19.28563703 -35.953125 18.609375 C-36.67598694 18.28956665 -37.39884888 17.9697583 -38.14361572 17.64025879 C-43.19623934 15.38188566 -43.19623934 15.38188566 -44.3125 14.265625 C-44.4375 11.265625 -44.4375 11.265625 -44.3125 8.265625 C-43.3125 7.265625 -43.3125 7.265625 -39.61889648 7.15209961 C-37.97378708 7.15225876 -36.32867269 7.15795512 -34.68359375 7.16796875 C-33.38724754 7.17009117 -33.38724754 7.17009117 -32.06471252 7.17225647 C-29.29310708 7.17787261 -26.5215812 7.19042781 -23.75 7.203125 C-21.8756522 7.20813792 -20.00130315 7.21270119 -18.12695312 7.21679688 C-13.52210456 7.22784728 -8.91731579 7.2451227 -4.3125 7.265625 C-4.35375 6.481875 -4.395 5.698125 -4.4375 4.890625 C-4.27270907 1.43001538 -3.48060812 0.39979958 0 0 Z " fill="#144032" transform="translate(237.3125,2.734375)"/>
<path d="M0 0 C13.2 0 26.4 0 40 0 C40 4.62 40 9.24 40 14 C32.74 14 25.48 14 18 14 C18 17.3 18 20.6 18 24 C24.27 24 30.54 24 37 24 C37 28.29 37 32.58 37 37 C30.73 37 24.46 37 18 37 C18 40.63 18 44.26 18 48 C25.26 48 32.52 48 40 48 C40 52.62 40 57.24 40 62 C26.8 62 13.6 62 0 62 C0 41.54 0 21.08 0 0 Z " fill="#114133" transform="translate(963,45)"/>
<path d="M0 0 C13.2 0 26.4 0 40 0 C40 4.62 40 9.24 40 14 C32.74 14 25.48 14 18 14 C18 17.3 18 20.6 18 24 C24.27 24 30.54 24 37 24 C37 28.29 37 32.58 37 37 C30.73 37 24.46 37 18 37 C18 40.63 18 44.26 18 48 C25.26 48 32.52 48 40 48 C40 52.62 40 57.24 40 62 C26.8 62 13.6 62 0 62 C0 41.54 0 21.08 0 0 Z " fill="#104033" transform="translate(683,45)"/>
<path d="M0 0 C13.2 0 26.4 0 40 0 C40 4.62 40 9.24 40 14 C32.41 14 24.82 14 17 14 C17 17.3 17 20.6 17 24 C23.6 24 30.2 24 37 24 C37 28.29 37 32.58 37 37 C30.4 37 23.8 37 17 37 C17 40.63 17 44.26 17 48 C24.59 48 32.18 48 40 48 C40 52.62 40 57.24 40 62 C26.8 62 13.6 62 0 62 C0 41.54 0 21.08 0 0 Z " fill="#0E3F31" transform="translate(635,45)"/>
<path d="M0 0 C15.18 0 30.36 0 46 0 C46 14.91262426 46 14.91262426 39.6875 22.375 C38.40701632 23.99306574 37.12707601 25.61156163 35.84765625 27.23046875 C35.20328613 28.02372559 34.55891602 28.81698242 33.89501953 29.63427734 C31.01486239 33.22983554 28.32455776 36.95579529 25.625 40.6875 C24.09875 42.770625 22.5725 44.85375 21 47 C29.25 47.33 37.5 47.66 46 48 C46 52.62 46 57.24 46 62 C30.82 62 15.64 62 0 62 C0 46.67128801 0 46.67128801 5.37109375 40.90625 C8.83209074 37.08012554 11.75916222 32.94787401 14.75 28.75 C15.58180786 27.59612793 15.58180786 27.59612793 16.43041992 26.41894531 C19.37464598 22.3261109 22.20038124 18.19942814 25 14 C16.75 14 8.5 14 0 14 C0 9.38 0 4.76 0 0 Z " fill="#104033" transform="translate(580,45)"/>
<path d="M0 0 C16.5 0 33 0 50 0 C50 4.62 50 9.24 50 14 C44.72 14 39.44 14 34 14 C34 29.84 34 45.68 34 62 C28.06 62 22.12 62 16 62 C16 46.16 16 30.32 16 14 C10.72 14 5.44 14 0 14 C0 9.38 0 4.76 0 0 Z " fill="#134335" transform="translate(907,45)"/>
<path d="M0 0 C16.5 0 33 0 50 0 C50 4.62 50 9.24 50 14 C44.39 14 38.78 14 33 14 C33 29.84 33 45.68 33 62 C27.39 62 21.78 62 16 62 C16 45.83 16 29.66 16 13 C10.72 13 5.44 13 0 13 C0 8.71 0 4.42 0 0 Z " fill="#0D3E30" transform="translate(1201,45)"/>
<path d="M0 0 C5.61 0 11.22 0 17 0 C17 16.17 17 32.34 17 49 C23.27 49 29.54 49 36 49 C36 53.29 36 57.58 36 62 C24.12 62 12.24 62 0 62 C0 41.54 0 21.08 0 0 Z " fill="#0C3D2F" transform="translate(1488,45)"/>
<path d="M0 0 C5.61 0 11.22 0 17 0 C17 20.46 17 40.92 17 62 C11.39 62 5.78 62 0 62 C0 41.54 0 21.08 0 0 Z " fill="#0F3F31" transform="translate(1257,45)"/>
<path d="M0 0 C5.61 0 11.22 0 17 0 C17 20.46 17 40.92 17 62 C11.39 62 5.78 62 0 62 C0 41.54 0 21.08 0 0 Z " fill="#0C3D2F" transform="translate(816,45)"/>
<path d="M0 0 C20 0 20 0 28 4 C31.10453945 7.34335018 32.86542929 9.62737873 33.3125 14.1875 C32.91398039 19.04943919 31.82209035 21.03381897 29 25 C22.22894195 30.07829354 15.15177179 29.08151772 7 29 C7 35.6 7 42.2 7 49 C4.69 49 2.38 49 0 49 C0 32.83 0 16.66 0 0 Z " fill="#234F42" transform="translate(516,151)"/>
<path d="M0 0 C23 0 23 0 29 4 C31.9680927 7.06201969 32.41015102 9.21351913 32.375 13.4375 C32.24288059 17.75148601 31.99761721 20.69228446 29 24 C21.81992438 29.15492609 14.56699812 28.07932406 6 28 C6 34.6 6 41.2 6 48 C4.02 48 2.04 48 0 48 C0 32.16 0 16.32 0 0 Z " fill="#134235" transform="translate(459,152)"/>
<path d="M0 0 C8.58 0 17.16 0 26 0 C26.495 2.475 26.495 2.475 27 5 C32.94 5.33 38.88 5.66 45 6 C45 9.96 45 13.92 45 18 C23.88 18 2.76 18 -19 18 C-19 6 -19 6 -18 5 C-16.65732587 4.91368126 -15.31025678 4.89293527 -13.96484375 4.90234375 C-13.15595703 4.90556641 -12.34707031 4.90878906 -11.51367188 4.91210938 C-10.66353516 4.92048828 -9.81339844 4.92886719 -8.9375 4.9375 C-8.08349609 4.94201172 -7.22949219 4.94652344 -6.34960938 4.95117188 C-4.23304337 4.96299627 -2.11651315 4.98093231 0 5 C0 3.35 0 1.7 0 0 Z " fill="#134033" transform="translate(227,64)"/>
<path d="M0 0 C2.64 0 5.28 0 8 0 C11.81605338 8.10439059 14.82460741 16.47460392 17.85595703 24.89501953 C18.75607602 27.39185424 19.66487509 29.88541851 20.57421875 32.37890625 C21.14896217 33.9685604 21.72319944 35.55839766 22.296875 37.1484375 C22.56868591 37.89217621 22.84049683 38.63591492 23.12054443 39.40219116 C24.19265534 42.3991868 25 44.79132128 25 48 C23.02 48 21.04 48 19 48 C17.68 44.7 16.36 41.4 15 38 C8.07 38 1.14 38 -6 38 C-7.98 42.95 -7.98 42.95 -10 48 C-12.31 48 -14.62 48 -17 48 C-11.48938815 31.94149215 -5.86519773 15.9326172 0 0 Z " fill="#154437" transform="translate(1194,152)"/>
<path d="M0 0 C2.64 0 5.28 0 8 0 C11.81605338 8.10439059 14.82460741 16.47460392 17.85595703 24.89501953 C18.75607602 27.39185424 19.66487509 29.88541851 20.57421875 32.37890625 C21.14896217 33.9685604 21.72319944 35.55839766 22.296875 37.1484375 C22.56868591 37.89217621 22.84049683 38.63591492 23.12054443 39.40219116 C24.19265534 42.3991868 25 44.79132128 25 48 C23.02 48 21.04 48 19 48 C17.68 44.7 16.36 41.4 15 38 C8.07 38 1.14 38 -6 38 C-7.98 42.95 -7.98 42.95 -10 48 C-12.31 48 -14.62 48 -17 48 C-11.48938815 31.94149215 -5.86519773 15.9326172 0 0 Z " fill="#154437" transform="translate(877,152)"/>
<path d="M0 0 C7 0 7 0 9.24414062 2.2121582 C9.87513672 3.23140381 10.50613281 4.25064941 11.15625 5.30078125 C11.50707642 5.85179001 11.85790283 6.40279877 12.21936035 6.97050476 C13.33686135 8.73742033 14.4183968 10.5234346 15.5 12.3125 C16.22556912 13.47344299 16.9534158 14.63296582 17.68359375 15.79101562 C19.05553895 17.97409462 20.41039333 20.16471993 21.75585938 22.36450195 C24.78674868 27.27452944 27.90214654 32.13194456 31 37 C31.33 24.79 31.66 12.58 32 0 C33.98 0 35.96 0 38 0 C38 16.17 38 32.34 38 49 C32 49 32 49 30.19702148 47.29150391 C29.69759033 46.48632324 29.19815918 45.68114258 28.68359375 44.8515625 C28.09819824 43.93793945 27.51280273 43.02431641 26.90966797 42.08300781 C26.27947754 41.06561523 25.64928711 40.04822266 25 39 C23.90802658 37.34131248 22.81585569 35.6827454 21.71803284 34.02792358 C19.81559456 31.15487257 17.94149867 28.26342064 16.0625 25.375 C13.401875 21.29125 10.74125 17.2075 8 13 C7.67 24.88 7.34 36.76 7 49 C4.69 49 2.38 49 0 49 C0 32.83 0 16.66 0 0 Z " fill="#1A483B" transform="translate(639,151)"/>
<path d="M0 0 C2.31 0 4.62 0 7 0 C7 16.17 7 32.34 7 49 C0 49 0 49 -1.92114258 47.31030273 C-2.40736084 46.52598877 -2.8935791 45.7416748 -3.39453125 44.93359375 C-3.95317871 44.06178467 -4.51182617 43.18997559 -5.08740234 42.29174805 C-5.65668457 41.34984619 -6.2259668 40.40794434 -6.8125 39.4375 C-8.02977372 37.51551466 -9.24722299 35.5936405 -10.46484375 33.671875 C-11.05894043 32.71474609 -11.65303711 31.75761719 -12.26513672 30.77148438 C-14.71805112 26.85289666 -17.29179511 23.02078448 -19.875 19.1875 C-21.916875 16.1246875 -21.916875 16.1246875 -24 13 C-24.33 24.88 -24.66 36.76 -25 49 C-26.98 49 -28.96 49 -31 49 C-31 33.16 -31 17.32 -31 1 C-24 1 -24 1 -22.06298828 2.81323242 C-21.57040527 3.65217041 -21.07782227 4.4911084 -20.5703125 5.35546875 C-20.00183594 6.28939453 -19.43335938 7.22332031 -18.84765625 8.18554688 C-18.27917969 9.17619141 -17.71070313 10.16683594 -17.125 11.1875 C-12.03653599 19.72091263 -6.68145744 27.79345036 -1 36 C-0.67 24.12 -0.34 12.24 0 0 Z " fill="#19483A" transform="translate(1634,151)"/>
<path d="M0 0 C4.52184655 3.24132364 8.63539494 6.37100414 10 12 C4.82229048 12.52654673 4.82229048 12.52654673 2 12 C-0.6875 9.125 -0.6875 9.125 -3 6 C-7.47127647 3.18948336 -12.88871275 3.36907548 -18 4 C-22.17531988 5.32060307 -24.67254872 7.59698304 -27.4375 11 C-30.2114656 16.5479312 -29.83007566 23.22006867 -28.52734375 29.15234375 C-26.82001047 33.82450727 -23.92930732 36.21674065 -20 39 C-14.51302475 40.82899175 -9.87320504 40.68976898 -4.6875 38.25 C1.41506629 34.82253126 1.99878484 32.00425304 4 25 C-2.27 25 -8.54 25 -15 25 C-15 23.35 -15 21.7 -15 20 C-6.42 20 2.16 20 11 20 C11 28.65562437 10.64629435 33.53730949 4.6875 39.8125 C-0.30131051 44.70827908 -5.30945051 46.45360016 -12.25 46.5625 C-19.55491525 46.39745771 -24.5631165 44.95407145 -30 40 C-35.22225464 33.76299445 -37.5703728 26.76422107 -37.375 18.65625 C-36.36748779 11.51970518 -32.56981933 5.52245404 -26.87890625 1.18359375 C-18.47538909 -4.11009793 -8.80180896 -4.92832133 0 0 Z " fill="#164538" transform="translate(1686,154)"/>
<path d="M0 0 C4.1554513 2.49181783 7.50137349 5.84676078 8.88671875 10.55859375 C9.00144531 11.14640625 9.11617187 11.73421875 9.234375 12.33984375 C6.046875 12.71484375 6.046875 12.71484375 2.234375 12.33984375 C-0.390625 9.46484375 -0.390625 9.46484375 -2.765625 6.33984375 C-7.95364643 3.70633033 -13.07199581 3.68578914 -18.765625 4.33984375 C-24.20442027 6.75708609 -27.61004899 10.84541808 -29.765625 16.33984375 C-30.81128879 22.58654827 -30.22628017 28.16812488 -27.0390625 33.68359375 C-24.58904198 36.87012351 -21.57013214 38.61804089 -17.890625 40.08984375 C-11.88569946 40.79630558 -7.47351037 40.99575879 -2.3046875 37.6796875 C1.48893572 34.37711703 3.03121817 30.15247108 4.234375 25.33984375 C-2.035625 25.33984375 -8.305625 25.33984375 -14.765625 25.33984375 C-14.765625 23.68984375 -14.765625 22.03984375 -14.765625 20.33984375 C-6.185625 20.33984375 2.394375 20.33984375 11.234375 20.33984375 C11.234375 28.81238224 10.16543977 33.89682636 4.5546875 40.23828125 C-1.75036506 45.9828847 -8.2332328 46.8097535 -16.57421875 46.6484375 C-23.71236701 45.95821264 -27.96286519 42.73171951 -32.44140625 37.31640625 C-37.44407007 29.84930333 -37.86200399 23.15655816 -36.765625 14.33984375 C-34.09908706 6.61294403 -28.90502187 2.02513242 -21.765625 -1.66015625 C-14.45831128 -4.09592749 -6.9437959 -3.10701696 0 0 Z " fill="#154437" transform="translate(1310.765625,153.66015625)"/>
<path d="M0 0 C7 0 7 0 8.75291443 1.36669922 C9.16372757 2.00623535 9.57454071 2.64577148 9.99780273 3.3046875 C10.47777206 4.02543457 10.95774139 4.74618164 11.45225525 5.48876953 C11.94109695 6.27622559 12.42993866 7.06368164 12.93359375 7.875 C13.4563942 8.67405762 13.97919464 9.47311523 14.51783752 10.29638672 C16.18108092 12.84999164 17.80923882 15.42398084 19.4375 18 C20.55960646 19.73582669 21.68393065 21.47022192 22.81054688 23.203125 C25.5709146 27.45047047 28.28275348 31.72367761 31 36 C31.33 24.12 31.66 12.24 32 0 C33.98 0 35.96 0 38 0 C38 15.84 38 31.68 38 48 C32 48 32 48 29.98046875 46.07495117 C29.38878906 45.17752197 28.79710937 44.28009277 28.1875 43.35546875 C27.51074219 42.3504834 26.83398438 41.34549805 26.13671875 40.31005859 C25.43160156 39.21773926 24.72648437 38.12541992 24 37 C23.25830406 35.88373453 22.51479458 34.76867206 21.76953125 33.65478516 C19.48539489 30.22508684 17.24088089 26.7706632 15 23.3125 C12.36 19.249375 9.72 15.18625 7 11 C6.67 23.21 6.34 35.42 6 48 C4.02 48 2.04 48 0 48 C0 32.16 0 16.32 0 0 Z " fill="#114133" transform="translate(1227,152)"/>
<path d="M0 0 C4.54584968 2.23159893 6.77245902 4.50673162 9 9 C9.75483863 14.43347808 10.31191917 20.82032841 7.25 25.625 C2.37571852 30.7700749 2.37571852 30.7700749 -1.8046875 31.46875 C-11.11892814 31.56355143 -11.11892814 31.56355143 -14.625 28.8125 C-18.83308776 23.82923818 -19.40795028 19.89809337 -19.24609375 13.5 C-18.74297241 8.38892605 -17.23582287 5.17553882 -13.4375 1.5625 C-8.8240075 -0.53454205 -4.98860642 -0.80304396 0 0 Z " fill="#FBFCFC" transform="translate(1319,60)"/>
<path d="M0 0 C3.40725283 2.05428176 5.3466231 3.62735653 7.58203125 6.98046875 C7.58203125 8.30046875 7.58203125 9.62046875 7.58203125 10.98046875 C4.89453125 11.29296875 4.89453125 11.29296875 1.58203125 10.98046875 C0.83953125 10.15546875 0.09703125 9.33046875 -0.66796875 8.48046875 C-4.24856944 5.22537721 -6.43897183 5.45488824 -11.11328125 5.51171875 C-13.84441894 6.06720438 -14.77032 6.7608655 -16.41796875 8.98046875 C-17.08477243 11.93767503 -17.08477243 11.93767503 -16.41796875 14.98046875 C-12.8830027 18.41814216 -9.70872 19.70945224 -4.98046875 20.91796875 C0.41501306 22.46389955 3.72983727 23.91426399 7.58203125 27.98046875 C9.32039977 31.4572058 9.03639444 35.17917673 8.58203125 38.98046875 C6.86100046 42.55491731 5.27146222 44.45013724 2.14453125 46.85546875 C-4.50646879 48.95578455 -11.5796366 49.27514657 -17.98046875 46.35546875 C-20.65993938 43.74470249 -22.60651036 41.25502814 -24.41796875 37.98046875 C-24.41796875 36.99046875 -24.41796875 36.00046875 -24.41796875 34.98046875 C-22.10796875 34.98046875 -19.79796875 34.98046875 -17.41796875 34.98046875 C-17.14984375 35.94984375 -16.88171875 36.91921875 -16.60546875 37.91796875 C-16.21359375 38.92859375 -15.82171875 39.93921875 -15.41796875 40.98046875 C-11.34939402 42.33666033 -7.66744143 42.63423378 -3.41796875 41.98046875 C-0.16397665 40.06135419 -0.16397665 40.06135419 1.58203125 36.98046875 C1.91753972 33.82674466 1.91753972 33.82674466 0.58203125 30.98046875 C-3.04612838 28.36085891 -6.621971 27.23969246 -10.91796875 26.10546875 C-16.1710356 24.56639147 -19.12306661 23.33444658 -22.41796875 18.98046875 C-22.74796875 18.65046875 -23.07796875 18.32046875 -23.41796875 17.98046875 C-23.93186464 12.95945315 -24.22954064 8.47875531 -21.79296875 3.98046875 C-15.51274091 -1.30814417 -7.83069473 -3.30179536 0 0 Z " fill="#174638" transform="translate(1728.41796875,152.01953125)"/>
<path d="M0 0 C3.40725283 2.05428176 5.3466231 3.62735653 7.58203125 6.98046875 C7.58203125 8.30046875 7.58203125 9.62046875 7.58203125 10.98046875 C4.89453125 11.29296875 4.89453125 11.29296875 1.58203125 10.98046875 C0.83953125 10.15546875 0.09703125 9.33046875 -0.66796875 8.48046875 C-4.24856944 5.22537721 -6.43897183 5.45488824 -11.11328125 5.51171875 C-13.84441894 6.06720438 -14.77032 6.7608655 -16.41796875 8.98046875 C-17.08477243 11.93767503 -17.08477243 11.93767503 -16.41796875 14.98046875 C-12.8830027 18.41814216 -9.70872 19.70945224 -4.98046875 20.91796875 C0.41501306 22.46389955 3.72983727 23.91426399 7.58203125 27.98046875 C9.32039977 31.4572058 9.03639444 35.17917673 8.58203125 38.98046875 C6.86100046 42.55491731 5.27146222 44.45013724 2.14453125 46.85546875 C-4.50646879 48.95578455 -11.5796366 49.27514657 -17.98046875 46.35546875 C-20.65993938 43.74470249 -22.60651036 41.25502814 -24.41796875 37.98046875 C-24.41796875 36.99046875 -24.41796875 36.00046875 -24.41796875 34.98046875 C-22.10796875 34.98046875 -19.79796875 34.98046875 -17.41796875 34.98046875 C-17.14984375 35.94984375 -16.88171875 36.91921875 -16.60546875 37.91796875 C-16.21359375 38.92859375 -15.82171875 39.93921875 -15.41796875 40.98046875 C-11.34939402 42.33666033 -7.66744143 42.63423378 -3.41796875 41.98046875 C-0.16397665 40.06135419 -0.16397665 40.06135419 1.58203125 36.98046875 C1.91753972 33.82674466 1.91753972 33.82674466 0.58203125 30.98046875 C-3.04612838 28.36085891 -6.621971 27.23969246 -10.91796875 26.10546875 C-16.1710356 24.56639147 -19.12306661 23.33444658 -22.41796875 18.98046875 C-22.74796875 18.65046875 -23.07796875 18.32046875 -23.41796875 17.98046875 C-23.93186464 12.95945315 -24.22954064 8.47875531 -21.79296875 3.98046875 C-15.51274091 -1.30814417 -7.83069473 -3.30179536 0 0 Z " fill="#174638" transform="translate(1388.41796875,152.01953125)"/>
<path d="M0 0 C3.40725283 2.05428176 5.3466231 3.62735653 7.58203125 6.98046875 C7.58203125 8.30046875 7.58203125 9.62046875 7.58203125 10.98046875 C4.89453125 11.29296875 4.89453125 11.29296875 1.58203125 10.98046875 C0.83953125 10.15546875 0.09703125 9.33046875 -0.66796875 8.48046875 C-4.24856944 5.22537721 -6.43897183 5.45488824 -11.11328125 5.51171875 C-13.84441894 6.06720438 -14.77032 6.7608655 -16.41796875 8.98046875 C-17.08477243 11.93767503 -17.08477243 11.93767503 -16.41796875 14.98046875 C-12.8830027 18.41814216 -9.70872 19.70945224 -4.98046875 20.91796875 C0.41501306 22.46389955 3.72983727 23.91426399 7.58203125 27.98046875 C9.32039977 31.4572058 9.03639444 35.17917673 8.58203125 38.98046875 C6.86100046 42.55491731 5.27146222 44.45013724 2.14453125 46.85546875 C-4.50646879 48.95578455 -11.5796366 49.27514657 -17.98046875 46.35546875 C-20.65993938 43.74470249 -22.60651036 41.25502814 -24.41796875 37.98046875 C-24.41796875 36.99046875 -24.41796875 36.00046875 -24.41796875 34.98046875 C-22.10796875 34.98046875 -19.79796875 34.98046875 -17.41796875 34.98046875 C-17.14984375 35.94984375 -16.88171875 36.91921875 -16.60546875 37.91796875 C-16.21359375 38.92859375 -15.82171875 39.93921875 -15.41796875 40.98046875 C-11.34939402 42.33666033 -7.66744143 42.63423378 -3.41796875 41.98046875 C-0.16397665 40.06135419 -0.16397665 40.06135419 1.58203125 36.98046875 C1.91753972 33.82674466 1.91753972 33.82674466 0.58203125 30.98046875 C-3.04612838 28.36085891 -6.621971 27.23969246 -10.91796875 26.10546875 C-16.1710356 24.56639147 -19.12306661 23.33444658 -22.41796875 18.98046875 C-22.74796875 18.65046875 -23.07796875 18.32046875 -23.41796875 17.98046875 C-23.93186464 12.95945315 -24.22954064 8.47875531 -21.79296875 3.98046875 C-15.51274091 -1.30814417 -7.83069473 -3.30179536 0 0 Z " fill="#174638" transform="translate(1045.41796875,152.01953125)"/>
<path d="M0 0 C3.34252226 1.93866291 5.11826348 3.5214521 7.125 6.8125 C7.125 8.1325 7.125 9.4525 7.125 10.8125 C4.4375 11.125 4.4375 11.125 1.125 10.8125 C0.3825 9.9875 -0.36 9.1625 -1.125 8.3125 C-4.70560069 5.05740846 -6.89600308 5.28691949 -11.5703125 5.34375 C-14.30145019 5.89923563 -15.22735125 6.59289675 -16.875 8.8125 C-17.54180368 11.76970628 -17.54180368 11.76970628 -16.875 14.8125 C-13.34003395 18.25017341 -10.16575125 19.54148349 -5.4375 20.75 C-0.04201819 22.2959308 3.27280602 23.74629524 7.125 27.8125 C8.86336852 31.28923705 8.57936319 35.01120798 8.125 38.8125 C6.40396921 42.38694856 4.81443097 44.28216849 1.6875 46.6875 C-4.14959411 48.53079288 -11.08711653 49.20615524 -16.9453125 47.05078125 C-19.84913026 45.20488704 -22.23291617 42.82298702 -23.875 39.8125 C-24.0625 37.0625 -24.0625 37.0625 -23.875 34.8125 C-21.125 34.4375 -21.125 34.4375 -17.875 34.8125 C-15.625 37.75 -15.625 37.75 -13.875 40.8125 C-10.6999479 42.40002605 -7.33899201 42.093735 -3.875 41.8125 C-1.06490481 40.80374788 -0.20802292 40.47854583 1.125 37.8125 C1.56110275 33.8270824 1.56110275 33.8270824 0.06640625 30.26953125 C-3.2284692 27.79671728 -7.24336125 26.983628 -11.16210938 25.8828125 C-16.07622963 24.38742456 -19.14511725 22.36745632 -22.875 18.8125 C-24.61336852 15.33576295 -24.32936319 11.61379202 -23.875 7.8125 C-22.10532536 4.13702191 -20.55528967 2.2984212 -17.25 -0.0625 C-11.5395608 -1.96597973 -5.69166363 -2.14202395 0 0 Z " fill="#154437" transform="translate(746.875,152.1875)"/>
<path d="M0 0 C8.58 0 17.16 0 26 0 C26 1.98 26 3.96 26 6 C19.73 6 13.46 6 7 6 C7 11.28 7 16.56 7 22 C12.61 22 18.22 22 24 22 C24 23.65 24 25.3 24 27 C18.06 27 12.12 27 6 27 C6 32.61 6 38.22 6 44 C12.6 44 19.2 44 26 44 C26 45.65 26 47.3 26 49 C17.42 49 8.84 49 0 49 C0 32.83 0 16.66 0 0 Z " fill="#19473A" transform="translate(1330,151)"/>
<path d="M0 0 C8.58 0 17.16 0 26 0 C26 1.98 26 3.96 26 6 C19.73 6 13.46 6 7 6 C7 11.28 7 16.56 7 22 C12.61 22 18.22 22 24 22 C24 23.65 24 25.3 24 27 C18.06 27 12.12 27 6 27 C6 32.61 6 38.22 6 44 C12.6 44 19.2 44 26 44 C26 45.65 26 47.3 26 49 C17.42 49 8.84 49 0 49 C0 32.83 0 16.66 0 0 Z " fill="#19473A" transform="translate(987,151)"/>
<path d="M0 0 C8.58 0 17.16 0 26 0 C26 1.98 26 3.96 26 6 C19.73 6 13.46 6 7 6 C7 11.28 7 16.56 7 22 C12.61 22 18.22 22 24 22 C24 23.65 24 25.3 24 27 C18.06 27 12.12 27 6 27 C6 32.61 6 38.22 6 44 C12.6 44 19.2 44 26 44 C26 45.65 26 47.3 26 49 C17.42 49 8.84 49 0 49 C0 32.83 0 16.66 0 0 Z " fill="#19473A" transform="translate(688,151)"/>
<path d="M0 0 C8.58 0 17.16 0 26 0 C26 1.98 26 3.96 26 6 C19.4 6 12.8 6 6 6 C6 11.28 6 16.56 6 22 C11.61 22 17.22 22 23 22 C23 23.65 23 25.3 23 27 C17.39 27 11.78 27 6 27 C6 32.61 6 38.22 6 44 C12.6 44 19.2 44 26 44 C26 45.65 26 47.3 26 49 C17.42 49 8.84 49 0 49 C0 32.83 0 16.66 0 0 Z " fill="#164538" transform="translate(557,151)"/>
<path d="M0 0 C1.98 0 3.96 0 6 0 C9.72867809 8.01665789 12.74147401 16.25814402 15.75 24.5625 C16.26142887 25.96690247 16.77314546 27.3712002 17.28515625 28.77539062 C18.52675449 32.18239348 19.76446171 35.59079413 21 39 C26.06917409 26.02608258 31.05702529 13.02250212 36 0 C38.31 0 40.62 0 43 0 C37.15256001 16.060206 31.30739186 32.1131222 25 48 C22.36 48 19.72 48 17 48 C14.57440093 41.4871954 12.15383686 34.97253608 9.73681641 28.45654297 C8.91344033 26.23866102 8.08889915 24.02121125 7.26318359 21.80419922 C6.07866007 18.62319187 4.89829256 15.44066963 3.71875 12.2578125 C3.34689575 11.26194122 2.9750415 10.26606995 2.59191895 9.24002075 C2.25156616 8.31921722 1.91121338 7.3984137 1.56054688 6.44970703 C1.2585437 5.6369632 0.95654053 4.82421936 0.64538574 3.98684692 C0 2 0 2 0 0 Z " fill="#164538" transform="translate(937,152)"/>
<path d="M0 0 C2.31 0 4.62 0 7 0 C11.62 12.54 16.24 25.08 21 38 C23.31251987 34.5312202 24.61906366 30.93763083 26.0390625 27.05078125 C26.32478119 26.27816452 26.61049988 25.50554779 26.90487671 24.70951843 C27.81525061 22.24517999 28.72018665 19.7788848 29.625 17.3125 C30.24183002 15.63984209 30.85901334 13.96731441 31.4765625 12.29492188 C32.9884764 8.19811373 34.49551691 4.0995425 36 0 C38.31 0 40.62 0 43 0 C39.00214651 11.60966063 34.87466079 23.1674736 30.625 34.6875 C30.18430176 35.88737549 29.74360352 37.08725098 29.28955078 38.32348633 C28.87688965 39.43747803 28.46422852 40.55146973 28.0390625 41.69921875 C27.66990723 42.69783936 27.30075195 43.69645996 26.92041016 44.7253418 C26 47 26 47 25 48 C22.66702567 48.04092937 20.33294775 48.04241723 18 48 C14.15276475 38.96850806 10.57253395 29.84718445 7.06860352 20.67822266 C6.17511554 18.34262678 5.27612243 16.00919492 4.37695312 13.67578125 C3.80695876 12.18762747 3.23728494 10.69935086 2.66796875 9.2109375 C2.39929489 8.51519623 2.13062103 7.81945496 1.85380554 7.10263062 C0 2.22896847 0 2.22896847 0 0 Z " fill="#164537" transform="translate(813,152)"/>
<path d="M0 0 C9.24 0 18.48 0 28 0 C28 1.98 28 3.96 28 6 C21.07 6 14.14 6 7 6 C7 11.28 7 16.56 7 22 C12.61 22 18.22 22 24 22 C24 23.65 24 25.3 24 27 C18.39 27 12.78 27 7 27 C7 34.26 7 41.52 7 49 C4.69 49 2.38 49 0 49 C0 32.83 0 16.66 0 0 Z " fill="#255044" transform="translate(1458,151)"/>
<path d="M0 0 C9.24 0 18.48 0 28 0 C28 1.98 28 3.96 28 6 C21.07 6 14.14 6 7 6 C7 11.28 7 16.56 7 22 C12.61 22 18.22 22 24 22 C24 23.65 24 25.3 24 27 C18.39 27 12.78 27 7 27 C7 34.26 7 41.52 7 49 C4.69 49 2.38 49 0 49 C0 32.83 0 16.66 0 0 Z " fill="#255044" transform="translate(1115,151)"/>
<path d="M0 0 C1.23556641 0.01740234 1.23556641 0.01740234 2.49609375 0.03515625 C3.32238281 0.04417969 4.14867187 0.05320313 5 0.0625 C5.63808594 0.07410156 6.27617187 0.08570313 6.93359375 0.09765625 C8.61238316 3.45523507 8.11836438 7.24398723 8.13671875 10.9375 C8.14241882 11.81539688 8.1481189 12.69329376 8.1539917 13.59779358 C8.16344526 15.4563781 8.16997709 17.31497941 8.17382812 19.17358398 C8.1835431 22.02031564 8.21456654 24.86632823 8.24609375 27.71289062 C8.25262281 29.51692279 8.25787366 31.32096012 8.26171875 33.125 C8.27406555 33.97819321 8.28641235 34.83138641 8.2991333 35.71043396 C8.2766767 41.65287961 8.2766767 41.65287961 6.60272217 43.82301331 C4.04115763 45.77917206 2.04692296 45.49510253 -1.06640625 45.09765625 C-3.1050161 42.03974148 -3.31614034 41.44588273 -3.30932617 38.00927734 C-3.3124028 37.1918808 -3.31547943 36.37448425 -3.31864929 35.53231812 C-3.31146378 34.65411407 -3.30427826 33.77591003 -3.296875 32.87109375 C-3.29641678 31.96767242 -3.29595856 31.0642511 -3.29548645 30.13345337 C-3.29246655 28.22534877 -3.28458806 26.31724658 -3.2722168 24.40917969 C-3.25393412 21.47712549 -3.25170731 18.54538655 -3.25195312 15.61328125 C-3.24703892 13.761716 -3.24121102 11.9101529 -3.234375 10.05859375 C-3.23326218 9.17634125 -3.23214935 8.29408875 -3.23100281 7.38510132 C-3.17409331 0.15000441 -3.17409331 0.15000441 0 0 Z " fill="#1E463B" transform="translate(292.06640625,184.90234375)"/>
<path d="M0 0 C10.89 0 21.78 0 33 0 C33 1.65 33 3.3 33 5 C28.71 5 24.42 5 20 5 C20 19.19 20 33.38 20 48 C17.69 48 15.38 48 13 48 C13 33.81 13 19.62 13 5 C8.71 5 4.42 5 0 5 C0 3.35 0 1.7 0 0 Z " fill="#204D40" transform="translate(1545,152)"/>
<path d="M0 0 C3.5 0.25 3.5 0.25 5.5 2.25 C5.69995031 5.0838241 5.77976672 7.81778983 5.765625 10.65234375 C5.76753845 11.48584854 5.7694519 12.31935333 5.77142334 13.17811584 C5.7727855 14.94255881 5.76908689 16.70701179 5.76074219 18.47143555 C5.75005638 21.17324363 5.76062932 23.87438474 5.7734375 26.57617188 C5.77211565 28.28906397 5.76955272 30.00195565 5.765625 31.71484375 C5.76967346 32.5242894 5.77372192 33.33373505 5.77789307 34.16770935 C5.74546956 38.04612577 5.70063048 39.94905428 3.5 43.25 C0 43.5625 0 43.5625 -3.5 43.25 C-6.13185269 40.61814731 -5.74871862 38.71131131 -5.77789307 35.12854004 C-5.7738446 34.29205933 -5.76979614 33.45557861 -5.765625 32.59375 C-5.76753845 31.73567749 -5.7694519 30.87760498 -5.77142334 29.99353027 C-5.77278544 28.17781278 -5.76908728 26.36208555 -5.76074219 24.54638672 C-5.75004291 21.7611715 -5.76063653 18.97660132 -5.7734375 16.19140625 C-5.77211591 14.42968607 -5.76955353 12.66796629 -5.765625 10.90625 C-5.76967346 10.06976929 -5.77372192 9.23328857 -5.77789307 8.37145996 C-5.71304735 0.40807481 -5.71304735 0.40807481 0 0 Z " fill="#1D463A" transform="translate(294.5,93.75)"/>
<path d="M0 0 C2.31 0 4.62 0 7 0 C7 14.52 7 29.04 7 44 C12.61 44 18.22 44 24 44 C24 45.65 24 47.3 24 49 C16.08 49 8.16 49 0 49 C0 32.83 0 16.66 0 0 Z " fill="#214E41" transform="translate(1150,151)"/>
<path d="M0 0 C10.56 0 21.12 0 32 0 C32 1.65 32 3.3 32 5 C27.71 5 23.42 5 19 5 C19 19.19 19 33.38 19 48 C17.02 48 15.04 48 13 48 C13 33.48 13 18.96 13 4 C8.71 4 4.42 4 0 4 C0 2.68 0 1.36 0 0 Z " fill="#0F4032" transform="translate(1508,152)"/>
<path d="M0 0 C3.5625 0.1875 3.5625 0.1875 5.5625 2.1875 C5.76215373 4.81690196 5.8423411 7.33870163 5.828125 9.96875 C5.83003845 10.73803833 5.8319519 11.50732666 5.83392334 12.29992676 C5.83528508 13.9273308 5.83158939 15.5547457 5.82324219 17.18212891 C5.81254221 19.67765631 5.82313751 22.17246382 5.8359375 24.66796875 C5.8346159 26.24739743 5.8320535 27.82682566 5.828125 29.40625 C5.83217346 30.1552356 5.83622192 30.90422119 5.84039307 31.67590332 C5.79242243 36.95757757 5.79242243 36.95757757 3.5625 39.1875 C0 39.375 0 39.375 -3.4375 39.1875 C-5.25315436 37.37184564 -4.56611899 34.87480038 -4.57644653 32.45861816 C-4.5744223 31.65758667 -4.57239807 30.85655518 -4.5703125 30.03125 C-4.57126923 29.21378296 -4.57222595 28.39631592 -4.57321167 27.55407715 C-4.57389345 25.82234622 -4.57203929 24.09061276 -4.56787109 22.35888672 C-4.56252279 19.69883518 -4.56781612 17.0389525 -4.57421875 14.37890625 C-4.57355797 12.70052046 -4.5722768 11.02213477 -4.5703125 9.34375 C-4.57233673 8.54271851 -4.57436096 7.74168701 -4.57644653 6.91638184 C-4.54794402 0.24806967 -4.54794402 0.24806967 0 0 Z " fill="#0F3D30" transform="translate(308.4375,186.8125)"/>
<path d="M0 0 C1.98 0 3.96 0 6 0 C6 14.19 6 28.38 6 43 C11.61 43 17.22 43 23 43 C23 44.65 23 46.3 23 48 C15.41 48 7.82 48 0 48 C0 32.16 0 16.32 0 0 Z " fill="#0F3F31" transform="translate(910,152)"/>
<path d="M0 0 C1.98 0 3.96 0 6 0 C6 14.19 6 28.38 6 43 C11.61 43 17.22 43 23 43 C23 44.65 23 46.3 23 48 C15.41 48 7.82 48 0 48 C0 32.16 0 16.32 0 0 Z " fill="#0F3F31" transform="translate(592,152)"/>
<path d="M0 0 C1.47906892 -0.02689216 2.95827483 -0.04634621 4.4375 -0.0625 C5.26121094 -0.07410156 6.08492188 -0.08570312 6.93359375 -0.09765625 C9 0 9 0 10 1 C10.12569922 3.57016824 10.18863339 6.11203767 10.203125 8.68359375 C10.20882507 9.45429703 10.21452515 10.22500031 10.22039795 11.01905823 C10.22986067 12.65242128 10.23638696 14.28580353 10.24023438 15.91918945 C10.2499464 18.42367679 10.28095914 20.9273459 10.3125 23.43164062 C10.31902911 25.01562011 10.32427994 26.59960548 10.328125 28.18359375 C10.3404718 28.9357164 10.3528186 29.68783905 10.36553955 30.4627533 C10.35644531 32.57592773 10.35644531 32.57592773 10 36 C6.77626323 38.14915785 5.73296326 38.38286803 2 38 C0 36 0 36 -0.22705078 32.46826172 C-0.22673363 30.95536669 -0.21540633 29.44244912 -0.1953125 27.9296875 C-0.1924826 27.13345978 -0.18965271 26.33723206 -0.18673706 25.51687622 C-0.1755264 22.96943237 -0.15042062 20.42233789 -0.125 17.875 C-0.11497133 16.14974465 -0.10584528 14.42448381 -0.09765625 12.69921875 C-0.07558422 8.46601086 -0.04104867 4.2330647 0 0 Z " fill="#123C30" transform="translate(304,97)"/>
<path d="M0 0 C2.31 0 4.62 0 7 0 C7 16.17 7 32.34 7 49 C4.69 49 2.38 49 0 49 C0 32.83 0 16.66 0 0 Z " fill="#275246" transform="translate(1493,151)"/>
<path d="M0 0 C2.206875 -0.061875 4.41375 -0.12375 6.6875 -0.1875 C8.54955078 -0.23970703 8.54955078 -0.23970703 10.44921875 -0.29296875 C14.21666932 0.01787701 16.02794917 0.7227143 19 3 C20.60243984 6.20487969 20.63159396 9.53309837 20 13 C16.89748885 16.18415618 14.41933999 17.95439139 9.9609375 18.09765625 C6.640625 18.06510417 3.3203125 18.03255208 0 18 C0 12.06 0 6.12 0 0 Z " fill="#F2F5F4" transform="translate(465,157)"/>
<path d="M0 0 C13.3107415 -0.4033558 13.3107415 -0.4033558 18 3 C19.56941198 4.56941198 19.2449847 6.14134994 19.3125 8.3125 C19.34988281 9.09238281 19.38726563 9.87226563 19.42578125 10.67578125 C18.81570612 14.00600788 17.76681844 15.06629646 15 17 C12.2317375 17.29449601 9.98597978 17.38343363 7.25 17.25 C4.8575 17.1675 2.465 17.085 0 17 C0 11.39 0 5.78 0 0 Z " fill="#FDFDFD" transform="translate(523,157)"/>
<path d="M0 0 C1.98 0 3.96 0 6 0 C6 15.84 6 31.68 6 48 C4.02 48 2.04 48 0 48 C0 32.16 0 16.32 0 0 Z " fill="#0F4032" transform="translate(1586,152)"/>
<path d="M0 0 C1.98 0 3.96 0 6 0 C6 15.84 6 31.68 6 48 C4.02 48 2.04 48 0 48 C0 32.16 0 16.32 0 0 Z " fill="#104032" transform="translate(622,152)"/>
<path d="M0 0 C1.98 0 3.96 0 6 0 C6 15.84 6 31.68 6 48 C4.02 48 2.04 48 0 48 C0 32.16 0 16.32 0 0 Z " fill="#104032" transform="translate(499,152)"/>
<path d="M0 0 C2.19730187 2.19730187 2.71894434 3.59714109 3.7265625 6.5 C4.0359375 7.386875 4.3453125 8.27375 4.6640625 9.1875 C4.98117187 10.115625 5.29828125 11.04375 5.625 12 C5.94984375 12.928125 6.2746875 13.85625 6.609375 14.8125 C9 21.72321429 9 21.72321429 9 24 C3.39 24 -2.22 24 -8 24 C-7.32020672 19.92124031 -6.83062183 17.13865115 -5.37109375 13.4765625 C-4.90219727 12.28740234 -4.90219727 12.28740234 -4.42382812 11.07421875 C-3.9355957 9.86185547 -3.9355957 9.86185547 -3.4375 8.625 C-2.9434668 7.37783203 -2.9434668 7.37783203 -2.43945312 6.10546875 C-1.63155238 4.06815382 -0.8182989 2.03315558 0 0 Z " fill="#F2F5F4" transform="translate(1198,160)"/>
<path d="M0 0 C2.19730187 2.19730187 2.71894434 3.59714109 3.7265625 6.5 C4.0359375 7.386875 4.3453125 8.27375 4.6640625 9.1875 C4.98117187 10.115625 5.29828125 11.04375 5.625 12 C5.94984375 12.928125 6.2746875 13.85625 6.609375 14.8125 C9 21.72321429 9 21.72321429 9 24 C3.39 24 -2.22 24 -8 24 C-7.32020672 19.92124031 -6.83062183 17.13865115 -5.37109375 13.4765625 C-4.90219727 12.28740234 -4.90219727 12.28740234 -4.42382812 11.07421875 C-3.9355957 9.86185547 -3.9355957 9.86185547 -3.4375 8.625 C-2.9434668 7.37783203 -2.9434668 7.37783203 -2.43945312 6.10546875 C-1.63155238 4.06815382 -0.8182989 2.03315558 0 0 Z " fill="#F2F5F4" transform="translate(881,160)"/>
<path d="M0 0 C9.9978099 -0.48182216 9.9978099 -0.48182216 14.25 1.5625 C16 4 16 4 15.9375 7.625 C15 11 15 11 13 13 C8.65604929 13.27917421 4.35649033 13.08542138 0 13 C0 8.71 0 4.42 0 0 Z " fill="#F3F5F5" transform="translate(1029,59)"/>
<path d="M0 0 C2.71609918 2.71609918 3.46920222 5.86595045 4.625 9.4375 C4.85445312 10.11876953 5.08390625 10.80003906 5.3203125 11.50195312 C6.29042613 14.44982818 7 16.87666842 7 20 C2.71 20 -1.58 20 -6 20 C-4.63125844 13.04223041 -2.5466871 6.61396893 0 0 Z " fill="#E7ECEB" transform="translate(1449,64)"/>
<path d="M0 0 C2.80863551 1.40431775 3.00033174 3.37463659 3.953125 6.22460938 C4.17484375 6.91361328 4.3965625 7.60261719 4.625 8.3125 C4.85445312 8.98990234 5.08390625 9.66730469 5.3203125 10.36523438 C6.44230901 13.78131304 7 16.3665148 7 20 C2.71 20 -1.58 20 -6 20 C-4.20532905 13.24861881 -2.29690099 6.59748156 0 0 Z " fill="#E7ECEA" transform="translate(1165,64)"/>
<path d="M0 0 C13.86 0 27.72 0 42 0 C42 5.61 42 11.22 42 17 C40 13 40 13 40 2 C27.13 2 14.26 2 1 2 C1 6.95 1 11.9 1 17 C0.67 17 0.34 17 0 17 C0 11.39 0 5.78 0 0 Z " fill="#18342C" transform="translate(155,166)"/>
<path d="M0 0 C0.66 0.33 1.32 0.66 2 1 C2.0493651 5.94790177 2.08570269 10.89566083 2.10986328 15.84375 C2.11993317 17.52769466 2.13358988 19.21162179 2.15087891 20.89550781 C2.17508426 23.31319501 2.18647296 25.73065143 2.1953125 28.1484375 C2.20563507 28.9036972 2.21595764 29.65895691 2.22659302 30.43710327 C2.22699318 32.2929398 2.12222716 34.1481928 2 36 C0 38 0 38 -3.625 38.125 C-4.73875 38.08375 -5.8525 38.0425 -7 38 C-7.33 37.34 -7.66 36.68 -8 36 C-5.69 36 -3.38 36 -1 36 C-1.00523682 34.94498291 -1.01047363 33.88996582 -1.01586914 32.80297852 C-1.03391901 28.9024337 -1.04543195 25.0018926 -1.05493164 21.10131836 C-1.0599719 19.41055684 -1.06680405 17.71979971 -1.07543945 16.02905273 C-1.08751857 13.60399293 -1.09323123 11.17899056 -1.09765625 8.75390625 C-1.10281754 7.99348526 -1.10797882 7.23306427 -1.11329651 6.44960022 C-1.11349238 4.6326743 -1.06197277 2.81586873 -1 1 C-0.67 0.67 -0.34 0.34 0 0 Z " fill="#1B4037" transform="translate(312,188)"/>
<path d="M0 0 C0 13.2 0 26.4 0 40 C-3.30063263 35.59915649 -3.40392671 33.35337699 -3.29296875 28.171875 C-3.28872391 27.42286926 -3.28447906 26.67386353 -3.28010559 25.90216064 C-3.26335746 23.51773625 -3.22571397 21.13416747 -3.1875 18.75 C-3.17244809 17.13022057 -3.15876057 15.51042785 -3.14648438 13.890625 C-3.1134668 9.92675534 -3.06171246 5.96352257 -3 2 C-5.97 1.505 -5.97 1.505 -9 1 C-9.33 1.66 -9.66 2.32 -10 3 C-10.66 2.34 -11.32 1.68 -12 1 C-10 0 -10 0 0 0 Z " fill="#4A6960" transform="translate(199,96)"/>
<path d="M0 0 C0.33 0 0.66 0 1 0 C1 3.3 1 6.6 1 10 C-11.21 10 -23.42 10 -36 10 C-36 9.34 -36 8.68 -36 8 C-24.45 8 -12.9 8 -1 8 C-1 5.69 -1 3.38 -1 1 C-0.67 0.67 -0.34 0.34 0 0 Z " fill="#1B3B31" transform="translate(258,49)"/>
<path d="M0 0 C4.95 0 9.9 0 15 0 C11.95966506 2.2802512 9.75349671 3.71293873 6.375 5.1875 C5.59898437 5.53167969 4.82296875 5.87585938 4.0234375 6.23046875 C2 7 2 7 0 7 C0 4.69 0 2.38 0 0 Z " fill="#EFF1F0" transform="translate(247,19)"/>
<path d="M0 0 C4.55555556 0.55555556 4.55555556 0.55555556 6 2 C6.1875 4.4375 6.1875 4.4375 6 7 C5.34 7.66 4.68 8.32 4 9 C1.375 8.625 1.375 8.625 -1 8 C-1.625 5.125 -1.625 5.125 -2 2 C-1.34 1.34 -0.68 0.68 0 0 Z " fill="#1C4A3D" transform="translate(1425,172)"/>
<path d="M0 0 C4.55555556 0.55555556 4.55555556 0.55555556 6 2 C6.1875 4.4375 6.1875 4.4375 6 7 C5.34 7.66 4.68 8.32 4 9 C1.375 8.625 1.375 8.625 -1 8 C-1.625 5.125 -1.625 5.125 -2 2 C-1.34 1.34 -0.68 0.68 0 0 Z " fill="#1C4A3D" transform="translate(1082,172)"/>
<path d="M0 0 C4.55555556 0.55555556 4.55555556 0.55555556 6 2 C6.1875 4.4375 6.1875 4.4375 6 7 C5.34 7.66 4.68 8.32 4 9 C1.375 8.625 1.375 8.625 -1 8 C-1.625 5.125 -1.625 5.125 -2 2 C-1.34 1.34 -0.68 0.68 0 0 Z " fill="#1C4A3D" transform="translate(783,172)"/>
<path d="M0 0 C4.95 0 9.9 0 15 0 C15 1.98 15 3.96 15 6 C9.45949887 5.43174347 4.96284034 3.37113483 0 1 C0 0.67 0 0.34 0 0 Z " fill="#ECEFEE" transform="translate(218,19)"/>
<path d="M0 0 C1.3303125 0.00773438 1.3303125 0.00773438 2.6875 0.015625 C3.574375 0.01046875 4.46125 0.0053125 5.375 0 C7.6875 0.265625 7.6875 0.265625 9.6875 2.265625 C9.8125 4.890625 9.8125 4.890625 9.6875 7.265625 C9.28660156 6.77835938 8.88570312 6.29109375 8.47265625 5.7890625 C6.22442586 3.87044138 5.04388572 3.86177275 2.125 3.890625 C1.33996094 3.88289062 0.55492187 3.87515625 -0.25390625 3.8671875 C-0.93324219 3.99867187 -1.61257812 4.13015625 -2.3125 4.265625 C-2.9725 5.255625 -3.6325 6.245625 -4.3125 7.265625 C-4.4375 4.890625 -4.4375 4.890625 -4.3125 2.265625 C-2.3125 0.265625 -2.3125 0.265625 0 0 Z " fill="#345249" transform="translate(237.3125,2.734375)"/>
<path d="M0 0 C1.134375 0.020625 2.26875 0.04125 3.4375 0.0625 C3.4375 1.0525 3.4375 2.0425 3.4375 3.0625 C2.65375 3.02125 1.87 2.98 1.0625 2.9375 C-1.72366119 2.77521266 -1.72366119 2.77521266 -3.5625 5.0625 C-4.125 3.125 -4.125 3.125 -4.5625 1.0625 C-3.5625 0.0625 -3.5625 0.0625 0 0 Z " fill="#1E3D34" transform="translate(294.5625,93.9375)"/>
<path d="M0 0 C1.22589844 0.01353516 1.22589844 0.01353516 2.4765625 0.02734375 C3.41628906 0.04474609 3.41628906 0.04474609 4.375 0.0625 C3.715 1.3825 3.055 2.7025 2.375 4.0625 C2.375 3.4025 2.375 2.7425 2.375 2.0625 C-0.595 1.5675 -0.595 1.5675 -3.625 1.0625 C-3.955 1.7225 -4.285 2.3825 -4.625 3.0625 C-5.285 2.4025 -5.945 1.7425 -6.625 1.0625 C-4.21954362 -0.14022819 -2.67503047 -0.03821472 0 0 Z " fill="#3E5952" transform="translate(193.625,95.9375)"/>
<path d="M0 0 C0.66 0.33 1.32 0.66 2 1 C2 4 2 4 0.625 5.6875 C-1 7 -1 7 -3 7 C-1.125 1.125 -1.125 1.125 0 0 Z " fill="#2C4940" transform="translate(162,117)"/>
</svg>
