<?xml version="1.0" encoding="UTF-8"?>
<svg version="1.1" xmlns="http://www.w3.org/2000/svg" width="1024" height="1024">
<path d="M0 0 C337.92 0 675.84 0 1024 0 C1024 337.92 1024 675.84 1024 1024 C686.08 1024 348.16 1024 0 1024 C0 686.08 0 348.16 0 0 Z " fill="#FBF9F5" transform="translate(0,0)"/>
<path d="M0 0 C19.14 0 38.28 0 58 0 C58.25 14 58.25 14 58.29785156 18.3671875 C58.41557864 28.39673421 58.41557864 28.39673421 63 37 C68.53962701 41.87777588 73.72184949 41.57807265 80.88037109 41.54589844 C82.07118286 41.55623611 83.26199463 41.56657379 84.4888916 41.57722473 C87.74065276 41.60160371 90.99187858 41.60849117 94.2437129 41.60750484 C97.64706861 41.61064064 101.05025441 41.63627262 104.45352173 41.65948486 C110.89194255 41.69999764 117.33026222 41.72037437 123.76879084 41.73345876 C131.82121748 41.75090436 139.87346653 41.79533138 147.92578125 41.83984375 C162.28384933 41.91909487 176.64167055 41.95763255 191 42 C191 61.14 191 80.28 191 100 C173.60542838 100.06786598 156.21097074 100.12306822 138.81630325 100.15543652 C130.73865246 100.17086885 122.6610901 100.19188839 114.58349609 100.22631836 C107.53850038 100.25633252 100.49356876 100.27560137 93.44851089 100.28226548 C89.7223299 100.28615751 85.99633219 100.29522735 82.27021027 100.31719017 C78.0983537 100.34157808 73.92681054 100.34196234 69.75488281 100.34057617 C68.53567642 100.351362 67.31647003 100.36214783 66.06031799 100.3732605 C48.96320346 100.31207691 32.65568248 94.42155871 20.17163086 82.55615234 C6.83558882 68.98356608 -0.20339219 52.78989402 -0.09765625 33.7890625 C-0.09664917 32.93014404 -0.09564209 32.07122559 -0.09460449 31.1862793 C-0.08940002 27.99917248 -0.07543887 24.8120848 -0.0625 21.625 C-0.041875 14.48875 -0.02125 7.3525 0 0 Z " fill="#08422F" transform="translate(86,576)"/>
<path d="M0 0 C32 0 32 0 40.44921875 8.11328125 C42.39080811 10.9317627 42.39080811 10.9317627 43.65527344 13.46679688 C44.15023315 14.4193335 44.64519287 15.37187012 45.15515137 16.35327148 C45.91366394 17.8180896 45.91366394 17.8180896 46.6875 19.3125 C47.83010422 21.29835911 48.98565883 23.27681694 50.15332031 25.24804688 C52.58101838 29.36213938 54.95407586 33.50157553 57.30029297 37.66259766 C62.75608959 47.18272191 69.04729649 56.14301712 75.2862854 65.16000366 C78.40743494 69.67392502 81.49912165 74.20726011 84.578125 78.75 C85.11514542 79.53034103 85.65216583 80.31068207 86.20545959 81.1146698 C86.9376194 82.19486137 86.9376194 82.19486137 87.68457031 83.296875 C88.11006165 83.91916992 88.53555298 84.54146484 88.97393799 85.18261719 C90.06156761 87.10904985 90.56593593 88.83929901 91 91 C91.66 91 92.32 91 93 91 C93 60.97 93 30.94 93 0 C103.56 0 114.12 0 125 0 C125 47.19 125 94.38 125 143 C113.78 143 102.56 143 91 143 C83.17259142 135.03405321 83.17259142 135.03405321 81.328125 130.640625 C77.42062941 122.35757581 72.09080341 115.04661707 66.89138794 107.53353882 C64.16190197 103.57514131 61.47801974 99.5862679 58.79296875 95.59765625 C58.286483 94.84695358 57.77999725 94.09625092 57.25816345 93.32279968 C53.7409673 88.10868821 50.24577462 82.8804426 46.76293945 77.64331055 C45.0502559 75.07535253 43.32453284 72.51672261 41.59375 69.9609375 C41.078125 69.19652344 40.5625 68.43210937 40.03125 67.64453125 C38.98252768 66.09017495 37.93026565 64.53820267 36.875 62.98828125 C36.3696875 62.23675781 35.864375 61.48523438 35.34375 60.7109375 C34.89193359 60.04368652 34.44011719 59.37643555 33.97460938 58.68896484 C33 57 33 57 33 55 C32.34 55 31.68 55 31 55 C31 84.04 31 113.08 31 143 C20.77 143 10.54 143 0 143 C0 95.81 0 48.62 0 0 Z " fill="#08412E" transform="translate(768,334)"/>
<path d="M0 0 C35.64 0 71.28 0 108 0 C108 26.13047231 108 26.13047231 99.48828125 35.046875 C95.68396794 39.2349148 92.61693665 43.78927162 89.5 48.5 C84.99652457 55.17673434 80.31906297 61.67496283 75.44702148 68.08642578 C71.36774018 73.46783351 67.45984568 78.95604241 63.58325195 84.48461914 C59.80315016 89.87267006 55.97875131 95.22687705 52.125 100.5625 C51.60172119 101.28808105 51.07844238 102.01366211 50.53930664 102.76123047 C47.07675478 107.54907916 43.5470137 112.2706484 40 117 C74.155 117.495 74.155 117.495 109 118 C109 126.91 109 135.82 109 145 C72.04 145 35.08 145 -3 145 C-3 120.11265586 -3 120.11265586 2.71850586 113.40161133 C3.15042236 112.9867749 3.58233887 112.57193848 4.02734375 112.14453125 C7.42067455 108.67507162 10.07641411 104.80791767 12.8125 100.8125 C13.82889754 99.35809327 14.84715146 97.90498222 15.8671875 96.453125 C16.38120117 95.72029297 16.89521484 94.98746094 17.42480469 94.23242188 C20.06673405 90.48818721 22.75083732 86.77470804 25.4375 83.0625 C25.97810059 82.31508545 26.51870117 81.5676709 27.07568359 80.79760742 C29.25276795 77.78947853 31.43174145 74.78273144 33.61328125 71.77783203 C41.64502163 60.71464706 49.54722912 49.56848283 57.35351562 38.3449707 C59.55005998 35.21658866 61.7782113 32.11050419 64 29 C32.32 28.505 32.32 28.505 0 28 C0 18.76 0 9.52 0 0 Z " fill="#09432F" transform="translate(406,333)"/>
<path d="M0 0 C29.7 0 59.4 0 90 0 C90 9.24 90 18.48 90 28 C70.86 28 51.72 28 32 28 C32 38.23 32 48.46 32 59 C48.17 59 64.34 59 81 59 C81 67.91 81 76.82 81 86 C64.83 86 48.66 86 32 86 C32 96.56 32 107.12 32 118 C51.14 118 70.28 118 90 118 C90 126.58 90 135.16 90 144 C60.3 144 30.6 144 0 144 C0 96.48 0 48.96 0 0 Z " fill="#09412E" transform="translate(653,333)"/>
<path d="M0 0 C29.37 0 58.74 0 89 0 C89 9.24 89 18.48 89 28 C70.19 28 51.38 28 32 28 C32 38.23 32 48.46 32 59 C48.5 59 65 59 82 59 C82 67.91 82 76.82 82 86 C65.5 86 49 86 32 86 C32 96.56 32 107.12 32 118 C51.14 118 70.28 118 90 118 C90 126.58 90 135.16 90 144 C45.45 144.495 45.45 144.495 0 145 C0 97.15 0 49.3 0 0 Z " fill="#09412E" transform="translate(538,333)"/>
<path d="M0 0 C30.19861601 -0.04016367 30.19861601 -0.04016367 45.06326199 -0.05025387 C53.11810835 -0.0558057 61.17294441 -0.06286544 69.2277832 -0.07543945 C75.60283018 -0.08538651 81.97786941 -0.09185348 88.35292393 -0.09408849 C91.73048014 -0.09539557 95.10801416 -0.09848119 98.48556328 -0.10573006 C102.25007343 -0.11293613 106.01453685 -0.11399113 109.77905273 -0.11352539 C110.90689682 -0.11712067 112.03474091 -0.12071594 113.19676208 -0.12442017 C114.21624939 -0.1230455 115.23573669 -0.12167084 116.28611755 -0.12025452 C117.17749137 -0.12117631 118.06886518 -0.1220981 118.98725033 -0.12304783 C121 0 121 0 122 1 C122.09391296 2.90243762 122.11743658 4.80838459 122.11352539 6.71313477 C122.11341209 8.54492027 122.11341209 8.54492027 122.11329651 10.41371155 C122.10818911 11.75627686 122.10297311 13.09884175 122.09765625 14.44140625 C122.09579199 15.80761158 122.09436813 17.17381757 122.09336853 18.5400238 C122.08954394 22.14201695 122.07971417 25.74397 122.06866455 29.34594727 C122.05844916 33.01903745 122.05387064 36.69213409 122.04882812 40.36523438 C122.03809184 47.57684123 122.02101614 54.788415 122 62 C121.16863525 61.99363525 120.33727051 61.98727051 119.48071289 61.98071289 C116.35438412 61.97353293 113.23023119 61.9979117 110.10424805 62.04272461 C108.10279069 62.06210976 106.10109035 62.04606631 104.09960938 62.02929688 C95.06457944 62.18860471 90.47620347 63.77635392 84 70 C71.20039327 77.27363868 56.92632762 79.41309419 42.67431641 75.56201172 C34.32470998 73.01754028 27.20925487 69.20925487 21 63 C14.07 62.67 7.14 62.34 0 62 C0 41.54 0 21.08 0 0 Z " fill="#08422E" transform="translate(155,471)"/>
<path d="M0 0 C0.06967257 8.3540203 0.12289843 16.70791812 0.15543652 25.06215763 C0.17105735 28.94185246 0.19222949 32.82134773 0.22631836 36.70092773 C0.25904056 40.44864792 0.27687994 44.19617678 0.28463173 47.94402885 C0.29015227 49.37010139 0.30093244 50.79616407 0.31719017 52.22215462 C0.39837312 59.64145528 0.39744595 65.37169255 -3 72 C-3.48967745 75.07552351 -3.48967745 75.07552351 -3.51171875 78.15234375 C-3.54716797 79.25771484 -3.58261719 80.36308594 -3.61914062 81.50195312 C-3.64169922 82.63568359 -3.66425781 83.76941406 -3.6875 84.9375 C-3.72166016 86.09830078 -3.75582031 87.25910156 -3.79101562 88.45507812 C-3.87306285 91.30328882 -3.94235536 94.15120839 -4 97 C-3.01 97.495 -3.01 97.495 -2 98 C-22.13 98 -42.26 98 -63 98 C-62.9175 91.3175 -62.835 84.635 -62.75 77.75 C-62.73420898 75.66655273 -62.71841797 73.58310547 -62.70214844 71.43652344 C-62.56223399 61.6631082 -62.08862224 53.05751442 -58 44 C-57.29617187 42.29457031 -57.29617187 42.29457031 -56.578125 40.5546875 C-53.1432939 33.62441063 -49.12883456 27.78508307 -44 22 C-43.46890625 21.37480469 -42.9378125 20.74960937 -42.390625 20.10546875 C-32.65255636 9.42733903 -14.78279346 0 0 0 Z " fill="#09432F" transform="translate(148,472)"/>
<path d="M0 0 C1.68609375 -0.02900391 1.68609375 -0.02900391 3.40625 -0.05859375 C7.09999819 0.53371183 8.21599035 1.54478024 10.5 4.4375 C10.995 5.4275 10.995 5.4275 11.5 6.4375 C12.59208015 6.43963753 12.59208015 6.43963753 13.70622253 6.44181824 C20.57738544 6.45966959 27.44803839 6.50134612 34.31887341 6.56959057 C37.85109587 6.60383916 41.38288686 6.62896704 44.9152832 6.63305664 C48.97919838 6.63816532 53.04182261 6.68329176 57.10546875 6.73046875 C58.3702153 6.7265361 59.63496185 6.72260345 60.93803406 6.71855164 C70.70812738 6.88107475 70.70812738 6.88107475 73.80200195 9.79418945 C75.90448505 13.06717069 76.21628399 14.6173187 75.5 18.4375 C72.5077178 23.27003575 69.19396203 24.59066709 63.9375 26.0625 C55.51686528 28.63764759 47.39508597 31.78367916 39.25 35.125 C38.0839624 35.6008252 36.9179248 36.07665039 35.71655273 36.56689453 C27.03398595 39.57562369 27.03398595 39.57562369 19.5 44.4375 C19.21602148 47.24573199 19.05153335 50.05396635 18.87890625 52.87109375 C18.5 55.4375 18.5 55.4375 16.5 57.4375 C13.94249547 57.6370697 11.49561859 57.71736826 8.9375 57.703125 C7.81686157 57.70599518 7.81686157 57.70599518 6.67358398 57.70892334 C5.09325829 57.71028498 3.51292142 57.70659 1.93261719 57.69824219 C-0.49048922 57.687542 -2.91285423 57.69813779 -5.3359375 57.7109375 C-6.86979331 57.7096159 -8.40364865 57.7070535 -9.9375 57.703125 C-10.66461182 57.70717346 -11.39172363 57.71122192 -12.14086914 57.71539307 C-17.27007639 57.66742361 -17.27007639 57.66742361 -19.5 55.4375 C-19.9140625 52.6171875 -19.9140625 52.6171875 -20.125 49.3125 C-20.19976562 48.21679688 -20.27453125 47.12109375 -20.3515625 45.9921875 C-20.40054688 45.14914062 -20.44953125 44.30609375 -20.5 43.4375 C-27.27677825 40.39391656 -34.08981634 37.44297139 -40.9375 34.5625 C-42.50226074 33.90278198 -42.50226074 33.90278198 -44.09863281 33.22973633 C-51.2738461 30.24810727 -58.48297664 27.60433798 -65.96655273 25.50244141 C-70.59309 24.11222015 -72.95678419 22.56942493 -75.5 18.4375 C-76.21710398 14.61294545 -75.89909016 13.06198572 -73.80200195 9.78051758 C-69.38991666 5.62698751 -62.73917877 6.83426613 -57.10546875 6.94921875 C-55.15173088 6.95983086 -55.15173088 6.95983086 -53.15852356 6.97065735 C-49.70736116 6.98968487 -46.25726261 7.03874561 -42.80651855 7.09417725 C-39.28066396 7.14546351 -35.75463627 7.16819117 -32.22851562 7.19335938 C-25.31857531 7.24687102 -18.40933883 7.33213028 -11.5 7.4375 C-11.36916016 6.81302979 -11.23832031 6.18855957 -11.10351562 5.54516602 C-10.5 3.4375 -10.5 3.4375 -8.84375 1.71484375 C-5.77271737 0.04113096 -3.48510933 0.00399669 0 0 Z " fill="#083E2B" transform="translate(212.5,324.5625)"/>
<path d="M0 0 C21.12 0 42.24 0 64 0 C64.495 4.95 64.495 4.95 65 10 C67.14779981 12.14779981 72.42842452 11.40102482 75.453125 11.51757812 C79.11943226 11.7065998 80.87465937 11.91643958 84 14 C84 20.6 84 27.2 84 34 C49.35 34 14.7 34 -21 34 C-21 27.4 -21 20.8 -21 14 C-16.77342235 11.18228157 -12.55159827 11.57913421 -7.62890625 11.43359375 C-5.74870715 11.35453602 -3.87280927 11.18434812 -2 11 C-0.36620684 8.02050148 -0.36620684 8.02050148 0 0 Z " fill="#08402D" transform="translate(180,430)"/>
<path d="M0 0 C8.58 0 17.16 0 26 0 C26 5.94 26 11.88 26 18 C31.94 18.33 37.88 18.66 44 19 C44.495 20.98 44.495 20.98 45 23 C46.65 23.33 48.3 23.66 50 24 C50.02685412 26.31243792 50.04632841 28.6249627 50.0625 30.9375 C50.07410156 32.22527344 50.08570313 33.51304687 50.09765625 34.83984375 C50 38 50 38 49 39 C46.76612794 39.0996392 44.52906141 39.12799795 42.29296875 39.12939453 C41.59217194 39.13114685 40.89137512 39.13289917 40.16934204 39.13470459 C37.84203651 39.13912266 35.51480636 39.13618529 33.1875 39.1328125 C31.57706691 39.13348555 29.96663391 39.13445559 28.35620117 39.13571167 C24.97671545 39.13718858 21.5972561 39.13503431 18.21777344 39.13037109 C13.87623495 39.1246738 9.53475827 39.12795285 5.19322205 39.13394356 C1.86649099 39.13754936 -1.4602253 39.1364105 -4.78695679 39.13381577 C-6.38821418 39.13314655 -7.9894729 39.13397474 -9.59072876 39.13629532 C-11.82484511 39.13882216 -14.05886 39.13498085 -16.29296875 39.12939453 C-18.20372192 39.12820114 -18.20372192 39.12820114 -20.15307617 39.12698364 C-23 39 -23 39 -24 38 C-24.07271741 35.64686445 -24.08370868 33.29166332 -24.0625 30.9375 C-24.05347656 29.64714844 -24.04445312 28.35679687 -24.03515625 27.02734375 C-24.02355469 26.02832031 -24.01195312 25.02929688 -24 24 C-22.35 23.67 -20.7 23.34 -19 23 C-19 21.68 -19 20.36 -19 19 C-13.06 19 -7.12 19 -1 19 C-0.67 12.73 -0.34 6.46 0 0 Z " fill="#08422E" transform="translate(199,385)"/>
<path d="M0 0 C5.92395916 3.43473854 9.93250956 8.89088418 11.9609375 15.39453125 C13.557949 22.68089623 12.11189586 28.05590191 8.3984375 34.390625 C3.65753915 40.15658245 -1.58347556 43.35669172 -8.9140625 44.390625 C-15.81143521 44.75962025 -21.49994941 43.14761442 -26.7109375 38.515625 C-32.76184229 31.91463795 -34.06860871 26.50885162 -33.91796875 17.62109375 C-33.34357082 11.75656182 -31.00992405 8.16113667 -27.4140625 3.640625 C-18.74051902 -3.29820978 -10.12461998 -4.42368012 0 0 Z " fill="#0B3C2A" transform="translate(756.6015625,509.609375)"/>
<path d="M0 0 C1.216875 0.02191406 2.43375 0.04382813 3.6875 0.06640625 C4.904375 0.06511719 6.12125 0.06382812 7.375 0.0625 C11.3195397 0.73697908 12.27471135 1.49920327 14.6875 4.62890625 C15.19543457 7.58862305 15.19543457 7.58862305 15.20507812 11.078125 C15.21768677 12.38628174 15.23029541 13.69443848 15.24328613 15.04223633 C15.23612633 16.46696512 15.22792234 17.89168899 15.21875 19.31640625 C15.22144549 20.78084572 15.22532838 22.24528344 15.23034668 23.7097168 C15.23623919 26.77637805 15.22768746 29.84257274 15.20898438 32.90917969 C15.1861941 36.83704261 15.19931863 40.76381231 15.22327423 44.69163513 C15.23773941 47.71488662 15.23312311 50.73787958 15.22276306 53.76113892 C15.22009772 55.20919932 15.22335882 56.65728331 15.23268127 58.10531616 C15.24285659 60.13010195 15.22459332 62.15497019 15.20507812 64.1796875 C15.20030457 65.90699097 15.20030457 65.90699097 15.19543457 67.66918945 C14.57677493 71.2740973 13.58366839 72.45503234 10.6875 74.62890625 C7.375 75.1953125 7.375 75.1953125 3.6875 75.19140625 C2.470625 75.21332031 1.25375 75.23523438 0 75.2578125 C-3.3125 74.62890625 -3.3125 74.62890625 -5.48718262 72.48730469 C-7.6468748 69.10528421 -7.81866221 67.25021171 -7.83007812 63.265625 C-7.84268677 62.00081299 -7.85529541 60.73600098 -7.86828613 59.43286133 C-7.86112607 58.06070394 -7.85292201 56.68855166 -7.84375 55.31640625 C-7.84644673 53.90063206 -7.85033066 52.48485967 -7.85534668 51.0690918 C-7.86123336 48.10675362 -7.85270642 45.144899 -7.83398438 42.18261719 C-7.81119431 38.39275115 -7.82432199 34.60401823 -7.84827423 30.81419373 C-7.86275529 27.89212567 -7.85811587 24.97032456 -7.84776306 22.04824829 C-7.8451021 20.65125391 -7.84834335 19.25423499 -7.85768127 17.85726929 C-7.86788279 15.90224699 -7.84956662 13.94713928 -7.83007812 11.9921875 C-7.82689575 10.88141846 -7.82371338 9.77064941 -7.82043457 8.6262207 C-6.97870853 3.6592077 -4.98364957 0.94618819 0 0 Z " fill="#0A402D" transform="translate(290.3125,466.37109375)"/>
<path d="M0 0 C1.010625 -0.01289062 2.02125 -0.02578125 3.0625 -0.0390625 C7.03731189 0.8594987 8.42612898 2.50578653 11 5.625 C11.63491821 8.62231445 11.63491821 8.62231445 11.64697266 11.98828125 C11.66273346 13.25309326 11.67849426 14.51790527 11.69473267 15.82104492 C11.68578256 17.19320551 11.67552749 18.56535812 11.6640625 19.9375 C11.66743342 21.35327572 11.67228834 22.76904861 11.67855835 24.18481445 C11.68591695 27.14725385 11.67525858 30.10893774 11.65185547 33.07128906 C11.62336623 36.86137526 11.63977594 40.64969123 11.66971779 44.43971252 C11.68781941 47.36182908 11.68202008 50.28352857 11.66907883 53.20565796 C11.66575262 54.60265311 11.66980432 55.99968661 11.68147659 57.39663696 C11.69422848 59.35165647 11.67133275 61.30680943 11.64697266 63.26171875 C11.64299469 64.37248779 11.63901672 65.48325684 11.63491821 66.62768555 C10.79506868 70.59243738 9.10552146 72.10618979 6 74.625 C3.0625 75.2890625 3.0625 75.2890625 0 75.25 C-1.010625 75.26289062 -2.02125 75.27578125 -3.0625 75.2890625 C-7.03731189 74.3905013 -8.42612898 72.74421347 -11 69.625 C-11.63491821 66.62768555 -11.63491821 66.62768555 -11.64697266 63.26171875 C-11.67061386 61.36450073 -11.67061386 61.36450073 -11.69473267 59.42895508 C-11.68578256 58.05679449 -11.67552749 56.68464188 -11.6640625 55.3125 C-11.66743342 53.89672428 -11.67228834 52.48095139 -11.67855835 51.06518555 C-11.68591695 48.10274615 -11.67525858 45.14106226 -11.65185547 42.17871094 C-11.62336623 38.38862474 -11.63977594 34.60030877 -11.66971779 30.81028748 C-11.68781941 27.88817092 -11.68202008 24.96647143 -11.66907883 22.04434204 C-11.66575262 20.64734689 -11.66980432 19.25031339 -11.68147659 17.85336304 C-11.69422848 15.89834353 -11.67133275 13.94319057 -11.64697266 11.98828125 C-11.64299469 10.87751221 -11.63901672 9.76674316 -11.63491821 8.62231445 C-10.30490488 2.34360309 -6.10727879 -0.07789896 0 0 Z " fill="#0A402D" transform="translate(294,608.375)"/>
<path d="M0 0 C11 0 11 0 13.80932617 2.38671875 C14.46392822 3.47597656 15.11853027 4.56523438 15.79296875 5.6875 C16.15473709 6.26459717 16.51650543 6.84169434 16.88923645 7.4362793 C18.02722789 9.27033067 19.10659109 11.13185762 20.1875 13 C20.95273987 14.25483143 21.72159032 15.50746854 22.49414062 16.7578125 C24.38020765 19.81279539 26.18321393 22.89889741 28 26 C28.33 17.42 28.66 8.84 29 0 C32.3 0 35.6 0 39 0 C39 14.85 39 29.7 39 45 C35.37 45 31.74 45 28 45 C25.31233812 42.20316189 23.93053404 40.37398757 22.1875 37.0625 C21.3276477 35.57374208 20.46696695 34.08546234 19.60546875 32.59765625 C18.31576172 30.32181641 18.31576172 30.32181641 17 28 C15.02 25.03 13.04 22.06 11 19 C10.67 27.58 10.34 36.16 10 45 C6.7 45 3.4 45 0 45 C0 30.15 0 15.3 0 0 Z " fill="#08422E" transform="translate(775,508)"/>
<path d="M0 0 C10 0 10 0 12.37280273 1.84838867 C12.88786377 2.6963501 13.4029248 3.54431152 13.93359375 4.41796875 C14.81241211 5.80532227 14.81241211 5.80532227 15.70898438 7.22070312 C16.27939453 8.19974609 16.84980469 9.17878906 17.4375 10.1875 C18.03498047 11.14720703 18.63246094 12.10691406 19.24804688 13.09570312 C20.86794793 15.7110741 22.44091398 18.34807486 24 21 C24.99 22.65 25.98 24.3 27 26 C27.33 17.42 27.66 8.84 28 0 C31.3 0 34.6 0 38 0 C38 14.85 38 29.7 38 45 C28 45 28 45 25.625 43.15625 C24.820625 41.84140625 24.820625 41.84140625 24 40.5 C23.3709375 39.51386719 22.741875 38.52773438 22.09375 37.51171875 C21.76503906 36.95919434 21.43632813 36.40666992 21.09765625 35.83740234 C19.86224279 33.76940375 18.57537015 31.73878187 17.28125 29.70703125 C14.81115698 25.82889093 12.4109803 21.91784298 10 18 C10 26.91 10 35.82 10 45 C6.7 45 3.4 45 0 45 C0 30.15 0 15.3 0 0 Z " fill="#08402D" transform="translate(579,508)"/>
<path d="M0 0 C10 0 10 0 12.15625 1.625 C12.5996875 2.40875 13.043125 3.1925 13.5 4 C14.03882813 4.89589844 14.57765625 5.79179688 15.1328125 6.71484375 C16.05707031 8.34099609 16.05707031 8.34099609 17 10 C18.31887515 12.13456295 19.65783124 14.25573489 20.99804688 16.37695312 C22.33226412 18.49466816 23.64788665 20.62302404 24.9609375 22.75390625 C26.67360533 25.74782157 26.67360533 25.74782157 28 27 C28 18.09 28 9.18 28 0 C31.3 0 34.6 0 38 0 C38 14.85 38 29.7 38 45 C28 45 28 45 25.42773438 42.86035156 C24.82251953 41.8803418 24.21730469 40.90033203 23.59375 39.890625 C22.5728125 38.29347656 22.5728125 38.29347656 21.53125 36.6640625 C20.8609375 35.53742187 20.190625 34.41078125 19.5 33.25 C18.79875 32.13882813 18.0975 31.02765625 17.375 29.8828125 C14.72745469 25.65692287 12.23097693 21.46195385 10 17 C10 26.24 10 35.48 10 45 C6.7 45 3.4 45 0 45 C0 30.15 0 15.3 0 0 Z " fill="#073A28" transform="translate(421,508)"/>
<path d="M0 0 C20 0 20 0 27 3 C31.2520016 7.58768594 32.35386993 10.56807585 32.28515625 16.68359375 C31.62367419 22.05700281 27.67020109 25.38377245 24 29 C25.06541016 30.35544922 25.06541016 30.35544922 26.15234375 31.73828125 C27.08094601 32.92951849 28.00931953 34.12093408 28.9375 35.3125 C29.64036133 36.20485352 29.64036133 36.20485352 30.35742188 37.11523438 C32.38555959 39.72700884 33.94630801 41.83892403 35 45 C30.87345964 45.5488502 27.10819324 45.76001575 23 45 C19.87056066 42.45733054 17.97839881 39.48408286 16 36 C13.91935289 31.88620757 13.91935289 31.88620757 10 30 C10 34.95 10 39.9 10 45 C6.7 45 3.4 45 0 45 C0 30.15 0 15.3 0 0 Z " fill="#0B3C2A" transform="translate(539,508)"/>
<path d="M0 0 C4.29 0 8.58 0 13 0 C15.14018258 6.08585962 17.27632641 12.17311558 19.40869141 18.26171875 C20.13511276 20.33405099 20.86264859 22.40599291 21.59130859 24.47753906 C22.63670366 27.45015904 23.67812106 30.42414624 24.71875 33.3984375 C25.04685669 34.32868744 25.37496338 35.25893738 25.7130127 36.21737671 C26.01332397 37.07811798 26.31363525 37.93885925 26.62304688 38.82568359 C26.88952026 39.58513275 27.15599365 40.34458191 27.43054199 41.12704468 C28 43 28 43 28 45 C24.7 45 21.4 45 18 45 C17.01 42.03 16.02 39.06 15 36 C9.39 36 3.78 36 -2 36 C-2.99 38.97 -3.98 41.94 -5 45 C-8.3 45 -11.6 45 -15 45 C-12.26823977 35.51072761 -9.0332262 26.20634017 -5.8125 16.875 C-5.24786741 15.23443675 -4.68341284 13.59381223 -4.11914062 11.953125 C-2.74814513 7.96804053 -1.37474301 3.98379316 0 0 Z " fill="#093D2A" transform="translate(835,508)"/>
<path d="M0 0 C1.65322266 0.01740234 1.65322266 0.01740234 3.33984375 0.03515625 C4.44457031 0.04417969 5.54929687 0.05320312 6.6875 0.0625 C7.54214844 0.07410156 8.39679687 0.08570313 9.27734375 0.09765625 C13.18537618 10.56385559 17.01040447 21.05752529 20.71484375 31.59765625 C21.06869141 32.59418213 21.42253906 33.59070801 21.78710938 34.61743164 C22.11259766 35.54934326 22.43808594 36.48125488 22.7734375 37.44140625 C23.06404053 38.26833984 23.35464355 39.09527344 23.65405273 39.94726562 C24.27734375 42.09765625 24.27734375 42.09765625 24.27734375 45.09765625 C20.97734375 45.09765625 17.67734375 45.09765625 14.27734375 45.09765625 C13.28734375 42.45765625 12.29734375 39.81765625 11.27734375 37.09765625 C5.99734375 37.09765625 0.71734375 37.09765625 -4.72265625 37.09765625 C-5.71265625 39.73765625 -6.70265625 42.37765625 -7.72265625 45.09765625 C-11.02265625 45.09765625 -14.32265625 45.09765625 -17.72265625 45.09765625 C-17.04380018 39.88181352 -15.52881356 35.17878555 -13.81640625 30.234375 C-13.53164429 29.40178665 -13.24688232 28.5691983 -12.95349121 27.71138 C-12.35389984 25.9616785 -11.75200981 24.21276321 -11.14794922 22.46459961 C-10.22036092 19.77850948 -9.30106072 17.08968619 -8.3828125 14.40039062 C-7.79866289 12.69905187 -7.21404407 10.99787413 -6.62890625 9.296875 C-6.35284546 8.489655 -6.07678467 7.682435 -5.7923584 6.85075378 C-3.46076826 0.12413086 -3.46076826 0.12413086 0 0 Z " fill="#093C29" transform="translate(641.72265625,507.90234375)"/>
<path d="M0 0 C9.24 0 18.48 0 28 0 C28 2.97 28 5.94 28 9 C22.06 9 16.12 9 10 9 C10 11.97 10 14.94 10 18 C15.61 18 21.22 18 27 18 C27 20.97 27 23.94 27 27 C21.39 27 15.78 27 10 27 C10 29.97 10 32.94 10 36 C15.94 36 21.88 36 28 36 C28 38.97 28 41.94 28 45 C18.76 45 9.52 45 0 45 C0 30.15 0 15.3 0 0 Z " fill="#093A28" transform="translate(503,508)"/>
<path d="M0 0 C3.625 0.375 3.625 0.375 5.81822205 2.08241272 C7.95256125 4.79063644 8.13450738 6.0247962 8.15844727 9.43139648 C8.18220177 10.93832314 8.18220177 10.93832314 8.20643616 12.47569275 C8.20147629 13.55492508 8.19651642 14.63415741 8.19140625 15.74609375 C8.20070412 17.41781395 8.20070412 17.41781395 8.21018982 19.12330627 C8.2172914 21.47941209 8.21410817 23.83556806 8.20141602 26.19165039 C8.18756332 29.79602521 8.22160427 33.39779813 8.25976562 37.00195312 C8.26071693 39.2916673 8.25885739 41.58138473 8.25390625 43.87109375 C8.26716446 44.94830185 8.28042267 46.02550995 8.29408264 47.13536072 C8.20163795 54.56870855 8.20163795 54.56870855 5.32006836 58.59790039 C2.625 60.375 2.625 60.375 -1.125 60.3125 C-2.1975 60.003125 -3.27 59.69375 -4.375 59.375 C-5.65399046 56.81701908 -5.50896991 54.99473143 -5.52026367 52.13085938 C-5.52664352 51.03632446 -5.53302338 49.94178955 -5.53959656 48.81408691 C-5.54070938 47.62762573 -5.5418222 46.44116455 -5.54296875 45.21875 C-5.54629715 44.00554077 -5.54962555 42.79233154 -5.55305481 41.5423584 C-5.55812476 38.97339254 -5.56046311 36.40442008 -5.56030273 33.83544922 C-5.56249085 29.89149212 -5.58065065 25.94781387 -5.59960938 22.00390625 C-5.60254287 19.51302179 -5.60452796 17.022136 -5.60546875 14.53125 C-5.61624702 12.75155823 -5.61624702 12.75155823 -5.62724304 10.93591309 C-5.62416641 9.84137817 -5.62108978 8.74684326 -5.61791992 7.61914062 C-5.61934494 6.65254517 -5.62076996 5.68594971 -5.62223816 4.69006348 C-5.20089598 0.7447425 -3.79026688 0.42114076 0 0 Z " fill="#073A27" transform="translate(316.375,473.625)"/>
<path d="M0 0 C3.625 0.375 3.625 0.375 5.81921387 2.0814209 C7.95749338 4.79730908 8.13029837 6.03209524 8.14257812 9.44726562 C8.15518677 10.45511108 8.16779541 11.46295654 8.18078613 12.50134277 C8.17268921 13.58371216 8.16459229 14.66608154 8.15625 15.78125 C8.1600769 16.89810181 8.16390381 18.01495361 8.16784668 19.16564941 C8.17056756 21.52596946 8.1631942 23.88631957 8.14648438 26.24658203 C8.12507884 29.86168575 8.14628178 33.47480193 8.171875 37.08984375 C8.16923176 39.38281689 8.16410686 41.6757888 8.15625 43.96875 C8.16434692 45.05111938 8.17244385 46.13348877 8.18078613 47.24865723 C8.16817749 48.25650269 8.15556885 49.26434814 8.14257812 50.30273438 C8.13939575 51.18779663 8.13621338 52.07285889 8.13293457 52.98474121 C7.4532598 56.18318191 6.17829622 57.38932391 3.625 59.375 C0 59.75 0 59.75 -3.375 59.375 C-5.96686836 56.78313164 -5.62785316 55.73673372 -5.63378906 52.13085938 C-5.64009338 51.03632446 -5.64639771 49.94178955 -5.65289307 48.81408691 C-5.6488446 47.62762573 -5.64479614 46.44116455 -5.640625 45.21875 C-5.64253845 44.00554077 -5.6444519 42.79233154 -5.64642334 41.5423584 C-5.64778634 38.97338657 -5.64408192 36.40440788 -5.63574219 33.83544922 C-5.6250446 29.89144496 -5.63563394 25.94789625 -5.6484375 22.00390625 C-5.64711593 19.51301982 -5.64455358 17.02213368 -5.640625 14.53125 C-5.64669769 12.75155823 -5.64669769 12.75155823 -5.65289307 10.93591309 C-5.64658875 9.84137817 -5.64028442 8.74684326 -5.63378906 7.61914062 C-5.63219788 6.65254517 -5.63060669 5.68594971 -5.62896729 4.69006348 C-5.19636499 0.74663518 -3.79207141 0.42134127 0 0 Z " fill="#063A27" transform="translate(316.375,615.625)"/>
<path d="M0 0 C2.31 0 4.62 0 7 0 C7 11.88 7 23.76 7 36 C-1 36 -1 36 -3.19335938 33.98046875 C-3.73798828 33.05878906 -4.28261719 32.13710938 -4.84375 31.1875 C-5.44960938 30.19492187 -6.05546875 29.20234375 -6.6796875 28.1796875 C-7.28039062 27.13039063 -7.88109375 26.08109375 -8.5 25 C-9.44746094 23.42605469 -9.44746094 23.42605469 -10.4140625 21.8203125 C-11.96882852 19.22903581 -13.4879171 16.61641311 -15 14 C-15.33 21.26 -15.66 28.52 -16 36 C-18.31 36 -20.62 36 -23 36 C-23 24.45 -23 12.9 -23 1 C-15 1 -15 1 -13.02197266 2.60473633 C-12.5738623 3.33974365 -12.12575195 4.07475098 -11.6640625 4.83203125 C-11.15746094 5.63060547 -10.65085937 6.42917969 -10.12890625 7.25195312 C-9.63261719 8.09693359 -9.13632812 8.94191406 -8.625 9.8125 C-8.10550781 10.64587891 -7.58601562 11.47925781 -7.05078125 12.33789062 C-6.08814207 13.88632186 -5.13708675 15.44205914 -4.20166016 17.00708008 C-3.18076866 18.70020021 -2.09669086 20.35496371 -1 22 C-0.67 14.74 -0.34 7.48 0 0 Z " fill="#40595C" transform="translate(563,588)"/>
<path d="M0 0 C10.89 0 21.78 0 33 0 C33 2.97 33 5.94 33 9 C29.04 9 25.08 9 21 9 C21 20.88 21 32.76 21 45 C17.7 45 14.4 45 11 45 C11 33.12 11 21.24 11 9 C7.37 9 3.74 9 0 9 C0 6.03 0 3.06 0 0 Z " fill="#094632" transform="translate(666,508)"/>
<path d="M0 0 C10.89 0 21.78 0 33 0 C33 2.97 33 5.94 33 9 C29.04 9 25.08 9 21 9 C21 20.88 21 32.76 21 45 C17.7 45 14.4 45 11 45 C11 33.12 11 21.24 11 9 C7.37 9 3.74 9 0 9 C0 6.03 0 3.06 0 0 Z " fill="#083B29" transform="translate(465,508)"/>
<path d="M0 0 C4.5478125 -0.12375 4.5478125 -0.12375 9.1875 -0.25 C10.60712036 -0.30462402 10.60712036 -0.30462402 12.05541992 -0.36035156 C16.21574001 -0.41511005 18.4337676 -0.35090458 22.05078125 1.890625 C25.4890337 5.61137916 25.32840281 8.6115517 25.29296875 13.515625 C24.88537873 16.97198834 23.53723498 18.68663869 21 21 C18.23547967 22.38226016 15.9538637 22.09525387 12.875 22.0625 C9.966875 22.0315625 9.966875 22.0315625 7 22 C7 26.29 7 30.58 7 35 C4.69 35 2.38 35 0 35 C0 23.45 0 11.9 0 0 Z " fill="#455D60" transform="translate(680,589)"/>
<path d="M0 0 C4.33125 -0.061875 4.33125 -0.061875 8.75 -0.125 C10.10496582 -0.15231201 10.10496582 -0.15231201 11.48730469 -0.18017578 C12.20821289 -0.1851709 12.92912109 -0.19016602 13.671875 -0.1953125 C14.4050293 -0.20578613 15.13818359 -0.21625977 15.89355469 -0.22705078 C19.46986797 0.158435 21.48084075 1.36959234 23.75 4.125 C25.35587131 7.81850401 25.84264129 11.07788782 25 15 C23.24392354 18.01784991 21.17063565 20.41468217 18 22 C14.32984725 22.1377685 10.67388652 22.04271961 7 22 C7 26.29 7 30.58 7 35 C4.69 35 2.38 35 0 35 C0 23.45 0 11.9 0 0 Z " fill="#2D4548" transform="translate(711,589)"/>
<path d="M0 0 C2.84625 -0.103125 5.6925 -0.20625 8.625 -0.3125 C9.95265381 -0.38078003 9.95265381 -0.38078003 11.30712891 -0.45043945 C15.49984343 -0.52357368 18.20213361 -0.30837087 21.5234375 2.39453125 C24.44128477 5.46425385 24.93345125 6.1182291 25.25 10.3125 C24.93086619 15.01972364 23.67807772 17.43803926 20.25 20.62890625 C16.14729569 23.12899169 11.68424138 22.16729433 7 22 C7 26.29 7 30.58 7 35 C4.69 35 2.38 35 0 35 C0 23.45 0 11.9 0 0 Z " fill="#395153" transform="translate(401,589)"/>
<path d="M0 0 C2.84625 -0.103125 5.6925 -0.20625 8.625 -0.3125 C9.95265381 -0.38078003 9.95265381 -0.38078003 11.30712891 -0.45043945 C15.49984343 -0.52357368 18.20213361 -0.30837087 21.5234375 2.39453125 C24.40156059 5.42246201 24.91624934 6.12899311 25.3125 10.25 C24.94328153 14.68062166 23.83161153 16.61779734 21 20 C17.85745993 22.01149655 15.44238198 22.22216795 11.75 22.125 C10.1825 22.08375 8.615 22.0425 7 22 C7 26.29 7 30.58 7 35 C4.69 35 2.38 35 0 35 C0 23.45 0 11.9 0 0 Z " fill="#2A4448" transform="translate(444,589)"/>
<path d="M0 0 C3.70910097 1.78586343 5.54021301 3.36223095 7.9375 6.6875 C9.35172681 11.09656004 9.17977192 14.54396959 8 19 C5.85922755 23.06008567 4.24118878 25.29733297 0 27 C-4.22699682 27.5822518 -7.92095837 27.44569111 -11.875 25.8125 C-15.20895882 22.96882924 -16.76396252 20.88542135 -17.3203125 16.44140625 C-17.51098362 11.75725245 -17.341566 8.69533079 -15.25 4.4375 C-10.83522582 -0.34517202 -6.26627152 -0.87031549 0 0 Z " fill="#F8F7F4" transform="translate(750,517)"/>
<path d="M0 0 C2.97 0 5.94 0 9 0 C9 11.88 9 23.76 9 36 C14.28 36 19.56 36 25 36 C25 38.97 25 41.94 25 45 C16.75 45 8.5 45 0 45 C0 30.15 0 15.3 0 0 Z " fill="#063826" transform="translate(869,508)"/>
<path d="M0 0 C1.98 0 3.96 0 6 0 C6.02505615 0.67579102 6.0501123 1.35158203 6.07592773 2.04785156 C6.19210742 5.1154168 6.31473437 8.18269158 6.4375 11.25 C6.47681641 12.31347656 6.51613281 13.37695312 6.55664062 14.47265625 C6.59853516 15.49746094 6.64042969 16.52226563 6.68359375 17.578125 C6.72025146 18.52075195 6.75690918 19.46337891 6.79467773 20.43457031 C6.97939228 22.74251377 7.35861612 24.78140524 8 27 C9.41154099 27.27748242 10.82979799 27.52093516 12.25 27.75 C13.03890625 27.88921875 13.8278125 28.0284375 14.640625 28.171875 C17.13604091 28.21117493 17.13604091 28.21117493 19.109375 26.34179688 C21.42240909 23.47678875 21.53183893 22.0035704 21.609375 18.359375 C21.65771484 16.75449219 21.65771484 16.75449219 21.70703125 15.1171875 C21.72121094 14.00601563 21.73539063 12.89484375 21.75 11.75 C21.77964844 10.62335937 21.80929687 9.49671875 21.83984375 8.3359375 C21.91048912 5.55721979 21.96321277 2.77933852 22 0 C24.31 0 26.62 0 29 0 C29.11719175 3.83307169 29.18758077 7.66567608 29.25 11.5 C29.30027344 13.11648438 29.30027344 13.11648438 29.3515625 14.765625 C29.43612476 21.69973038 28.72498739 26.10611976 25 32 C21.81923665 35.08437658 18.83749968 35.24634148 14.5625 35.4375 C9.61448843 35.29099091 6.72716917 34.44763149 3 31 C0.21406133 27.15848582 -0.36264404 24.53891304 -0.29296875 19.82421875 C-0.28330078 18.66728516 -0.27363281 17.51035156 -0.26367188 16.31835938 C-0.23853516 15.12017578 -0.21339844 13.92199219 -0.1875 12.6875 C-0.17396484 11.46998047 -0.16042969 10.25246094 -0.14648438 8.99804688 C-0.11119261 5.99824655 -0.06188481 2.99935025 0 0 Z " fill="#2F494C" transform="translate(645,589)"/>
<path d="M0 0 C6.93 0 13.86 0 21 0 C21 1.65 21 3.3 21 5 C16.38 5 11.76 5 7 5 C7 7.97 7 10.94 7 14 C11.29 14 15.58 14 20 14 C20 16.31 20 18.62 20 21 C15.71 21 11.42 21 7 21 C7 23.64 7 26.28 7 29 C11.95 29 16.9 29 22 29 C22 30.98 22 32.96 22 35 C14.74 35 7.48 35 0 35 C0 23.45 0 11.9 0 0 Z " fill="#435B5E" transform="translate(870,589)"/>
<path d="M0 0 C6.93 0 13.86 0 21 0 C21 1.98 21 3.96 21 6 C16.38 6 11.76 6 7 6 C7 8.97 7 11.94 7 15 C10.96 15 14.92 15 19 15 C19 16.98 19 18.96 19 21 C15.04 21 11.08 21 7 21 C7 23.97 7 26.94 7 30 C11.62 30 16.24 30 21 30 C21 31.98 21 33.96 21 36 C14.07 36 7.14 36 0 36 C0 24.12 0 12.24 0 0 Z " fill="#274246" transform="translate(474,588)"/>
<path d="M0 0 C2.31049784 1.11156304 3.97849628 2.38279702 6 4 C5.34 5.32 4.68 6.64 4 8 C0.49064814 8 -2.56484998 7.62457273 -6 7 C-6.66 8.32 -7.32 9.64 -8 11 C-4.89201361 13.00515251 -1.78226005 14.53124096 1.625 15.9375 C7.57543177 18.58103624 7.57543177 18.58103624 9 22 C9.64221857 27.05747126 9.64221857 27.05747126 9 30 C6.82425584 32.69105198 5.08934144 34.45532928 2 36 C-3.04418248 36.50276982 -8.20737826 37.01046804 -12.625 34.1875 C-15 32 -15 32 -16 29 C-14.68 28.01 -13.36 27.02 -12 26 C-8.125 27.875 -8.125 27.875 -7 29 C-4.66702567 29.04092937 -2.33294775 29.04241723 0 29 C0.33 27.35 0.66 25.7 1 24 C0.18015625 23.69707031 -0.6396875 23.39414062 -1.484375 23.08203125 C-2.56203125 22.66308594 -3.6396875 22.24414062 -4.75 21.8125 C-5.81734375 21.40644531 -6.8846875 21.00039063 -7.984375 20.58203125 C-11.37094497 18.80539804 -12.95103734 17.20728359 -15 14 C-15.76302576 11.22153379 -15.6729298 8.79916179 -15 6 C-10.64387843 0.61216543 -6.88102244 -0.98118283 0 0 Z " fill="#435C5F" transform="translate(631,588)"/>
<path d="M0 0 C8.91 0 17.82 0 27 0 C22.5 9 22.5 9 19.546875 13.375 C18.928125 14.29667969 18.309375 15.21835937 17.671875 16.16796875 C17.03765625 17.10253906 16.4034375 18.03710938 15.75 19 C15.1003125 19.96550781 14.450625 20.93101562 13.78125 21.92578125 C12.19171998 24.28670083 10.59644446 26.64375043 9 29 C14.61 29 20.22 29 26 29 C26 30.98 26 32.96 26 35 C17.09 35 8.18 35 -1 35 C-0.0915783 29.54946978 0.48417969 27.71273962 3.37890625 23.3828125 C4.05244141 22.36445312 4.72597656 21.34609375 5.41992188 20.296875 C6.48049805 18.72679687 6.48049805 18.72679687 7.5625 17.125 C8.62887695 15.52011719 8.62887695 15.52011719 9.71679688 13.8828125 C11.46869528 11.24908603 13.23313994 8.62371277 15 6 C10.05 5.67 5.1 5.34 0 5 C0 3.35 0 1.7 0 0 Z " fill="#314B4F" transform="translate(838,589)"/>
<path d="M0 0 C6.6 0 13.2 0 20 0 C20 1.98 20 3.96 20 6 C15.38 6 10.76 6 6 6 C6 8.97 6 11.94 6 15 C10.29 15 14.58 15 19 15 C19 16.98 19 18.96 19 21 C14.71 21 10.42 21 6 21 C6 23.97 6 26.94 6 30 C10.62 30 15.24 30 20 30 C20 31.98 20 33.96 20 36 C13.4 36 6.8 36 0 36 C0 24.12 0 12.24 0 0 Z " fill="#395255" transform="translate(577,588)"/>
<path d="M0 0 C3.3 0 6.6 0 10 0 C10 14.85 10 29.7 10 45 C6.7 45 3.4 45 0 45 C0 30.15 0 15.3 0 0 Z " fill="#094833" transform="translate(403,508)"/>
<path d="M0 0 C3.3 0 6.6 0 10 0 C10 14.85 10 29.7 10 45 C6.7 45 3.4 45 0 45 C0 30.15 0 15.3 0 0 Z " fill="#084732" transform="translate(705,508)"/>
<path d="M0 0 C6.93 0 13.86 0 21 0 C21 1.98 21 3.96 21 6 C16.05 6 11.1 6 6 6 C6 9.3 6 12.6 6 16 C10.29 16 14.58 16 19 16 C19 17.98 19 19.96 19 22 C15.04 22 11.08 22 7 22 C7 26.62 7 31.24 7 36 C4.69 36 2.38 36 0 36 C0 24.12 0 12.24 0 0 Z " fill="#3D5659" transform="translate(811,588)"/>
<path d="M0 0 C0 3.28119138 -0.43876313 4.03287049 -2.15234375 6.703125 C-8.30094303 16.70097359 -11.59572021 24.12063816 -11 36 C-13.31 36 -15.62 36 -18 36 C-17.94457031 35.20980469 -17.88914062 34.41960938 -17.83203125 33.60546875 C-17.76557408 21.97546464 -22.79934561 14.25996393 -29.00610352 4.74902344 C-30 3 -30 3 -30 1 C-27.36 1 -24.72 1 -22 1 C-19.69 5.29 -17.38 9.58 -15 14 C-12.65532585 9.78142011 -12.65532585 9.78142011 -10.36499023 5.53344727 C-9.43359375 3.94140625 -9.43359375 3.94140625 -7 1 C-3.22265625 0.08984375 -3.22265625 0.08984375 0 0 Z " fill="#425B5E" transform="translate(792,588)"/>
<path d="M0 0 C35.64 0 71.28 0 108 0 C108 23 108 23 103 29 C103 26 103 26 105 23 C105.33 16.07 105.66 9.14 106 2 C71.35 2 36.7 2 1 2 C1 10.25 1 18.5 1 27 C22.12 27 43.24 27 65 27 C65 27.33 65 27.66 65 28 C43.55 28 22.1 28 0 28 C0 18.76 0 9.52 0 0 Z " fill="#0E2E1E" transform="translate(406,333)"/>
<path d="M0 0 C2.31 0 4.62 0 7 0 C7 9.57 7 19.14 7 29 C11.95 29 16.9 29 22 29 C22 30.98 22 32.96 22 35 C14.74 35 7.48 35 0 35 C0 23.45 0 11.9 0 0 Z " fill="#364F52" transform="translate(741,589)"/>
<path d="M0 0 C2.31 0 4.62 0 7 0 C7 9.57 7 19.14 7 29 C11.95 29 16.9 29 22 29 C22 30.98 22 32.96 22 35 C14.74 35 7.48 35 0 35 C0 23.45 0 11.9 0 0 Z " fill="#4A6265" transform="translate(500,589)"/>
<path d="M0 0 C2.31 0 4.62 0 7 0 C7 11.88 7 23.76 7 36 C-1 36 -1 36 -3.34765625 33.875 C-8.54655637 25.15884855 -8.54655637 25.15884855 -7.9375 20.3125 C-7.628125 19.219375 -7.31875 18.12625 -7 17 C-5.02 18.65 -3.04 20.3 -1 22 C-0.67 14.74 -0.34 7.48 0 0 Z " fill="#455C60" transform="translate(563,588)"/>
<path d="M0 0 C4.95 0 9.9 0 15 0 C15 1.65 15 3.3 15 5 C15.99 6.485 15.99 6.485 17 8 C16.75 11.125 16.75 11.125 16 14 C12.78548731 15.60725635 9.56387464 15.05748185 6 15 C5.67 14.01 5.34 13.02 5 12 C4.34 12 3.68 12 3 12 C3 14.64 3 17.28 3 20 C3.66 20 4.32 20 5 20 C5.33 24.62 5.66 29.24 6 34 C3.69 34 1.38 34 -1 34 C-0.67 33.34 -0.34 32.68 0 32 C0.08639869 29.59161322 0.11567764 27.21266119 0.09765625 24.8046875 C0.09553383 23.74352219 0.09553383 23.74352219 0.09336853 22.66091919 C0.087766 20.39890331 0.07521318 18.13698602 0.0625 15.875 C0.05748532 14.34244935 0.05292236 12.80989714 0.04882812 11.27734375 C0.03864616 7.51816053 0.01907143 3.75919076 0 0 Z " fill="#385255" transform="translate(445,590)"/>
<path d="M0 0 C2.97249386 0.31848149 4.03839103 1.03625819 6.25 3.125 C8.46146362 6.75811881 8.52416499 8.80668008 8 13 C6.31599792 16.70480457 4.46301654 18.8897243 1 21 C-2.71088542 21.38871006 -6.25650161 21.13369637 -10 21 C-10 25.29 -10 29.58 -10 34 C-10.33 34 -10.66 34 -11 34 C-11 30.37 -11 26.74 -11 23 C-11.99 23.33 -12.98 23.66 -14 24 C-14.1974877 20.91722144 -14.38123332 17.8337715 -14.5625 14.75 C-14.61857422 13.87730469 -14.67464844 13.00460937 -14.73242188 12.10546875 C-14.78076172 11.26113281 -14.82910156 10.41679688 -14.87890625 9.546875 C-14.9260376 8.77182617 -14.97316895 7.99677734 -15.02172852 7.19824219 C-14.99969234 4.96887415 -14.6303897 3.13101433 -14 1 C-13.01 1 -12.02 1 -11 1 C-10.06380187 4.15506142 -9.8942877 6.96586502 -9.9375 10.25 C-9.94652344 11.14203125 -9.95554687 12.0340625 -9.96484375 12.953125 C-9.97644531 13.62859375 -9.98804688 14.3040625 -10 15 C-8.52031676 14.85950482 -7.04125484 14.71245174 -5.5625 14.5625 C-4.73878906 14.48128906 -3.91507812 14.40007813 -3.06640625 14.31640625 C-1.01337975 14.21069185 -1.01337975 14.21069185 0 13 C0.33340471 10.04195427 0.33340471 10.04195427 0 7 C-3.44450737 4.70366176 -5.93812283 4.45983515 -10 4 C-10 3.67 -10 3.34 -10 3 C-6.33333333 3 -2.66666667 3 1 3 C1.33 2.34 1.66 1.68 2 1 C1.34 0.67 0.68 0.34 0 0 Z " fill="#324C4F" transform="translate(418,590)"/>
<path d="M0 0 C2.31 0 4.62 0 7 0 C7 11.88 7 23.76 7 36 C4.69 36 2.38 36 0 36 C0 24.12 0 12.24 0 0 Z " fill="#496365" transform="translate(430,588)"/>
<path d="M0 0 C2.31 0 4.62 0 7 0 C7 11.55 7 23.1 7 35 C4.69 35 2.38 35 0 35 C0 23.45 0 11.9 0 0 Z " fill="#244346" transform="translate(526,589)"/>
<path d="M0 0 C1.34199937 4.0259981 0.17016893 5.52709118 -1.38671875 9.44140625 C-4.8088539 18.85015483 -4.77661765 28.02489155 -4.8125 37.9375 C-4.874375 43.898125 -4.93625 49.85875 -5 56 C13.15 56 31.3 56 50 56 C50 48.41 50 40.82 50 33 C50.99 31.68 51.98 30.36 53 29 C52.67 38.24 52.34 47.48 52 57 C52.99 57.495 52.99 57.495 54 58 C33.87 58 13.74 58 -7 58 C-6.9175 51.3175 -6.835 44.635 -6.75 37.75 C-6.73420898 35.66655273 -6.71841797 33.58310547 -6.70214844 31.43652344 C-6.53633335 19.9084397 -5.33941148 10.39717049 0 0 Z " fill="#021E0D" transform="translate(92,512)"/>
<path d="M0 0 C5.94 0 11.88 0 18 0 C18 0.99 18 1.98 18 3 C16.60974609 3.09087891 16.60974609 3.09087891 15.19140625 3.18359375 C13.99386719 3.26738281 12.79632813 3.35117187 11.5625 3.4375 C10.36753906 3.51871094 9.17257812 3.59992187 7.94140625 3.68359375 C5.11429756 3.67656114 5.11429756 3.67656114 4 5 C3.83946185 6.87321948 3.83946185 6.87321948 3.875 9 C3.87242187 9.721875 3.86984375 10.44375 3.8671875 11.1875 C3.80304724 13.02089415 3.80304724 13.02089415 5 14 C6.84891946 14.23363881 8.70488031 14.41303635 10.5625 14.5625 C11.57441406 14.64628906 12.58632813 14.73007812 13.62890625 14.81640625 C14.41136719 14.87699219 15.19382812 14.93757812 16 15 C16 15.99 16 16.98 16 18 C12.04 18.33 8.08 18.66 4 19 C4 21.97 4 24.94 4 28 C10.93 28.495 10.93 28.495 18 29 C18 29.99 18 30.98 18 32 C12.06 32 6.12 32 0 32 C0 21.44 0 10.88 0 0 Z " fill="#4A6265" transform="translate(476,590)"/>
<path d="M0 0 C2.31049784 1.11156304 3.97849628 2.38279702 6 4 C5.34 5.32 4.68 6.64 4 8 C0.49064814 8 -2.56484998 7.62457273 -6 7 C-6.66 8.32 -7.32 9.64 -8 11 C-4.15916114 13.47796055 -0.19035256 15.27664237 4.01171875 17.03515625 C6 18 6 18 8 20 C7.67 20.99 7.34 21.98 7 23 C6.360625 22.236875 5.72125 21.47375 5.0625 20.6875 C1.68297217 17.24936764 -2.44409563 16.22086326 -7 15 C-7 16.32 -7 17.64 -7 19 C-4.69 19.66 -2.38 20.32 0 21 C-4.16005367 22.38668456 -6.07713797 20.99501106 -9.90234375 19.16015625 C-12.53156865 17.70600393 -13.83066239 16.80641026 -15 14 C-15.64221857 8.94252874 -15.64221857 8.94252874 -15 6 C-10.64387843 0.61216543 -6.88102244 -0.98118283 0 0 Z " fill="#354F52" transform="translate(631,588)"/>
<path d="M0 0 C4.95 0 9.9 0 15 0 C14.01 1.485 14.01 1.485 13 3 C10.67843403 3.40729228 8.3431213 3.74438677 6 4 C4.68737429 5.08552366 4.68737429 5.08552366 4.90234375 7.72265625 C4.91394531 8.82480469 4.92554688 9.92695312 4.9375 11.0625 C4.94652344 12.16722656 4.95554687 13.27195312 4.96484375 14.41015625 C4.97644531 15.26480469 4.98804688 16.11945312 5 17 C7.97 16.67 10.94 16.34 14 16 C14.66 17.32 15.32 18.64 16 20 C12.37 20.33 8.74 20.66 5 21 C4.67 24.63 4.34 28.26 4 32 C2.68 32 1.36 32 0 32 C0 21.44 0 10.88 0 0 Z " fill="#4A6365" transform="translate(712,590)"/>
<path d="M0 0 C1.32 0.33 2.64 0.66 4 1 C3.01 1 2.02 1 1 1 C1 4.96 1 8.92 1 13 C24.43 13 47.86 13 72 13 C72 9.04 72 5.08 72 1 C71.01 0.505 71.01 0.505 70 0 C71.32 0 72.64 0 74 0 C74.02685412 2.31243792 74.04632841 4.6249627 74.0625 6.9375 C74.07410156 8.22527344 74.08570313 9.51304687 74.09765625 10.83984375 C74 14 74 14 73 15 C70.76612794 15.0996392 68.52906141 15.12799795 66.29296875 15.12939453 C65.59217194 15.13114685 64.89137512 15.13289917 64.16934204 15.13470459 C61.84203651 15.13912266 59.51480636 15.13618529 57.1875 15.1328125 C55.57706691 15.13348555 53.96663391 15.13445559 52.35620117 15.13571167 C48.97671545 15.13718858 45.5972561 15.13503431 42.21777344 15.13037109 C37.87623495 15.1246738 33.53475827 15.12795285 29.19322205 15.13394356 C25.86649099 15.13754936 22.5397747 15.1364105 19.21304321 15.13381577 C17.61178582 15.13314655 16.0105271 15.13397474 14.40927124 15.13629532 C12.17515489 15.13882216 9.94114 15.13498085 7.70703125 15.12939453 C5.79627808 15.12820114 5.79627808 15.12820114 3.84692383 15.12698364 C1 15 1 15 0 14 C-0.07271741 11.64686445 -0.08370868 9.29166332 -0.0625 6.9375 C-0.05347656 5.64714844 -0.04445312 4.35679687 -0.03515625 3.02734375 C-0.02355469 2.02832031 -0.01195312 1.02929688 0 0 Z " fill="#10301E" transform="translate(175,409)"/>
<path d="M0 0 C3.3 0 6.6 0 10 0 C10 14.85 10 29.7 10 45 C0 45 0 45 -2.55078125 42.875 C-3.13214844 41.92625 -3.71351563 40.9775 -4.3125 40 C-4.94671875 39.00097656 -5.5809375 38.00195312 -6.234375 36.97265625 C-6.81703125 35.99167969 -7.3996875 35.01070312 -8 34 C-8.54140625 33.19433594 -9.0828125 32.38867188 -9.640625 31.55859375 C-10.84610893 29.76030316 -11.93697764 27.88600742 -13 26 C-12.67 25.34 -12.34 24.68 -12 24 C-11.67837891 24.54003662 -11.35675781 25.08007324 -11.02539062 25.63647461 C-9.54416166 28.08784515 -8.02307589 30.51192842 -6.5 32.9375 C-5.9946875 33.78763672 -5.489375 34.63777344 -4.96875 35.51367188 C-4.453125 36.32255859 -3.9375 37.13144531 -3.40625 37.96484375 C-2.71499023 39.08814087 -2.71499023 39.08814087 -2.00976562 40.23413086 C0.56697234 42.8316147 0.56697234 42.8316147 8 43 C8 29.47 8 15.94 8 2 C5.69 2 3.38 2 1 2 C1 9.92 1 17.84 1 26 C0.67 26 0.34 26 0 26 C0 17.42 0 8.84 0 0 Z " fill="#022312" transform="translate(607,508)"/>
<path d="M0 0 C9.24 0 18.48 0 28 0 C25.70479035 2.29520965 23.8918389 2.98155206 20.87890625 4.1640625 C19.86119141 4.56367188 18.84347656 4.96328125 17.79492188 5.375 C16.72822266 5.7875 15.66152344 6.2 14.5625 6.625 C13.49966797 7.04523438 12.43683594 7.46546875 11.34179688 7.8984375 C3.38145546 11 3.38145546 11 0 11 C0 7.37 0 3.74 0 0 Z " fill="#F7F8F7" transform="translate(225,346)"/>
<path d="M0 0 C10.89 0 21.78 0 33 0 C33 2.97 33 5.94 33 9 C29.04 9 25.08 9 21 9 C21 20.88 21 32.76 21 45 C17.7 45 14.4 45 11 45 C11.33 33.12 11.66 21.24 12 9 C12.33 9 12.66 9 13 9 C13 20.22 13 31.44 13 43 C15.31 43 17.62 43 20 43 C19.99214478 41.41747437 19.99214478 41.41747437 19.98413086 39.80297852 C19.96608099 35.9024337 19.95456805 32.0018926 19.94506836 28.10131836 C19.9400281 26.41055684 19.93319595 24.71979971 19.92456055 23.02905273 C19.91248143 20.60399293 19.90676877 18.17899056 19.90234375 15.75390625 C19.89718246 14.99348526 19.89202118 14.23306427 19.88670349 13.44960022 C19.88650762 11.6326743 19.93802723 9.81586873 20 8 C21 7 21 7 23.50390625 6.90234375 C25.01791016 6.91974609 25.01791016 6.91974609 26.5625 6.9375 C27.57441406 6.94652344 28.58632813 6.95554687 29.62890625 6.96484375 C30.80259766 6.98224609 30.80259766 6.98224609 32 7 C32 5.02 32 3.04 32 1 C21.77 1 11.54 1 1 1 C1 2.98 1 4.96 1 7 C4.3 7 7.6 7 11 7 C11 7.33 11 7.66 11 8 C7.37 8 3.74 8 0 8 C0 5.36 0 2.72 0 0 Z " fill="#021207" transform="translate(666,508)"/>
<path d="M0 0 C8.91 0 17.82 0 27 0 C27 3.63 27 7.26 27 11 C20.88106577 10.43343202 15.67636193 7.89348871 10.125 5.4375 C9.15046875 5.01275391 8.1759375 4.58800781 7.171875 4.15039062 C4.77855235 3.10624496 2.38811986 2.05597786 0 1 C0 0.67 0 0.34 0 0 Z " fill="#F5F7F5" transform="translate(172,346)"/>
<path d="M0 0 C6.93 0 13.86 0 21 0 C21 1.65 21 3.3 21 5 C16.38 5 11.76 5 7 5 C7 4.67 7 4.34 7 4 C11.29 4 15.58 4 20 4 C20 3.01 20 2.02 20 1 C14.06 1 8.12 1 2 1 C2 11.56 2 22.12 2 33 C7.94 33 13.88 33 20 33 C20 32.01 20 31.02 20 30 C15.71 30 11.42 30 7 30 C7 29.67 7 29.34 7 29 C11.95 29 16.9 29 22 29 C22 30.98 22 32.96 22 35 C14.74 35 7.48 35 0 35 C0 23.45 0 11.9 0 0 Z " fill="#1C393D" transform="translate(870,589)"/>
<path d="M0 0 C11 0 11 0 13.38671875 1.96875 C13.81597656 2.8040625 14.24523437 3.639375 14.6875 4.5 C15.14511719 5.3353125 15.60273437 6.170625 16.07421875 7.03125 C16.37972656 7.6809375 16.68523438 8.330625 17 9 C16.67 9.66 16.34 10.32 16 11 C15.16094435 9.87926138 14.32892169 8.75325453 13.5 7.625 C13.0359375 6.99851562 12.571875 6.37203125 12.09375 5.7265625 C11 4 11 4 11 2 C8.03 2 5.06 2 2 2 C2 15.53 2 29.06 2 43 C4.31 43 6.62 43 9 43 C9 34.75 9 26.5 9 18 C9.33 18 9.66 18 10 18 C10 26.91 10 35.82 10 45 C6.7 45 3.4 45 0 45 C0 30.15 0 15.3 0 0 Z " fill="#0E2C1C" transform="translate(775,508)"/>
<path d="M0 0 C3.3 0 6.6 0 10 0 C10 14.85 10 29.7 10 45 C6.7 45 3.4 45 0 45 C0 30.15 0 15.3 0 0 Z M1 2 C1 15.53 1 29.06 1 43 C3.31 43 5.62 43 8 43 C8 29.47 8 15.94 8 2 C5.69 2 3.38 2 1 2 Z " fill="#1D3024" transform="translate(403,508)"/>
<path d="M0 0 C2.31 0 4.62 0 7 0 C7 9.57 7 19.14 7 29 C11.95 29 16.9 29 22 29 C22 30.98 22 32.96 22 35 C14.74 35 7.48 35 0 35 C0 23.45 0 11.9 0 0 Z M2 1 C2 11.56 2 22.12 2 33 C8.27 33 14.54 33 21 33 C21 32.01 21 31.02 21 30 C14.07 29.505 14.07 29.505 7 29 C6.67 19.76 6.34 10.52 6 1 C4.68 1 3.36 1 2 1 Z " fill="#2A4347" transform="translate(500,589)"/>
<path d="M0 0 C3.3 0 6.6 0 10 0 C10 14.85 10 29.7 10 45 C6.7 45 3.4 45 0 45 C0 30.15 0 15.3 0 0 Z M2 1 C2 14.86 2 28.72 2 43 C4.31 43 6.62 43 9 43 C9 29.14 9 15.28 9 1 C6.69 1 4.38 1 2 1 Z " fill="#082717" transform="translate(705,508)"/>
<path d="M0 0 C0.66 0 1.32 0 2 0 C2 8.91 2 17.82 2 27 C-14.5 27 -31 27 -48 27 C-48 26.34 -48 25.68 -48 25 C-32.16 25 -16.32 25 0 25 C0 16.75 0 8.5 0 0 Z " fill="#113623" transform="translate(618,392)"/>
<path d="M0 0 C0.99 0 1.98 0 3 0 C3.93619813 3.15506142 4.1057123 5.96586502 4.0625 9.25 C4.05347656 10.14203125 4.04445313 11.0340625 4.03515625 11.953125 C4.02355469 12.62859375 4.01195312 13.3040625 4 14 C6.97 14 9.94 14 13 14 C11 16 11 16 7.375 16.125 C6.26125 16.08375 5.1475 16.0425 4 16 C4 16.99 4 17.98 4 19 C6.64 19 9.28 19 12 19 C12.33 18.01 12.66 17.02 13 16 C13 16.66 13 17.32 13 18 C14.65 17.67 16.3 17.34 18 17 C16.85546875 18.48828125 16.85546875 18.48828125 15 20 C11.29631297 20.40199208 7.73655831 20.13187853 4 20 C4 24.29 4 28.58 4 33 C3.67 33 3.34 33 3 33 C3 29.37 3 25.74 3 22 C2.01 22.33 1.02 22.66 0 23 C-0.1974877 19.91722144 -0.38123332 16.8337715 -0.5625 13.75 C-0.61857422 12.87730469 -0.67464844 12.00460937 -0.73242188 11.10546875 C-0.78076172 10.26113281 -0.82910156 9.41679688 -0.87890625 8.546875 C-0.9260376 7.77182617 -0.97316895 6.99677734 -1.02172852 6.19824219 C-0.99969234 3.96887415 -0.6303897 2.13101433 0 0 Z " fill="#324A4D" transform="translate(404,591)"/>
<path d="M0 0 C1.423125 -0.061875 2.84625 -0.12375 4.3125 -0.1875 C5.51326172 -0.23970703 5.51326172 -0.23970703 6.73828125 -0.29296875 C9 0 9 0 10.765625 1.32421875 C12.69113285 3.93827845 12.45804343 5.8591308 12 9 C10.5 10.875 10.5 10.875 8 12 C5.27930412 12.23364755 2.74133849 12.13706692 0 12 C0 8.04 0 4.08 0 0 Z " fill="#F9F9F6" transform="translate(549,517)"/>
<path d="M0 0 C2.64 0 5.28 0 8 0 C9.03046722 1.78614318 10.04913236 3.57910018 11.0625 5.375 C11.63097656 6.37273438 12.19945312 7.37046875 12.78515625 8.3984375 C13.38650391 9.68621094 13.38650391 9.68621094 14 11 C13 13 13 13 11 14 C11.32742188 14.82757812 11.65484375 15.65515625 11.9921875 16.5078125 C13.11029959 20.38220092 13.22543953 23.88832323 13.125 27.875 C13.11597656 28.56335938 13.10695313 29.25171875 13.09765625 29.9609375 C13.07432513 31.64077838 13.03846326 33.32043746 13 35 C12.67 35 12.34 35 12 35 C12.05542969 34.20980469 12.11085938 33.41960938 12.16796875 32.60546875 C12.23442592 20.97546464 7.20065439 13.25996393 0.99389648 3.74902344 C0 2 0 2 0 0 Z " fill="#2E474A" transform="translate(762,589)"/>
<path d="M0 0 C2.31 0 4.62 0 7 0 C7 11.88 7 23.76 7 36 C4.69 36 2.38 36 0 36 C0 24.12 0 12.24 0 0 Z M2 2 C2 12.56 2 23.12 2 34 C3.32 34 4.64 34 6 34 C6 23.44 6 12.88 6 2 C4.68 2 3.36 2 2 2 Z " fill="#30484B" transform="translate(430,588)"/>
<path d="M0 0 C2.31 0 4.62 0 7 0 C7 11.88 7 23.76 7 36 C4.36 36 1.72 36 -1 36 C-1 35.34 -1 34.68 -1 34 C0.98 34 2.96 34 5 34 C5 23.44 5 12.88 5 2 C3.68 2 2.36 2 1 2 C1 8.93 1 15.86 1 23 C0.67 23 0.34 23 0 23 C0 15.41 0 7.82 0 0 Z " fill="#354E51" transform="translate(563,588)"/>
<path d="M0 0 C1.65 0 3.3 0 5 0 C5 6.93 5 13.86 5 21 C4.34 21 3.68 21 3 21 C2.34 22.32 1.68 23.64 1 25 C0.67 25 0.34 25 0 25 C0 16.75 0 8.5 0 0 Z " fill="#465E60" transform="translate(668,590)"/>
<path d="M0 0 C0 3.19028531 -0.42483078 4.11255344 -1.96875 6.79296875 C-2.37480469 7.50517578 -2.78085937 8.21738281 -3.19921875 8.95117188 C-3.62847656 9.68916016 -4.05773437 10.42714844 -4.5 11.1875 C-4.92925781 11.93708984 -5.35851562 12.68667969 -5.80078125 13.45898438 C-6.86146221 15.30928339 -7.92998923 17.15508063 -9 19 C-9.33 18.34 -9.66 17.68 -10 17 C-9.67 16.34 -9.34 15.68 -9 15 C-10.32 14.67 -11.64 14.34 -13 14 C-12.53299407 9.0186034 -10.3747235 4.65666242 -7 1 C-3.1875 0 -3.1875 0 0 0 Z " fill="#334C4F" transform="translate(792,588)"/>
<path d="M0 0 C2.64 0 5.28 0 8 0 C8 0.99 8 1.98 8 3 C6.02 2.34 4.04 1.68 2 1 C2 11.56 2 22.12 2 33 C3.32 33 4.64 33 6 33 C6 26.4 6 19.8 6 13 C6.33 13 6.66 13 7 13 C7 20.26 7 27.52 7 35 C4.69 35 2.38 35 0 35 C0 23.45 0 11.9 0 0 Z " fill="#223C41" transform="translate(540,589)"/>
<path d="M0 0 C0.99 0.33 1.98 0.66 3 1 C3.875 2.8125 3.875 2.8125 4 5 C3.125 7.125 3.125 7.125 1 9 C-1.33511211 9.70977329 -3.63479886 10.18919657 -6.0390625 10.60546875 C-7.99534214 10.81076086 -7.99534214 10.81076086 -9 12 C-4.38 11.67 0.24 11.34 5 11 C1.64513652 14.35486348 1.16557709 14.43130626 -3.3125 14.4375 C-8.50664811 14.29990667 -11.18533845 13.51350406 -15 10 C-15.33 9.01 -15.66 8.02 -16 7 C-14.68 6.01 -13.36 5.02 -12 4 C-8.125 5.875 -8.125 5.875 -7 7 C-4.66702567 7.04092937 -2.33294775 7.04241723 0 7 C1.00217064 3.41672247 1.00217064 3.41672247 0 0 Z " fill="#2B4549" transform="translate(631,610)"/>
<path d="M0 0 C6.8359375 -0.1953125 6.8359375 -0.1953125 9 0 C11 2 11 2 11.25 5 C11 8 11 8 9 10 C5.98173347 10.27240673 3.03629378 10.08675125 0 10 C0 6.7 0 3.4 0 0 Z " fill="#F5F5F4" transform="translate(687,595)"/>
<path d="M0 0 C6.8359375 -0.1953125 6.8359375 -0.1953125 9 0 C11 2 11 2 11.25 5 C11 8 11 8 9 10 C5.98173347 10.27240673 3.03629378 10.08675125 0 10 C0 6.7 0 3.4 0 0 Z " fill="#F9F9F8" transform="translate(408,595)"/>
<path d="M0 0 C3.26460973 1.80412643 4.88929795 2.83394693 7 6 C7.71207438 10.88516144 7.72852643 14.8100735 5.125 19.0625 C1.63392496 22.24553901 -0.47895132 22.11192605 -5.125 22.0625 C-6.22070312 22.05347656 -7.31640625 22.04445313 -8.4453125 22.03515625 C-9.70988281 22.01775391 -9.70988281 22.01775391 -11 22 C-10.67 21.01 -10.34 20.02 -10 19 C-10.66 18.34 -11.32 17.68 -12 17 C-12.1953125 14.3984375 -12.1953125 14.3984375 -12.125 11.375 C-12.10695313 10.37210938 -12.08890625 9.36921875 -12.0703125 8.3359375 C-12.04710937 7.56507813 -12.02390625 6.79421875 -12 6 C-11.67 6 -11.34 6 -11 6 C-11 9.3 -11 12.6 -11 16 C-4.49840883 15.95223985 -4.49840883 15.95223985 0.5625 12.4375 C1.036875 11.633125 1.51125 10.82875 2 10 C2.75 11.75 2.75 11.75 3 14 C1.0625 16.25 1.0625 16.25 -1 18 C0.32 18 1.64 18 3 18 C5.46163122 14.30755317 5.57154075 11.28655566 5 7 C3.31007141 3.94203399 1.95339933 2.96893289 -1 1 C-0.67 0.67 -0.34 0.34 0 0 Z M3 12 C5 13 5 13 5 13 Z " fill="#243E41" transform="translate(698,589)"/>
<path d="M0 0 C20.46 0 40.92 0 62 0 C62.495 4.95 62.495 4.95 63 10 C64.99616554 11.99616554 68.81701963 11.40983427 71.5625 11.5625 C72.27341797 11.60568359 72.98433594 11.64886719 73.71679688 11.69335938 C75.47761912 11.79971777 77.2387832 11.90038846 79 12 C79 12.33 79 12.66 79 13 C76.39472895 13.10792837 73.79391689 13.18724878 71.1875 13.25 C70.44951172 13.28351563 69.71152344 13.31703125 68.95117188 13.3515625 C63.57225981 13.44891837 63.57225981 13.44891837 60.98828125 11.421875 C60 9 60 9 60 2 C30.3 1.505 30.3 1.505 0 1 C0 0.67 0 0.34 0 0 Z " fill="#1A4532" transform="translate(182,430)"/>
<path d="M0 0 C6.8359375 -0.29296875 6.8359375 -0.29296875 9 0 C11 3 11 3 10.75 6.125 C10.5025 7.07375 10.255 8.0225 10 9 C6.78548731 10.60725635 3.56387464 10.05748185 0 10 C0 6.7 0 3.4 0 0 Z " fill="#FAF9F9" transform="translate(718,595)"/>
<path d="M0 0 C6.8359375 -0.29296875 6.8359375 -0.29296875 9 0 C11 3 11 3 10.75 6.125 C10.5025 7.07375 10.255 8.0225 10 9 C6.78548731 10.60725635 3.56387464 10.05748185 0 10 C0 6.7 0 3.4 0 0 Z " fill="#F9FAF8" transform="translate(451,595)"/>
<path d="M0 0 C0.99 0 1.98 0 3 0 C3 10.56 3 21.12 3 32 C2.01 32 1.02 32 0 32 C0 21.44 0 10.88 0 0 Z " fill="#4B6265" transform="translate(528,590)"/>
<path d="M0 0 C3.3 0 6.6 0 10 0 C9.67 14.19 9.34 28.38 9 43 C8.67 43 8.34 43 8 43 C8 29.47 8 15.94 8 2 C5.69 2 3.38 2 1 2 C1 10.25 1 18.5 1 27 C0.67 27 0.34 27 0 27 C0 18.09 0 9.18 0 0 Z " fill="#001A0C" transform="translate(804,508)"/>
<path d="M0 0 C0.33 0 0.66 0 1 0 C1 3.3 1 6.6 1 10 C2.65 10 4.3 10 6 10 C6.99 10.66 7.98 11.32 9 12 C9 12.99 9 13.98 9 15 C6.36 15 3.72 15 1 15 C1 19.29 1 23.58 1 28 C0.67 28 0.34 28 0 28 C-0.04898437 27.14535156 -0.09796875 26.29070313 -0.1484375 25.41015625 C-0.26058594 23.75306641 -0.26058594 23.75306641 -0.375 22.0625 C-0.44460938 20.96035156 -0.51421875 19.85820313 -0.5859375 18.72265625 C-0.72257812 17.82417969 -0.85921875 16.92570313 -1 16 C-1.66 15.67 -2.32 15.34 -3 15 C-3 11.7 -3 8.4 -3 5 C-2.67 5.66 -2.34 6.32 -2 7 C-1.34 7 -0.68 7 0 7 C0 4.69 0 2.38 0 0 Z " fill="#364F53" transform="translate(450,595)"/>
<path d="M0 0 C0.33 0 0.66 0 1 0 C1 2.97 1 5.94 1 9 C6.94 9 12.88 9 19 9 C19 8.01 19 7.02 19 6 C14.71 6 10.42 6 6 6 C6 5.67 6 5.34 6 5 C10.95 5 15.9 5 21 5 C21 6.98 21 8.96 21 11 C13.74 11 6.48 11 -1 11 C-1 1 -1 1 0 0 Z " fill="#29454A" transform="translate(871,613)"/>
<path d="M0 0 C0.33 0.66 0.66 1.32 1 2 C1.99 2 2.98 2 4 2 C4 8.6 4 15.2 4 22 C2.68 22 1.36 22 0 22 C0 14.74 0 7.48 0 0 Z " fill="#496164" transform="translate(542,600)"/>
<path d="M0 0 C0.66 0 1.32 0 2 0 C2.67031719 1.9570868 3.33614683 3.91571113 4 5.875 C4.556875 7.51082031 4.556875 7.51082031 5.125 9.1796875 C6 12 6 12 6 14 C2.7 14 -0.6 14 -4 14 C-3.52188823 12.22888156 -3.0424722 10.45811517 -2.5625 8.6875 C-2.29566406 7.70136719 -2.02882813 6.71523438 -1.75390625 5.69921875 C-1.21920575 3.78482474 -0.62855462 1.88566385 0 0 Z " fill="#FAFAF9" transform="translate(644,521)"/>
<path d="M0 0 C2 1 2 1 3.0703125 3.94140625 C3.41835938 5.13636719 3.76640625 6.33132813 4.125 7.5625 C4.65480469 9.35880859 4.65480469 9.35880859 5.1953125 11.19140625 C5.46085938 12.11824219 5.72640625 13.04507813 6 14 C2.7 14 -0.6 14 -4 14 C-2 4.42857143 -2 4.42857143 0 0 Z " fill="#F8F9F7" transform="translate(841,521)"/>
<path d="M0 0 C5.94 0 11.88 0 18 0 C18 0.99 18 1.98 18 3 C11.565 3.495 11.565 3.495 5 4 C4.34 6.31 3.68 8.62 3 11 C2.01 11 1.02 11 0 11 C0 7.37 0 3.74 0 0 Z " fill="#4C6466" transform="translate(872,590)"/>
<path d="M0 0 C0.33 0 0.66 0 1 0 C1 2.97 1 5.94 1 9 C5.29 9 9.58 9 14 9 C14 10.98 14 12.96 14 15 C9.71 15 5.42 15 1 15 C1 17.97 1 20.94 1 24 C0.67 24 0.34 24 0 24 C0 20.37 0 16.74 0 13 C2.7219246 11.6390377 4.1831957 12.29633752 7.125 12.9375 C8.49011719 13.22947266 8.49011719 13.22947266 9.8828125 13.52734375 C10.58148437 13.68332031 11.28015625 13.83929687 12 14 C12 13.01 12 12.02 12 11 C11.21753906 11.01160156 10.43507813 11.02320313 9.62890625 11.03515625 C8.61699219 11.04417969 7.60507812 11.05320312 6.5625 11.0625 C5.55316406 11.07410156 4.54382813 11.08570313 3.50390625 11.09765625 C1 11 1 11 0 10 C-0.07205511 8.31391034 -0.08386068 6.62499341 -0.0625 4.9375 C-0.05347656 4.01839844 -0.04445313 3.09929688 -0.03515625 2.15234375 C-0.02355469 1.44207031 -0.01195312 0.73179687 0 0 Z " fill="#203A3E" transform="translate(582,594)"/>
<path d="M0 0 C0.81791016 0.92619141 0.81791016 0.92619141 1.65234375 1.87109375 C4.25430405 4.2306085 6.23480984 5.01665452 9.5625 6.0625 C13.17372159 7.20417521 15.53481833 8.07000293 18 11 C17.67 11.99 17.34 12.98 17 14 C16.360625 13.236875 15.72125 12.47375 15.0625 11.6875 C11.68297217 8.24936764 7.55590437 7.22086326 3 6 C3 7.32 3 8.64 3 10 C5.31 10.66 7.62 11.32 10 12 C6.45064295 13.18311902 5.75125428 12.78103361 2.4375 11.3125 C1.65246094 10.97863281 0.86742187 10.64476562 0.05859375 10.30078125 C-2.31537358 8.8007222 -2.99453315 7.58160408 -4 5 C-2.68 5.33 -1.36 5.66 0 6 C0 4.02 0 2.04 0 0 Z " fill="#274246" transform="translate(621,597)"/>
<path d="M0 0 C0.66 0.66 1.32 1.32 2 2 C2.33 1.67 2.66 1.34 3 1 C4.51928038 0.92820036 6.04167482 0.91607993 7.5625 0.9375 C8.38878906 0.94652344 9.21507812 0.95554687 10.06640625 0.96484375 C10.70449219 0.97644531 11.34257812 0.98804688 12 1 C12 1.33 12 1.66 12 2 C9.36 2 6.72 2 4 2 C4 4.31 4 6.62 4 9 C3.34 9 2.68 9 2 9 C2 11.64 2 14.28 2 17 C2.66 17 3.32 17 4 17 C3.375 23.625 3.375 23.625 0 27 C0 18.09 0 9.18 0 0 Z " fill="#4C6366" transform="translate(446,593)"/>
<path d="M0 0 C2 2 2 2 2.22705078 4.61376953 C2.21134033 6.2319458 2.21134033 6.2319458 2.1953125 7.8828125 C2.18564453 9.63271484 2.18564453 9.63271484 2.17578125 11.41796875 C2.15902344 12.64128906 2.14226562 13.86460937 2.125 15.125 C2.11597656 16.35605469 2.10695313 17.58710937 2.09765625 18.85546875 C2.07402548 21.90383815 2.04108054 24.95182382 2 28 C-0.97 28 -3.94 28 -7 28 C-7 27.34 -7 26.68 -7 26 C-4.69 26 -2.38 26 0 26 C0 17.42 0 8.84 0 0 Z " fill="#0E3724" transform="translate(429,525)"/>
<path d="M0 0 C1.98310399 3.96620798 2.24051678 5.39142288 2.1953125 9.640625 C2.18564453 11.24550781 2.18564453 11.24550781 2.17578125 12.8828125 C2.15902344 13.99398437 2.14226563 15.10515625 2.125 16.25 C2.11597656 17.37664063 2.10695313 18.50328125 2.09765625 19.6640625 C2.07410658 22.44292365 2.0412168 25.2213539 2 28 C-0.97 28 -3.94 28 -7 28 C-7 27.34 -7 26.68 -7 26 C-4.69 26 -2.38 26 0 26 C0 17.42 0 8.84 0 0 Z " fill="#1E3E2F" transform="translate(587,525)"/>
<path d="M0 0 C7.92 0 15.84 0 24 0 C23.67 0.99 23.34 1.98 23 3 C20.9375 3.6875 20.9375 3.6875 19 4 C19 3.01 19 2.02 19 1 C18.01 1 17.02 1 16 1 C16 1.66 16 2.32 16 3 C10.72 3 5.44 3 0 3 C0 2.01 0 1.02 0 0 Z " fill="#4C6465" transform="translate(839,590)"/>
<path d="M0 0 C0.33 0 0.66 0 1 0 C1.33 5.61 1.66 11.22 2 17 C2.66 17 3.32 17 4 17 C4 20.63 4 24.26 4 28 C2.68 28 1.36 28 0 28 C0 18.76 0 9.52 0 0 Z " fill="#4A6365" transform="translate(403,596)"/>
<path d="M0 0 C0.33 0.99 0.66 1.98 1 3 C0.34 3.66 -0.32 4.32 -1 5 C-4.66666667 5 -8.33333333 5 -12 5 C-12 3.68 -12 2.36 -12 1 C-12.99 1 -13.98 1 -15 1 C-15.33 2.32 -15.66 3.64 -16 5 C-16 3.35 -16 1.7 -16 0 C-13.7089095 -0.19441368 -11.41709663 -0.38033135 -9.125 -0.5625 C-7.21074219 -0.71912109 -7.21074219 -0.71912109 -5.2578125 -0.87890625 C-2 -1 -2 -1 0 0 Z " fill="#586E70" transform="translate(419,590)"/>
<path d="M0 0 C0.33 0 0.66 0 1 0 C1 11.22 1 22.44 1 34 C3.31 34 5.62 34 8 34 C8.33 34.66 8.66 35.32 9 36 C5.7 36 2.4 36 -1 36 C-0.67 24.12 -0.34 12.24 0 0 Z " fill="#021F0C" transform="translate(678,517)"/>
<path d="M0 0 C0.66 0.33 1.32 0.66 2 1 C-2.56637031 4.04424687 -6.56715459 3.12783166 -12 3 C-12 7.29 -12 11.58 -12 16 C-13.98 16 -15.96 16 -18 16 C-18 15.34 -18 14.68 -18 14 C-16.68 14 -15.36 14 -14 14 C-14.01160156 13.21753906 -14.02320313 12.43507813 -14.03515625 11.62890625 C-14.04417969 10.61699219 -14.05320312 9.60507812 -14.0625 8.5625 C-14.07410156 7.55316406 -14.08570313 6.54382813 -14.09765625 5.50390625 C-14 3 -14 3 -13 2 C-11.19188816 1.79103683 -9.37783968 1.63219639 -7.5625 1.5 C-3.63565085 1.28580817 -3.63565085 1.28580817 0 0 Z " fill="#253F43" transform="translate(730,608)"/>
<path d="M0 0 C0.33 0 0.66 0 1 0 C1 10.56 1 21.12 1 32 C1.99 32 2.98 32 4 32 C4 32.66 4 33.32 4 34 C2.35 34 0.7 34 -1 34 C-0.67 22.78 -0.34 11.56 0 0 Z " fill="#304C50" transform="translate(527,590)"/>
<path d="M0 0 C4.62 0 9.24 0 14 0 C14 0.99 14 1.98 14 3 C9.05 3 4.1 3 -1 3 C-0.67 2.01 -0.34 1.02 0 0 Z " fill="#4C6465" transform="translate(817,590)"/>
<path d="M0 0 C2.79872437 2.52788007 4.45773019 4.20411134 5 8 C4.01 7.34 3.02 6.68 2 6 C1.01 7.32 0.02 8.64 -1 10 C-3.62386487 6.93882432 -4 6.26826873 -4 2 C-2.68 1.34 -1.36 0.68 0 0 Z " fill="#314C4F" transform="translate(555,601)"/>
<path d="M0 0 C1.61648438 0.04060547 1.61648438 0.04060547 3.265625 0.08203125 C4.08546875 0.11683594 4.9053125 0.15164063 5.75 0.1875 C5.75 1.1775 5.75 2.1675 5.75 3.1875 C0.47 3.1875 -4.81 3.1875 -10.25 3.1875 C-5.93072606 -0.05195545 -5.09798489 -0.16623864 0 0 Z " fill="#4B6265" transform="translate(884.25,618.8125)"/>
<path d="M0 0 C1.32 0 2.64 0 4 0 C4 4.62 4 9.24 4 14 C3.01 14.33 2.02 14.66 1 15 C0.34 14.34 -0.32 13.68 -1 13 C-0.01 13 0.98 13 2 13 C2 9.04 2 5.08 2 1 C1.34 0.67 0.68 0.34 0 0 Z " fill="#052413" transform="translate(245,409)"/>
<path d="M0 0 C4.29 0 8.58 0 13 0 C13 1.98 13 3.96 13 6 C8.71 5.67 4.42 5.34 0 5 C0 4.67 0 4.34 0 4 C3.63 4 7.26 4 11 4 C11 3.01 11 2.02 11 1 C7.37 1 3.74 1 0 1 C0 0.67 0 0.34 0 0 Z " fill="#1B373B" transform="translate(817,604)"/>
<path d="M0 0 C2 1 2 1 2.6328125 2.84765625 C3.08854167 4.8984375 3.54427083 6.94921875 4 9 C0.7 9 -2.6 9 -6 9 C-6.33 7.68 -6.66 6.36 -7 5 C-6.67 5.66 -6.34 6.32 -6 7 C-2.535 6.505 -2.535 6.505 1 6 C0.67 4.02 0.34 2.04 0 0 Z " fill="#072817" transform="translate(859,544)"/>
<path d="M0 0 C0.66 0.66 1.32 1.32 2 2 C2.33 1.67 2.66 1.34 3 1 C4.51928038 0.92820036 6.04167482 0.91607993 7.5625 0.9375 C8.38878906 0.94652344 9.21507812 0.95554687 10.06640625 0.96484375 C10.70449219 0.97644531 11.34257812 0.98804688 12 1 C12 1.33 12 1.66 12 2 C9.36 2 6.72 2 4 2 C4 4.31 4 6.62 4 9 C3.34 9 2.68 9 2 9 C-0.29013653 5.5647952 -0.17842973 4.014669 0 0 Z " fill="#53696C" transform="translate(446,593)"/>
<path d="M0 0 C4.62 0 9.24 0 14 0 C14 1.32 14 2.64 14 4 C11.03 3.67 8.06 3.34 5 3 C5 2.67 5 2.34 5 2 C3.35 1.67 1.7 1.34 0 1 C0 0.67 0 0.34 0 0 Z " fill="#4D6668" transform="translate(446,590)"/>
<path d="M0 0 C0 0.99 0 1.98 0 3 C-2.75078884 3.91692961 -4.35948913 4.10886083 -7.1875 4.0625 C-9.0746875 4.0315625 -9.0746875 4.0315625 -11 4 C-11 3.01 -11 2.02 -11 1 C-9.5437328 0.63743142 -8.08488815 0.28520207 -6.625 -0.0625 C-5.40683594 -0.35833984 -5.40683594 -0.35833984 -4.1640625 -0.66015625 C-2 -1 -2 -1 0 0 Z " fill="#4A6465" transform="translate(419,606)"/>
<path d="M0 0 C0.33 0 0.66 0 1 0 C1 4.29 1 8.58 1 13 C-0.32 13 -1.64 13 -3 13 C-3 9.37 -3 5.74 -3 2 C-2.67 2 -2.34 2 -2 2 C-2 4.64 -2 7.28 -2 10 C-1.34 10 -0.68 10 0 10 C0 6.7 0 3.4 0 0 Z " fill="#486264" transform="translate(778,611)"/>
<path d="M0 0 C2.75 -0.25 2.75 -0.25 6 0 C8.375 2 8.375 2 10 4 C9.67 4.99 9.34 5.98 9 7 C7.68 6.34 6.36 5.68 5 5 C5 4.34 5 3.68 5 3 C2.525 2.01 2.525 2.01 0 1 C0 0.67 0 0.34 0 0 Z " fill="#344F51" transform="translate(625,588)"/>
<path d="M0 0 C3.63 0 7.26 0 11 0 C11 0.99 11 1.98 11 3 C7.7 3 4.4 3 1 3 C0.67 2.01 0.34 1.02 0 0 Z " fill="#4C6366" transform="translate(877,605)"/>
<path d="M0 0 C0.66 0.33 1.32 0.66 2 1 C2.33 1.99 2.66 2.98 3 4 C2.34 4.66 1.68 5.32 1 6 C-1.3828125 5.7578125 -1.3828125 5.7578125 -4.125 5.125 C-5.49011719 4.81949219 -5.49011719 4.81949219 -6.8828125 4.5078125 C-7.58148438 4.34023438 -8.28015625 4.17265625 -9 4 C-9 3.67 -9 3.34 -9 3 C-7.02 3 -5.04 3 -3 3 C-3 2.34 -3 1.68 -3 1 C-2.01 0.67 -1.02 0.34 0 0 Z " fill="#496263" transform="translate(417,589)"/>
<path d="M0 0 C0 3.84926685 -1.02041763 5.70069605 -3 9 C-4.90288793 10.85931034 -6.86917373 12.39004238 -9 14 C-7.65070536 10.16336928 -5.92248975 7.34827431 -3.375 4.1875 C-2.42753906 3.00220703 -2.42753906 3.00220703 -1.4609375 1.79296875 C-0.97882813 1.20128906 -0.49671875 0.60960937 0 0 Z " fill="#082316" transform="translate(454,385)"/>
<path d="M0 0 C0.66 0 1.32 0 2 0 C2.66 2.31 3.32 4.62 4 7 C2.02 7.33 0.04 7.66 -2 8 C-1.34 5.36 -0.68 2.72 0 0 Z " fill="#F1F5F3" transform="translate(644,521)"/>
<path d="M0 0 C0.33 0 0.66 0 1 0 C1 2.97 1 5.94 1 9 C-2.96 8.67 -6.92 8.34 -11 8 C-11 7.67 -11 7.34 -11 7 C-7.7 7 -4.4 7 -1 7 C-0.67 4.69 -0.34 2.38 0 0 Z " fill="#0F2D1C" transform="translate(497,508)"/>
<path d="M0 0 C0.68707555 2.49064888 1 4.37886292 1 7 C0.46375 6.525625 -0.0725 6.05125 -0.625 5.5625 C-3.42842836 3.71813924 -5.69620258 3.37543153 -9 3 C-6.38997624 -0.48003168 -4.1689578 -0.27793052 0 0 Z " fill="#2B4648" transform="translate(697,591)"/>
<path d="M0 0 C1.98 0 3.96 0 6 0 C6 0.33 6 0.66 6 1 C8.97 1.495 8.97 1.495 12 2 C12 2.33 12 2.66 12 3 C11.06027344 3.09087891 11.06027344 3.09087891 10.1015625 3.18359375 C9.28429687 3.26738281 8.46703125 3.35117187 7.625 3.4375 C6.81289063 3.51871094 6.00078125 3.59992187 5.1640625 3.68359375 C2.95727195 3.89090114 2.95727195 3.89090114 1 5 C0.67 3.35 0.34 1.7 0 0 Z " fill="#375255" transform="translate(446,591)"/>
<path d="M0 0 C0.66 0 1.32 0 2 0 C2.33 1.65 2.66 3.3 3 5 C-0.3 5 -3.6 5 -7 5 C-7 4.34 -7 3.68 -7 3 C-4.36 3 -1.72 3 1 3 C0.67 2.01 0.34 1.02 0 0 Z " fill="#052918" transform="translate(663,548)"/>
<path d="M0 0 C0.33 1.32 0.66 2.64 1 4 C-0.8125 5.5625 -0.8125 5.5625 -3 7 C-3.99 6.67 -4.98 6.34 -6 6 C-4 4 -2 2 0 0 Z " fill="#395256" transform="translate(666,614)"/>
<path d="M0 0 C1.7074998 1.28062485 3.37373596 2.61767557 5 4 C5 4.66 5 5.32 5 6 C1.37 6 -2.26 6 -6 6 C-6 5.67 -6 5.34 -6 5 C-3.36 5 -0.72 5 2 5 C1.34 3.35 0.68 1.7 0 0 Z " fill="#0F3725" transform="translate(569,547)"/>
<path d="M0 0 C0 1.65 0 3.3 0 5 C-0.66 5 -1.32 5 -2 5 C-2 4.01 -2 3.02 -2 2 C-5.63 2 -9.26 2 -13 2 C-13 1.67 -13 1.34 -13 1 C-11.20843648 0.83222817 -9.4167455 0.66581706 -7.625 0.5 C-6.62726563 0.4071875 -5.62953125 0.314375 -4.6015625 0.21875 C-2 0 -2 0 0 0 Z " fill="#FDFEFD" transform="translate(199,346)"/>
<path d="M0 0 C4.455 0.99 4.455 0.99 9 2 C7.02 2.99 7.02 2.99 5 4 C4.34 4.66 3.68 5.32 3 6 C2.34 5.67 1.68 5.34 1 5 C0.375 2.4375 0.375 2.4375 0 0 Z " fill="#2C4649" transform="translate(653,616)"/>
<path d="M0 0 C1.98 0.99 1.98 0.99 4 2 C3.67 3.32 3.34 4.64 3 6 C2.01 6 1.02 6 0 6 C0 4.02 0 2.04 0 0 Z " fill="#486063" transform="translate(461,591)"/>
<path d="M0 0 C0.66 0.33 1.32 0.66 2 1 C2.625 4.0625 2.625 4.0625 3 7 C1.35 6.67 -0.3 6.34 -2 6 C-1.34 4.02 -0.68 2.04 0 0 Z " fill="#EFF4F2" transform="translate(841,521)"/>
<path d="M0 0 C0.33 0 0.66 0 1 0 C1.625 3.375 1.625 3.375 2 7 C1.34 7.66 0.68 8.32 0 9 C-0.66 8.67 -1.32 8.34 -2 8 C-1.34 5.36 -0.68 2.72 0 0 Z " fill="#133727" transform="translate(835,508)"/>
<path d="M0 0 C2.25245881 2.68841859 3.88213958 4.64641875 5 8 C3.68 7.67 2.36 7.34 1 7 C0.67 4.69 0.34 2.38 0 0 Z " fill="#E3EBE7" transform="translate(588,524)"/>
<path d="M0 0 C0.33 0.66 0.66 1.32 1 2 C-0.65 4.31 -2.3 6.62 -4 9 C-5 6 -5 6 -5 4 C-4.01 3.67 -3.02 3.34 -2 3 C-1.34 2.01 -0.68 1.02 0 0 Z " fill="#072316" transform="translate(481,398)"/>
</svg>
