<?xml version="1.0" encoding="UTF-8"?>
<svg version="1.1" xmlns="http://www.w3.org/2000/svg" width="2030" height="242">
<path d="M0 0 C0.69294159 -0.00029205 1.38588318 -0.00058411 2.099823 -0.00088501 C4.38869783 0.00050759 6.67724654 0.01606521 8.96606445 0.03173828 C10.55361249 0.03546867 12.14116283 0.03831552 13.72871399 0.04031372 C17.90612144 0.04794818 22.08338971 0.06759503 26.26074219 0.08972168 C30.52382525 0.11018415 34.78693081 0.1193163 39.05004883 0.12939453 C47.41404497 0.15084113 55.77792802 0.18497478 64.1418457 0.22705078 C58.99919883 15.21800721 53.48753182 30.04884901 47.8293457 44.85205078 C46.98492435 47.06682474 46.14068728 49.28166897 45.29663086 51.49658203 C42.91567138 57.7415914 40.52942678 63.98457057 38.1418457 70.22705078 C37.53033387 71.82697767 36.91884111 73.42691185 36.30737305 75.02685547 C34.87970373 78.76121682 33.44922143 82.49449167 32.0168457 86.22705078 C31.62198975 87.25652832 31.22713379 88.28600586 30.8203125 89.34667969 C30.47009033 90.25595215 30.11986816 91.16522461 29.7590332 92.10205078 C29.46625488 92.86259766 29.17347656 93.62314453 28.87182617 94.40673828 C28.1418457 96.22705078 28.1418457 96.22705078 27.1418457 98.22705078 C28.2877417 98.191521 29.4336377 98.15599121 30.61425781 98.11938477 C34.85011645 97.98939241 39.08614782 97.86610042 43.32226562 97.74487305 C45.1585832 97.69137544 46.99484818 97.63604032 48.83105469 97.57885742 C51.46448417 97.49716215 54.09802975 97.42199341 56.73168945 97.34814453 C57.55773178 97.32110947 58.38377411 97.2940744 59.23484802 97.26622009 C61.20320381 97.21422068 63.17283902 97.21517241 65.1418457 97.22705078 C66.1418457 98.22705078 66.1418457 98.22705078 66.2668457 100.72705078 C66.1418457 103.22705078 66.1418457 103.22705078 65.1418457 104.22705078 C62.67740514 104.32205627 60.24109944 104.35263063 57.77636719 104.34057617 C57.00568909 104.3407222 56.23501099 104.34086823 55.440979 104.34101868 C52.88160432 104.34031938 50.3223015 104.33252623 47.76293945 104.32470703 C45.99316955 104.32284291 44.22339914 104.32141898 42.45362854 104.32041931 C37.78633205 104.31659366 33.11906647 104.30676298 28.45178223 104.29571533 C23.69287535 104.28550222 18.9339635 104.28092191 14.17504883 104.27587891 C4.83063417 104.26514075 -4.5137575 104.24806377 -13.8581543 104.22705078 C-10.57392772 94.80529031 -7.25369485 85.41894684 -3.5378418 76.15673828 C-3.15660156 75.19805847 -2.77536133 74.23937866 -2.38256836 73.25164795 C-1.57923954 71.2322593 -0.77452149 69.21342276 0.03155518 67.19512939 C2.13750923 61.92197195 4.23320164 56.64473884 6.3293457 51.36767578 C6.94944016 49.80752243 6.94944016 49.80752243 7.58206177 48.21585083 C11.70476405 37.83208459 15.74473297 27.41716236 19.75170898 16.98828125 C20.41275635 15.26955811 20.41275635 15.26955811 21.0871582 13.51611328 C21.46372559 12.53336426 21.84029297 11.55061523 22.22827148 10.53808594 C23.1418457 8.22705078 23.1418457 8.22705078 24.1418457 6.22705078 C7.8068457 6.72205078 7.8068457 6.72205078 -8.8581543 7.22705078 C-9.1881543 5.57705078 -9.5181543 3.92705078 -9.8581543 2.22705078 C-6.17539161 -0.22812434 -4.39182043 -0.01554627 0 0 Z " fill="#FF0000" transform="translate(314.858154296875,35.77294921875)"/>
<path d="M0 0 C1.32 0 2.64 0 4 0 C4 12.54 4 25.08 4 38 C2.68 38 1.36 38 0 38 C0 35.69 0 33.38 0 31 C-25.30875552 37.02589417 -46.6116885 48.9150038 -60.91308594 71.20800781 C-65.97340026 79.55093394 -69.15517734 88.71249072 -72 98 C-69.36 98 -66.72 98 -64 98 C-64 99.65 -64 101.3 -64 103 C-77.2 103 -90.4 103 -104 103 C-104 101.35 -104 99.7 -104 98 C-101.69 98 -99.38 98 -97 98 C-96.84144531 97.14019531 -96.68289062 96.28039062 -96.51953125 95.39453125 C-92.82098297 76.65658223 -84.93782488 60.90033657 -73 46 C-72.46375 45.32066406 -71.9275 44.64132813 -71.375 43.94140625 C-67.68968541 39.44492187 -63.48749422 35.68248571 -59 32 C-58.40703125 31.50757812 -57.8140625 31.01515625 -57.203125 30.5078125 C-41.6803692 18.2355483 -20.07614553 7.53085962 0 7 C0 4.69 0 2.38 0 0 Z " fill="#1952A0" transform="translate(148,6)"/>
<path d="M0 0 C13.2 0 26.4 0 40 0 C40 1.65 40 3.3 40 5 C37.36 5 34.72 5 32 5 C36.99711875 19.78834829 42.50757141 32.19601783 53 44 C53 44.66 53 45.32 53 46 C53.87398437 46.38478516 53.87398437 46.38478516 54.765625 46.77734375 C57.20139275 48.11020268 58.77962255 49.61182632 60.75 51.5625 C72.79005367 62.48810242 88.37903128 68.45709988 104 72 C104 69.69 104 67.38 104 65 C105.32 65 106.64 65 108 65 C108 77.54 108 90.08 108 103 C106.68 103 105.36 103 104 103 C103.505 99.535 103.505 99.535 103 96 C102.11441406 95.85304688 101.22882813 95.70609375 100.31640625 95.5546875 C75.52727789 91.06633335 55.38112337 80.30546383 37 63 C36.38511719 62.44957031 35.77023438 61.89914063 35.13671875 61.33203125 C20.14665383 47.37576391 10.61673518 25.91107896 7 6 C4.69 5.67 2.38 5.34 0 5 C0 3.35 0 1.7 0 0 Z " fill="#1952A0" transform="translate(44,132)"/>
<path d="M0 0 C1.32 0 2.64 0 4 0 C4 2.31 4 4.62 4 7 C4.74121094 7.07476563 5.48242188 7.14953125 6.24609375 7.2265625 C25.55477344 9.63719326 45.38854456 18.03687318 60 31 C60.82886719 31.721875 61.65773437 32.44375 62.51171875 33.1875 C65.04045423 35.42518521 67.52525054 37.70290367 70 40 C70.61746094 40.55171875 71.23492187 41.1034375 71.87109375 41.671875 C86.6552106 55.4658316 97.81766974 77.90038551 99 98 C101.97 98 104.94 98 108 98 C108 99.65 108 101.3 108 103 C94.8 103 81.6 103 68 103 C68 101.35 68 99.7 68 98 C69.98 97.67 71.96 97.34 74 97 C70.31486167 83.61802304 65.35415447 72.64166132 56.3828125 61.83984375 C55 60 55 60 54 57 C52.67731989 56.31243942 51.34169951 55.64966503 50 55 C48.42602384 53.61931916 46.88715662 52.19812393 45.375 50.75 C33.71479119 40.14209533 19.19543276 34.60141234 4 31 C4 33.31 4 35.62 4 38 C2.68 38 1.36 38 0 38 C0 25.46 0 12.92 0 0 Z " fill="#1A52A0" transform="translate(178,6)"/>
<path d="M0 0 C13.2 0 26.4 0 40 0 C40 1.65 40 3.3 40 5 C37.03 5 34.06 5 31 5 C30.9071875 6.7634375 30.9071875 6.7634375 30.8125 8.5625 C27.89838873 34.03103413 10.50484877 57.43441942 -9 73 C-20.92995176 81.49275077 -33.41511292 88.13957303 -47.4375 92.4375 C-48.27812988 92.69684326 -49.11875977 92.95618652 -49.98486328 93.22338867 C-54.82459632 94.62705601 -58.96336941 95.27792982 -64 95 C-64 97.64 -64 100.28 -64 103 C-65.32 103 -66.64 103 -68 103 C-68 90.46 -68 77.92 -68 65 C-66.68 65 -65.36 65 -64 65 C-64 67.31 -64 69.62 -64 72 C-37.13547636 63.6847903 -14.82202273 51.18232031 -1.19921875 25.62109375 C1.83395378 19.2461629 4.24056586 12.83709931 6 6 C4.02 5.67 2.04 5.34 0 5 C0 3.35 0 1.7 0 0 Z " fill="#1952A0" transform="translate(246,132)"/>
<path d="M0 0 C19.47 0 38.94 0 59 0 C58.20160442 4.79037348 57.58440246 7.33984161 55.54296875 11.48828125 C55.01719238 12.5669043 54.49141602 13.64552734 53.94970703 14.75683594 C53.07741455 16.51688965 53.07741455 16.51688965 52.1875 18.3125 C51.57329624 19.56635989 50.95987479 20.82060325 50.34716797 22.07519531 C48.99218851 24.84658099 47.63265928 27.61567369 46.27001953 30.38330078 C42.47083616 38.10334659 38.70415341 45.83930662 34.93203735 53.57260132 C33.65857986 56.18121338 32.38270689 58.7886304 31.10620117 61.39575195 C25.97418315 71.88688982 20.94831986 82.4208334 16 93 C25.57 93 35.14 93 45 93 C45 91.02 45 89.04 45 87 C43.329375 87.0309375 43.329375 87.0309375 41.625 87.0625 C38 87 38 87 36 86 C36 84.35 36 82.7 36 81 C39.47914941 80.97112186 42.95826831 80.95324313 46.4375 80.9375 C47.92733398 80.92493164 47.92733398 80.92493164 49.44726562 80.91210938 C50.86362305 80.90727539 50.86362305 80.90727539 52.30859375 80.90234375 C53.18314209 80.89710693 54.05769043 80.89187012 54.95874023 80.88647461 C57 81 57 81 58 82 C58 89.59 58 97.18 58 105 C37.21 105 16.42 105 -5 105 C-5.33 104.34 -5.66 103.68 -6 103 C-5.27832031 101.02661133 -5.27832031 101.02661133 -4.078125 98.58203125 C-3.413573 97.21220093 -3.413573 97.21220093 -2.7355957 95.81469727 C-2.24534912 94.82397217 -1.75510254 93.83324707 -1.25 92.8125 C-0.22759596 90.7136725 0.79453167 88.61471033 1.81640625 86.515625 C2.34508301 85.43603516 2.87375977 84.35644531 3.41845703 83.24414062 C5.40642308 79.16632451 7.35622773 75.07101198 9.3034668 70.97363281 C13.71119579 61.70255141 18.20711152 52.48297895 22.83251953 43.31884766 C25.35846761 38.30181401 27.86433317 33.27469266 30.375 28.25 C31.40358264 26.19267674 32.43222453 24.1353831 33.4609375 22.078125 C33.90228027 21.19543945 34.34362305 20.31275391 34.79833984 19.40332031 C35.8655599 17.26888021 36.93277995 15.1344401 38 13 C27.44 12.67 16.88 12.34 6 12 C6 14.97 6 17.94 6 21 C1.125 20.125 1.125 20.125 0 19 C0 12.73 0 6.46 0 0 Z " fill="#EB1A31" transform="translate(138,55)"/>
<path d="M0 0 C6.25211115 3.2776926 10.94141293 8.77824521 13.0625 15.5 C13.94073901 23.38372693 13.70615086 30.84582991 9.0625 37.5 C4.01376205 43.09657973 -0.74429148 46.17925964 -8.41015625 46.765625 C-9.59480469 46.76046875 -10.77945312 46.7553125 -12 46.75 C-13.18722656 46.75515625 -14.37445312 46.7603125 -15.59765625 46.765625 C-18.9375 46.5 -18.9375 46.5 -23.9375 44.5 C-23.9375 49.78 -23.9375 55.06 -23.9375 60.5 C-30.2075 60.5 -36.4775 60.5 -42.9375 60.5 C-42.9375 40.37 -42.9375 20.24 -42.9375 -0.5 C-36.0075 -0.5 -29.0775 -0.5 -21.9375 -0.5 C-15.20071519 -2.74559494 -6.63201164 -2.6001151 0 0 Z M-17.5 2.875 C-18.67755859 3.28878906 -18.67755859 3.28878906 -19.87890625 3.7109375 C-21.95684231 4.46906128 -21.95684231 4.46906128 -23.9375 5.5 C-23.9375 16.72 -23.9375 27.94 -23.9375 39.5 C-17.84504997 42.96225016 -17.84504997 42.96225016 -9.9375 43.5 C-9.9375 29.97 -9.9375 16.44 -9.9375 2.5 C-13.38211631 1.35179456 -14.19168522 1.68684082 -17.5 2.875 Z " fill="#FF0000" transform="translate(1919.9375,74.5)"/>
<path d="M0 0 C6.25211115 3.2776926 10.94141293 8.77824521 13.0625 15.5 C13.94073901 23.38372693 13.70615086 30.84582991 9.0625 37.5 C4.01376205 43.09657973 -0.74429148 46.17925964 -8.41015625 46.765625 C-9.59480469 46.76046875 -10.77945312 46.7553125 -12 46.75 C-13.18722656 46.75515625 -14.37445312 46.7603125 -15.59765625 46.765625 C-18.9375 46.5 -18.9375 46.5 -23.9375 44.5 C-23.9375 49.78 -23.9375 55.06 -23.9375 60.5 C-30.2075 60.5 -36.4775 60.5 -42.9375 60.5 C-42.9375 40.37 -42.9375 20.24 -42.9375 -0.5 C-36.0075 -0.5 -29.0775 -0.5 -21.9375 -0.5 C-15.20071519 -2.74559494 -6.63201164 -2.6001151 0 0 Z M-17.5 2.875 C-18.67755859 3.28878906 -18.67755859 3.28878906 -19.87890625 3.7109375 C-21.95684231 4.46906128 -21.95684231 4.46906128 -23.9375 5.5 C-23.9375 16.72 -23.9375 27.94 -23.9375 39.5 C-17.84504997 42.96225016 -17.84504997 42.96225016 -9.9375 43.5 C-9.9375 29.97 -9.9375 16.44 -9.9375 2.5 C-13.38211631 1.35179456 -14.19168522 1.68684082 -17.5 2.875 Z " fill="#FF0000" transform="translate(1852.9375,74.5)"/>
<path d="M0 0 C6.25211115 3.2776926 10.94141293 8.77824521 13.0625 15.5 C13.94073901 23.38372693 13.70615086 30.84582991 9.0625 37.5 C4.01376205 43.09657973 -0.74429148 46.17925964 -8.41015625 46.765625 C-9.59480469 46.76046875 -10.77945312 46.7553125 -12 46.75 C-13.18722656 46.75515625 -14.37445312 46.7603125 -15.59765625 46.765625 C-18.9375 46.5 -18.9375 46.5 -23.9375 44.5 C-23.9375 49.78 -23.9375 55.06 -23.9375 60.5 C-30.2075 60.5 -36.4775 60.5 -42.9375 60.5 C-42.9375 40.37 -42.9375 20.24 -42.9375 -0.5 C-36.0075 -0.5 -29.0775 -0.5 -21.9375 -0.5 C-15.20071519 -2.74559494 -6.63201164 -2.6001151 0 0 Z M-17.5 2.875 C-18.67755859 3.28878906 -18.67755859 3.28878906 -19.87890625 3.7109375 C-21.95684231 4.46906128 -21.95684231 4.46906128 -23.9375 5.5 C-23.9375 16.72 -23.9375 27.94 -23.9375 39.5 C-17.84504997 42.96225016 -17.84504997 42.96225016 -9.9375 43.5 C-9.9375 29.97 -9.9375 16.44 -9.9375 2.5 C-13.38211631 1.35179456 -14.19168522 1.68684082 -17.5 2.875 Z " fill="#FF0000" transform="translate(1401.9375,74.5)"/>
<path d="M0 0 C2.88578756 2.14584203 3.92759127 3.53603853 5.4375 6.8125 C5.83793258 9.89750817 5.78711233 12.94441032 5.73046875 16.05078125 C5.72622391 16.93154831 5.72197906 17.81231537 5.71760559 18.71977234 C5.70086644 21.5218311 5.6632233 24.32316009 5.625 27.125 C5.60994699 29.02928646 5.59625966 30.93358424 5.58398438 32.83789062 C5.5535353 37.49659837 5.49480598 42.15373618 5.4375 46.8125 C-0.8325 46.8125 -7.1025 46.8125 -13.5625 46.8125 C-13.5625 32.9525 -13.5625 19.0925 -13.5625 4.8125 C-20.08797352 5.89156127 -20.08797352 5.89156127 -24.38433838 10.00201416 C-26.43221274 13.14899117 -26.41204845 16.43078726 -26.3671875 20.0546875 C-26.38089386 20.82305939 -26.39460022 21.59143127 -26.40872192 22.38308716 C-26.44588077 24.81849477 -26.44231735 27.25185026 -26.4375 29.6875 C-26.45563698 31.34638584 -26.47644283 33.00524478 -26.5 34.6640625 C-26.55670931 38.7147277 -26.55824773 42.76008932 -26.5625 46.8125 C-33.1625 46.8125 -39.7625 46.8125 -46.5625 46.8125 C-46.5625 31.3025 -46.5625 15.7925 -46.5625 -0.1875 C-39.9625 -0.1875 -33.3625 -0.1875 -26.5625 -0.1875 C-26.2325 1.4625 -25.9025 3.1125 -25.5625 4.8125 C-25.09199219 4.46316406 -24.62148437 4.11382812 -24.13671875 3.75390625 C-23.51410156 3.29886719 -22.89148437 2.84382813 -22.25 2.375 C-21.63511719 1.92253906 -21.02023437 1.47007813 -20.38671875 1.00390625 C-14.6472645 -2.74455959 -6.24400597 -2.08133532 0 0 Z " fill="#FF0000" transform="translate(1595.5625,74.1875)"/>
<path d="M0 0 C2.88578756 2.14584203 3.92759127 3.53603853 5.4375 6.8125 C5.83793258 9.89750817 5.78711233 12.94441032 5.73046875 16.05078125 C5.72622391 16.93154831 5.72197906 17.81231537 5.71760559 18.71977234 C5.70086644 21.5218311 5.6632233 24.32316009 5.625 27.125 C5.60994699 29.02928646 5.59625966 30.93358424 5.58398438 32.83789062 C5.5535353 37.49659837 5.49480598 42.15373618 5.4375 46.8125 C-0.8325 46.8125 -7.1025 46.8125 -13.5625 46.8125 C-13.5625 32.9525 -13.5625 19.0925 -13.5625 4.8125 C-20.08797352 5.89156127 -20.08797352 5.89156127 -24.38433838 10.00201416 C-26.43221274 13.14899117 -26.41204845 16.43078726 -26.3671875 20.0546875 C-26.38089386 20.82305939 -26.39460022 21.59143127 -26.40872192 22.38308716 C-26.44588077 24.81849477 -26.44231735 27.25185026 -26.4375 29.6875 C-26.45563698 31.34638584 -26.47644283 33.00524478 -26.5 34.6640625 C-26.55670931 38.7147277 -26.55824773 42.76008932 -26.5625 46.8125 C-33.1625 46.8125 -39.7625 46.8125 -46.5625 46.8125 C-46.5625 31.3025 -46.5625 15.7925 -46.5625 -0.1875 C-39.9625 -0.1875 -33.3625 -0.1875 -26.5625 -0.1875 C-26.2325 1.4625 -25.9025 3.1125 -25.5625 4.8125 C-25.09199219 4.46316406 -24.62148437 4.11382812 -24.13671875 3.75390625 C-23.51410156 3.29886719 -22.89148437 2.84382813 -22.25 2.375 C-21.63511719 1.92253906 -21.02023437 1.47007813 -20.38671875 1.00390625 C-14.6472645 -2.74455959 -6.24400597 -2.08133532 0 0 Z " fill="#FF0000" transform="translate(1124.5625,74.1875)"/>
<path d="M0 0 C2.88578756 2.14584203 3.92759127 3.53603853 5.4375 6.8125 C5.83793258 9.89750817 5.78711233 12.94441032 5.73046875 16.05078125 C5.72622391 16.93154831 5.72197906 17.81231537 5.71760559 18.71977234 C5.70086644 21.5218311 5.6632233 24.32316009 5.625 27.125 C5.60994699 29.02928646 5.59625966 30.93358424 5.58398438 32.83789062 C5.5535353 37.49659837 5.49480598 42.15373618 5.4375 46.8125 C-0.8325 46.8125 -7.1025 46.8125 -13.5625 46.8125 C-13.5625 32.9525 -13.5625 19.0925 -13.5625 4.8125 C-20.08797352 5.89156127 -20.08797352 5.89156127 -24.38433838 10.00201416 C-26.43221274 13.14899117 -26.41204845 16.43078726 -26.3671875 20.0546875 C-26.38089386 20.82305939 -26.39460022 21.59143127 -26.40872192 22.38308716 C-26.44588077 24.81849477 -26.44231735 27.25185026 -26.4375 29.6875 C-26.45563698 31.34638584 -26.47644283 33.00524478 -26.5 34.6640625 C-26.55670931 38.7147277 -26.55824773 42.76008932 -26.5625 46.8125 C-33.1625 46.8125 -39.7625 46.8125 -46.5625 46.8125 C-46.5625 31.3025 -46.5625 15.7925 -46.5625 -0.1875 C-39.9625 -0.1875 -33.3625 -0.1875 -26.5625 -0.1875 C-26.2325 1.4625 -25.9025 3.1125 -25.5625 4.8125 C-25.09199219 4.46316406 -24.62148438 4.11382812 -24.13671875 3.75390625 C-23.51410156 3.29886719 -22.89148438 2.84382813 -22.25 2.375 C-21.63511719 1.92253906 -21.02023437 1.47007813 -20.38671875 1.00390625 C-14.6472645 -2.74455959 -6.24400597 -2.08133532 0 0 Z " fill="#FF0000" transform="translate(864.5625,74.1875)"/>
<path d="M0 0 C2.88578756 2.14584203 3.92759127 3.53603853 5.4375 6.8125 C5.83793258 9.89750817 5.78711233 12.94441032 5.73046875 16.05078125 C5.72622391 16.93154831 5.72197906 17.81231537 5.71760559 18.71977234 C5.70086644 21.5218311 5.6632233 24.32316009 5.625 27.125 C5.60994699 29.02928646 5.59625966 30.93358424 5.58398438 32.83789062 C5.5535353 37.49659837 5.49480598 42.15373618 5.4375 46.8125 C-0.8325 46.8125 -7.1025 46.8125 -13.5625 46.8125 C-13.5625 32.9525 -13.5625 19.0925 -13.5625 4.8125 C-20.08797352 5.89156127 -20.08797352 5.89156127 -24.38433838 10.00201416 C-26.43221274 13.14899117 -26.41204845 16.43078726 -26.3671875 20.0546875 C-26.38089386 20.82305939 -26.39460022 21.59143127 -26.40872192 22.38308716 C-26.44588077 24.81849477 -26.44231735 27.25185026 -26.4375 29.6875 C-26.45563698 31.34638584 -26.47644283 33.00524478 -26.5 34.6640625 C-26.55670931 38.7147277 -26.55824773 42.76008932 -26.5625 46.8125 C-33.1625 46.8125 -39.7625 46.8125 -46.5625 46.8125 C-46.5625 31.3025 -46.5625 15.7925 -46.5625 -0.1875 C-39.9625 -0.1875 -33.3625 -0.1875 -26.5625 -0.1875 C-26.2325 1.4625 -25.9025 3.1125 -25.5625 4.8125 C-25.09199219 4.46316406 -24.62148438 4.11382812 -24.13671875 3.75390625 C-23.51410156 3.29886719 -22.89148438 2.84382813 -22.25 2.375 C-21.63511719 1.92253906 -21.02023437 1.47007813 -20.38671875 1.00390625 C-14.6472645 -2.74455959 -6.24400597 -2.08133532 0 0 Z " fill="#FF0000" transform="translate(656.5625,74.1875)"/>
<path d="M0 0 C2.88578756 2.14584203 3.92759127 3.53603853 5.4375 6.8125 C5.83793258 9.89750817 5.78711233 12.94441032 5.73046875 16.05078125 C5.72622391 16.93154831 5.72197906 17.81231537 5.71760559 18.71977234 C5.70086644 21.5218311 5.6632233 24.32316009 5.625 27.125 C5.60994699 29.02928646 5.59625966 30.93358424 5.58398438 32.83789062 C5.5535353 37.49659837 5.49480598 42.15373618 5.4375 46.8125 C-0.8325 46.8125 -7.1025 46.8125 -13.5625 46.8125 C-13.5625 32.9525 -13.5625 19.0925 -13.5625 4.8125 C-20.08797352 5.89156127 -20.08797352 5.89156127 -24.38433838 10.00201416 C-26.43221274 13.14899117 -26.41204845 16.43078726 -26.3671875 20.0546875 C-26.38089386 20.82305939 -26.39460022 21.59143127 -26.40872192 22.38308716 C-26.44588077 24.81849477 -26.44231735 27.25185026 -26.4375 29.6875 C-26.45563698 31.34638584 -26.47644283 33.00524478 -26.5 34.6640625 C-26.55670931 38.7147277 -26.55824773 42.76008932 -26.5625 46.8125 C-33.1625 46.8125 -39.7625 46.8125 -46.5625 46.8125 C-46.5625 31.3025 -46.5625 15.7925 -46.5625 -0.1875 C-39.9625 -0.1875 -33.3625 -0.1875 -26.5625 -0.1875 C-26.2325 1.4625 -25.9025 3.1125 -25.5625 4.8125 C-25.09199219 4.46316406 -24.62148438 4.11382812 -24.13671875 3.75390625 C-23.51410156 3.29886719 -22.89148438 2.84382813 -22.25 2.375 C-21.63511719 1.92253906 -21.02023437 1.47007813 -20.38671875 1.00390625 C-14.6472645 -2.74455959 -6.24400597 -2.08133532 0 0 Z " fill="#FF0000" transform="translate(534.5625,74.1875)"/>
<path d="M0 0 C5.919375 -0.061875 11.83875 -0.12375 17.9375 -0.1875 C20.71208618 -0.22846802 20.71208618 -0.22846802 23.54272461 -0.27026367 C25.03759105 -0.2790398 26.53246477 -0.28668105 28.02734375 -0.29296875 C29.15662292 -0.3159906 29.15662292 -0.3159906 30.30871582 -0.33947754 C38.70124044 -0.34353386 46.86173006 2.05305276 53 8 C57.40867241 13.96309794 58.67784793 19.68175289 58 27 C56.56697412 34.76019944 53.72184474 40.64769465 47.1953125 45.28125 C42.27779589 48.23598101 38.40511664 49.13690943 32.75 49.0625 C31.85796875 49.05347656 30.9659375 49.04445312 30.046875 49.03515625 C29.37140625 49.02355469 28.6959375 49.01195312 28 49 C27.67 47.68 27.34 46.36 27 45 C27.92941406 44.91363281 28.85882812 44.82726562 29.81640625 44.73828125 C39.99644708 43.75159087 39.99644708 43.75159087 48 38 C52.30733155 32.54145972 52.61427942 26.78367934 52.38671875 19.99609375 C51.71060592 14.75792664 49.32854578 12.25862232 45.625 8.75 C39.00763833 4.33842555 31.85097008 4.20784155 24 3 C24 22.8 24 42.6 24 63 C16.08 63 8.16 63 0 63 C0 42.21 0 21.42 0 0 Z " fill="#FF0000" transform="translate(1259,58)"/>
<path d="M0 0 C6.6 0 13.2 0 20 0 C20 13.86 20 27.72 20 42 C22.31 41.01 24.62 40.02 27 39 C27.78375 38.67 28.5675 38.34 29.375 38 C31.34830069 37.02546436 31.34830069 37.02546436 32 34 C32.15322359 31.41669771 32.25706889 28.85507761 32.31640625 26.26953125 C32.33718735 25.51911057 32.35796844 24.76868988 32.37937927 23.99552917 C32.44469926 21.60127816 32.50367792 19.20691861 32.5625 16.8125 C32.60570193 15.18813987 32.64931676 13.56379067 32.69335938 11.93945312 C32.8011389 7.95974498 32.90034215 3.97995299 33 0 C39.27 0 45.54 0 52 0 C52 15.51 52 31.02 52 47 C45.73 47 39.46 47 33 47 C32.505 44.03 32.505 44.03 32 41 C30.9171875 41.928125 30.9171875 41.928125 29.8125 42.875 C23.37247327 47.74079797 16.83825591 47.78875531 9 47 C3.86050187 44.69608705 2.07470642 42.14036156 0 37 C-0.38274223 34.09733133 -0.35112672 31.24387086 -0.29296875 28.3203125 C-0.28872391 27.50754852 -0.28447906 26.69478455 -0.28010559 25.85739136 C-0.26340804 23.27958041 -0.22577362 20.7025718 -0.1875 18.125 C-0.17244158 16.36980301 -0.1587552 14.61459369 -0.14648438 12.859375 C-0.11609441 8.57236422 -0.05735925 4.28707261 0 0 Z " fill="#FF0000" transform="translate(1745,74)"/>
<path d="M0 0 C3.02109933 2.60018212 4.72762142 5.18286425 6 9 C6.08494728 11.65894107 6.11594796 14.29085377 6.09765625 16.94921875 C6.0962413 17.72183548 6.09482635 18.49445221 6.09336853 19.29048157 C6.08777466 21.75619389 6.07522333 24.22181515 6.0625 26.6875 C6.05748421 28.36002473 6.05292144 30.03255088 6.04882812 31.70507812 C6.03865847 35.80344866 6.01908194 39.90162248 6 44 C-0.27 44 -6.54 44 -13 44 C-13.33 43.34 -13.66 42.68 -14 42 C-14.68449219 42.32226562 -15.36898438 42.64453125 -16.07421875 42.9765625 C-22.67920626 45.28698537 -31.22203182 45.29090516 -37.625 42.3125 C-41.85438829 39.75856532 -44.43160552 36.70518344 -46 32 C-46.55936818 26.24125873 -46.91601646 20.42629108 -43.5 15.50390625 C-38.10301731 10.09286892 -32.09484427 8.69502979 -24.625 8.625 C-20.81063179 8.73494853 -17.71860602 9.0703485 -14 10 C-13.67 6.7 -13.34 3.4 -13 0 C-20.56166317 -0.24392462 -28.52682323 -0.31545118 -35 4 C-37.6875 4.125 -37.6875 4.125 -40 4 C-39.875 2.1875 -39.875 2.1875 -39 0 C-28.27727448 -6.43363531 -10.77896976 -6.42026068 0 0 Z M-24 12 C-25.30661495 13.08108449 -25.30661495 13.08108449 -25.11352539 15.68383789 C-25.10828857 16.85164795 -25.10305176 18.01945801 -25.09765625 19.22265625 C-25.09443359 20.48271484 -25.09121094 21.74277344 -25.08789062 23.04101562 C-25.07953403 24.38151109 -25.07106907 25.72200588 -25.0625 27.0625 C-25.0574866 28.40689942 -25.05292342 29.7513006 -25.04882812 31.09570312 C-25.03699488 34.39717941 -25.02050971 37.69856803 -25 41 C-23.7625 40.731875 -22.525 40.46375 -21.25 40.1875 C-20.55390625 40.03667969 -19.8578125 39.88585937 -19.140625 39.73046875 C-16.55512399 38.84819012 -14.95223059 37.92160843 -13 36 C-12.45086421 33.68909272 -12.45086421 33.68909272 -12.609375 31.11328125 C-12.62226562 30.17548828 -12.63515625 29.23769531 -12.6484375 28.27148438 C-12.68195313 27.29501953 -12.71546875 26.31855469 -12.75 25.3125 C-12.76804687 24.32443359 -12.78609375 23.33636719 -12.8046875 22.31835938 C-12.85184553 19.87793158 -12.91763958 17.43945231 -13 15 C-14.64532788 14.49833923 -16.29127699 13.99871553 -17.9375 13.5 C-18.85402344 13.2215625 -19.77054688 12.943125 -20.71484375 12.65625 C-22.76393845 11.95399619 -22.76393845 11.95399619 -24 12 Z " fill="#FF0000" transform="translate(1187,77)"/>
<path d="M0 0 C3.02109933 2.60018212 4.72762142 5.18286425 6 9 C6.08494728 11.65894107 6.11594796 14.29085377 6.09765625 16.94921875 C6.0962413 17.72183548 6.09482635 18.49445221 6.09336853 19.29048157 C6.08777466 21.75619389 6.07522333 24.22181515 6.0625 26.6875 C6.05748421 28.36002473 6.05292144 30.03255088 6.04882812 31.70507812 C6.03865847 35.80344866 6.01908194 39.90162248 6 44 C-0.27 44 -6.54 44 -13 44 C-13.33 43.34 -13.66 42.68 -14 42 C-14.68449219 42.32226562 -15.36898437 42.64453125 -16.07421875 42.9765625 C-22.67920626 45.28698537 -31.22203182 45.29090516 -37.625 42.3125 C-41.85438829 39.75856532 -44.43160552 36.70518344 -46 32 C-46.55936818 26.24125873 -46.91601646 20.42629108 -43.5 15.50390625 C-38.10301731 10.09286892 -32.09484427 8.69502979 -24.625 8.625 C-20.81063179 8.73494853 -17.71860602 9.0703485 -14 10 C-13.67 6.7 -13.34 3.4 -13 0 C-20.56166317 -0.24392462 -28.52682323 -0.31545118 -35 4 C-37.6875 4.125 -37.6875 4.125 -40 4 C-39.875 2.1875 -39.875 2.1875 -39 0 C-28.27727448 -6.43363531 -10.77896976 -6.42026068 0 0 Z M-24 12 C-25.30661495 13.08108449 -25.30661495 13.08108449 -25.11352539 15.68383789 C-25.10828857 16.85164795 -25.10305176 18.01945801 -25.09765625 19.22265625 C-25.09443359 20.48271484 -25.09121094 21.74277344 -25.08789062 23.04101562 C-25.07953403 24.38151109 -25.07106907 25.72200588 -25.0625 27.0625 C-25.0574866 28.40689942 -25.05292342 29.7513006 -25.04882812 31.09570312 C-25.03699488 34.39717941 -25.02050971 37.69856803 -25 41 C-23.7625 40.731875 -22.525 40.46375 -21.25 40.1875 C-20.55390625 40.03667969 -19.8578125 39.88585937 -19.140625 39.73046875 C-16.55512399 38.84819012 -14.95223059 37.92160843 -13 36 C-12.45086421 33.68909272 -12.45086421 33.68909272 -12.609375 31.11328125 C-12.62226562 30.17548828 -12.63515625 29.23769531 -12.6484375 28.27148438 C-12.68195312 27.29501953 -12.71546875 26.31855469 -12.75 25.3125 C-12.76804687 24.32443359 -12.78609375 23.33636719 -12.8046875 22.31835938 C-12.85184553 19.87793158 -12.91763958 17.43945231 -13 15 C-14.64532788 14.49833923 -16.29127699 13.99871553 -17.9375 13.5 C-18.85402344 13.2215625 -19.77054688 12.943125 -20.71484375 12.65625 C-22.76393845 11.95399619 -22.76393845 11.95399619 -24 12 Z " fill="#FF0000" transform="translate(926,77)"/>
<path d="M0 0 C1.94507126 1.59950022 2.17921027 2.81862987 2.5390625 5.265625 C-0.4609375 6.265625 -0.4609375 6.265625 -2.2578125 5.5234375 C-2.90234375 5.14960937 -3.546875 4.77578125 -4.2109375 4.390625 C-8.67377717 2.01974142 -12.81260886 0.79028396 -17.8984375 1.703125 C-18.671875 1.9815625 -18.671875 1.9815625 -19.4609375 2.265625 C-20.05291363 4.46476997 -20.05291363 4.46476997 -19.4609375 7.265625 C-16.06655022 11.82541858 -11.29436456 15.23447047 -6.8984375 18.765625 C-0.25162156 24.15419595 5.90149543 29.49519366 7.5390625 38.265625 C7.77353349 44.56703291 6.87872238 49.4808718 2.5390625 54.265625 C-6.05476339 60.75952218 -14.96755435 61.31340335 -25.4609375 60.265625 C-30.0809223 59.07682403 -34.05927334 57.66728916 -37.4609375 54.265625 C-37.4609375 52.945625 -37.4609375 51.625625 -37.4609375 50.265625 C-34.10143709 50.68556255 -31.58468817 51.66719268 -28.6484375 53.265625 C-21.57867914 56.89998483 -15.93280655 56.62516259 -8.4609375 54.265625 C-7.23086405 53.22929761 -7.23086405 53.22929761 -7.0859375 51.015625 C-7.86323995 45.31540705 -14.60942549 41.34732626 -18.8984375 37.765625 C-19.44564453 37.30542969 -19.99285156 36.84523437 -20.55664062 36.37109375 C-23.82526655 33.62414075 -23.82526655 33.62414075 -27.1262207 30.91625977 C-31.59621017 27.27684957 -35.7367322 23.24031872 -36.4609375 17.265625 C-36.85085437 12.00174719 -36.36111651 8.71256615 -33.4609375 4.265625 C-24.23679894 -4.55746406 -11.47077823 -5.41317624 0 0 Z " fill="#FF0000" transform="translate(1726.4609375,60.734375)"/>
<path d="M0 0 C7.59 0 15.18 0 23 0 C23 20.79 23 41.58 23 63 C15.41 63 7.82 63 0 63 C0 42.21 0 21.42 0 0 Z " fill="#FF0000" transform="translate(574,58)"/>
<path d="M0 0 C4.4807589 3.48596355 8.21067742 7.90381773 9.09375 13.62890625 C9.09375 16.26890625 9.09375 18.90890625 9.09375 21.62890625 C-0.47625 21.62890625 -10.04625 21.62890625 -19.90625 21.62890625 C-19.90625 27.89890625 -19.90625 34.16890625 -19.90625 40.62890625 C-12.33052501 40.62890625 -6.33944795 40.08775868 -0.59375 34.87890625 C2.09375 32.62890625 2.09375 32.62890625 4.46875 32.81640625 C5.005 33.08453125 5.54125 33.35265625 6.09375 33.62890625 C5.17886472 37.63152937 3.56499794 39.24551769 0.21875 41.37890625 C-6.9251145 45.67065755 -14.81319674 45.23149139 -22.90625 44.62890625 C-31.41259984 42.45203786 -36.4833372 37.0530813 -40.90625 29.62890625 C-43.17297002 22.29189144 -42.40403022 14.43775244 -38.90625 7.62890625 C-30.01241521 -4.59107814 -13.03771548 -7.62706356 0 0 Z M-19.90625 0.62890625 C-19.90625 6.56890625 -19.90625 12.50890625 -19.90625 18.62890625 C-16.27625 18.62890625 -12.64625 18.62890625 -8.90625 18.62890625 C-8.90625 12.68890625 -8.90625 6.74890625 -8.90625 0.62890625 C-15.44320382 -0.75410726 -15.44320382 -0.75410726 -19.90625 0.62890625 Z " fill="#FF0000" transform="translate(1652.90625,76.37109375)"/>
<path d="M0 0 C4.4807589 3.48596355 8.21067742 7.90381773 9.09375 13.62890625 C9.09375 16.26890625 9.09375 18.90890625 9.09375 21.62890625 C-0.47625 21.62890625 -10.04625 21.62890625 -19.90625 21.62890625 C-19.90625 27.89890625 -19.90625 34.16890625 -19.90625 40.62890625 C-12.33052501 40.62890625 -6.33944795 40.08775868 -0.59375 34.87890625 C2.09375 32.62890625 2.09375 32.62890625 4.46875 32.81640625 C5.005 33.08453125 5.54125 33.35265625 6.09375 33.62890625 C5.17886472 37.63152937 3.56499794 39.24551769 0.21875 41.37890625 C-6.9251145 45.67065755 -14.81319674 45.23149139 -22.90625 44.62890625 C-31.41259984 42.45203786 -36.4833372 37.0530813 -40.90625 29.62890625 C-43.17297002 22.29189144 -42.40403022 14.43775244 -38.90625 7.62890625 C-30.01241521 -4.59107814 -13.03771548 -7.62706356 0 0 Z M-19.90625 0.62890625 C-19.90625 6.56890625 -19.90625 12.50890625 -19.90625 18.62890625 C-16.27625 18.62890625 -12.64625 18.62890625 -8.90625 18.62890625 C-8.90625 12.68890625 -8.90625 6.74890625 -8.90625 0.62890625 C-15.44320382 -0.75410726 -15.44320382 -0.75410726 -19.90625 0.62890625 Z " fill="#FF0000" transform="translate(1463.90625,76.37109375)"/>
<path d="M0 0 C4.4807589 3.48596355 8.21067742 7.90381773 9.09375 13.62890625 C9.09375 16.26890625 9.09375 18.90890625 9.09375 21.62890625 C-0.47625 21.62890625 -10.04625 21.62890625 -19.90625 21.62890625 C-19.90625 27.89890625 -19.90625 34.16890625 -19.90625 40.62890625 C-12.33052501 40.62890625 -6.33944795 40.08775868 -0.59375 34.87890625 C2.09375 32.62890625 2.09375 32.62890625 4.46875 32.81640625 C5.005 33.08453125 5.54125 33.35265625 6.09375 33.62890625 C5.17886472 37.63152937 3.56499794 39.24551769 0.21875 41.37890625 C-6.9251145 45.67065755 -14.81319674 45.23149139 -22.90625 44.62890625 C-31.41259984 42.45203786 -36.4833372 37.0530813 -40.90625 29.62890625 C-43.17297002 22.29189144 -42.40403022 14.43775244 -38.90625 7.62890625 C-30.01241521 -4.59107814 -13.03771548 -7.62706356 0 0 Z M-19.90625 0.62890625 C-19.90625 6.56890625 -19.90625 12.50890625 -19.90625 18.62890625 C-16.27625 18.62890625 -12.64625 18.62890625 -8.90625 18.62890625 C-8.90625 12.68890625 -8.90625 6.74890625 -8.90625 0.62890625 C-15.44320382 -0.75410726 -15.44320382 -0.75410726 -19.90625 0.62890625 Z " fill="#FF0000" transform="translate(755.90625,76.37109375)"/>
<path d="M0 0 C4.4807589 3.48596355 8.21067742 7.90381773 9.09375 13.62890625 C9.09375 16.26890625 9.09375 18.90890625 9.09375 21.62890625 C-0.47625 21.62890625 -10.04625 21.62890625 -19.90625 21.62890625 C-19.90625 27.89890625 -19.90625 34.16890625 -19.90625 40.62890625 C-12.33052501 40.62890625 -6.33944795 40.08775868 -0.59375 34.87890625 C2.09375 32.62890625 2.09375 32.62890625 4.46875 32.81640625 C5.005 33.08453125 5.54125 33.35265625 6.09375 33.62890625 C5.17886472 37.63152937 3.56499794 39.24551769 0.21875 41.37890625 C-6.9251145 45.67065755 -14.81319674 45.23149139 -22.90625 44.62890625 C-31.41259984 42.45203786 -36.4833372 37.0530813 -40.90625 29.62890625 C-43.17297002 22.29189144 -42.40403022 14.43775244 -38.90625 7.62890625 C-30.01241521 -4.59107814 -13.03771548 -7.62706356 0 0 Z M-19.90625 0.62890625 C-19.90625 6.56890625 -19.90625 12.50890625 -19.90625 18.62890625 C-16.27625 18.62890625 -12.64625 18.62890625 -8.90625 18.62890625 C-8.90625 12.68890625 -8.90625 6.74890625 -8.90625 0.62890625 C-15.44320382 -0.75410726 -15.44320382 -0.75410726 -19.90625 0.62890625 Z " fill="#FF0000" transform="translate(468.90625,76.37109375)"/>
<path d="M0 0 C4.4807589 3.48596355 8.21067742 7.90381773 9.09375 13.62890625 C9.09375 16.26890625 9.09375 18.90890625 9.09375 21.62890625 C-0.47625 21.62890625 -10.04625 21.62890625 -19.90625 21.62890625 C-19.90625 27.89890625 -19.90625 34.16890625 -19.90625 40.62890625 C-12.33052501 40.62890625 -6.33944795 40.08775868 -0.59375 34.87890625 C2.09375 32.62890625 2.09375 32.62890625 4.46875 32.81640625 C5.005 33.08453125 5.54125 33.35265625 6.09375 33.62890625 C5.17886472 37.63152937 3.56499794 39.24551769 0.21875 41.37890625 C-6.9251145 45.67065755 -14.81319674 45.23149139 -22.90625 44.62890625 C-31.41259984 42.45203786 -36.4833372 37.0530813 -40.90625 29.62890625 C-43.17297002 22.29189144 -42.40403022 14.43775244 -38.90625 7.62890625 C-30.01241521 -4.59107814 -13.03771548 -7.62706356 0 0 Z M-19.90625 0.62890625 C-19.90625 6.56890625 -19.90625 12.50890625 -19.90625 18.62890625 C-16.27625 18.62890625 -12.64625 18.62890625 -8.90625 18.62890625 C-8.90625 12.68890625 -8.90625 6.74890625 -8.90625 0.62890625 C-15.44320382 -0.75410726 -15.44320382 -0.75410726 -19.90625 0.62890625 Z " fill="#FF0000" transform="translate(411.90625,76.37109375)"/>
<path d="M0 0 C0 5.28 0 10.56 0 16 C3.96 16 7.92 16 12 16 C12 16.99 12 17.98 12 19 C8.04 19 4.08 19 0 19 C0 32.53 0 46.06 0 60 C7.83039057 57.9860067 7.83039057 57.9860067 10 53.8125 C10.33 52.884375 10.66 51.95625 11 51 C12.32 51.33 13.64 51.66 15 52 C14.6999825 55.50020422 14.04266259 56.94904191 11.75 59.6875 C5.50220387 64.94132856 -1.15876509 64.63203909 -9 64 C-13.80132174 62.39955942 -16.18211757 60.17464064 -19 56 C-20.21077701 52.36766898 -20.12444164 49.04878013 -20.09765625 45.26953125 C-20.0962413 44.51911057 -20.09482635 43.76868988 -20.09336853 42.99552917 C-20.0877756 40.6011454 -20.07522444 38.20685547 -20.0625 35.8125 C-20.05748408 34.18815239 -20.05292134 32.56380332 -20.04882812 30.93945312 C-20.03780848 26.95959931 -20.02054873 22.97981556 -20 19 C-22.31 19 -24.62 19 -27 19 C-27 18.01 -27 17.02 -27 16 C-24.69 16 -22.38 16 -20 16 C-20 13.69 -20 11.38 -20 9 C-17.77208002 7.87247351 -15.54274113 6.74791861 -13.3125 5.625 C-12.37374023 5.14933594 -12.37374023 5.14933594 -11.41601562 4.6640625 C-2.13647461 0 -2.13647461 0 0 0 Z " fill="#FF0000" transform="translate(966,57)"/>
<path d="M0 0 C0 5.28 0 10.56 0 16 C3.96 16 7.92 16 12 16 C12 16.99 12 17.98 12 19 C8.04 19 4.08 19 0 19 C0 32.53 0 46.06 0 60 C7.83039057 57.9860067 7.83039057 57.9860067 10 53.8125 C10.33 52.884375 10.66 51.95625 11 51 C12.32 51.33 13.64 51.66 15 52 C14.6999825 55.50020422 14.04266259 56.94904191 11.75 59.6875 C5.50220387 64.94132856 -1.15876509 64.63203909 -9 64 C-13.80132174 62.39955942 -16.18211757 60.17464064 -19 56 C-20.21077701 52.36766898 -20.12444164 49.04878013 -20.09765625 45.26953125 C-20.0962413 44.51911057 -20.09482635 43.76868988 -20.09336853 42.99552917 C-20.0877756 40.6011454 -20.07522444 38.20685547 -20.0625 35.8125 C-20.05748408 34.18815239 -20.05292134 32.56380332 -20.04882812 30.93945312 C-20.03780848 26.95959931 -20.02054873 22.97981556 -20 19 C-22.31 19 -24.62 19 -27 19 C-27 18.01 -27 17.02 -27 16 C-24.69 16 -22.38 16 -20 16 C-20 13.69 -20 11.38 -20 9 C-17.77208002 7.87247351 -15.54274113 6.74791861 -13.3125 5.625 C-12.37374023 5.14933594 -12.37374023 5.14933594 -11.41601562 4.6640625 C-2.13647461 0 -2.13647461 0 0 0 Z " fill="#FF0000" transform="translate(697,57)"/>
<path d="M0 0 C5.35030018 3.80041163 9.83037146 8.82113925 10.96875 15.3984375 C11.85616962 23.87822502 10.90734694 30.32844609 5.96875 37.3984375 C1.50041413 42.50510706 -3.82694315 45.06632825 -10.4609375 45.75390625 C-18.68286058 46.05995369 -25.3861437 45.55305267 -32.03125 40.3984375 C-37.44263416 34.89667532 -40.04950418 29.24444783 -40.34375 21.5234375 C-40.15468328 13.65353546 -37.63859256 8.00578006 -32.03125 2.3984375 C-22.96082731 -3.98143284 -9.95661137 -5.23836643 0 0 Z M-15.03125 0.3984375 C-15.03125 14.2584375 -15.03125 28.1184375 -15.03125 42.3984375 C-5.48786056 40.48975961 -0.49791879 39.43069865 4.90625 31.5859375 C7.45440463 23.94147362 7.54741475 17.73539109 3.96875 10.3984375 C1.20633185 5.91804905 -2.08571355 3.24089225 -7.03125 1.3984375 C-9.67125 1.0684375 -12.31125 0.7384375 -15.03125 0.3984375 Z " fill="#FF0000" transform="translate(1057.03125,75.6015625)"/>
<path d="M0 0 C6.6 0 13.2 0 20 0 C20 20.79 20 41.58 20 63 C13.4 63 6.8 63 0 63 C0 42.21 0 21.42 0 0 Z " fill="#FF0000" transform="translate(1943,58)"/>
<path d="M0 0 C6.6 0 13.2 0 20 0 C20 20.79 20 41.58 20 63 C13.4 63 6.8 63 0 63 C0 42.21 0 21.42 0 0 Z " fill="#FF0000" transform="translate(1483,58)"/>
<path d="M0 0 C6.6 0 13.2 0 20 0 C20 20.79 20 41.58 20 63 C13.4 63 6.8 63 0 63 C0 42.21 0 21.42 0 0 Z " fill="#FF0000" transform="translate(1206,58)"/>
<path d="M0 0 C3.125 0.6875 3.125 0.6875 5.125 2.6875 C4.56944444 7.24305556 4.56944444 7.24305556 3.125 8.6875 C1.4853125 8.5946875 1.4853125 8.5946875 -0.1875 8.5 C-3.84698391 8.32181054 -3.84698391 8.32181054 -5.96777344 10.39135742 C-12.18965126 17.88198222 -12.5049058 27.55678208 -12.625 36.875 C-12.66947266 38.58913086 -12.66947266 38.58913086 -12.71484375 40.33789062 C-12.7847058 43.12072891 -12.83221159 45.90411379 -12.875 48.6875 C-19.475 48.6875 -26.075 48.6875 -32.875 48.6875 C-32.875 33.1775 -32.875 17.6675 -32.875 1.6875 C-26.275 1.6875 -19.675 1.6875 -12.875 1.6875 C-12.545 4.3275 -12.215 6.9675 -11.875 9.6875 C-11.37871094 9.0378125 -10.88242187 8.388125 -10.37109375 7.71875 C-4.78392696 0.84876124 -4.78392696 0.84876124 0 0 Z " fill="#FF0000" transform="translate(807.875,72.3125)"/>
<path d="M0 0 C1.32 0 2.64 0 4 0 C3.51187416 6.70540991 1.62047022 11.99942705 -1.078125 18.125 C-1.48657654 19.07133301 -1.89502808 20.01766602 -2.31585693 20.99267578 C-3.1784388 22.98489858 -4.04606897 24.97494238 -4.91845703 26.96289062 C-6.24363552 29.98548329 -7.5507215 33.0154155 -8.85546875 36.046875 C-9.69945651 37.99004595 -10.54447496 39.93276963 -11.390625 41.875 C-11.77728333 42.77105957 -12.16394165 43.66711914 -12.56231689 44.59033203 C-18.75502966 58.6342539 -18.75502966 58.6342539 -24 63 C-27.1875 63.1875 -27.1875 63.1875 -30 63 C-30 61.68 -30 60.36 -30 59 C-29.071875 58.62875 -28.14375 58.2575 -27.1875 57.875 C-23.37779338 55.6339961 -22.38687103 54.1606131 -21 50 C-21.39604457 45.05252327 -23.18515704 41.08492376 -25.421875 36.73046875 C-25.7637384 36.05003006 -26.10560181 35.36959137 -26.45782471 34.66853333 C-27.54775918 32.50432828 -28.64888077 30.34603176 -29.75 28.1875 C-30.47465306 26.74969889 -31.19861775 25.31155062 -31.921875 23.87304688 C-35.2060689 17.36321839 -38.51306715 10.89133042 -42.19628906 4.5949707 C-43 3 -43 3 -43 1 C-36.07 1 -29.14 1 -22 1 C-21.21753906 2.64871094 -20.43507813 4.29742187 -19.62890625 5.99609375 C-18.60688209 8.14328213 -17.58474063 10.29041467 -16.5625 12.4375 C-16.04623047 13.52611328 -15.52996094 14.61472656 -14.99804688 15.73632812 C-14.50498047 16.77080078 -14.01191406 17.80527344 -13.50390625 18.87109375 C-13.04830322 19.82943115 -12.5927002 20.78776855 -12.12329102 21.77514648 C-11.18749461 23.91668091 -11.18749461 23.91668091 -10 25 C-6.7 16.75 -3.4 8.5 0 0 Z " fill="#FF0000" transform="translate(2012,73)"/>
<path d="M0 0 C4.00125 -0.0825 8.0025 -0.165 12.125 -0.25 C13.37555176 -0.28641602 14.62610352 -0.32283203 15.91455078 -0.36035156 C22.23927489 -0.42352748 26.25106745 -0.36674106 31 4 C33.59036348 7.41457004 33.43108741 10.83282171 33 15 C31 18.4375 31 18.4375 29 21 C29.61875 21.2475 30.2375 21.495 30.875 21.75 C33.51939985 23.30552932 34.07669938 24.07621471 35 27 C35.4295804 32.41271309 35.41866383 35.56839874 32 40 C29.93532144 42.40879165 29.11005341 42.96331553 26 44 C24.0079697 44.08291953 22.01326287 44.10738177 20.01953125 44.09765625 C18.97128174 44.09515869 17.92303223 44.09266113 16.84301758 44.09008789 C15.51294678 44.08098389 14.18287598 44.07187988 12.8125 44.0625 C8.584375 44.041875 4.35625 44.02125 0 44 C0 29.48 0 14.96 0 0 Z M8 6 C8 9.96 8 13.92 8 18 C15.23477757 18.41776811 15.23477757 18.41776811 22.125 16.75 C24.06960538 15.13190532 24.06960538 15.13190532 25 13.0625 C25 10.16567866 23.98099446 9.05174426 22 7 C18.85069107 5.95023036 16.61185544 5.89868405 13.3125 5.9375 C11.559375 5.958125 9.80625 5.97875 8 6 Z M8 24 C8 28.62 8 33.24 8 38 C10.8153125 38.061875 10.8153125 38.061875 13.6875 38.125 C14.74324219 38.14820313 15.79898437 38.17140625 16.88671875 38.1953125 C20.05522823 37.99653524 22.18862338 37.44874543 25 36 C26.39935013 33.20129973 26.25265405 31.09501208 26 28 C24.14657225 25.44050454 23.06243607 25.02081202 20 24 C15.99616868 23.86600297 12.0072645 23.95691113 8 24 Z " fill="#FF0000" transform="translate(1776,160)"/>
<path d="M0 0 C1.27746094 -0.01675781 2.55492187 -0.03351563 3.87109375 -0.05078125 C8.98488674 0.45248092 12.25441245 2.00441245 15.875 5.625 C17.73911191 8.59377082 18.24017966 10.84755637 18.5625 14.3125 C16.2525 14.9725 13.9425 15.6325 11.5625 16.3125 C8.5625 11.5625 8.5625 11.5625 8.5625 9.3125 C3.46954039 7.54555483 -0.07596654 6.8502636 -5.4375 8.3125 C-8.93226443 10.62036331 -10.96820351 12.35257536 -12.8125 16.125 C-14.17931576 23.09576036 -13.9375478 28.03655221 -10.4375 34.3125 C-7.73574558 37.16435189 -5.90716027 38.17957728 -2.125 39.25 C2.55214143 39.32927358 5.30841959 38.21950156 9.5625 36.3125 C11.53072886 34.34427114 11.22498381 30.96441291 11.5625 28.3125 C7.2725 28.3125 2.9825 28.3125 -1.4375 28.3125 C-1.4375 26.3325 -1.4375 24.3525 -1.4375 22.3125 C5.4925 22.3125 12.4225 22.3125 19.5625 22.3125 C19.68625 25.2 19.81 28.0875 19.9375 31.0625 C19.99212402 31.96581055 20.04674805 32.86912109 20.10302734 33.79980469 C20.15062106 36.08942082 20.0866009 38.07937443 19.5625 40.3125 C12.86554285 46.51558125 4.90507117 46.76150112 -3.796875 46.625 C-10.09322482 46.08454079 -14.11500255 44.04290665 -18.3125 39.375 C-23.33749003 32.1331026 -23.14799732 24.82070539 -22.4375 16.3125 C-20.85695284 9.86458601 -17.88942906 5.98420733 -12.4375 2.3125 C-8.24527902 0.22374428 -4.65799562 0.01407249 0 0 Z " fill="#FF0000" transform="translate(1363.4375,158.6875)"/>
<path d="M0 0 C6.6 0 13.2 0 20 0 C20 15.51 20 31.02 20 47 C13.4 47 6.8 47 0 47 C0 31.49 0 15.98 0 0 Z " fill="#FF0000" transform="translate(1516,74)"/>
<path d="M0 0 C6.6 0 13.2 0 20 0 C20 15.51 20 31.02 20 47 C13.4 47 6.8 47 0 47 C0 31.49 0 15.98 0 0 Z " fill="#FF0000" transform="translate(1326,74)"/>
<path d="M0 0 C6.6 0 13.2 0 20 0 C20 15.51 20 31.02 20 47 C13.4 47 6.8 47 0 47 C0 31.49 0 15.98 0 0 Z " fill="#FF0000" transform="translate(988,74)"/>
<path d="M0 0 C1.2684375 -0.01933594 2.536875 -0.03867188 3.84375 -0.05859375 C8.82635393 0.61746469 11.85885917 2.73976811 15.3125 6.3125 C16.80488914 8.98309109 17.15685192 11.41779687 17.5 14.4375 C12.2051114 14.96698886 12.2051114 14.96698886 9.5 14.4375 C8.14721885 12.45060269 6.81431695 10.45004782 5.5 8.4375 C2.80774232 7.37431544 0.37204814 7.16451325 -2.5 7.4375 C-5.44455734 8.71645058 -5.44455734 8.71645058 -7.5 10.4375 C-7.17 12.0875 -6.84 13.7375 -6.5 15.4375 C-4.65535156 16.00017578 -4.65535156 16.00017578 -2.7734375 16.57421875 C-1.14039258 17.09041111 0.49240719 17.60737949 2.125 18.125 C2.93324219 18.36927734 3.74148438 18.61355469 4.57421875 18.86523438 C9.90859573 20.57830666 13.47791572 22.51057544 17.5 26.4375 C19.23836852 29.91423705 18.95436319 33.63620798 18.5 37.4375 C16.07658227 42.4707522 13.59231036 44.34172604 8.5 46.4375 C1.35573664 47.30134884 -6.63916262 47.71208489 -12.98046875 43.84375 C-15.79795428 41.23630838 -17.41481351 38.09286501 -18.5 34.4375 C-18.5 33.1175 -18.5 31.7975 -18.5 30.4375 C-15.86 30.4375 -13.22 30.4375 -10.5 30.4375 C-10.025625 31.55125 -9.55125 32.665 -9.0625 33.8125 C-7.71054172 36.19291226 -6.90709215 37.24686543 -4.40625 38.41796875 C-0.77858293 39.3188394 1.78896696 39.61904035 5.4375 38.6875 C7.61891988 37.47739447 7.61891988 37.47739447 9.5 35.4375 C9.73000198 32.91320505 9.73000198 32.91320505 8.5 30.4375 C5.25158079 28.63282266 2.08193716 27.62046043 -1.45703125 26.5078125 C-11.86650122 23.19629184 -11.86650122 23.19629184 -15.5 19.4375 C-17.22732636 15.98284728 -16.85415682 12.22173122 -16.5 8.4375 C-15.13054504 4.93778178 -14.06049431 3.77726867 -10.8515625 1.83203125 C-7.00980391 0.23353729 -4.15013624 0.00421762 0 0 Z " fill="#FF0000" transform="translate(1644.5,158.5625)"/>
<path d="M0 0 C1.42505859 0.02320313 1.42505859 0.02320313 2.87890625 0.046875 C5.4375 0.25 5.4375 0.25 8.4375 1.25 C10.77049825 1.28954234 13.10458189 1.29401732 15.4375 1.25 C15.51182418 6.28536777 15.56618401 11.32041408 15.60229492 16.35620117 C15.6173534 18.06817184 15.63780455 19.78010411 15.66381836 21.49194336 C15.7003319 23.95696505 15.71725562 26.42147535 15.73046875 28.88671875 C15.74595261 29.64836838 15.76143646 30.41001801 15.77738953 31.19474792 C15.77882176 35.7479987 15.2495497 38.63021589 12.4375 42.25 C7.54489164 46.1166021 2.79083163 45.80288384 -3.22265625 45.6640625 C-6.31992046 45.28007419 -7.97036611 44.95908035 -10.4375 43.125 C-12.87812933 39.82297209 -13.12239525 38.2625826 -12.5625 34.25 C-9.75 34.0625 -9.75 34.0625 -6.5625 34.25 C-5.54145449 35.22850195 -4.5418879 36.22980427 -3.5625 37.25 C0.0931535 38.18335834 2.84917292 38.49211322 6.4375 37.25 C6.4375 35.93 6.4375 34.61 6.4375 33.25 C5.64085937 33.30800781 4.84421875 33.36601562 4.0234375 33.42578125 C-5.71306278 33.84035243 -5.71306278 33.84035243 -9.1875 31 C-13.2820515 26.25894037 -13.87450072 23.18752744 -13.9375 16.875 C-13.96585938 15.58851563 -13.99421875 14.30203125 -14.0234375 12.9765625 C-13.38667641 7.828511 -11.31669006 4.9645677 -7.66015625 1.390625 C-4.96094852 -0.07710062 -3.05677608 -0.08317758 0 0 Z M-2.25 7.3125 C-4.99044678 9.60855 -5.78755738 10.76275819 -6.5625 14.25 C-6.55486269 18.08393008 -6.06865725 21.26299337 -4.3125 24.6875 C-1.99047692 26.76073489 -0.68475428 27.25 2.4375 27.25 C5.76282569 25.13388365 7.17993422 24.02269733 8.4375 20.25 C8.80444508 15.29624138 8.66550966 12.14587373 5.4375 8.25 C2.30974699 6.27457705 1.22388654 5.939103 -2.25 7.3125 Z " fill="#FF0000" transform="translate(1231.5625,170.75)"/>
<path d="M0 0 C1.42505859 0.02320313 1.42505859 0.02320313 2.87890625 0.046875 C5.4375 0.25 5.4375 0.25 8.4375 1.25 C10.77049825 1.28954234 13.10458189 1.29401732 15.4375 1.25 C15.51182418 6.28536777 15.56618401 11.32041408 15.60229492 16.35620117 C15.6173534 18.06817184 15.63780455 19.78010411 15.66381836 21.49194336 C15.7003319 23.95696505 15.71725562 26.42147535 15.73046875 28.88671875 C15.74595261 29.64836838 15.76143646 30.41001801 15.77738953 31.19474792 C15.77882176 35.7479987 15.2495497 38.63021589 12.4375 42.25 C7.54489164 46.1166021 2.79083163 45.80288384 -3.22265625 45.6640625 C-6.31992046 45.28007419 -7.97036611 44.95908035 -10.4375 43.125 C-12.87812933 39.82297209 -13.12239525 38.2625826 -12.5625 34.25 C-9.75 34.0625 -9.75 34.0625 -6.5625 34.25 C-5.54145449 35.22850195 -4.5418879 36.22980427 -3.5625 37.25 C0.0931535 38.18335834 2.84917292 38.49211322 6.4375 37.25 C6.4375 35.93 6.4375 34.61 6.4375 33.25 C5.64085937 33.30800781 4.84421875 33.36601562 4.0234375 33.42578125 C-5.71306278 33.84035243 -5.71306278 33.84035243 -9.1875 31 C-13.2820515 26.25894037 -13.87450072 23.18752744 -13.9375 16.875 C-13.96585938 15.58851563 -13.99421875 14.30203125 -14.0234375 12.9765625 C-13.38667641 7.828511 -11.31669006 4.9645677 -7.66015625 1.390625 C-4.96094852 -0.07710062 -3.05677608 -0.08317758 0 0 Z M-2.25 7.3125 C-4.99044678 9.60855 -5.78755738 10.76275819 -6.5625 14.25 C-6.55486269 18.08393008 -6.06865725 21.26299337 -4.3125 24.6875 C-1.99047692 26.76073489 -0.68475428 27.25 2.4375 27.25 C5.76282569 25.13388365 7.17993422 24.02269733 8.4375 20.25 C8.80444508 15.29624138 8.66550966 12.14587373 5.4375 8.25 C2.30974699 6.27457705 1.22388654 5.939103 -2.25 7.3125 Z " fill="#FF0000" transform="translate(935.5625,170.75)"/>
<path d="M0 0 C6.5278125 -0.0928125 6.5278125 -0.0928125 13.1875 -0.1875 C14.55156982 -0.21481201 15.91563965 -0.24212402 17.32104492 -0.27026367 C18.40490479 -0.27775635 19.48876465 -0.28524902 20.60546875 -0.29296875 C21.71043701 -0.3086792 22.81540527 -0.32438965 23.95385742 -0.34057617 C28.21656645 0.13601909 30.81260818 1.79182233 33.78515625 4.81640625 C36.20484035 9.16561336 35.59236971 14.18864157 35 19 C32.72291635 23.21682158 30.50254039 24.63486807 26 26 C22.88967338 26.23459089 19.80428212 26.18846452 16.6875 26.125 C13.820625 26.08375 10.95375 26.0425 8 26 C8 31.94 8 37.88 8 44 C5.36 44 2.72 44 0 44 C0 29.48 0 14.96 0 0 Z M8 6 C8 10.62 8 15.24 8 20 C10.8153125 20.061875 10.8153125 20.061875 13.6875 20.125 C14.74324219 20.14820313 15.79898437 20.17140625 16.88671875 20.1953125 C20.08283066 19.9948036 22.17837678 19.49234713 25 18 C27.1610211 14.75846834 27.64247553 13.76307099 27 10 C24.14976609 7.04758789 22.56975505 6.06267932 18.44921875 5.609375 C17.20785156 5.65578125 15.96648437 5.7021875 14.6875 5.75 C12.480625 5.8325 10.27375 5.915 8 6 Z " fill="#FF0000" transform="translate(347,160)"/>
<path d="M0 0 C2.64 0 5.28 0 8 0 C8 14.52 8 29.04 8 44 C5.36 44 2.72 44 0 44 C-0.99 44.495 -0.99 44.495 -2 45 C-6.9509132 45.54317573 -10.89488185 45.52241949 -15.4375 43.375 C-19.18601076 39.90077051 -20.8081505 36.65517219 -21.3984375 31.5625 C-21.39070313 30.386875 -21.38296875 29.21125 -21.375 28 C-21.38273437 26.824375 -21.39046875 25.64875 -21.3984375 24.4375 C-20.83862404 19.60773683 -19.10828168 16.3160845 -16 12.625 C-11.48892461 10.18150083 -7.03247344 10.50566686 -2 11 C-1.34 11.33 -0.68 11.66 0 12 C0 8.04 0 4.08 0 0 Z M-9.6875 17.8125 C-13.09859237 21.039209 -13.68480283 24.3981213 -14 29 C-13.29761525 33.13626575 -12.49420454 34.55286256 -9.375 37.375 C-8.59125 37.91125 -7.8075 38.4475 -7 39 C-3.90108642 38.07870137 -2.27211886 37.32841931 -0.1875 34.8125 C1.80824559 30.08573413 1.52785833 26.47244692 -0.1875 21.6875 C-1.81358523 18.90411024 -1.81358523 18.90411024 -4.375 17.4375 C-7.03701575 16.79471698 -7.03701575 16.79471698 -9.6875 17.8125 Z " fill="#FF0000" transform="translate(1742,160)"/>
<path d="M0 0 C5.09753011 0.06611582 8.04044681 0.63474814 11.8125 4.3125 C15.58826749 10.47958691 15.92196075 17.37539966 14.34375 24.3984375 C13.00614704 28.04499796 10.84883422 31.06371662 7.76953125 33.44140625 C3.71628726 35.24554479 -0.86014817 34.82853855 -5.1875 34.3125 C-5.5175 33.9825 -5.8475 33.6525 -6.1875 33.3125 C-6.5175 37.2725 -6.8475 41.2325 -7.1875 45.3125 C-9.4975 45.3125 -11.8075 45.3125 -14.1875 45.3125 C-14.1875 30.7925 -14.1875 16.2725 -14.1875 1.3125 C-11.5475 1.3125 -8.9075 1.3125 -6.1875 1.3125 C-4.47957001 -0.39542999 -2.33206519 0.05979654 0 0 Z M-6.1875 10.3125 C-7.53990646 14.36971937 -7.73078174 18.07043712 -7.1875 22.3125 C-5.46891567 25.25864457 -4.22059644 26.74596324 -1.25 28.375 C2.00041778 28.27650249 3.52090455 26.48022542 5.8125 24.3125 C7.66377843 20.60994314 7.2763553 16.35375987 6.8125 12.3125 C5.09049426 9.29898996 3.88597655 7.90118069 0.875 6.25 C-2.40658767 6.34944205 -3.90320504 8.08994275 -6.1875 10.3125 Z " fill="#FF0000" transform="translate(418.1875,170.6875)"/>
<path d="M0 0 C1.22589844 -0.01417969 2.45179687 -0.02835938 3.71484375 -0.04296875 C6.87330919 0.1744752 8.54038782 0.33248942 11.0625 2.1875 C12.93664458 5.24282102 13.33886932 7.6590214 13.44140625 11.21484375 C13.49264648 12.65053711 13.49264648 12.65053711 13.54492188 14.11523438 C13.57134766 15.10845703 13.59777344 16.10167969 13.625 17.125 C13.68524451 19.09256007 13.74893241 21.06001833 13.81640625 23.02734375 C13.84033447 23.89738037 13.8642627 24.76741699 13.88891602 25.66381836 C14.06637275 28.24380466 14.50121884 30.66555204 15.0625 33.1875 C14.29164062 33.17589844 13.52078125 33.16429687 12.7265625 33.15234375 C11.72367188 33.14332031 10.72078125 33.13429687 9.6875 33.125 C8.19089844 33.10759766 8.19089844 33.10759766 6.6640625 33.08984375 C4.07817547 33.00743398 4.07817547 33.00743398 2.0625 34.1875 C-9.11288683 35.25472657 -9.11288683 35.25472657 -14.25 32.25 C-16.53461027 28.10385544 -16.96217984 24.81535731 -15.9375 20.1875 C-13.00711774 15.88350106 -9.98573562 14.51509614 -5.07421875 13.5234375 C-1.69986915 12.99291819 1.66555712 12.55145817 5.0625 12.1875 C5.0625 10.8675 5.0625 9.5475 5.0625 8.1875 C0.37765809 7.20633146 0.37765809 7.20633146 -4.25 7.9375 C-6.22622927 9.25396448 -6.22622927 9.25396448 -7.9375 12.1875 C-11.0625 12.375 -11.0625 12.375 -13.9375 12.1875 C-14.75 10.0625 -14.75 10.0625 -14.9375 7.1875 C-10.50189625 0.78051681 -7.53047231 0.0395093 0 0 Z M-1.4375 20.0625 C-2.2315625 20.22492188 -3.025625 20.38734375 -3.84375 20.5546875 C-6.13096996 21.06610896 -6.13096996 21.06610896 -7.9375 23.1875 C-7.6189823 25.29570797 -7.6189823 25.29570797 -6.9375 27.1875 C-3.61257474 28.26321111 -2.06162974 28.22808088 1.3125 27.125 C4.36443598 25.41086895 4.36443598 25.41086895 4.9375 22 C4.97875 21.071875 5.02 20.14375 5.0625 19.1875 C2.78192981 19.1875 0.79442846 19.59147614 -1.4375 20.0625 Z " fill="#FF0000" transform="translate(1403.9375,170.8125)"/>
<path d="M0 0 C1.22589844 -0.01417969 2.45179688 -0.02835938 3.71484375 -0.04296875 C6.87330919 0.1744752 8.54038782 0.33248942 11.0625 2.1875 C12.93664458 5.24282102 13.33886932 7.6590214 13.44140625 11.21484375 C13.49264648 12.65053711 13.49264648 12.65053711 13.54492188 14.11523438 C13.57134766 15.10845703 13.59777344 16.10167969 13.625 17.125 C13.68524451 19.09256007 13.74893241 21.06001833 13.81640625 23.02734375 C13.84033447 23.89738037 13.8642627 24.76741699 13.88891602 25.66381836 C14.06637275 28.24380466 14.50121884 30.66555204 15.0625 33.1875 C14.29164063 33.17589844 13.52078125 33.16429687 12.7265625 33.15234375 C11.72367188 33.14332031 10.72078125 33.13429687 9.6875 33.125 C8.19089844 33.10759766 8.19089844 33.10759766 6.6640625 33.08984375 C4.07817547 33.00743398 4.07817547 33.00743398 2.0625 34.1875 C-9.11288683 35.25472657 -9.11288683 35.25472657 -14.25 32.25 C-16.53461027 28.10385544 -16.96217984 24.81535731 -15.9375 20.1875 C-13.00711774 15.88350106 -9.98573562 14.51509614 -5.07421875 13.5234375 C-1.69986915 12.99291819 1.66555712 12.55145817 5.0625 12.1875 C5.0625 10.8675 5.0625 9.5475 5.0625 8.1875 C0.37765809 7.20633146 0.37765809 7.20633146 -4.25 7.9375 C-6.22622927 9.25396448 -6.22622927 9.25396448 -7.9375 12.1875 C-11.0625 12.375 -11.0625 12.375 -13.9375 12.1875 C-14.75 10.0625 -14.75 10.0625 -14.9375 7.1875 C-10.50189625 0.78051681 -7.53047231 0.0395093 0 0 Z M-1.4375 20.0625 C-2.2315625 20.22492188 -3.025625 20.38734375 -3.84375 20.5546875 C-6.13096996 21.06610896 -6.13096996 21.06610896 -7.9375 23.1875 C-7.6189823 25.29570797 -7.6189823 25.29570797 -6.9375 27.1875 C-3.61257474 28.26321111 -2.06162974 28.22808088 1.3125 27.125 C4.36443598 25.41086895 4.36443598 25.41086895 4.9375 22 C4.97875 21.071875 5.02 20.14375 5.0625 19.1875 C2.78192981 19.1875 0.79442846 19.59147614 -1.4375 20.0625 Z " fill="#FF0000" transform="translate(867.9375,170.8125)"/>
<path d="M0 0 C1.22589844 -0.01417969 2.45179688 -0.02835938 3.71484375 -0.04296875 C6.87330919 0.1744752 8.54038782 0.33248942 11.0625 2.1875 C12.93664458 5.24282102 13.33886932 7.6590214 13.44140625 11.21484375 C13.49264648 12.65053711 13.49264648 12.65053711 13.54492188 14.11523438 C13.57134766 15.10845703 13.59777344 16.10167969 13.625 17.125 C13.68524451 19.09256007 13.74893241 21.06001833 13.81640625 23.02734375 C13.84033447 23.89738037 13.8642627 24.76741699 13.88891602 25.66381836 C14.06637275 28.24380466 14.50121884 30.66555204 15.0625 33.1875 C14.29164063 33.17589844 13.52078125 33.16429687 12.7265625 33.15234375 C11.72367188 33.14332031 10.72078125 33.13429687 9.6875 33.125 C8.19089844 33.10759766 8.19089844 33.10759766 6.6640625 33.08984375 C4.07817547 33.00743398 4.07817547 33.00743398 2.0625 34.1875 C-9.11288683 35.25472657 -9.11288683 35.25472657 -14.25 32.25 C-16.53461027 28.10385544 -16.96217984 24.81535731 -15.9375 20.1875 C-13.00711774 15.88350106 -9.98573562 14.51509614 -5.07421875 13.5234375 C-1.69986915 12.99291819 1.66555712 12.55145817 5.0625 12.1875 C5.0625 10.8675 5.0625 9.5475 5.0625 8.1875 C0.37765809 7.20633146 0.37765809 7.20633146 -4.25 7.9375 C-6.22622927 9.25396448 -6.22622927 9.25396448 -7.9375 12.1875 C-11.0625 12.375 -11.0625 12.375 -13.9375 12.1875 C-14.75 10.0625 -14.75 10.0625 -14.9375 7.1875 C-10.50189625 0.78051681 -7.53047231 0.0395093 0 0 Z M-1.4375 20.0625 C-2.2315625 20.22492188 -3.025625 20.38734375 -3.84375 20.5546875 C-6.13096996 21.06610896 -6.13096996 21.06610896 -7.9375 23.1875 C-7.6189823 25.29570797 -7.6189823 25.29570797 -6.9375 27.1875 C-3.61257474 28.26321111 -2.06162974 28.22808088 1.3125 27.125 C4.36443598 25.41086895 4.36443598 25.41086895 4.9375 22 C4.97875 21.071875 5.02 20.14375 5.0625 19.1875 C2.78192981 19.1875 0.79442846 19.59147614 -1.4375 20.0625 Z " fill="#FF0000" transform="translate(611.9375,170.8125)"/>
<path d="M0 0 C2.97 0 5.94 0 9 0 C9.32798584 0.90355225 9.65597168 1.80710449 9.99389648 2.73803711 C11.20804209 6.08053673 12.42584524 9.42169371 13.64477539 12.76245117 C14.17247265 14.21032763 14.69916861 15.65856943 15.22485352 17.10717773 C15.97932068 19.18569567 16.73734369 21.26288606 17.49609375 23.33984375 C17.73154404 23.99089584 17.96699432 24.64194794 18.20957947 25.31272888 C19.19210434 28.39660126 19.19210434 28.39660126 21 31 C21.32798584 30.13197754 21.65597168 29.26395508 21.99389648 28.36962891 C23.21000997 25.1526735 24.42706939 21.93607933 25.64477539 18.71972656 C26.17184887 17.32696696 26.69854366 15.93406398 27.22485352 14.54101562 C27.98094015 12.53998709 28.73838223 10.53947623 29.49609375 8.5390625 C29.95169678 7.33459473 30.4072998 6.13012695 30.87670898 4.88916016 C32 2 32 2 33 0 C35.97 0 38.94 0 42 0 C40.06941599 5.93494768 37.98339965 11.75026353 35.64453125 17.53515625 C35.33803146 18.29928329 35.03153168 19.06341034 34.71574402 19.85069275 C33.75045264 22.25562429 32.78154709 24.65907969 31.8125 27.0625 C31.1514515 28.70758539 30.49064211 30.35276688 29.83007812 31.99804688 C28.22280936 35.99981231 26.61230095 40.00025952 25 44 C22.03 44 19.06 44 16 44 C15.58637207 42.93563721 15.17274414 41.87127441 14.74658203 40.7746582 C13.20744114 36.81427566 11.66797755 32.85401862 10.12841797 28.89379883 C9.46296571 27.18191884 8.7976002 25.47000514 8.13232422 23.75805664 C7.17438361 21.29304205 6.21612797 18.82815013 5.2578125 16.36328125 C4.96190216 15.60163162 4.66599182 14.83998199 4.3611145 14.05525208 C3.9409053 12.97469795 3.9409053 12.97469795 3.51220703 11.87231445 C3.25151428 11.19923248 2.99082153 10.52615051 2.722229 9.83267212 C2.10510347 8.26670239 1.45412361 6.71414553 0.79638672 5.16479492 C0 3 0 3 0 0 Z " fill="#FF0000" transform="translate(557,160)"/>
<path d="M0 0 C3.94366454 1.99829982 6.17622884 4.63898677 8.4375 8.375 C9 11 9 11 9 19 C1.41 19 -6.18 19 -14 19 C-11.76047792 24.99608276 -11.76047792 24.99608276 -8.0625 26.4375 C-4.39005402 27.1488985 -4.39005402 27.1488985 -1 26 C0.28436734 24.0162233 0.28436734 24.0162233 1 22 C6.75 21.875 6.75 21.875 9 23 C7.79645581 27.41299538 6.56751319 30.08112557 3 33 C-3.2826308 35.09421027 -10.59479684 35.07819452 -16.625 32.375 C-21.29916045 27.70083955 -22.1972353 24.01063231 -22.375 17.5 C-22.19150621 10.77189431 -20.90672722 7.30814348 -16.625 2.125 C-11.87271476 -1.53152022 -5.62302651 -0.9931216 0 0 Z M-12 8 C-12.66 9.65 -13.32 11.3 -14 13 C-9.05 13 -4.1 13 1 13 C-1.50056593 8.02378257 -1.50056593 8.02378257 -5 6 C-8.19219704 6 -9.39608549 6.23605791 -12 8 Z " fill="#FF0000" transform="translate(1508,171)"/>
<path d="M0 0 C3.94366454 1.99829982 6.17622884 4.63898677 8.4375 8.375 C9 11 9 11 9 19 C1.41 19 -6.18 19 -14 19 C-11.76047792 24.99608276 -11.76047792 24.99608276 -8.0625 26.4375 C-4.39005402 27.1488985 -4.39005402 27.1488985 -1 26 C0.28436734 24.0162233 0.28436734 24.0162233 1 22 C6.75 21.875 6.75 21.875 9 23 C7.79645581 27.41299538 6.56751319 30.08112557 3 33 C-3.2826308 35.09421027 -10.59479684 35.07819452 -16.625 32.375 C-21.29916045 27.70083955 -22.1972353 24.01063231 -22.375 17.5 C-22.19150621 10.77189431 -20.90672722 7.30814348 -16.625 2.125 C-11.87271476 -1.53152022 -5.62302651 -0.9931216 0 0 Z M-12 8 C-12.66 9.65 -13.32 11.3 -14 13 C-9.05 13 -4.1 13 1 13 C-1.50056593 8.02378257 -1.50056593 8.02378257 -5 6 C-8.19219704 6 -9.39608549 6.23605791 -12 8 Z " fill="#FF0000" transform="translate(979,171)"/>
<path d="M0 0 C3.94366454 1.99829982 6.17622884 4.63898677 8.4375 8.375 C9 11 9 11 9 19 C1.41 19 -6.18 19 -14 19 C-11.76047792 24.99608276 -11.76047792 24.99608276 -8.0625 26.4375 C-4.39005402 27.1488985 -4.39005402 27.1488985 -1 26 C0.28436734 24.0162233 0.28436734 24.0162233 1 22 C6.75 21.875 6.75 21.875 9 23 C7.79645581 27.41299538 6.56751319 30.08112557 3 33 C-3.2826308 35.09421027 -10.59479684 35.07819452 -16.625 32.375 C-21.29916045 27.70083955 -22.1972353 24.01063231 -22.375 17.5 C-22.19150621 10.77189431 -20.90672722 7.30814348 -16.625 2.125 C-11.87271476 -1.53152022 -5.62302651 -0.9931216 0 0 Z M-12 8 C-12.66 9.65 -13.32 11.3 -14 13 C-9.05 13 -4.1 13 1 13 C-1.50056593 8.02378257 -1.50056593 8.02378257 -5 6 C-8.19219704 6 -9.39608549 6.23605791 -12 8 Z " fill="#FF0000" transform="translate(699,171)"/>
<path d="M0 0 C3.94366454 1.99829982 6.17622884 4.63898677 8.4375 8.375 C9 11 9 11 9 19 C1.41 19 -6.18 19 -14 19 C-11.76047792 24.99608276 -11.76047792 24.99608276 -8.0625 26.4375 C-4.39005402 27.1488985 -4.39005402 27.1488985 -1 26 C0.28436734 24.0162233 0.28436734 24.0162233 1 22 C6.75 21.875 6.75 21.875 9 23 C7.79645581 27.41299538 6.56751319 30.08112557 3 33 C-3.2826308 35.09421027 -10.59479684 35.07819452 -16.625 32.375 C-21.29916045 27.70083955 -22.1972353 24.01063231 -22.375 17.5 C-22.19150621 10.77189431 -20.90672722 7.30814348 -16.625 2.125 C-11.87271476 -1.53152022 -5.62302651 -0.9931216 0 0 Z M-12 8 C-12.66 9.65 -13.32 11.3 -14 13 C-9.05 13 -4.1 13 1 13 C-1.50056593 8.02378257 -1.50056593 8.02378257 -5 6 C-8.19219704 6 -9.39608549 6.23605791 -12 8 Z " fill="#FF0000" transform="translate(459,171)"/>
<path d="M0 0 C10.56 0 21.12 0 32 0 C32 1.98 32 3.96 32 6 C24.41 6 16.82 6 9 6 C9 9.96 9 13.92 9 18 C15.6 18 22.2 18 29 18 C29 19.98 29 21.96 29 24 C22.4 24 15.8 24 9 24 C9 30.6 9 37.2 9 44 C6.03 44 3.06 44 0 44 C0 29.48 0 14.96 0 0 Z " fill="#FF0000" transform="translate(1080,160)"/>
<path d="M0 0 C10.56 0 21.12 0 32 0 C32 1.98 32 3.96 32 6 C24.41 6 16.82 6 9 6 C9 9.96 9 13.92 9 18 C15.6 18 22.2 18 29 18 C29 19.98 29 21.96 29 24 C22.4 24 15.8 24 9 24 C9 30.6 9 37.2 9 44 C6.03 44 3.06 44 0 44 C0 29.48 0 14.96 0 0 Z " fill="#FF0000" transform="translate(801,160)"/>
<path d="M0 0 C5.15387356 2.31035711 6.8539297 4.88712431 9 10 C9.76181794 15.9778687 10.18540634 22.68427754 7.375 28.1875 C3.9494236 32.24410363 1.47813533 33.72767744 -3.84375 34.3125 C-8.70259817 34.50492963 -12.1253724 34.41429728 -16.5625 32.3125 C-20.24785809 28.81613463 -21.84556265 26.34541365 -22.43359375 21.22265625 C-22.45071244 19.83604256 -22.4516626 18.44914704 -22.4375 17.0625 C-22.45748047 16.37220703 -22.47746094 15.68191406 -22.49804688 14.97070312 C-22.49316962 9.82520041 -21.3149888 6.89298684 -18 3 C-12.58599956 -1.26093545 -6.58228144 -0.73688434 0 0 Z M-12.765625 9.41015625 C-14.90932151 12.17118308 -15 14.5807334 -15 18 C-14.25516308 21.79866828 -13.34306252 23.61881942 -10.75 26.5 C-8.05247189 28.3350583 -8.05247189 28.3350583 -4.875 27.5 C-1.81316968 25.90252331 -0.76769006 24.90516019 1 22 C1.86118922 17.22854619 1.65855614 13.19515743 -0.6875 8.9375 C-5.33319346 5.04516223 -8.20848968 5.17014117 -12.765625 9.41015625 Z " fill="#FF0000" transform="translate(1838,171)"/>
<path d="M0 0 C3.090715 2.41496728 3.40236127 4.95782589 4.1796875 8.703125 C1.39105743 10.09744004 -0.74110118 9.95972594 -3.8203125 9.703125 C-4.4803125 8.713125 -5.1403125 7.723125 -5.8203125 6.703125 C-9.1209341 5.68754912 -10.49244131 5.5938346 -13.8203125 6.703125 C-13.8203125 7.363125 -13.8203125 8.023125 -13.8203125 8.703125 C-12.78390625 9.00605469 -11.7475 9.30898437 -10.6796875 9.62109375 C-9.3096194 10.04337501 -7.93984263 10.46660227 -6.5703125 10.890625 C-5.88839844 11.08720703 -5.20648437 11.28378906 -4.50390625 11.48632812 C0.13654743 12.95054895 2.71925833 14.46712839 5.1796875 18.703125 C5.76619191 23.05058896 4.92343998 26.71145502 2.3046875 30.203125 C-2.98578049 33.93757299 -9.62412751 33.23596646 -15.8203125 32.703125 C-18.8114177 31.78703005 -19.57552179 31.06925575 -21.8203125 28.703125 C-23.1953125 24.953125 -23.1953125 24.953125 -23.8203125 21.703125 C-20.99147503 20.28870626 -18.94654505 20.38412168 -15.8203125 20.703125 C-14.80002385 22.02099785 -13.80059866 23.35523153 -12.8203125 24.703125 C-9.86027782 25.6965639 -9.86027782 25.6965639 -6.8203125 25.703125 C-5.8303125 25.043125 -4.8403125 24.383125 -3.8203125 23.703125 C-3.8203125 23.043125 -3.8203125 22.383125 -3.8203125 21.703125 C-5.37492187 21.24873047 -5.37492187 21.24873047 -6.9609375 20.78515625 C-8.3310056 20.36287499 -9.70078237 19.93964773 -11.0703125 19.515625 C-11.75222656 19.31904297 -12.43414063 19.12246094 -13.13671875 18.91992188 C-17.78029992 17.45471422 -20.35002675 15.93428111 -22.8203125 11.703125 C-23.35099077 8.49197997 -22.86316899 5.77439465 -21.8203125 2.703125 C-16.68791607 -3.14210426 -6.78064723 -3.11797075 0 0 Z " fill="#FF0000" transform="translate(1906.8203125,172.296875)"/>
<path d="M0 0 C3.090715 2.41496728 3.40236127 4.95782589 4.1796875 8.703125 C1.39105743 10.09744004 -0.74110118 9.95972594 -3.8203125 9.703125 C-4.4803125 8.713125 -5.1403125 7.723125 -5.8203125 6.703125 C-9.1209341 5.68754912 -10.49244131 5.5938346 -13.8203125 6.703125 C-13.8203125 7.363125 -13.8203125 8.023125 -13.8203125 8.703125 C-12.78390625 9.00605469 -11.7475 9.30898437 -10.6796875 9.62109375 C-9.3096194 10.04337501 -7.93984263 10.46660227 -6.5703125 10.890625 C-5.88839844 11.08720703 -5.20648437 11.28378906 -4.50390625 11.48632812 C0.13654743 12.95054895 2.71925833 14.46712839 5.1796875 18.703125 C5.76619191 23.05058896 4.92343998 26.71145502 2.3046875 30.203125 C-2.98578049 33.93757299 -9.62412751 33.23596646 -15.8203125 32.703125 C-18.8114177 31.78703005 -19.57552179 31.06925575 -21.8203125 28.703125 C-23.1953125 24.953125 -23.1953125 24.953125 -23.8203125 21.703125 C-20.99147503 20.28870626 -18.94654505 20.38412168 -15.8203125 20.703125 C-14.80002385 22.02099785 -13.80059866 23.35523153 -12.8203125 24.703125 C-9.86027782 25.6965639 -9.86027782 25.6965639 -6.8203125 25.703125 C-5.8303125 25.043125 -4.8403125 24.383125 -3.8203125 23.703125 C-3.8203125 23.043125 -3.8203125 22.383125 -3.8203125 21.703125 C-5.37492187 21.24873047 -5.37492187 21.24873047 -6.9609375 20.78515625 C-8.3310056 20.36287499 -9.70078237 19.93964773 -11.0703125 19.515625 C-11.75222656 19.31904297 -12.43414063 19.12246094 -13.13671875 18.91992188 C-17.78029992 17.45471422 -20.35002675 15.93428111 -22.8203125 11.703125 C-23.35099077 8.49197997 -22.86316899 5.77439465 -21.8203125 2.703125 C-16.68791607 -3.14210426 -6.78064723 -3.11797075 0 0 Z " fill="#FF0000" transform="translate(1561.8203125,172.296875)"/>
<path d="M0 0 C3.090715 2.41496728 3.40236127 4.95782589 4.1796875 8.703125 C1.39105743 10.09744004 -0.74110118 9.95972594 -3.8203125 9.703125 C-4.4803125 8.713125 -5.1403125 7.723125 -5.8203125 6.703125 C-9.1209341 5.68754912 -10.49244131 5.5938346 -13.8203125 6.703125 C-13.8203125 7.363125 -13.8203125 8.023125 -13.8203125 8.703125 C-12.78390625 9.00605469 -11.7475 9.30898437 -10.6796875 9.62109375 C-9.3096194 10.04337501 -7.93984263 10.46660227 -6.5703125 10.890625 C-5.88839844 11.08720703 -5.20648437 11.28378906 -4.50390625 11.48632812 C0.13654743 12.95054895 2.71925833 14.46712839 5.1796875 18.703125 C5.76619191 23.05058896 4.92343998 26.71145502 2.3046875 30.203125 C-2.98578049 33.93757299 -9.62412751 33.23596646 -15.8203125 32.703125 C-18.8114177 31.78703005 -19.57552179 31.06925575 -21.8203125 28.703125 C-23.1953125 24.953125 -23.1953125 24.953125 -23.8203125 21.703125 C-20.99147503 20.28870626 -18.94654505 20.38412168 -15.8203125 20.703125 C-14.80002385 22.02099785 -13.80059866 23.35523153 -12.8203125 24.703125 C-9.86027782 25.6965639 -9.86027782 25.6965639 -6.8203125 25.703125 C-5.8303125 25.043125 -4.8403125 24.383125 -3.8203125 23.703125 C-3.8203125 23.043125 -3.8203125 22.383125 -3.8203125 21.703125 C-5.37492187 21.24873047 -5.37492187 21.24873047 -6.9609375 20.78515625 C-8.3310056 20.36287499 -9.70078237 19.93964773 -11.0703125 19.515625 C-11.75222656 19.31904297 -12.43414063 19.12246094 -13.13671875 18.91992188 C-17.78029992 17.45471422 -20.35002675 15.93428111 -22.8203125 11.703125 C-23.35099077 8.49197997 -22.86316899 5.77439465 -21.8203125 2.703125 C-16.68791607 -3.14210426 -6.78064723 -3.11797075 0 0 Z " fill="#FF0000" transform="translate(1445.8203125,172.296875)"/>
<path d="M0 0 C3.090715 2.41496728 3.40236127 4.95782589 4.1796875 8.703125 C1.39105743 10.09744004 -0.74110118 9.95972594 -3.8203125 9.703125 C-4.4803125 8.713125 -5.1403125 7.723125 -5.8203125 6.703125 C-9.1209341 5.68754912 -10.49244131 5.5938346 -13.8203125 6.703125 C-13.8203125 7.363125 -13.8203125 8.023125 -13.8203125 8.703125 C-12.78390625 9.00605469 -11.7475 9.30898437 -10.6796875 9.62109375 C-9.3096194 10.04337501 -7.93984263 10.46660227 -6.5703125 10.890625 C-5.88839844 11.08720703 -5.20648437 11.28378906 -4.50390625 11.48632812 C0.13654743 12.95054895 2.71925833 14.46712839 5.1796875 18.703125 C5.76619191 23.05058896 4.92343998 26.71145502 2.3046875 30.203125 C-2.98578049 33.93757299 -9.62412751 33.23596646 -15.8203125 32.703125 C-18.8114177 31.78703005 -19.57552179 31.06925575 -21.8203125 28.703125 C-23.1953125 24.953125 -23.1953125 24.953125 -23.8203125 21.703125 C-20.99147503 20.28870626 -18.94654505 20.38412168 -15.8203125 20.703125 C-14.80002385 22.02099785 -13.80059866 23.35523153 -12.8203125 24.703125 C-9.86027782 25.6965639 -9.86027782 25.6965639 -6.8203125 25.703125 C-5.8303125 25.043125 -4.8403125 24.383125 -3.8203125 23.703125 C-3.8203125 23.043125 -3.8203125 22.383125 -3.8203125 21.703125 C-5.37492187 21.24873047 -5.37492187 21.24873047 -6.9609375 20.78515625 C-8.3310056 20.36287499 -9.70078237 19.93964773 -11.0703125 19.515625 C-11.75222656 19.31904297 -12.43414063 19.12246094 -13.13671875 18.91992188 C-17.78029992 17.45471422 -20.35002675 15.93428111 -22.8203125 11.703125 C-23.35099077 8.49197997 -22.86316899 5.77439465 -21.8203125 2.703125 C-16.68791607 -3.14210426 -6.78064723 -3.11797075 0 0 Z " fill="#FF0000" transform="translate(1275.8203125,172.296875)"/>
<path d="M0 0 C3.090715 2.41496728 3.40236127 4.95782589 4.1796875 8.703125 C1.39105743 10.09744004 -0.74110118 9.95972594 -3.8203125 9.703125 C-4.4803125 8.713125 -5.1403125 7.723125 -5.8203125 6.703125 C-9.1209341 5.68754912 -10.49244131 5.5938346 -13.8203125 6.703125 C-13.8203125 7.363125 -13.8203125 8.023125 -13.8203125 8.703125 C-12.78390625 9.00605469 -11.7475 9.30898437 -10.6796875 9.62109375 C-9.3096194 10.04337501 -7.93984263 10.46660227 -6.5703125 10.890625 C-5.88839844 11.08720703 -5.20648437 11.28378906 -4.50390625 11.48632812 C0.13654743 12.95054895 2.71925833 14.46712839 5.1796875 18.703125 C5.76619191 23.05058896 4.92343998 26.71145502 2.3046875 30.203125 C-2.98578049 33.93757299 -9.62412751 33.23596646 -15.8203125 32.703125 C-18.8114177 31.78703005 -19.57552179 31.06925575 -21.8203125 28.703125 C-23.1953125 24.953125 -23.1953125 24.953125 -23.8203125 21.703125 C-20.99147503 20.28870626 -18.94654505 20.38412168 -15.8203125 20.703125 C-14.80002385 22.02099785 -13.80059866 23.35523153 -12.8203125 24.703125 C-9.86027782 25.6965639 -9.86027782 25.6965639 -6.8203125 25.703125 C-5.8303125 25.043125 -4.8403125 24.383125 -3.8203125 23.703125 C-3.8203125 23.043125 -3.8203125 22.383125 -3.8203125 21.703125 C-5.37492188 21.24873047 -5.37492188 21.24873047 -6.9609375 20.78515625 C-8.3310056 20.36287499 -9.70078237 19.93964773 -11.0703125 19.515625 C-11.75222656 19.31904297 -12.43414063 19.12246094 -13.13671875 18.91992188 C-17.78029992 17.45471422 -20.35002675 15.93428111 -22.8203125 11.703125 C-23.35099077 8.49197997 -22.86316899 5.77439465 -21.8203125 2.703125 C-16.68791607 -3.14210426 -6.78064723 -3.11797075 0 0 Z " fill="#FF0000" transform="translate(1014.8203125,172.296875)"/>
<path d="M0 0 C3.090715 2.41496728 3.40236127 4.95782589 4.1796875 8.703125 C1.39105743 10.09744004 -0.74110118 9.95972594 -3.8203125 9.703125 C-4.4803125 8.713125 -5.1403125 7.723125 -5.8203125 6.703125 C-9.1209341 5.68754912 -10.49244131 5.5938346 -13.8203125 6.703125 C-13.8203125 7.363125 -13.8203125 8.023125 -13.8203125 8.703125 C-12.78390625 9.00605469 -11.7475 9.30898437 -10.6796875 9.62109375 C-9.3096194 10.04337501 -7.93984263 10.46660227 -6.5703125 10.890625 C-5.88839844 11.08720703 -5.20648437 11.28378906 -4.50390625 11.48632812 C0.13654743 12.95054895 2.71925833 14.46712839 5.1796875 18.703125 C5.76619191 23.05058896 4.92343998 26.71145502 2.3046875 30.203125 C-2.98578049 33.93757299 -9.62412751 33.23596646 -15.8203125 32.703125 C-18.8114177 31.78703005 -19.57552179 31.06925575 -21.8203125 28.703125 C-23.1953125 24.953125 -23.1953125 24.953125 -23.8203125 21.703125 C-20.99147503 20.28870626 -18.94654505 20.38412168 -15.8203125 20.703125 C-14.80002385 22.02099785 -13.80059866 23.35523153 -12.8203125 24.703125 C-9.86027782 25.6965639 -9.86027782 25.6965639 -6.8203125 25.703125 C-5.8303125 25.043125 -4.8403125 24.383125 -3.8203125 23.703125 C-3.8203125 23.043125 -3.8203125 22.383125 -3.8203125 21.703125 C-5.37492188 21.24873047 -5.37492188 21.24873047 -6.9609375 20.78515625 C-8.3310056 20.36287499 -9.70078237 19.93964773 -11.0703125 19.515625 C-11.75222656 19.31904297 -12.43414063 19.12246094 -13.13671875 18.91992188 C-17.78029992 17.45471422 -20.35002675 15.93428111 -22.8203125 11.703125 C-23.35099077 8.49197997 -22.86316899 5.77439465 -21.8203125 2.703125 C-16.68791607 -3.14210426 -6.78064723 -3.11797075 0 0 Z " fill="#FF0000" transform="translate(734.8203125,172.296875)"/>
<path d="M0 0 C3.090715 2.41496728 3.40236127 4.95782589 4.1796875 8.703125 C1.39105743 10.09744004 -0.74110118 9.95972594 -3.8203125 9.703125 C-4.4803125 8.713125 -5.1403125 7.723125 -5.8203125 6.703125 C-9.1209341 5.68754912 -10.49244131 5.5938346 -13.8203125 6.703125 C-13.8203125 7.363125 -13.8203125 8.023125 -13.8203125 8.703125 C-12.78390625 9.00605469 -11.7475 9.30898437 -10.6796875 9.62109375 C-9.3096194 10.04337501 -7.93984263 10.46660227 -6.5703125 10.890625 C-5.88839844 11.08720703 -5.20648438 11.28378906 -4.50390625 11.48632812 C0.13654743 12.95054895 2.71925833 14.46712839 5.1796875 18.703125 C5.76619191 23.05058896 4.92343998 26.71145502 2.3046875 30.203125 C-2.98578049 33.93757299 -9.62412751 33.23596646 -15.8203125 32.703125 C-18.8114177 31.78703005 -19.57552179 31.06925575 -21.8203125 28.703125 C-23.1953125 24.953125 -23.1953125 24.953125 -23.8203125 21.703125 C-20.99147503 20.28870626 -18.94654505 20.38412168 -15.8203125 20.703125 C-14.80002385 22.02099785 -13.80059866 23.35523153 -12.8203125 24.703125 C-9.86027782 25.6965639 -9.86027782 25.6965639 -6.8203125 25.703125 C-5.8303125 25.043125 -4.8403125 24.383125 -3.8203125 23.703125 C-3.8203125 23.043125 -3.8203125 22.383125 -3.8203125 21.703125 C-5.37492187 21.24873047 -5.37492187 21.24873047 -6.9609375 20.78515625 C-8.3310056 20.36287499 -9.70078237 19.93964773 -11.0703125 19.515625 C-11.75222656 19.31904297 -12.43414062 19.12246094 -13.13671875 18.91992188 C-17.78029992 17.45471422 -20.35002675 15.93428111 -22.8203125 11.703125 C-23.35099077 8.49197997 -22.86316899 5.77439465 -21.8203125 2.703125 C-16.68791607 -3.14210426 -6.78064723 -3.11797075 0 0 Z " fill="#FF0000" transform="translate(494.8203125,172.296875)"/>
<path d="M0 0 C2.31 0 4.62 0 7 0 C7.33 6.93 7.66 13.86 8 21 C9.299375 19.515 10.59875 18.03 11.9375 16.5 C16.19085261 12.18588521 16.19085261 12.18588521 19.6015625 11.40234375 C22.0625 11.4375 22.0625 11.4375 26 12 C24.52278578 15.45201639 22.56205999 17.64961936 19.875 20.25 C19.15054687 20.95640625 18.42609375 21.6628125 17.6796875 22.390625 C17.12539062 22.92171875 16.57109375 23.4528125 16 24 C20.78140581 31.6570762 20.78140581 31.6570762 25.9375 39.0625 C28 42 28 42 28 44 C24.4262853 44.79090407 21.54052678 45.0259481 18 44 C15.38337154 41.05629298 13.52865041 38.05072532 11.59375 34.625 C11.0678125 33.75875 10.541875 32.8925 10 32 C9.34 32 8.68 32 8 32 C7.67 35.96 7.34 39.92 7 44 C4.69 44 2.38 44 0 44 C0 29.48 0 14.96 0 0 Z " fill="#FF0000" transform="translate(1457,160)"/>
<path d="M0 0 C1.43472656 -0.02126953 1.43472656 -0.02126953 2.8984375 -0.04296875 C5.74124061 0.1973255 7.29475543 0.56043496 9.625 2.1875 C11.85229568 5.60120184 11.85819591 8.46873315 11.8203125 12.484375 C11.81386719 13.68964844 11.80742188 14.89492187 11.80078125 16.13671875 C11.78402344 17.39097656 11.76726562 18.64523438 11.75 19.9375 C11.74097656 21.20722656 11.73195313 22.47695312 11.72265625 23.78515625 C11.69909005 26.91946093 11.66618832 30.05338541 11.625 33.1875 C8.985 33.1875 6.345 33.1875 3.625 33.1875 C3.13 21.3075 3.13 21.3075 2.625 9.1875 C0.975 8.5275 -0.675 7.8675 -2.375 7.1875 C-5.52807687 8.8516239 -6.23350772 9.76302315 -7.375 13.1875 C-7.5214714 14.74016653 -7.62194074 16.29745662 -7.69140625 17.85546875 C-7.73330078 18.74814453 -7.77519531 19.64082031 -7.81835938 20.56054688 C-7.87733398 21.95370117 -7.87733398 21.95370117 -7.9375 23.375 C-7.98068359 24.31537109 -8.02386719 25.25574219 -8.06835938 26.22460938 C-8.17438665 28.54542854 -8.27645029 30.86635325 -8.375 33.1875 C-11.015 33.1875 -13.655 33.1875 -16.375 33.1875 C-16.375 22.6275 -16.375 12.0675 -16.375 1.1875 C-13.405 1.1875 -10.435 1.1875 -7.375 1.1875 C-4.801671 -0.0991645 -2.87276962 0.01925449 0 0 Z " fill="#FF0000" transform="translate(1200.375,170.8125)"/>
<path d="M0 0 C1.43472656 -0.02126953 1.43472656 -0.02126953 2.8984375 -0.04296875 C5.74124061 0.1973255 7.29475543 0.56043496 9.625 2.1875 C11.85229568 5.60120184 11.85819591 8.46873315 11.8203125 12.484375 C11.81386719 13.68964844 11.80742188 14.89492187 11.80078125 16.13671875 C11.78402344 17.39097656 11.76726563 18.64523438 11.75 19.9375 C11.74097656 21.20722656 11.73195313 22.47695312 11.72265625 23.78515625 C11.69909005 26.91946093 11.66618832 30.05338541 11.625 33.1875 C8.985 33.1875 6.345 33.1875 3.625 33.1875 C3.13 21.3075 3.13 21.3075 2.625 9.1875 C0.975 8.5275 -0.675 7.8675 -2.375 7.1875 C-5.52807687 8.8516239 -6.23350772 9.76302315 -7.375 13.1875 C-7.5214714 14.74016653 -7.62194074 16.29745662 -7.69140625 17.85546875 C-7.73330078 18.74814453 -7.77519531 19.64082031 -7.81835938 20.56054688 C-7.87733398 21.95370117 -7.87733398 21.95370117 -7.9375 23.375 C-7.98068359 24.31537109 -8.02386719 25.25574219 -8.06835938 26.22460938 C-8.17438665 28.54542854 -8.27645029 30.86635325 -8.375 33.1875 C-11.015 33.1875 -13.655 33.1875 -16.375 33.1875 C-16.375 22.6275 -16.375 12.0675 -16.375 1.1875 C-13.405 1.1875 -10.435 1.1875 -7.375 1.1875 C-4.801671 -0.0991645 -2.87276962 0.01925449 0 0 Z " fill="#FF0000" transform="translate(904.375,170.8125)"/>
<path d="M0 0 C2.64 0 5.28 0 8 0 C8.01401855 0.96824707 8.01401855 0.96824707 8.02832031 1.95605469 C8.08209101 4.88813944 8.1657234 7.81864008 8.25 10.75 C8.26417969 11.76578125 8.27835938 12.7815625 8.29296875 13.828125 C8.36991535 19.682146 8.36991535 19.682146 11.046875 24.703125 C11.69140625 25.13109375 12.3359375 25.5590625 13 26 C16.72614153 24.88145414 16.72614153 24.88145414 19 22 C19.15222973 20.33434251 19.24917215 18.66343504 19.31640625 16.9921875 C19.35830078 16.00605469 19.40019531 15.01992187 19.44335938 14.00390625 C19.48267578 12.97136719 19.52199219 11.93882812 19.5625 10.875 C19.60568359 9.83472656 19.64886719 8.79445312 19.69335938 7.72265625 C19.7996288 5.14857472 19.90166583 2.57439492 20 0 C22.64 0 25.28 0 28 0 C28 10.56 28 21.12 28 32 C25.36 32 22.72 32 20 32 C19.01 32.495 19.01 32.495 18 33 C13.1320273 33.40762412 8.55274723 33.57039694 3.9375 31.875 C0.78449538 28.8237052 0.09236352 25.60583638 -0.1574707 21.26220703 C-0.19673662 18.04746836 -0.17422206 14.83957932 -0.125 11.625 C-0.11597656 10.50738281 -0.10695313 9.38976562 -0.09765625 8.23828125 C-0.07418346 5.49196538 -0.04134728 2.74609528 0 0 Z " fill="#FF0000" transform="translate(1687,172)"/>
<path d="M0 0 C2.97 0 5.94 0 9 0 C11.31 6.27 13.62 12.54 16 19 C18.31 12.73 20.62 6.46 23 0 C25.64 0 28.28 0 31 0 C30.41219539 4.1592562 29.46031163 7.84205503 27.96875 11.765625 C27.57042969 12.82007813 27.17210937 13.87453125 26.76171875 14.9609375 C26.34535156 16.04632813 25.92898438 17.13171875 25.5 18.25 C25.08363281 19.35085937 24.66726563 20.45171875 24.23828125 21.5859375 C21.18375319 29.63249362 21.18375319 29.63249362 20 32 C17.36 32 14.72 32 12 32 C8.95127874 24.83480257 6.03039713 17.6239889 3.1875 10.375 C2.87353271 9.58109863 2.55956543 8.78719727 2.23608398 7.96923828 C0 2.23489482 0 2.23489482 0 0 Z " fill="#FF0000" transform="translate(644,172)"/>
<path d="M0 0 C0 3.63 0 7.26 0 11 C1.98 11 3.96 11 6 11 C6 12.98 6 14.96 6 17 C4.02 17 2.04 17 0 17 C0.33 23.27 0.66 29.54 1 36 C2.65 36.66 4.3 37.32 6 38 C6 39.98 6 41.96 6 44 C4.39620659 44.05416188 2.79188594 44.09286638 1.1875 44.125 C0.29417969 44.14820313 -0.59914063 44.17140625 -1.51953125 44.1953125 C-4 44 -4 44 -7 42 C-7.96876372 38.70009434 -8.11974289 35.56014732 -8.09765625 32.13671875 C-8.09443359 31.25048828 -8.09121094 30.36425781 -8.08789062 29.45117188 C-8.07951172 28.53916016 -8.07113281 27.62714844 -8.0625 26.6875 C-8.05798828 25.75615234 -8.05347656 24.82480469 -8.04882812 23.86523438 C-8.03709234 21.57675627 -8.02067363 19.28841192 -8 17 C-8.99 17 -9.98 17 -11 17 C-11 15.02 -11 13.04 -11 11 C-10.01 11 -9.02 11 -8 11 C-8.103125 9.741875 -8.20625 8.48375 -8.3125 7.1875 C-8.3203125 4.98046875 -8.3203125 4.98046875 -8 3 C-5.16346849 0.54678356 -3.74876504 0 0 0 Z " fill="#FF0000" transform="translate(1876,161)"/>
<path d="M0 0 C0 3.63 0 7.26 0 11 C1.98 11 3.96 11 6 11 C6 12.98 6 14.96 6 17 C4.02 17 2.04 17 0 17 C0.33 23.27 0.66 29.54 1 36 C2.65 36.66 4.3 37.32 6 38 C6 39.98 6 41.96 6 44 C4.39620659 44.05416188 2.79188594 44.09286638 1.1875 44.125 C0.29417969 44.14820313 -0.59914063 44.17140625 -1.51953125 44.1953125 C-4 44 -4 44 -7 42 C-7.96876372 38.70009434 -8.11974289 35.56014732 -8.09765625 32.13671875 C-8.09443359 31.25048828 -8.09121094 30.36425781 -8.08789062 29.45117188 C-8.07951172 28.53916016 -8.07113281 27.62714844 -8.0625 26.6875 C-8.05798828 25.75615234 -8.05347656 24.82480469 -8.04882812 23.86523438 C-8.03709234 21.57675627 -8.02067363 19.28841192 -8 17 C-8.99 17 -9.98 17 -11 17 C-11 15.02 -11 13.04 -11 11 C-10.01 11 -9.02 11 -8 11 C-8.103125 9.741875 -8.20625 8.48375 -8.3125 7.1875 C-8.3203125 4.98046875 -8.3203125 4.98046875 -8 3 C-5.16346849 0.54678356 -3.74876504 0 0 0 Z " fill="#FF0000" transform="translate(1678,161)"/>
<path d="M0 0 C0 3.63 0 7.26 0 11 C1.98 11 3.96 11 6 11 C6 12.98 6 14.96 6 17 C4.02 17 2.04 17 0 17 C0.33 23.27 0.66 29.54 1 36 C2.65 36.66 4.3 37.32 6 38 C6 39.98 6 41.96 6 44 C4.39620659 44.05416188 2.79188594 44.09286638 1.1875 44.125 C0.29417969 44.14820313 -0.59914063 44.17140625 -1.51953125 44.1953125 C-4 44 -4 44 -7 42 C-7.96876372 38.70009434 -8.11974289 35.56014732 -8.09765625 32.13671875 C-8.09443359 31.25048828 -8.09121094 30.36425781 -8.08789062 29.45117188 C-8.07951172 28.53916016 -8.07113281 27.62714844 -8.0625 26.6875 C-8.05798828 25.75615234 -8.05347656 24.82480469 -8.04882812 23.86523438 C-8.03709234 21.57675627 -8.02067363 19.28841192 -8 17 C-8.99 17 -9.98 17 -11 17 C-11 15.02 -11 13.04 -11 11 C-10.01 11 -9.02 11 -8 11 C-8.103125 9.741875 -8.20625 8.48375 -8.3125 7.1875 C-8.3203125 4.98046875 -8.3203125 4.98046875 -8 3 C-5.16346849 0.54678356 -3.74876504 0 0 0 Z " fill="#FF0000" transform="translate(1531,161)"/>
<path d="M0 0 C0 3.63 0 7.26 0 11 C1.98 11 3.96 11 6 11 C6 12.98 6 14.96 6 17 C4.02 17 2.04 17 0 17 C0.33 23.27 0.66 29.54 1 36 C2.65 36.66 4.3 37.32 6 38 C6 39.98 6 41.96 6 44 C4.39620659 44.05416188 2.79188594 44.09286638 1.1875 44.125 C0.29417969 44.14820313 -0.59914063 44.17140625 -1.51953125 44.1953125 C-4 44 -4 44 -7 42 C-7.96876372 38.70009434 -8.11974289 35.56014732 -8.09765625 32.13671875 C-8.09443359 31.25048828 -8.09121094 30.36425781 -8.08789062 29.45117188 C-8.07951172 28.53916016 -8.07113281 27.62714844 -8.0625 26.6875 C-8.05798828 25.75615234 -8.05347656 24.82480469 -8.04882812 23.86523438 C-8.03709234 21.57675627 -8.02067363 19.28841192 -8 17 C-8.99 17 -9.98 17 -11 17 C-11 15.02 -11 13.04 -11 11 C-10.01 11 -9.02 11 -8 11 C-8.103125 9.741875 -8.20625 8.48375 -8.3125 7.1875 C-8.3203125 4.98046875 -8.3203125 4.98046875 -8 3 C-5.16346849 0.54678356 -3.74876504 0 0 0 Z " fill="#FF0000" transform="translate(1160,161)"/>
<path d="M0 0 C0 3.63 0 7.26 0 11 C1.98 11 3.96 11 6 11 C6 12.98 6 14.96 6 17 C4.02 17 2.04 17 0 17 C0.33 23.27 0.66 29.54 1 36 C2.65 36.66 4.3 37.32 6 38 C6 39.98 6 41.96 6 44 C4.39620659 44.05416188 2.79188594 44.09286638 1.1875 44.125 C0.29417969 44.14820313 -0.59914063 44.17140625 -1.51953125 44.1953125 C-4 44 -4 44 -7 42 C-7.96876372 38.70009434 -8.11974289 35.56014732 -8.09765625 32.13671875 C-8.09443359 31.25048828 -8.09121094 30.36425781 -8.08789062 29.45117188 C-8.07951172 28.53916016 -8.07113281 27.62714844 -8.0625 26.6875 C-8.05798828 25.75615234 -8.05347656 24.82480469 -8.04882812 23.86523438 C-8.03709234 21.57675627 -8.02067363 19.28841192 -8 17 C-8.99 17 -9.98 17 -11 17 C-11 15.02 -11 13.04 -11 11 C-10.01 11 -9.02 11 -8 11 C-8.103125 9.741875 -8.20625 8.48375 -8.3125 7.1875 C-8.3203125 4.98046875 -8.3203125 4.98046875 -8 3 C-5.16346849 0.54678356 -3.74876504 0 0 0 Z " fill="#FF0000" transform="translate(1142,161)"/>
<path d="M0 0 C2.64 0 5.28 0 8 0 C8 14.52 8 29.04 8 44 C5.36 44 2.72 44 0 44 C0 29.48 0 14.96 0 0 Z " fill="#FF0000" transform="translate(1852,160)"/>
<path d="M0 0 C2.64 0 5.28 0 8 0 C8 14.52 8 29.04 8 44 C5.36 44 2.72 44 0 44 C0 29.48 0 14.96 0 0 Z " fill="#FF0000" transform="translate(838,160)"/>
<path d="M0 0 C2.64 0 5.28 0 8 0 C8 14.52 8 29.04 8 44 C5.36 44 2.72 44 0 44 C0 29.48 0 14.96 0 0 Z " fill="#FF0000" transform="translate(632,160)"/>
<path d="M0 0 C2.51478803 1.02797476 3.71319399 1.60393456 5.3125 3.8125 C6.21907341 6.69705176 6.08633967 8.17551685 5 11 C1.23364543 14.52336395 -2.70982814 14.32337522 -7.59765625 14.30078125 C-10.16808633 13.97895504 -11.81534266 13.37696665 -14 12 C-15.43735246 9.12529507 -15.38172649 7.18105412 -15 4 C-11.07980635 -0.96557862 -5.8617651 -0.81969398 0 0 Z " fill="#FF0000" transform="translate(1531,52)"/>
<path d="M0 0 C2.51478803 1.02797476 3.71319399 1.60393456 5.3125 3.8125 C6.21907341 6.69705176 6.08633967 8.17551685 5 11 C1.23364543 14.52336395 -2.70982814 14.32337522 -7.59765625 14.30078125 C-10.16808633 13.97895504 -11.81534266 13.37696665 -14 12 C-15.43735246 9.12529507 -15.38172649 7.18105412 -15 4 C-11.07980635 -0.96557862 -5.8617651 -0.81969398 0 0 Z " fill="#FF0000" transform="translate(1341,52)"/>
<path d="M0 0 C2.51478803 1.02797476 3.71319399 1.60393456 5.3125 3.8125 C6.21907341 6.69705176 6.08633967 8.17551685 5 11 C1.23364543 14.52336395 -2.70982814 14.32337522 -7.59765625 14.30078125 C-10.16808633 13.97895504 -11.81534266 13.37696665 -14 12 C-15.43735246 9.12529507 -15.38172649 7.18105412 -15 4 C-11.07980635 -0.96557862 -5.8617651 -0.81969398 0 0 Z " fill="#FF0000" transform="translate(1003,52)"/>
<path d="M0 0 C2.31 0 4.62 0 7 0 C7 10.56 7 21.12 7 32 C4.69 32 2.38 32 0 32 C0 21.44 0 10.88 0 0 Z " fill="#FF0000" transform="translate(1170,172)"/>
<path d="M0 0 C2.31 0 4.62 0 7 0 C7 10.56 7 21.12 7 32 C4.69 32 2.38 32 0 32 C0 21.44 0 10.88 0 0 Z " fill="#FF0000" transform="translate(1119,172)"/>
<path d="M0 0 C2.31 0 4.62 0 7 0 C7 10.56 7 21.12 7 32 C4.69 32 2.38 32 0 32 C0 21.44 0 10.88 0 0 Z " fill="#FF0000" transform="translate(389,172)"/>
<path d="M0 0 C4.95 0 9.9 0 15 0 C13.49947591 4.50157228 12.29497484 7.48199699 9.875 11.375 C9.33617187 12.24898437 8.79734375 13.12296875 8.2421875 14.0234375 C7.62730469 15.00183594 7.62730469 15.00183594 7 16 C9.31 16 11.62 16 14 16 C14 17.65 14 19.3 14 21 C8.72 21 3.44 21 -2 21 C3.75 9.375 3.75 9.375 6 6 C3.03 5.505 3.03 5.505 0 5 C0 3.35 0 1.7 0 0 Z " fill="#E32029" transform="translate(156,164)"/>
<path d="M0 0 C3.63 0 7.26 0 11 0 C11 1.65 11 3.3 11 5 C9.02 5 7.04 5 5 5 C5 5.99 5 6.98 5 8 C6.98 8 8.96 8 11 8 C11 9.65 11 11.3 11 13 C9.02 13 7.04 13 5 13 C5 13.99 5 14.98 5 16 C6.98 16 8.96 16 11 16 C11 17.65 11 19.3 11 21 C7.37 21 3.74 21 0 21 C0 14.07 0 7.14 0 0 Z " fill="#E7212A" transform="translate(173,164)"/>
<path d="M0 0 C3.63 0 7.26 0 11 0 C11 1.65 11 3.3 11 5 C9.02 5 7.04 5 5 5 C5 5.99 5 6.98 5 8 C6.98 8 8.96 8 11 8 C11 9.65 11 11.3 11 13 C9.02 13 7.04 13 5 13 C5 15.64 5 18.28 5 21 C3.35 21 1.7 21 0 21 C0 14.07 0 7.14 0 0 Z " fill="#E6212A" transform="translate(143,164)"/>
<path d="M0 0 C2.875 -0.1875 2.875 -0.1875 6 0 C8 3 8 3 7.625 5.6875 C7.41875 6.450625 7.2125 7.21375 7 8 C5.02 8.33 3.04 8.66 1 9 C-0.625 7.3125 -0.625 7.3125 -2 5 C-1.1875 2.25 -1.1875 2.25 0 0 Z " fill="#F6F8FB" transform="translate(250,66)"/>
<path d="M0 0 C2.86724686 0.57344937 3.8614515 0.8614515 6 3 C5.625 5.125 5.625 5.125 5 7 C4.34 7 3.68 7 3 7 C2.67 8.32 2.34 9.64 2 11 C1.566875 10.34 1.13375 9.68 0.6875 9 C-0.1478125 8.01 -0.1478125 8.01 -1 7 C-1.99 7 -2.98 7 -4 7 C-2.79618552 4.50638429 -1.54571278 2.31856917 0 0 Z " fill="#F4F6FA" transform="translate(221,35)"/>
<path d="M0 0 C2.97 0 5.94 0 9 0 C9 1.98 9 3.96 9 6 C6.03 6 3.06 6 0 6 C0 4.02 0 2.04 0 0 Z " fill="#FF0000" transform="translate(1937,198)"/>
<path d="M0 0 C2.97 0 5.94 0 9 0 C9 1.98 9 3.96 9 6 C6.03 6 3.06 6 0 6 C0 4.02 0 2.04 0 0 Z " fill="#FF0000" transform="translate(1592,198)"/>
<path d="M0 0 C2.97 0 5.94 0 9 0 C9 1.98 9 3.96 9 6 C6.03 6 3.06 6 0 6 C0 4.02 0 2.04 0 0 Z " fill="#FF0000" transform="translate(1306,198)"/>
<path d="M0 0 C2.97 0 5.94 0 9 0 C9 1.98 9 3.96 9 6 C6.03 6 3.06 6 0 6 C0 4.02 0 2.04 0 0 Z " fill="#FF0000" transform="translate(1045,198)"/>
<path d="M0 0 C2.97 0 5.94 0 9 0 C9 1.98 9 3.96 9 6 C6.03 6 3.06 6 0 6 C0 4.02 0 2.04 0 0 Z " fill="#FF0000" transform="translate(765,198)"/>
<path d="M0 0 C2.97 0 5.94 0 9 0 C9 1.98 9 3.96 9 6 C6.03 6 3.06 6 0 6 C0 4.02 0 2.04 0 0 Z " fill="#FF0000" transform="translate(525,198)"/>
<path d="M0 0 C0.86625 0.3403125 0.86625 0.3403125 1.75 0.6875 C2.4375 2.5 2.4375 2.5 2.75 4.6875 C1.3125 6.3125 1.3125 6.3125 -0.25 7.6875 C-0.25 8.3475 -0.25 9.0075 -0.25 9.6875 C-3.25 8.6875 -3.25 8.6875 -4.9375 5.625 C-5.370625 4.655625 -5.80375 3.68625 -6.25 2.6875 C-2.80384615 -0.38942308 -2.80384615 -0.38942308 0 0 Z " fill="#D0DCEC" transform="translate(218.25,199.3125)"/>
<path d="M0 0 C0.556875 0.391875 1.11375 0.78375 1.6875 1.1875 C-0.0625 7.9375 -0.0625 7.9375 -2.3125 10.1875 C-7.3125 4.4375 -7.3125 4.4375 -7.3125 2.1875 C-3.09973404 -1.08909574 -3.09973404 -1.08909574 0 0 Z " fill="#D0DCEC" transform="translate(231.3125,191.8125)"/>
<path d="M0 0 C4.875 2.625 4.875 2.625 6 6 C5.67 6.66 5.34 7.32 5 8 C2.33333333 8 -0.33333333 8 -3 8 C-3.66 7.34 -4.32 6.68 -5 6 C-3.35 4.02 -1.7 2.04 0 0 Z " fill="#BECEE5" transform="translate(98,189)"/>
<path d="M0 0 C1.9375 0.6875 1.9375 0.6875 4 2 C4.75 4.625 4.75 4.625 5 7 C0.94568308 8.15837626 -1.21812119 7.83691257 -5 6 C-3.35 4.02 -1.7 2.04 0 0 Z " fill="#C8D6E9" transform="translate(91,183)"/>
<path d="M0 0 C3.37462715 0.54723683 5.08235 1.0549 8 3 C8 3.66 8 4.32 8 5 C6.35 5.66 4.7 6.32 3 7 C3.66 7.33 4.32 7.66 5 8 C4.67 8.99 4.34 9.98 4 11 C0.535 9.02 0.535 9.02 -3 7 C-3 6.34 -3 5.68 -3 5 C-1.35 4.34 0.3 3.68 2 3 C1.34 2.67 0.68 2.34 0 2 C0 1.34 0 0.68 0 0 Z " fill="#EEF2F8" transform="translate(249,168)"/>
<path d="M0 0 C1.24546405 2.49092811 0.7767578 3.41080733 0 6 C1.32 6 2.64 6 4 6 C4 6.66 4 7.32 4 8 C1.36 8.99 -1.28 9.98 -4 11 C-3.67 9.02 -3.34 7.04 -3 5 C-4.32 5.33 -5.64 5.66 -7 6 C-7 5.01 -7 4.02 -7 3 C-4.69 2.01 -2.38 1.02 0 0 Z " fill="#F3F6FA" transform="translate(260,74)"/>
<path d="M0 0 C2 2 2 2 2 3 C2.66 3.66 3.32 4.32 4 5 C4.33 5 4.66 5 5 5 C5.66 5 6.32 5 7 5 C5.63016497 8.16115776 5.0109362 8.9927092 2 11 C0.02 9.35 -1.96 7.7 -4 6 C-2.84826645 3.53199953 -1.95216435 1.95216435 0 0 Z " fill="#F4F7FA" transform="translate(87,51)"/>
<path d="M0 0 C0.33 0.99 0.66 1.98 1 3 C1.99 3 2.98 3 4 3 C4 3.99 4 4.98 4 6 C4.33 5.34 4.66 4.68 5 4 C5.66 4 6.32 4 7 4 C6.1875 6.4375 6.1875 6.4375 5 9 C4.01 9.33 3.02 9.66 2 10 C-1.1875 8.0625 -1.1875 8.0625 -4 6 C-1.125 1.125 -1.125 1.125 0 0 Z " fill="#F1F5F9" transform="translate(81,58)"/>
<path d="M0 0 C0.66 0.33 1.32 0.66 2 1 C2.625 3.0625 2.625 3.0625 3 5 C3.99 4.34 4.98 3.68 6 3 C6.33 3.66 6.66 4.32 7 5 C5.35 6.98 3.7 8.96 2 11 C1 9 0 7 -1 5 C-1.99 5.66 -2.98 6.32 -4 7 C-4 4 -4 4 -2 1.8125 C-1.34 1.214375 -0.68 0.61625 0 0 Z " fill="#FBFCFD" transform="translate(230,41)"/>
<path d="M0 0 C1.32 1.65 2.64 3.3 4 5 C4.66 4.01 5.32 3.02 6 2 C6.66 2 7.32 2 8 2 C7.34 4.64 6.68 7.28 6 10 C3 9 3 9 1 6 C0.67 6.66 0.34 7.32 0 8 C-0.99 7.67 -1.98 7.34 -3 7 C-2.01 4.69 -1.02 2.38 0 0 Z " fill="#F7F9FC" transform="translate(194,23)"/>
<path d="M0 0 C0.99 0.33 1.98 0.66 3 1 C3 1.33 3 1.66 3 2 C3.66 2 4.32 2 5 2 C4.67 3.32 4.34 4.64 4 6 C4.66 6 5.32 6 6 6 C6.33 5.01 6.66 4.02 7 3 C7.66 3.33 8.32 3.66 9 4 C7.515 6.475 7.515 6.475 6 9 C0.25 7.125 0.25 7.125 -2 6 C-1.34 4.02 -0.68 2.04 0 0 Z " fill="#F6F8FB" transform="translate(253,160)"/>
<path d="M0 0 C1.98 0.99 3.96 1.98 6 3 C5.67 3.66 5.34 4.32 5 5 C4.67 5 4.34 5 4 5 C4 5.66 4 6.32 4 7 C2.68 7 1.36 7 0 7 C0.99 7.66 1.98 8.32 3 9 C2.67 9.66 2.34 10.32 2 11 C0.02 10.01 -1.96 9.02 -4 8 C-2.68 5.36 -1.36 2.72 0 0 Z " fill="#F3F6FA" transform="translate(213,30)"/>
<path d="M0 0 C2.02054804 1.64169528 4.02043058 3.30911778 6 5 C6 5.33 6 5.66 6 6 C4.35 6.33 2.7 6.66 1 7 C1.33 8.32 1.66 9.64 2 11 C-1.36720387 9.60667426 -2.9859524 8.0210714 -5 5 C-3.35 4.34 -1.7 3.68 0 3 C0 2.01 0 1.02 0 0 Z " fill="#E2E9F3" transform="translate(95,44)"/>
<path d="M0 0 C-0.33 1.32 -0.66 2.64 -1 4 C-0.01 4 0.98 4 2 4 C1.01 5.485 1.01 5.485 0 7 C1.65 6.34 3.3 5.68 5 5 C5 5.66 5 6.32 5 7 C3 8.625 3 8.625 1 10 C-2.36720387 8.60667426 -3.9859524 7.0210714 -6 4 C-2.25 0 -2.25 0 0 0 Z " fill="#F3F6FA" transform="translate(237,185)"/>
<path d="M0 0 C0.66 0.66 1.32 1.32 2 2 C1.34 2.45375 0.68 2.9075 0 3.375 C-0.99 4.179375 -0.99 4.179375 -2 5 C-2 5.66 -2 6.32 -2 7 C0.31 6.34 2.62 5.68 5 5 C4.375 6.9375 4.375 6.9375 3 9 C0 9.875 0 9.875 -3 10 C-3.66 9.34 -4.32 8.68 -5 8 C-4.875 5.5625 -4.875 5.5625 -4 3 C-1.9375 1.1875 -1.9375 1.1875 0 0 Z " fill="#F8FAFC" transform="translate(85,175)"/>
<path d="M0 0 C1.32 0.33 2.64 0.66 4 1 C4.33 2.32 4.66 3.64 5 5 C4 5 3 5 2 5 C1.34 6.32 0.68 7.64 0 9 C-1.9375 8.25 -1.9375 8.25 -4 7 C-4.75 4.875 -4.75 4.875 -5 3 C-4.34 3 -3.68 3 -3 3 C-2.67 3.66 -2.34 4.32 -2 5 C-1.34 3.35 -0.68 1.7 0 0 Z " fill="#F7F9FC" transform="translate(79,169)"/>
<path d="M0 0 C2.31 0 4.62 0 7 0 C7 1.98 7 3.96 7 6 C4.69 6 2.38 6 0 6 C0 4.02 0 2.04 0 0 Z " fill="#FF0000" transform="translate(1170,160)"/>
<path d="M0 0 C2.31 0 4.62 0 7 0 C7 1.98 7 3.96 7 6 C4.69 6 2.38 6 0 6 C0 4.02 0 2.04 0 0 Z " fill="#FF0000" transform="translate(1119,160)"/>
<path d="M0 0 C2.31 0 4.62 0 7 0 C7 1.98 7 3.96 7 6 C4.69 6 2.38 6 0 6 C0 4.02 0 2.04 0 0 Z " fill="#FF0000" transform="translate(389,160)"/>
<path d="M0 0 C3.3 0.33 6.6 0.66 10 1 C5.5078125 6.46875 5.5078125 6.46875 4 8 C3.34 8 2.68 8 2 8 C2 6.02 2 4.04 2 2 C1.34 2 0.68 2 0 2 C0 1.34 0 0.68 0 0 Z " fill="#ECF1F7" transform="translate(257,86)"/>
<path d="M0 0 C0.66 0 1.32 0 2 0 C3.625 2.5 3.625 2.5 5 5 C5.33 4.34 5.66 3.68 6 3 C6.66 3 7.32 3 8 3 C6.92598892 5.91517292 6.22189824 7.77810176 4 10 C2.68 8.35 1.36 6.7 0 5 C-0.99 5.33 -1.98 5.66 -3 6 C-1.125 1.125 -1.125 1.125 0 0 Z " fill="#FAFBFD" transform="translate(75,66)"/>
<path d="M0 0 C-0.99 2.97 -1.98 5.94 -3 9 C-5 7 -5 7 -6 5 C-6.99 4.67 -7.98 4.34 -9 4 C-9 3.34 -9 2.68 -9 2 C-3.375 0 -3.375 0 0 0 Z " fill="#E8EEF5" transform="translate(242,50)"/>
<path d="M0 0 C0.66 0.33 1.32 0.66 2 1 C2 1.99 2 2.98 2 4 C3.32 3.67 4.64 3.34 6 3 C6.33 3.66 6.66 4.32 7 5 C6.030625 5.268125 5.06125 5.53625 4.0625 5.8125 C3.051875 6.204375 2.04125 6.59625 1 7 C0.67 7.99 0.34 8.98 0 10 C-0.66 9.34 -1.32 8.68 -2 8 C-1.7578125 6.0546875 -1.7578125 6.0546875 -1.125 3.875 C-0.92132813 3.15054688 -0.71765625 2.42609375 -0.5078125 1.6796875 C-0.34023437 1.12539062 -0.17265625 0.57109375 0 0 Z " fill="#F7F9FC" transform="translate(111,198)"/>
<path d="M0 0 C1.70884005 1.62339805 3.37446717 3.29319053 5 5 C5 5.66 5 6.32 5 7 C3.68 7 2.36 7 1 7 C-0.68698082 7.61344757 -2.35965807 8.27095914 -4 9 C-2.84826645 6.53199953 -1.95216435 4.95216435 0 3 C0 2.01 0 1.02 0 0 Z " fill="#F0F4F9" transform="translate(245,53)"/>
<path d="M0 0 C3.465 1.485 3.465 1.485 7 3 C6.67 3.66 6.34 4.32 6 5 C5.34 5 4.68 5 4 5 C2.3553326 7.46326712 2.3553326 7.46326712 1 10 C0.34 9.34 -0.32 8.68 -1 8 C-0.34 6.35 0.32 4.7 1 3 C0.34 2.34 -0.32 1.68 -1 1 C-0.67 0.67 -0.34 0.34 0 0 Z " fill="#F4F7FB" transform="translate(204,26)"/>
<path d="M0 0 C0 0.66 0 1.32 0 2 C-1.98 2.66 -3.96 3.32 -6 4 C-6 5.32 -6 6.64 -6 8 C-6.66 8 -7.32 8 -8 8 C-8.33 5.69 -8.66 3.38 -9 1 C-5.92677456 0.08941469 -3.19902639 -0.08886184 0 0 Z " fill="#F0F3F9" transform="translate(269,94)"/>
<path d="M0 0 C0.66 0 1.32 0 2 0 C1.42415568 2.38564077 0.77772405 4.66682784 0 7 C0.66 7.33 1.32 7.66 2 8 C2 8.66 2 9.32 2 10 C-2.875 8.25 -2.875 8.25 -4 6 C-2.7260411 3.96166576 -1.38938077 1.96147874 0 0 Z " fill="#F6F8FB" transform="translate(105,195)"/>
<path d="M0 0 C2.49361571 1.20381448 4.68143083 2.45428722 7 4 C7.33 3.01 7.66 2.02 8 1 C8.66 1 9.32 1 10 1 C9.05830937 3.43270079 8.47018066 4.72437686 6.1875 6.0625 C4 6 4 6 1.25 3.5625 C0.5075 2.716875 -0.235 1.87125 -1 1 C-0.67 0.67 -0.34 0.34 0 0 Z " fill="#F2F5FA" transform="translate(238,182)"/>
<path d="M0 0 C1 2 1 2 1 5 C1.66 5.66 2.32 6.32 3 7 C1.68 7 0.36 7 -1 7 C-1.99 7.33 -2.98 7.66 -4 8 C-4 4.09161134 -2.49432124 2.88405893 0 0 Z " fill="#F4F7FA" transform="translate(98,189)"/>
<path d="M0 0 C1.67542976 0.28604898 3.34385343 0.61781233 5 1 C6.125 5.75 6.125 5.75 5 8 C4.01 8 3.02 8 2 8 C2.33 6.35 2.66 4.7 3 3 C1.68 2.34 0.36 1.68 -1 1 C-0.67 0.67 -0.34 0.34 0 0 Z " fill="#F7F9FC" transform="translate(252,66)"/>
<path d="M0 0 C0.99 0 1.98 0 3 0 C3.33 1.65 3.66 3.3 4 5 C3.01 5.495 3.01 5.495 2 6 C1.01 5.01 0.02 4.02 -1 3 C-0.67 2.01 -0.34 1.02 0 0 Z " fill="#A7BDDC" transform="translate(221,35)"/>
<path d="M0 0 C0.66 0.66 1.32 1.32 2 2 C0.35 3.98 -1.3 5.96 -3 8 C-3.75 6.25 -3.75 6.25 -4 4 C-2.0625 1.75 -2.0625 1.75 0 0 Z " fill="#EFF3F8" transform="translate(235,44)"/>
<path d="M0 0 C0.66 0 1.32 0 2 0 C1.34 2.97 0.68 5.94 0 9 C-0.66 8.67 -1.32 8.34 -2 8 C-1.125 1.125 -1.125 1.125 0 0 Z " fill="#EBF0F7" transform="translate(189,22)"/>
<path d="M0 0 C4.875 4.625 4.875 4.625 6 8 C2.17053157 6.54744301 0.87949705 4.57104439 -1 1 C-0.67 0.67 -0.34 0.34 0 0 Z " fill="#F3F6FA" transform="translate(221,196)"/>
<path d="M0 0 C2.9719385 1.12451727 5.33440687 2.22293791 8 4 C8 4.66 8 5.32 8 6 C4.65750371 5.40312566 2.53563658 4.26396123 0 2 C0 1.34 0 0.68 0 0 Z " fill="#EDF2F8" transform="translate(243,176)"/>
<path d="M0 0 C2.475 0.495 2.475 0.495 5 1 C4.34 2.32 3.68 3.64 3 5 C2.01 4.67 1.02 4.34 0 4 C0 2.68 0 1.36 0 0 Z " fill="#295FA9" transform="translate(251,68)"/>
<path d="M0 0 C0.99 0.33 1.98 0.66 3 1 C0.31158141 3.25245881 -1.64641875 4.88213958 -5 6 C-3.63016497 2.83884224 -3.0109362 2.0072908 0 0 Z " fill="#F5F7FB" transform="translate(250,61)"/>
<path d="M0 0 C1.98 0.99 1.98 0.99 4 2 C3.67 3.65 3.34 5.3 3 7 C2.01 7 1.02 7 0 7 C0 6.34 0 5.68 0 5 C0.66 5 1.32 5 2 5 C1.34 3.35 0.68 1.7 0 0 Z " fill="#FBFCFD" transform="translate(92,184)"/>
<path d="M0 0 C2.02054804 1.64169528 4.02043058 3.30911778 6 5 C6 5.33 6 5.66 6 6 C4.35 6 2.7 6 1 6 C0.34 4.35 -0.32 2.7 -1 1 C-0.67 0.67 -0.34 0.34 0 0 Z " fill="#F8FAFC" transform="translate(95,44)"/>
</svg>
