<?xml version="1.0" encoding="UTF-8"?>
<svg version="1.1" xmlns="http://www.w3.org/2000/svg" width="2030" height="342">
<path d="M0 0 C669.9 0 1339.8 0 2030 0 C2030 112.86 2030 225.72 2030 342 C1360.1 342 690.2 342 0 342 C0 229.14 0 116.28 0 0 Z " fill="#FEFEFE" transform="translate(0,0)"/>
<path d="M0 0 C18.81 0 37.62 0 57 0 C57.33 7.26 57.66 14.52 58 22 C61 30 61 30 66 32 C68.19387714 32.30679667 68.19387714 32.30679667 70.54315186 32.2784729 C71.448965 32.28963638 72.35477814 32.30079987 73.28804016 32.31230164 C74.27418808 32.31446182 75.260336 32.31662201 76.27636719 32.31884766 C77.32058334 32.32889328 78.3647995 32.3389389 79.44065857 32.34928894 C82.89272511 32.38018378 86.34471386 32.39717378 89.796875 32.4140625 C92.19013135 32.43276906 94.58338107 32.45234208 96.97662354 32.4727478 C103.27630713 32.52412901 109.57601211 32.56372279 115.87579346 32.60089111 C123.43412125 32.647926 130.99234237 32.70954952 138.55058289 32.76873779 C150.03367901 32.857023 161.51675394 32.9267355 173 33 C173 49.5 173 66 173 83 C157.03964864 83.09051765 141.0795028 83.16410782 125.11896896 83.20724869 C117.70714842 83.22781786 110.29549944 83.25582942 102.88378906 83.30175781 C96.41890758 83.34179964 89.95415044 83.36747378 83.48914838 83.37635398 C80.0702939 83.38153965 76.65179492 83.39360744 73.23305511 83.42292023 C69.40353168 83.45213176 65.57473485 83.45594842 61.74511719 83.45410156 C60.07059479 83.47567322 60.07059479 83.47567322 58.36224365 83.49768066 C42.58405022 83.41582117 29.9715186 76.5511887 18.67578125 65.89453125 C1.14463304 46.93017969 0 25.63228419 0 0 Z " fill="#0D3F30" transform="translate(104,236)"/>
<path d="M0 0 C33.66 0 67.32 0 102 0 C102.495 5.445 102.495 5.445 103 11 C104.134375 11.144375 105.26875 11.28875 106.4375 11.4375 C110 12 110 12 111 13 C111.09304018 14.47354348 111.11746265 15.95150591 111.11352539 17.42797852 C111.11341209 18.83932823 111.11341209 18.83932823 111.11329651 20.27919006 C111.10813522 21.30209641 111.10297394 22.32500275 111.09765625 23.37890625 C111.0962413 24.42070541 111.09482635 25.46250458 111.09336853 26.53587341 C111.0877508 29.87811094 111.0751953 33.22028257 111.0625 36.5625 C111.05748728 38.82226466 111.05292398 41.08203037 111.04882812 43.34179688 C111.03777561 48.89455391 111.02102024 54.44727225 111 60 C109.65421875 59.99830811 109.65421875 59.99830811 108.28125 59.99658203 C104.91812383 60.00657065 101.55741673 60.04333571 98.19482422 60.09765625 C96.74602407 60.11570582 95.29705337 60.12340493 93.84814453 60.12011719 C82.88232019 60.03527512 82.88232019 60.03527512 73.66113281 65.51220703 C66.93489035 71.53656353 54.93606172 72.78175151 46.34375 72.4140625 C38.46454176 71.43836615 32.31731687 69.08733048 26 64.3125 C18.21905728 59.44396868 18.21905728 59.44396868 0 60 C0 40.2 0 20.4 0 0 Z " fill="#0D3E2F" transform="translate(166,132)"/>
<path d="M0 0 C1.3393158 0.01147316 1.3393158 0.01147316 2.70568848 0.0231781 C3.38224487 0.03301224 4.05880127 0.04284637 4.75585938 0.05297852 C4.78115017 7.42194895 4.79870117 14.79090826 4.81079102 22.15991211 C4.81582941 24.66837991 4.82266021 27.17684475 4.83129883 29.68530273 C4.84338598 33.28443122 4.84909252 36.88352099 4.85351562 40.48266602 C4.85867691 41.60977997 4.8638382 42.73689392 4.86915588 43.89816284 C4.86923141 44.93909088 4.86930695 45.98001892 4.86938477 47.05249023 C4.87160538 47.97182343 4.87382599 48.89115662 4.87611389 49.83834839 C4.75585938 52.05297852 4.75585938 52.05297852 3.75585938 54.05297852 C3.59979473 56.45834114 3.49773832 58.84021473 3.43945312 61.24829102 C3.40134521 62.5426709 3.3632373 63.83705078 3.32397461 65.1706543 C3.28087158 66.82307129 3.23776855 68.47548828 3.19335938 70.17797852 C3.04898438 75.41672852 2.90460938 80.65547852 2.75585938 86.05297852 C-15.72414063 86.05297852 -34.20414063 86.05297852 -53.24414062 86.05297852 C-53.32664062 80.38110352 -53.40914063 74.70922852 -53.49414062 68.86547852 C-53.53055664 67.10437744 -53.56697266 65.34327637 -53.60449219 63.52880859 C-53.82152562 45.60586777 -48.43064643 30.10340036 -35.86914062 17.11547852 C-25.75025074 7.67580178 -14.3952909 -0.16035822 0 0 Z " fill="#0E3F30" transform="translate(158.244140625,143.947021484375)"/>
<path d="M0 0 C0.79792969 0.00386719 1.59585938 0.00773437 2.41796875 0.01171875 C3.61486328 0.00591797 3.61486328 0.00591797 4.8359375 0 C10.79136108 0.01011108 10.79136108 0.01011108 11.91796875 1.13671875 C11.95877658 3.13630239 11.96051231 5.13717129 11.91796875 7.13671875 C12.88849686 7.13005692 12.88849686 7.13005692 13.87863159 7.1232605 C20.59403278 7.0791195 27.30939297 7.04889087 34.02490234 7.02685547 C36.5333829 7.01677864 39.04185167 7.00311696 41.55029297 6.98583984 C45.14944363 6.96166538 48.74843942 6.95025263 52.34765625 6.94140625 C53.4747702 6.93108368 54.60188416 6.92076111 55.76315308 6.91012573 C56.80408112 6.90997467 57.84500916 6.90982361 58.91748047 6.90966797 C59.83681366 6.90522675 60.75614685 6.90078552 61.70333862 6.89620972 C63.91796875 7.13671875 63.91796875 7.13671875 65.91796875 9.13671875 C66.04296875 12.76171875 66.04296875 12.76171875 65.91796875 16.13671875 C60.04784729 19.21456622 54.21176818 22.1111526 47.98046875 24.38671875 C40.91491974 27.00422238 34.19315743 30.2624152 27.42797852 33.57128906 C22.33178437 36.05002567 17.25894201 38.23853313 11.91796875 40.13671875 C11.58796875 45.08671875 11.25796875 50.03671875 10.91796875 55.13671875 C15.80950346 55.09715085 15.80950346 55.09715085 20.70092773 55.04663086 C22.44018592 55.03946962 24.17942179 55.08647173 25.91796875 55.13671875 C27.67356817 56.89231817 27.05018794 59.17254317 27.0546875 61.5078125 C27.05082031 62.21035156 27.04695313 62.91289063 27.04296875 63.63671875 C27.04683594 64.33925781 27.05070312 65.04179688 27.0546875 65.765625 C27.04458253 71.01010497 27.04458253 71.01010497 25.91796875 72.13671875 C24.45540698 72.24013125 22.98792611 72.27522196 21.52172852 72.28198242 C20.12006187 72.2915522 20.12006187 72.2915522 18.69007874 72.30131531 C17.6734465 72.30242813 16.65681427 72.30354095 15.609375 72.3046875 C14.57231918 72.3080159 13.53526337 72.3113443 12.46678162 72.31477356 C10.26846766 72.31984735 8.07014598 72.32218175 5.87182617 72.32202148 C2.49840674 72.32420713 -0.87468542 72.34235589 -4.24804688 72.36132812 C-6.37890513 72.36426205 -8.50976494 72.36624685 -10.640625 72.3671875 C-11.655233 72.37437302 -12.669841 72.38155853 -13.7151947 72.38896179 C-14.65279129 72.38588516 -15.59038788 72.38280853 -16.55639648 72.37963867 C-17.38388901 72.38106369 -18.21138153 72.38248871 -19.06394958 72.38395691 C-21.08203125 72.13671875 -21.08203125 72.13671875 -23.08203125 70.13671875 C-23.34765625 67.421875 -23.34765625 67.421875 -23.33203125 64.19921875 C-23.33976562 62.60787109 -23.33976562 62.60787109 -23.34765625 60.984375 C-23.08203125 58.13671875 -23.08203125 58.13671875 -21.08203125 55.13671875 C-18.43621516 54.91375672 -16.08923623 54.85523123 -13.45703125 54.94921875 C-11.02328125 55.01109375 -8.58953125 55.07296875 -6.08203125 55.13671875 C-6.08203125 49.85671875 -6.08203125 44.57671875 -6.08203125 39.13671875 C-7.73203125 38.80671875 -9.38203125 38.47671875 -11.08203125 38.13671875 C-21.15601432 35.04470414 -30.76717164 30.3834332 -40.12109375 25.57421875 C-44.2840018 23.55317632 -48.60647375 22.06969157 -52.9609375 20.515625 C-56.21894696 19.07622908 -58.55162564 17.64347571 -61.08203125 15.13671875 C-60.87150493 8.92619243 -60.87150493 8.92619243 -59.08203125 7.13671875 C-57.45528347 7.04331441 -55.82449074 7.01926704 -54.19506836 7.02319336 C-53.15406479 7.02326889 -52.11306122 7.02334442 -51.04051208 7.02342224 C-49.90823685 7.02858353 -48.77596161 7.03374481 -47.609375 7.0390625 C-46.45659561 7.04047745 -45.30381622 7.0418924 -44.11610413 7.04335022 C-40.41722061 7.0489687 -36.71839661 7.06152433 -33.01953125 7.07421875 C-30.51888108 7.07923137 -28.01822996 7.08379469 -25.51757812 7.08789062 C-19.37237537 7.09894413 -13.22720756 7.11570023 -7.08203125 7.13671875 C-7.10265625 6.16734375 -7.12328125 5.19796875 -7.14453125 4.19921875 C-7.03528902 -1.15365048 -4.77665669 0.00810977 0 0 Z " fill="#123F32" transform="translate(215.08203125,22.86328125)"/>
<path d="M0 0 C1.75969325 1.05483698 3.49468089 2.15337755 5.1875 3.3125 C5.79722656 3.69535156 6.40695312 4.07820313 7.03515625 4.47265625 C13.30752682 8.94833755 17.19983374 17.06119901 19.1875 24.3125 C20.22965374 36.52715486 18.54450063 46.38477731 11.1875 56.3125 C4.82117888 63.27519781 -4.15696976 67.68137213 -13.53125 68.5703125 C-24.12026017 68.97968145 -32.64550987 66.09719251 -40.8046875 59.3125 C-44.09662296 56.03337362 -46.53793887 52.34704941 -48.8125 48.3125 C-49.17472656 47.68730469 -49.53695313 47.06210938 -49.91015625 46.41796875 C-53.59417518 37.82192459 -53.03628405 26.40795937 -49.6875 17.875 C-44.88135908 7.79415289 -38.39573308 3.15696137 -28.5703125 -1.82421875 C-19.7072063 -4.59864718 -8.28802966 -4.05030595 0 0 Z " fill="#0F4032" transform="translate(1492.8125,86.6875)"/>
<path d="M0 0 C6.6 0 13.2 0 20 0 C27.22877964 7.65838571 27.22877964 7.65838571 29.07617188 11.13085938 C29.48536865 11.87875732 29.89456543 12.62665527 30.31616211 13.3972168 C30.72745361 14.15301025 31.13874512 14.90880371 31.5625 15.6875 C32.4509519 17.19084688 33.34610215 18.69025615 34.24804688 20.18554688 C36.22088699 23.48532638 38.12608088 26.81408273 39.97657776 30.18388367 C41.27183658 32.48238824 42.64258715 34.73764524 44 37 C44.33 24.79 44.66 12.58 45 0 C51.27 0 57.54 0 64 0 C64 22.77 64 45.54 64 69 C57.73 69 51.46 69 45 69 C41.03991694 65.02319362 39.42494626 62.77869497 37 58 C35.51996786 55.72856179 34.02300791 53.47992419 32.5 51.23828125 C30.99653423 48.93194307 29.49715786 46.62293793 28 44.3125 C25.36 40.249375 22.72 36.18625 20 32 C19.67 44.21 19.34 56.42 19 69 C12.73 69 6.46 69 0 69 C0 46.23 0 23.46 0 0 Z " fill="#0D3D2F" transform="translate(950,85)"/>
<path d="M0 0 C20 0 20 0 24.6640625 4.28515625 C26.24609375 7.08789062 26.24609375 7.08789062 27.625 10.0625 C28.63453141 11.95108814 29.64763849 13.8377687 30.6640625 15.72265625 C31.76492188 17.79417969 32.86578125 19.86570312 34 22 C37.3 26.95 40.6 31.9 44 37 C44.33 24.79 44.66 12.58 45 0 C51.27 0 57.54 0 64 0 C64 22.77 64 45.54 64 69 C44 69 44 69 39.58984375 65.22265625 C38.17651367 62.74902344 38.17651367 62.74902344 36.9375 60.0625 C35.93349994 58.23501275 34.9282673 56.40820219 33.921875 54.58203125 C33.44427734 53.65342285 32.96667969 52.72481445 32.47460938 51.76806641 C30.15443001 47.41273633 27.41676642 43.35575534 24.6875 39.25 C23.140625 36.8575 21.59375 34.465 20 32 C19.67 44.21 19.34 56.42 19 69 C12.73 69 6.46 69 0 69 C0 46.23 0 23.46 0 0 Z " fill="#0C3D2F" transform="translate(1521,85)"/>
<path d="M0 0 C20 0 20 0 24.6640625 4.28515625 C26.24609375 7.08789062 26.24609375 7.08789062 27.625 10.0625 C28.63453141 11.95108814 29.64763849 13.8377687 30.6640625 15.72265625 C31.76492188 17.79417969 32.86578125 19.86570312 34 22 C37.3 26.95 40.6 31.9 44 37 C44.33 24.79 44.66 12.58 45 0 C51.27 0 57.54 0 64 0 C64 22.77 64 45.54 64 69 C44 69 44 69 39.58984375 65.22265625 C38.17651367 62.74902344 38.17651367 62.74902344 36.9375 60.0625 C35.93349994 58.23501275 34.9282673 56.40820219 33.921875 54.58203125 C33.44427734 53.65342285 32.96667969 52.72481445 32.47460938 51.76806641 C30.15443001 47.41273633 27.41676642 43.35575534 24.6875 39.25 C23.140625 36.8575 21.59375 34.465 20 32 C19.67 44.21 19.34 56.42 19 69 C12.73 69 6.46 69 0 69 C0 46.23 0 23.46 0 0 Z " fill="#0C3D2F" transform="translate(1204,85)"/>
<path d="M0 0 C20 0 20 0 24.6640625 4.28515625 C26.24609375 7.08789062 26.24609375 7.08789062 27.625 10.0625 C28.63453141 11.95108814 29.64763849 13.8377687 30.6640625 15.72265625 C31.76492188 17.79417969 32.86578125 19.86570312 34 22 C37.3 26.95 40.6 31.9 44 37 C44.33 24.79 44.66 12.58 45 0 C51.27 0 57.54 0 64 0 C64 22.77 64 45.54 64 69 C44 69 44 69 39.58984375 65.22265625 C38.17651367 62.74902344 38.17651367 62.74902344 36.9375 60.0625 C35.93349994 58.23501275 34.9282673 56.40820219 33.921875 54.58203125 C33.44427734 53.65342285 32.96667969 52.72481445 32.47460938 51.76806641 C30.15443001 47.41273633 27.41676642 43.35575534 24.6875 39.25 C23.140625 36.8575 21.59375 34.465 20 32 C19.67 44.21 19.34 56.42 19 69 C12.73 69 6.46 69 0 69 C0 46.23 0 23.46 0 0 Z " fill="#0C3D2F" transform="translate(826,85)"/>
<path d="M0 0 C6.06375 -0.0825 12.1275 -0.165 18.375 -0.25 C20.26782715 -0.28641602 22.1606543 -0.32283203 24.11083984 -0.36035156 C42.97218593 -0.57418154 42.97218593 -0.57418154 49.91308594 5.74047852 C54.98270902 11.16185545 56.43868703 16.09450708 56.2421875 23.44140625 C55.68298031 29.34915961 54.07147987 33.37439955 49.5625 37.3125 C48.39003084 38.22791776 47.20199282 39.12370846 46 40 C44.66594582 40.99903815 43.33252583 41.99892423 42 43 C42.42410156 43.71655762 42.84820313 44.43311523 43.28515625 45.17138672 C45.19460674 48.40328904 47.09737803 51.63907344 49 54.875 C49.66773438 56.00292969 50.33546875 57.13085938 51.0234375 58.29296875 C51.65507813 59.36933594 52.28671875 60.44570312 52.9375 61.5546875 C53.81728516 63.04718018 53.81728516 63.04718018 54.71484375 64.56982422 C56 67 56 67 56 69 C49.07 69 42.14 69 35 69 C33.80375 66.916875 32.6075 64.83375 31.375 62.6875 C30.78477051 61.65979492 30.78477051 61.65979492 30.18261719 60.61132812 C27.42965145 55.79696291 24.79548416 50.92711355 22.2265625 46.01171875 C21.15722695 43.8574197 21.15722695 43.8574197 19 43 C19 51.58 19 60.16 19 69 C12.73 69 6.46 69 0 69 C0 46.23 0 23.46 0 0 Z " fill="#0E3E30" transform="translate(1139,85)"/>
<path d="M0 0 C7.59 0 15.18 0 23 0 C26.52092016 8.30381325 29.78789048 16.65488308 32.86328125 25.1328125 C33.51855049 26.93140213 33.51855049 26.93140213 34.1870575 28.7663269 C35.10014139 31.27503885 36.01208855 33.78412789 36.92211914 36.29394531 C38.08924663 39.51221322 39.26189095 42.72844016 40.4360323 45.94415474 C41.56066673 49.02676517 42.6805009 52.11111757 43.80078125 55.1953125 C44.22257156 56.35040314 44.64436188 57.50549377 45.07893372 58.69558716 C45.65534859 60.28897415 45.65534859 60.28897415 46.2434082 61.91455078 C46.58362503 62.85098419 46.92384186 63.7874176 47.27436829 64.75222778 C48 67 48 67 48 69 C41.07 69 34.14 69 27 69 C26.01 65.7 25.02 62.4 24 59 C15.75 58.67 7.5 58.34 -1 58 C-1.33 59.65 -1.66 61.3 -2 63 C-2.66 64.98 -3.32 66.96 -4 69 C-10.93 69 -17.86 69 -25 69 C-17.18906835 45.80587242 -8.59016018 22.91412052 0 0 Z " fill="#0F4032" transform="translate(1616,85)"/>
<path d="M0 0 C7.59 0 15.18 0 23 0 C26.52092016 8.30381325 29.78789048 16.65488308 32.86328125 25.1328125 C33.51855049 26.93140213 33.51855049 26.93140213 34.1870575 28.7663269 C35.10014139 31.27503885 36.01208855 33.78412789 36.92211914 36.29394531 C38.08924663 39.51221322 39.26189095 42.72844016 40.4360323 45.94415474 C41.56066673 49.02676517 42.6805009 52.11111757 43.80078125 55.1953125 C44.22257156 56.35040314 44.64436188 57.50549377 45.07893372 58.69558716 C45.65534859 60.28897415 45.65534859 60.28897415 46.2434082 61.91455078 C46.58362503 62.85098419 46.92384186 63.7874176 47.27436829 64.75222778 C48 67 48 67 48 69 C41.07 69 34.14 69 27 69 C26.01 65.7 25.02 62.4 24 59 C15.75 58.67 7.5 58.34 -1 58 C-1.33 59.65 -1.66 61.3 -2 63 C-2.66 64.98 -3.32 66.96 -4 69 C-10.93 69 -17.86 69 -25 69 C-17.18906835 45.80587242 -8.59016018 22.91412052 0 0 Z " fill="#0F4032" transform="translate(1299,85)"/>
<path d="M0 0 C14.52 0 29.04 0 44 0 C44 4.95 44 9.9 44 15 C35.75 15 27.5 15 19 15 C19 18.63 19 22.26 19 26 C26.26 26 33.52 26 41 26 C41 30.95 41 35.9 41 41 C33.74 41 26.48 41 19 41 C19 45.29 19 49.58 19 54 C27.25 54 35.5 54 44 54 C44 58.95 44 63.9 44 69 C29.48 69 14.96 69 0 69 C0 46.23 0 23.46 0 0 Z " fill="#0C3D2F" transform="translate(1085,85)"/>
<path d="M0 0 C14.52 0 29.04 0 44 0 C44 4.95 44 9.9 44 15 C35.75 15 27.5 15 19 15 C19 18.63 19 22.26 19 26 C26.26 26 33.52 26 41 26 C41 30.95 41 35.9 41 41 C33.74 41 26.48 41 19 41 C19 45.29 19 49.58 19 54 C27.25 54 35.5 54 44 54 C44 58.95 44 63.9 44 69 C29.48 69 14.96 69 0 69 C0 46.23 0 23.46 0 0 Z " fill="#0C3D2F" transform="translate(772,85)"/>
<path d="M0 0 C14.52 0 29.04 0 44 0 C44 4.95 44 9.9 44 15 C35.75 15 27.5 15 19 15 C19 18.63 19 22.26 19 26 C26.26 26 33.52 26 41 26 C41 30.95 41 35.9 41 41 C33.74 41 26.48 41 19 41 C19 45.29 19 49.58 19 54 C27.25 54 35.5 54 44 54 C44 58.95 44 63.9 44 69 C29.48 69 14.96 69 0 69 C0 46.23 0 23.46 0 0 Z " fill="#0C3D2F" transform="translate(718,85)"/>
<path d="M0 0 C16.5 0 33 0 50 0 C50 16.84244373 50 16.84244373 45.875 21.75 C44.96376074 22.88715382 44.05367471 24.02523241 43.14453125 25.1640625 C42.64518066 25.76508789 42.14583008 26.36611328 41.63134766 26.98535156 C38.45150467 30.91232916 35.5359474 35.0410626 32.5625 39.125 C31.37790773 40.73295497 30.19180107 42.33979579 29.00390625 43.9453125 C28.49674072 44.63125488 27.9895752 45.31719727 27.46704102 46.02392578 C25.98455063 48.02080999 24.49221873 50.01037503 23 52 C36.86 52.495 36.86 52.495 51 53 C51 58.28 51 63.56 51 69 C34.17 69 17.34 69 0 69 C0 51.79753192 0 51.79753192 5.125 45.75 C5.65399902 45.06599121 6.18299805 44.38198242 6.72802734 43.67724609 C7.86132691 42.212233 9.00840423 40.75779003 10.16796875 39.31347656 C12.78811578 36.00477277 15.26538665 32.59703493 17.75341797 29.18847656 C20.04416613 26.05087472 22.36038068 22.93255473 24.67822266 19.81494141 C25.82611331 18.23876499 26.91840786 16.62238821 28 15 C18.76 15 9.52 15 0 15 C0 10.05 0 5.1 0 0 Z " fill="#0F3F31" transform="translate(657,85)"/>
<path d="M0 0 C18.48 0 36.96 0 56 0 C56 4.95 56 9.9 56 15 C49.73 15 43.46 15 37 15 C37 32.82 37 50.64 37 69 C30.73 69 24.46 69 18 69 C18 51.18 18 33.36 18 15 C12.06 15 6.12 15 0 15 C0 10.05 0 5.1 0 0 Z " fill="#0C3D2F" transform="translate(1350,85)"/>
<path d="M0 0 C18.15 0 36.3 0 55 0 C55 4.95 55 9.9 55 15 C49.06 15 43.12 15 37 15 C37 32.82 37 50.64 37 69 C30.73 69 24.46 69 18 69 C18 51.18 18 33.36 18 15 C12.06 15 6.12 15 0 15 C0 10.05 0 5.1 0 0 Z " fill="#0C3D2F" transform="translate(1022,85)"/>
<path d="M0 0 C6.6 0 13.2 0 20 0 C20 18.15 20 36.3 20 55 C26.93 55 33.86 55 41 55 C41 59.95 41 64.9 41 70 C27.47 70 13.94 70 0 70 C0 46.9 0 23.8 0 0 Z " fill="#144436" transform="translate(1670,84)"/>
<path d="M0 0 C1.39120471 0.00015906 2.78241534 0.00585033 4.17358398 0.01586914 C4.90463852 0.01728409 5.63569305 0.01869904 6.38890076 0.02015686 C8.73253406 0.02577131 11.07607313 0.03832617 13.41967773 0.05102539 C15.00496282 0.05603853 16.59024939 0.06060176 18.17553711 0.06469727 C22.06945383 0.07574542 25.96329979 0.09301967 29.85717773 0.11352539 C30.35217773 4.07352539 30.35217773 4.07352539 30.85717773 8.11352539 C38.77717773 8.11352539 46.69717773 8.11352539 54.85717773 8.11352539 C54.85717773 13.39352539 54.85717773 18.67352539 54.85717773 24.11352539 C27.13717773 24.11352539 -0.58282227 24.11352539 -29.14282227 24.11352539 C-29.14282227 9.11352539 -29.14282227 9.11352539 -28.14282227 8.11352539 C-26.43509869 8.02638708 -24.72383578 8.00652532 -23.01391602 8.01586914 C-21.46220703 8.02070312 -21.46220703 8.02070312 -19.87915039 8.02563477 C-18.79053711 8.03401367 -17.70192383 8.04239258 -16.58032227 8.05102539 C-14.94160156 8.05779297 -14.94160156 8.05779297 -13.26977539 8.06469727 C-10.56073731 8.07652713 -7.85180627 8.09300996 -5.14282227 8.11352539 C-4.99844727 6.97915039 -4.85407227 5.84477539 -4.70532227 4.67602539 C-3.98975802 0.1441185 -3.98975802 0.1441185 0 0 Z " fill="#0C3E2F" transform="translate(204.142822265625,100.886474609375)"/>
<path d="M0 0 C6.27 0 12.54 0 19 0 C19 22.77 19 45.54 19 69 C12.73 69 6.46 69 0 69 C0 46.23 0 23.46 0 0 Z " fill="#0C3D2F" transform="translate(1413,85)"/>
<path d="M0 0 C6.27 0 12.54 0 19 0 C19 22.77 19 45.54 19 69 C12.73 69 6.46 69 0 69 C0 46.23 0 23.46 0 0 Z " fill="#0C3D2F" transform="translate(920,85)"/>
<path d="M0 0 C26.46153846 0 26.46153846 0 32.875 5.4375 C35.85506073 9.28553958 35.63864225 13.46192659 35.40625 18.15625 C34.83308609 22.16839736 33.91446738 24.15661719 31 27 C23.68160319 32.21804974 15.572712 31.30892656 7 31 C7 38.26 7 45.52 7 53 C4.69 53 2.38 53 0 53 C0 35.51 0 18.02 0 0 Z " fill="#585858" transform="translate(542,199)"/>
<path d="M0 0 C26.39393939 0 26.39393939 0 33.375 6.0625 C36.16610721 11.10796303 35.93466058 16.62655617 34.41015625 22.12890625 C32.34376173 26.5378494 29.21474187 28.63816805 24.859375 30.35546875 C18.94267125 31.68915197 13.02546437 31.21713385 7 31 C7 38.26 7 45.52 7 53 C4.69 53 2.38 53 0 53 C0 35.51 0 18.02 0 0 Z " fill="#5C5C5C" transform="translate(479,199)"/>
<path d="M0 0 C2.05078125 0.03255208 4.1015625 0.06510417 6.15234375 0.09765625 C8.97754899 6.25723248 11.4976953 12.4763868 13.82421875 18.83984375 C14.15149963 19.73003204 14.47878052 20.62022034 14.815979 21.53738403 C15.49983397 23.40064431 16.18208789 25.26449292 16.86279297 27.12890625 C17.90790021 29.98785625 18.96151314 32.84357837 20.015625 35.69921875 C20.6815054 37.51673819 21.34688801 39.33444009 22.01171875 41.15234375 C22.32727722 42.00545135 22.64283569 42.85855896 22.96795654 43.73751831 C23.39905731 44.92488083 23.39905731 44.92488083 23.83886719 46.13623047 C24.09327576 46.83078339 24.34768433 47.5253363 24.60980225 48.24093628 C25.15234375 50.09765625 25.15234375 50.09765625 25.15234375 53.09765625 C22.84234375 53.09765625 20.53234375 53.09765625 18.15234375 53.09765625 C17.48147255 51.47438755 16.81577346 49.84898047 16.15234375 48.22265625 C15.78109375 47.31773437 15.40984375 46.4128125 15.02734375 45.48046875 C14.15234375 43.09765625 14.15234375 43.09765625 14.15234375 41.09765625 C6.23234375 41.09765625 -1.68765625 41.09765625 -9.84765625 41.09765625 C-10.83765625 44.72765625 -11.82765625 48.35765625 -12.84765625 52.09765625 C-13.84765625 53.09765625 -13.84765625 53.09765625 -17.41015625 53.16015625 C-18.54453125 53.13953125 -19.67890625 53.11890625 -20.84765625 53.09765625 C-18.50415262 43.05449039 -14.83119945 33.46247158 -11.26757812 23.80566406 C-10.21308538 20.94670758 -9.1666148 18.08490434 -8.12109375 15.22265625 C-7.45489247 13.40738122 -6.78824248 11.59227079 -6.12109375 9.77734375 C-5.80755951 8.92018768 -5.49402527 8.06303162 -5.17098999 7.17990112 C-2.56455652 0.13554738 -2.56455652 0.13554738 0 0 Z " fill="#5B5B5B" transform="translate(1291.84765625,198.90234375)"/>
<path d="M0 0 C2.97 0 5.94 0 9 0 C11.57016527 7.06342065 14.13289919 14.12950457 16.69042969 21.19750977 C17.56175677 23.60275587 18.43479729 26.00738197 19.30957031 28.41137695 C20.56503688 31.86248659 21.81436943 35.3157628 23.0625 38.76953125 C23.45622803 39.84773636 23.84995605 40.92594147 24.25561523 42.03681946 C24.79617554 43.53803596 24.79617554 43.53803596 25.34765625 45.06958008 C25.66742432 45.95116287 25.98719238 46.83274567 26.31665039 47.74104309 C27 50 27 50 27 53 C24.69 53 22.38 53 20 53 C18.02 47.555 18.02 47.555 16 42 C8.08 41.67 0.16 41.34 -8 41 C-8.66 43.97 -9.32 46.94 -10 50 C-10.33 50.99 -10.66 51.98 -11 53 C-13.64 53 -16.28 53 -19 53 C-17.05750565 46.2782361 -14.88223465 39.68852666 -12.4609375 33.125 C-12.13461334 32.23385498 -11.80828918 31.34270996 -11.47207642 30.42456055 C-10.78939907 28.56199576 -10.10533366 26.69993918 -9.41992188 24.83837891 C-8.36788051 21.98066093 -7.3203167 19.12133136 -6.2734375 16.26171875 C-5.60702856 14.44521793 -4.94037097 12.6288083 -4.2734375 10.8125 C-3.95990326 9.95736816 -3.64636902 9.10223633 -3.32333374 8.22119141 C-3.03278107 7.43276855 -2.74222839 6.6443457 -2.44287109 5.83203125 C-2.06006485 4.79139526 -2.06006485 4.79139526 -1.66952515 3.72973633 C-1 2 -1 2 0 0 Z " fill="#5A5A5A" transform="translate(940,199)"/>
<path d="M0 0 C2.64 0 5.28 0 8 0 C10.10530809 2.3700861 11.31330081 4.13360195 12.75 6.875 C13.58775349 8.34048614 14.42904951 9.80395149 15.2734375 11.265625 C15.92844238 12.42288086 15.92844238 12.42288086 16.59667969 13.60351562 C19.0118037 17.72788189 21.69830506 21.66739739 24.375 25.625 C25.36217844 27.09622048 26.34916696 28.56756841 27.3359375 30.0390625 C27.75407715 30.65990723 28.1722168 31.28075195 28.60302734 31.92041016 C30.40903523 34.60890634 32.20344978 37.30517468 34 40 C34.33 26.8 34.66 13.6 35 0 C37.31 0 39.62 0 42 0 C42 17.82 42 35.64 42 54 C39.69 54 37.38 54 35 54 C33.08136976 52.00225098 31.97377083 50.47808918 30.625 48.125 C29.7877798 46.77131723 28.949115 45.41852734 28.109375 44.06640625 C27.63564453 43.28668457 27.16191406 42.50696289 26.67382812 41.70361328 C24.01235454 37.40472786 21.22104287 33.19208186 18.44238281 28.96850586 C14.94910861 23.65385257 11.47674074 18.32548383 8 13 C7.67 26.53 7.34 40.06 7 54 C4.69 54 2.38 54 0 54 C0 36.18 0 18.36 0 0 Z " fill="#5D5D5D" transform="translate(677,198)"/>
<path d="M0 0 C4.75562258 2.95905405 8.42861561 6.05400326 10.93359375 11.203125 C10.93359375 11.863125 10.93359375 12.523125 10.93359375 13.203125 C5.76399534 13.72884687 5.76399534 13.72884687 2.93359375 13.203125 C0.43359375 10.390625 0.43359375 10.390625 -0.734375 8.73828125 C-3.62761229 5.40384649 -7.86133028 4.54994277 -12.078125 3.88671875 C-17.3929786 3.56302433 -21.83884203 4.95115252 -26.06640625 8.203125 C-31.04245471 14.2137974 -32.43831231 19.9184611 -32.34765625 27.6015625 C-31.76173052 33.02137554 -29.47201922 36.86779268 -25.56640625 40.578125 C-19.40172184 44.58516987 -14.39376795 45.06737792 -7.06640625 44.203125 C-3.6718017 43.1737933 -1.41792798 41.87119773 0.93359375 39.203125 C2.73377521 35.56184887 3.79639697 32.13593053 4.93359375 28.203125 C-1.99640625 28.203125 -8.92640625 28.203125 -16.06640625 28.203125 C-16.06640625 26.223125 -16.06640625 24.243125 -16.06640625 22.203125 C-6.49640625 22.203125 3.07359375 22.203125 12.93359375 22.203125 C12.93359375 31.84054704 11.89177844 35.80810775 6.74609375 43.453125 C0.65408313 49.4097576 -4.50910265 51.68728118 -13.12890625 51.765625 C-19.22576443 51.64708277 -24.19248832 51.03833911 -29.06640625 47.203125 C-29.68902344 46.72875 -30.31164063 46.254375 -30.953125 45.765625 C-36.89549841 40.58317775 -39.41395156 34.08644564 -40.4453125 26.3671875 C-40.80115393 18.17135578 -38.35730882 11.93317839 -33.44140625 5.453125 C-24.65434285 -3.94749894 -11.3843822 -5.93241201 0 0 Z " fill="#5A5A5A" transform="translate(1831.06640625,200.796875)"/>
<path d="M0 0 C4.75562258 2.95905405 8.42861561 6.05400326 10.93359375 11.203125 C10.93359375 11.863125 10.93359375 12.523125 10.93359375 13.203125 C5.76399534 13.72884687 5.76399534 13.72884687 2.93359375 13.203125 C0.43359375 10.390625 0.43359375 10.390625 -0.734375 8.73828125 C-3.62761229 5.40384649 -7.86133028 4.54994277 -12.078125 3.88671875 C-17.3929786 3.56302433 -21.83884203 4.95115252 -26.06640625 8.203125 C-31.04245471 14.2137974 -32.43831231 19.9184611 -32.34765625 27.6015625 C-31.76173052 33.02137554 -29.47201922 36.86779268 -25.56640625 40.578125 C-19.40172184 44.58516987 -14.39376795 45.06737792 -7.06640625 44.203125 C-3.6718017 43.1737933 -1.41792798 41.87119773 0.93359375 39.203125 C2.73377521 35.56184887 3.79639697 32.13593053 4.93359375 28.203125 C-1.99640625 28.203125 -8.92640625 28.203125 -16.06640625 28.203125 C-16.06640625 26.223125 -16.06640625 24.243125 -16.06640625 22.203125 C-6.49640625 22.203125 3.07359375 22.203125 12.93359375 22.203125 C12.93359375 31.84054704 11.89177844 35.80810775 6.74609375 43.453125 C0.65408313 49.4097576 -4.50910265 51.68728118 -13.12890625 51.765625 C-19.22576443 51.64708277 -24.19248832 51.03833911 -29.06640625 47.203125 C-29.68902344 46.72875 -30.31164063 46.254375 -30.953125 45.765625 C-36.89549841 40.58317775 -39.41395156 34.08644564 -40.4453125 26.3671875 C-40.80115393 18.17135578 -38.35730882 11.93317839 -33.44140625 5.453125 C-24.65434285 -3.94749894 -11.3843822 -5.93241201 0 0 Z " fill="#5A5A5A" transform="translate(1417.06640625,200.796875)"/>
<path d="M0 0 C2.31 0 4.62 0 7 0 C7 17.82 7 35.64 7 54 C-1 54 -1 54 -3.32592773 51.83544922 C-3.93895752 50.83529785 -4.5519873 49.83514648 -5.18359375 48.8046875 C-5.88419922 47.69480469 -6.58480469 46.58492187 -7.30664062 45.44140625 C-8.01776428 44.25310478 -8.7280495 43.06430116 -9.4375 41.875 C-10.14123062 40.73923942 -10.84759347 39.60510538 -11.55664062 38.47265625 C-13.72214608 34.99273473 -15.86085854 31.49618957 -18 28 C-20.97 23.38 -23.94 18.76 -27 14 C-27.33 27.2 -27.66 40.4 -28 54 C-30.31 54 -32.62 54 -35 54 C-35 36.51 -35 19.02 -35 1 C-28 1 -28 1 -25.91796875 2.84375 C-25.34691406 3.7203125 -24.77585937 4.596875 -24.1875 5.5 C-23.51976562 6.50289062 -22.85203125 7.50578125 -22.1640625 8.5390625 C-21.43939718 9.69063131 -20.71821183 10.84439526 -20 12 C-19.6090918 12.62100586 -19.21818359 13.24201172 -18.81542969 13.88183594 C-17.17598038 16.48750556 -15.53721094 19.0926615 -13.94018555 21.72460938 C-9.88407514 28.37076618 -5.46452322 34.55124424 -1 41 C-0.67 27.47 -0.34 13.94 0 0 Z " fill="#5C5C5C" transform="translate(1775,198)"/>
<path d="M0 0 C2.31 0 4.62 0 7 0 C7 17.82 7 35.64 7 54 C-1 54 -1 54 -3.32592773 51.83544922 C-3.93895752 50.83529785 -4.5519873 49.83514648 -5.18359375 48.8046875 C-5.88419922 47.69480469 -6.58480469 46.58492187 -7.30664062 45.44140625 C-8.01776428 44.25310478 -8.7280495 43.06430116 -9.4375 41.875 C-10.14123062 40.73923942 -10.84759347 39.60510538 -11.55664062 38.47265625 C-13.72214608 34.99273473 -15.86085854 31.49618957 -18 28 C-20.97 23.38 -23.94 18.76 -27 14 C-27.33 27.2 -27.66 40.4 -28 54 C-30.31 54 -32.62 54 -35 54 C-35 36.51 -35 19.02 -35 1 C-28 1 -28 1 -25.91796875 2.84375 C-25.34691406 3.7203125 -24.77585937 4.596875 -24.1875 5.5 C-23.51976562 6.50289062 -22.85203125 7.50578125 -22.1640625 8.5390625 C-21.43939718 9.69063131 -20.71821183 10.84439526 -20 12 C-19.6090918 12.62100586 -19.21818359 13.24201172 -18.81542969 13.88183594 C-17.17598038 16.48750556 -15.53721094 19.0926615 -13.94018555 21.72460938 C-9.88407514 28.37076618 -5.46452322 34.55124424 -1 41 C-0.67 27.47 -0.34 13.94 0 0 Z " fill="#5C5C5C" transform="translate(1361,198)"/>
<path d="M0 0 C3.93175622 2.21660933 6.84846735 4.52778033 8.3359375 8.98046875 C9.65624512 16.03065506 9.81446185 23.20035139 6.05859375 29.50390625 C3.16823185 33.06127474 0.03128467 34.73929859 -4.46875 35.50390625 C-9.10051755 35.75640465 -12.86841222 35.10628364 -16.75390625 32.50390625 C-20.54564856 29.04615161 -22.01596095 25.23181106 -22.60546875 20.1875 C-22.78808062 14.10804642 -22.42639609 9.36699289 -19.26171875 4.12890625 C-13.81735648 -1.0432379 -7.14535822 -2.75201189 0 0 Z " fill="#FAFBFB" transform="translate(1483.26171875,101.87109375)"/>
<path d="M0 0 C3.60259344 2.11652365 5.61831395 4.61162789 7.5 8.375 C7.5 9.695 7.5 11.015 7.5 12.375 C4.86 12.375 2.22 12.375 -0.5 12.375 C-0.726875 11.59125 -0.95375 10.8075 -1.1875 10 C-2.25631506 7.2306691 -2.25631506 7.2306691 -4.71875 6.1875 C-7.8646829 5.26846342 -10.07165603 5.35953687 -13.3125 5.75 C-14.28832031 5.86085937 -15.26414062 5.97171875 -16.26953125 6.0859375 C-17.00558594 6.18132812 -17.74164062 6.27671875 -18.5 6.375 C-18.77748242 7.78654099 -19.02093516 9.20479799 -19.25 10.625 C-19.38921875 11.41390625 -19.5284375 12.2028125 -19.671875 13.015625 C-19.69303536 15.47674466 -19.69303536 15.47674466 -18.04296875 17.484375 C-14.61860091 20.03029518 -11.10822852 21.11740377 -7.0625 22.375 C-1.11780225 24.23239913 3.98964862 25.90832429 7.8125 31.1875 C9.30231381 35.92781668 8.90362445 40.03928615 7 44.5625 C4.96341234 48.17919878 2.87522569 50.13806287 -0.953125 51.75 C-6.8532859 53.19789225 -13.85966023 53.74430211 -19.62890625 51.57421875 C-21.1875 50.5625 -21.1875 50.5625 -23.5 48.375 C-24.098125 47.941875 -24.69625 47.50875 -25.3125 47.0625 C-27.19122063 44.3927391 -27.1994456 41.56087661 -27.5 38.375 C-24.25 38 -24.25 38 -20.5 38.375 C-18.3125 41.25 -18.3125 41.25 -16.5 44.375 C-13.49118645 46.37444661 -11.47130948 46.55878796 -7.9375 46.0625 C-7.17308594 45.96324219 -6.40867187 45.86398438 -5.62109375 45.76171875 C-3.32240377 45.3941013 -3.32240377 45.3941013 -0.5 44.375 C-0.22251758 42.96345901 0.02093516 41.54520201 0.25 40.125 C0.38921875 39.33609375 0.5284375 38.5471875 0.671875 37.734375 C0.69679515 35.25948752 0.69679515 35.25948752 -1.0234375 33.234375 C-4.09397454 30.92905066 -7.23479945 29.91403362 -10.875 28.875 C-17.46582685 26.97127511 -23.9696288 24.66983136 -27.5 18.375 C-28.3854767 13.54077586 -27.9973672 9.44931316 -25.9375 5 C-18.95710742 -2.51734586 -9.52261193 -4.23622737 0 0 Z " fill="#5B5B5B" transform="translate(1879.5,199.625)"/>
<path d="M0 0 C3.60259344 2.11652365 5.61831395 4.61162789 7.5 8.375 C7.5 9.695 7.5 11.015 7.5 12.375 C4.86 12.375 2.22 12.375 -0.5 12.375 C-0.726875 11.59125 -0.95375 10.8075 -1.1875 10 C-2.25631506 7.2306691 -2.25631506 7.2306691 -4.71875 6.1875 C-7.8646829 5.26846342 -10.07165603 5.35953687 -13.3125 5.75 C-14.28832031 5.86085937 -15.26414062 5.97171875 -16.26953125 6.0859375 C-17.00558594 6.18132812 -17.74164062 6.27671875 -18.5 6.375 C-18.77748242 7.78654099 -19.02093516 9.20479799 -19.25 10.625 C-19.38921875 11.41390625 -19.5284375 12.2028125 -19.671875 13.015625 C-19.69303536 15.47674466 -19.69303536 15.47674466 -18.04296875 17.484375 C-14.61860091 20.03029518 -11.10822852 21.11740377 -7.0625 22.375 C-1.11780225 24.23239913 3.98964862 25.90832429 7.8125 31.1875 C9.30231381 35.92781668 8.90362445 40.03928615 7 44.5625 C4.96341234 48.17919878 2.87522569 50.13806287 -0.953125 51.75 C-6.8532859 53.19789225 -13.85966023 53.74430211 -19.62890625 51.57421875 C-21.1875 50.5625 -21.1875 50.5625 -23.5 48.375 C-24.098125 47.941875 -24.69625 47.50875 -25.3125 47.0625 C-27.19122063 44.3927391 -27.1994456 41.56087661 -27.5 38.375 C-24.25 38 -24.25 38 -20.5 38.375 C-18.3125 41.25 -18.3125 41.25 -16.5 44.375 C-13.49118645 46.37444661 -11.47130948 46.55878796 -7.9375 46.0625 C-7.17308594 45.96324219 -6.40867187 45.86398438 -5.62109375 45.76171875 C-3.32240377 45.3941013 -3.32240377 45.3941013 -0.5 44.375 C-0.22251758 42.96345901 0.02093516 41.54520201 0.25 40.125 C0.38921875 39.33609375 0.5284375 38.5471875 0.671875 37.734375 C0.69679515 35.25948752 0.69679515 35.25948752 -1.0234375 33.234375 C-4.09397454 30.92905066 -7.23479945 29.91403362 -10.875 28.875 C-17.46582685 26.97127511 -23.9696288 24.66983136 -27.5 18.375 C-28.3854767 13.54077586 -27.9973672 9.44931316 -25.9375 5 C-18.95710742 -2.51734586 -9.52261193 -4.23622737 0 0 Z " fill="#5B5B5B" transform="translate(1126.5,199.625)"/>
<path d="M0 0 C4.50930797 2.70558478 7.46064231 5.52419586 8.9375 10.75 C8.999375 11.45125 9.06125 12.1525 9.125 12.875 C3.7835784 13.31282144 3.7835784 13.31282144 1.125 12.875 C-0.6875 10.5 -0.6875 10.5 -1.875 7.875 C-5.92669714 5.17386858 -9.12541316 5.35203105 -13.875 5.875 C-16.55234485 6.65196483 -16.55234485 6.65196483 -17.875 8.875 C-18.56673454 12.98369858 -18.56673454 12.98369858 -17.875 16.875 C-14.39685893 20.34677085 -11.13492512 21.63563224 -6.4375 22.875 C0.30026274 24.82400256 5.24425726 26.74056814 9.125 32.875 C10.03008757 37.81628891 9.65130519 41.84118623 7.375 46.3125 C3.65390573 50.55041291 0.78346291 52.63854205 -4.94921875 53.1484375 C-16.93357171 53.48529499 -16.93357171 53.48529499 -22.38671875 49.375 C-25.5155882 46.22149378 -26.875 43.27848825 -26.875 38.875 C-24.235 38.875 -21.595 38.875 -18.875 38.875 C-18.42125 39.844375 -17.9675 40.81375 -17.5 41.8125 C-16.21713779 44.94579582 -16.21713779 44.94579582 -13.875 45.875 C-6.7512688 46.57629296 -6.7512688 46.57629296 -0.1875 44.3125 C1.62234698 40.9513556 1.6033921 38.63379503 1.125 34.875 C-0.91289727 32.27470869 -2.79543275 31.34949318 -5.9296875 30.4453125 C-6.70957031 30.20683594 -7.48945312 29.96835938 -8.29296875 29.72265625 C-9.92169216 29.24361995 -11.55189956 28.76959868 -13.18359375 28.30078125 C-18.27837733 26.7312186 -21.39081147 25.12434366 -24.875 20.875 C-26.87578091 16.87343818 -26.5085671 12.21433695 -25.875 7.875 C-20.85995453 -1.65022059 -9.64901029 -3.57605864 0 0 Z " fill="#5A5A5A" transform="translate(795.875,199.125)"/>
<path d="M0 0 C4.55631807 2.76089162 7.89794034 5.45894884 9.2265625 10.7734375 C9.38125 11.8871875 9.38125 11.8871875 9.5390625 13.0234375 C4.26491106 13.55085264 4.26491106 13.55085264 1.5390625 13.0234375 C-0.8359375 10.0859375 -0.8359375 10.0859375 -2.4609375 7.0234375 C-5.94803793 5.27988729 -9.65639733 5.45373871 -13.4609375 6.0234375 C-16.7349346 7.87985499 -16.7349346 7.87985499 -18.4609375 11.0234375 C-19.03963109 14.64002721 -19.03963109 14.64002721 -17.4609375 18.0234375 C-12.97239586 20.98756877 -8.3757229 22.39196599 -3.2734375 24.0234375 C2.5628239 25.90016721 6.09053787 27.85065056 9.5390625 33.0234375 C10.25876554 37.88561736 10.0467475 41.92683791 7.9765625 46.3984375 C3.91985822 50.76719596 1.10561663 52.72752891 -4.78125 53.40625 C-11.83204061 53.63079747 -16.87590285 53.49146522 -22.4609375 49.0234375 C-25.49890659 45.98546841 -25.98191576 43.23882885 -26.4609375 39.0234375 C-23.8209375 39.0234375 -21.1809375 39.0234375 -18.4609375 39.0234375 C-18.2340625 39.7865625 -18.0071875 40.5496875 -17.7734375 41.3359375 C-16.09497919 44.7727807 -15.03654639 45.65405537 -11.4609375 47.0234375 C-6.78094586 47.08101209 -3.38766492 46.64125578 0.5390625 44.0234375 C1.11899949 41.82889069 1.11899949 41.82889069 1.2265625 39.3984375 C1.29230469 38.58117187 1.35804687 37.76390625 1.42578125 36.921875 C1.46316406 36.29539063 1.50054688 35.66890625 1.5390625 35.0234375 C-3.35822534 31.45076384 -8.19131596 29.63142877 -13.98242188 27.95703125 C-19.08128171 26.39054532 -23.07860519 24.45897537 -25.7734375 19.7109375 C-26.901238 15.30226281 -27.15017844 11.63166636 -25.3359375 7.3984375 C-19.05974863 -0.55140174 -9.81333609 -3.89418099 0 0 Z " fill="#5A5A5A" transform="translate(1503.4609375,198.9765625)"/>
<path d="M0 0 C9.57 0 19.14 0 29 0 C29 1.98 29 3.96 29 6 C21.74 6 14.48 6 7 6 C7 11.94 7 17.88 7 24 C13.6 24 20.2 24 27 24 C27 25.98 27 27.96 27 30 C20.4 30 13.8 30 7 30 C7 35.94 7 41.88 7 48 C14.26 48 21.52 48 29 48 C29 49.98 29 51.96 29 54 C19.43 54 9.86 54 0 54 C0 36.18 0 18.36 0 0 Z " fill="#5C5C5C" transform="translate(1439,198)"/>
<path d="M0 0 C9.57 0 19.14 0 29 0 C29 1.98 29 3.96 29 6 C21.74 6 14.48 6 7 6 C7 11.94 7 17.88 7 24 C13.6 24 20.2 24 27 24 C27 25.98 27 27.96 27 30 C20.4 30 13.8 30 7 30 C7 35.94 7 41.88 7 48 C14.26 48 21.52 48 29 48 C29 49.98 29 51.96 29 54 C19.43 54 9.86 54 0 54 C0 36.18 0 18.36 0 0 Z " fill="#5E5E5E" transform="translate(731,198)"/>
<path d="M0 0 C9.57 0 19.14 0 29 0 C29 1.98 29 3.96 29 6 C21.74 6 14.48 6 7 6 C7 11.94 7 17.88 7 24 C13.6 24 20.2 24 27 24 C27 25.98 27 27.96 27 30 C20.4 30 13.8 30 7 30 C7 35.94 7 41.88 7 48 C14.26 48 21.52 48 29 48 C29 49.98 29 51.96 29 54 C19.43 54 9.86 54 0 54 C0 36.18 0 18.36 0 0 Z " fill="#5C5C5C" transform="translate(586,198)"/>
<path d="M0 0 C1.19109375 0.00773437 1.19109375 0.00773437 2.40625 0.015625 C3.2003125 0.01046875 3.994375 0.0053125 4.8125 0 C6.90625 0.265625 6.90625 0.265625 8.90625 2.265625 C9.14675903 4.6321106 9.14675903 4.6321106 9.13330078 7.63330078 C9.13307419 9.31481735 9.13307419 9.31481735 9.13284302 11.03030396 C9.12252045 12.24491302 9.11219788 13.45952209 9.1015625 14.7109375 C9.0987326 15.95108612 9.09590271 17.19123474 9.09298706 18.46896362 C9.08367174 21.76687133 9.0656989 25.06458472 9.0435791 28.36242676 C9.02312474 31.7272707 9.01398623 35.09214307 9.00390625 38.45703125 C8.98181515 45.05998206 8.94726939 51.66276574 8.90625 58.265625 C4.61625 58.265625 0.32625 58.265625 -4.09375 58.265625 C-4.1388949 50.99868444 -4.1756049 43.73182022 -4.19737434 36.46476936 C-4.20782142 33.09055506 -4.22199725 29.71644148 -4.24462891 26.34228516 C-4.26879885 22.46514182 -4.28021511 18.58814223 -4.2890625 14.7109375 C-4.29938507 13.49632843 -4.30970764 12.28171936 -4.32034302 11.03030396 C-4.32049408 9.90929291 -4.32064514 8.78828186 -4.32080078 7.63330078 C-4.325242 6.64290802 -4.32968323 5.65251526 -4.33425903 4.6321106 C-4.01578716 1.49851066 -3.17513433 0.40281555 0 0 Z " fill="#0E3A2E" transform="translate(287.09375,260.734375)"/>
<path d="M0 0 C2.31 0 4.62 0 7 0 C10.92022671 9.11678134 14.38660427 18.35638904 17.75 27.6875 C18.72077995 30.38007045 19.69519285 33.07128446 20.671875 35.76171875 C21.0956543 36.93694092 21.51943359 38.11216309 21.95605469 39.32299805 C22.74700724 41.88096748 22.74700724 41.88096748 24 43 C24.44915771 41.76846191 24.89831543 40.53692383 25.36108398 39.26806641 C27.02411479 34.70919889 28.68869936 30.15090002 30.35375977 25.59277344 C31.07488889 23.61799405 31.79559367 21.64305965 32.51586914 19.66796875 C33.54983404 16.83292665 34.58531197 13.99844122 35.62109375 11.1640625 C35.94403915 10.27756012 36.26698456 9.39105774 36.59971619 8.47769165 C36.89995193 7.65699188 37.20018768 6.83629211 37.50952148 5.99072266 C37.77377426 5.26680328 38.03802704 4.54288391 38.31028748 3.79702759 C39 2 39 2 40 0 C42.31 0 44.62 0 47 0 C46.2819241 4.43277901 44.81166535 8.50357548 43.234375 12.6875 C42.95909973 13.42645508 42.68382446 14.16541016 42.40020752 14.92675781 C41.52033193 17.28584004 40.63517891 19.6429033 39.75 22 C39.17024099 23.55326156 38.59081089 25.10664594 38.01171875 26.66015625 C34.72664603 35.46040635 31.39304772 44.24075252 28 53 C25.03 53 22.06 53 19 53 C16.28954546 45.77514099 13.58415162 38.54840214 10.88232422 31.3203125 C9.96194967 28.85991173 9.04040298 26.39994911 8.11767578 23.94042969 C6.79413839 20.41194441 5.47477823 16.88192215 4.15625 13.3515625 C3.74064819 12.24632233 3.32504639 11.14108215 2.89685059 10.00234985 C2.5164563 8.98144257 2.13606201 7.96053528 1.74414062 6.90869141 C1.40660767 6.00712311 1.06907471 5.10555481 0.72131348 4.17666626 C0 2 0 2 0 0 Z " fill="#5A5A5A" transform="translate(869,199)"/>
<path d="M0 0 C1.97265625 0.265625 1.97265625 0.265625 4.97265625 2.265625 C5.34687805 4.50476074 5.34687805 4.50476074 5.3449707 7.32617188 C5.35119949 8.38066528 5.35742828 9.43515869 5.36384583 10.52160645 C5.35463608 11.66432007 5.34542633 12.80703369 5.3359375 13.984375 C5.336436 15.15319214 5.33693451 16.32200928 5.33744812 17.52624512 C5.3351043 20.00107521 5.32535778 22.47590753 5.30883789 24.95068359 C5.28525393 28.74989014 5.28827378 32.54839518 5.29492188 36.34765625 C5.28934522 38.74740004 5.28223542 41.14714086 5.2734375 43.546875 C5.27480461 45.26094543 5.27480461 45.26094543 5.27619934 47.00964355 C5.26666733 48.06413696 5.25713531 49.11863037 5.24731445 50.20507812 C5.24270706 51.1361438 5.23809967 52.06720947 5.23335266 53.02648926 C4.97265625 55.265625 4.97265625 55.265625 2.97265625 57.265625 C0.87890625 57.53125 0.87890625 57.53125 -1.52734375 57.515625 C-2.32140625 57.52078125 -3.11546875 57.5259375 -3.93359375 57.53125 C-6.02734375 57.265625 -6.02734375 57.265625 -8.02734375 55.265625 C-8.28131104 53.02648926 -8.28131104 53.02648926 -8.28613281 50.20507812 C-8.29558929 48.62333801 -8.29558929 48.62333801 -8.30523682 47.00964355 C-8.30118835 45.86692993 -8.29713989 44.72421631 -8.29296875 43.546875 C-8.2948822 42.37805786 -8.29679565 41.20924072 -8.29876709 40.00500488 C-8.30013001 37.53018987 -8.29642616 35.05536774 -8.28808594 32.58056641 C-8.27738821 28.78141295 -8.28797793 24.98273241 -8.30078125 21.18359375 C-8.29945967 18.78385312 -8.29689732 16.38411278 -8.29296875 13.984375 C-8.29701721 12.84166138 -8.30106567 11.69894775 -8.30523682 10.52160645 C-8.2989325 9.46711304 -8.29262817 8.41261963 -8.28613281 7.32617188 C-8.28454163 6.3951062 -8.28295044 5.46404053 -8.28131104 4.50476074 C-7.70791378 -0.55067109 -4.29645748 0.03212305 0 0 Z " fill="#0E3B2E" transform="translate(291.02734375,140.734375)"/>
<path d="M0 0 C2.64 0 5.28 0 8 0 C13.28 14.52 18.56 29.04 24 44 C29.28 29.48 34.56 14.96 40 0 C42.64 0 45.28 0 48 0 C43.74291141 12.47147079 39.24052168 24.84505446 34.625 37.1875 C34.21948914 38.27599243 34.21948914 38.27599243 33.80578613 39.38647461 C33.03240867 41.46062301 32.25516087 43.53327538 31.4765625 45.60546875 C31.02361816 46.81356201 30.57067383 48.02165527 30.10400391 49.26635742 C29 52 29 52 28 53 C25.32941149 53.14115161 22.67567762 53.04247107 20 53 C14.96502222 40.6791132 10.17513764 28.27351591 5.5 15.8125 C5.22716187 15.08683838 4.95432373 14.36117676 4.67321777 13.61352539 C3.89469135 11.54128329 3.11869783 9.46811392 2.34375 7.39453125 C1.89193359 6.18643799 1.44011719 4.97834473 0.97460938 3.73364258 C0 1 0 1 0 0 Z " fill="#595959" transform="translate(1005,199)"/>
<path d="M0 0 C9.24 0 18.48 0 28 0 C28 1.65 28 3.3 28 5 C21.07 5 14.14 5 7 5 C7 10.94 7 16.88 7 23 C13.27 23 19.54 23 26 23 C26 24.98 26 26.96 26 29 C19.73 29 13.46 29 7 29 C7 34.94 7 40.88 7 47 C14.26 47 21.52 47 29 47 C29 48.98 29 50.96 29 53 C19.43 53 9.86 53 0 53 C0 35.51 0 18.02 0 0 Z " fill="#575757" transform="translate(1061,199)"/>
<path d="M0 0 C1.3303125 0.00773437 1.3303125 0.00773437 2.6875 0.015625 C3.574375 0.01046875 4.46125 0.0053125 5.375 0 C7.6875 0.265625 7.6875 0.265625 9.6875 2.265625 C9.94819641 4.27697754 9.94819641 4.27697754 9.9621582 6.77539062 C9.97169022 7.70975952 9.98122223 8.64412842 9.99104309 9.60681152 C9.99013168 10.61828247 9.98922028 11.62975342 9.98828125 12.671875 C9.99256638 13.70751587 9.9968515 14.74315674 10.00126648 15.81018066 C10.00701633 18.00251534 10.00750524 20.1948691 10.00317383 22.38720703 C10.00001284 25.75195648 10.02346899 29.11582805 10.04882812 32.48046875 C10.05110084 34.60676972 10.05180474 36.73307306 10.05078125 38.859375 C10.059991 39.87084595 10.06920074 40.88231689 10.07868958 41.92443848 C10.07246078 42.85880737 10.06623199 43.79317627 10.05981445 44.75585938 C10.06044388 45.58033569 10.0610733 46.40481201 10.0617218 47.25427246 C9.93822861 47.9180188 9.81473541 48.58176514 9.6875 49.265625 C6.71832597 51.24507436 6.03047721 51.55913081 2.6875 51.578125 C2.006875 51.59488281 1.32625 51.61164063 0.625 51.62890625 C-1.93605001 51.14870937 -2.69975384 50.2905215 -4.3125 48.265625 C-4.6867218 46.17198181 -4.6867218 46.17198181 -4.68481445 43.73413086 C-4.69104324 42.81985825 -4.69727203 41.90558563 -4.70368958 40.96360779 C-4.68987495 39.48695396 -4.68987495 39.48695396 -4.67578125 37.98046875 C-4.67627975 36.96843887 -4.67677826 35.956409 -4.67729187 34.91371155 C-4.67495112 32.77440426 -4.66522261 30.63509423 -4.64868164 28.49584961 C-4.62506727 25.21247885 -4.62812348 21.92991858 -4.63476562 18.64648438 C-4.62918975 16.57030764 -4.62208045 14.49413433 -4.61328125 12.41796875 C-4.61419266 11.43150864 -4.61510406 10.44504852 -4.61604309 9.42869568 C-4.60651108 8.51757523 -4.59697906 7.60645477 -4.5871582 6.66772461 C-4.58255081 5.86402939 -4.57794342 5.06033417 -4.57319641 4.23228455 C-4.16624321 1.16228298 -3.00469137 0.34513347 0 0 Z " fill="#164035" transform="translate(305.3125,264.734375)"/>
<path d="M0 0 C1.17369141 -0.02513672 1.17369141 -0.02513672 2.37109375 -0.05078125 C5.12576369 0.40587526 5.84659492 1.1420739 7.5625 3.3125 C7.94345093 5.36817932 7.94345093 5.36817932 7.95068359 7.75219727 C7.96014008 8.64644913 7.96959656 9.54070099 7.9793396 10.46205139 C7.97326691 11.42461349 7.96719421 12.3871756 7.9609375 13.37890625 C7.96524277 14.863657 7.96524277 14.863657 7.96963501 16.37840271 C7.97167657 18.47061739 7.96614033 20.56285112 7.95361328 22.6550293 C7.93754427 25.86615415 7.95346796 29.07602349 7.97265625 32.28710938 C7.97067417 34.31771112 7.96683122 36.34831209 7.9609375 38.37890625 C7.97004654 39.82578575 7.97004654 39.82578575 7.9793396 41.30189514 C7.96988312 42.19299484 7.96042664 43.08409454 7.95068359 44.00219727 C7.94829681 44.78812759 7.94591003 45.57405792 7.94345093 46.38380432 C7.75488022 47.33850868 7.75488022 47.33850868 7.5625 48.3125 C4.59332597 50.29194936 3.90547721 50.60600581 0.5625 50.625 C-0.118125 50.64175781 -0.79875 50.65851563 -1.5 50.67578125 C-4.05836186 50.1960884 -4.82372415 49.33208622 -6.4375 47.3125 C-6.8117218 45.25682068 -6.8117218 45.25682068 -6.80981445 42.87280273 C-6.81604324 41.97855087 -6.82227203 41.08429901 -6.82868958 40.16294861 C-6.81947983 39.20038651 -6.81027008 38.2378244 -6.80078125 37.24609375 C-6.80152901 35.761343 -6.80152901 35.761343 -6.80229187 34.24659729 C-6.79995128 32.154368 -6.79022367 30.06213591 -6.77368164 27.9699707 C-6.75006636 24.75902272 -6.75312368 21.54890349 -6.75976562 18.33789062 C-6.75418977 16.30728669 -6.74708047 14.27668627 -6.73828125 12.24609375 C-6.73919266 11.28150742 -6.74010406 10.31692108 -6.74104309 9.32310486 C-6.73151108 8.43200516 -6.72197906 7.54090546 -6.7121582 6.62280273 C-6.70755081 5.83687241 -6.70294342 5.05094208 -6.69819641 4.24119568 C-6.14077365 0.11724607 -3.56126772 0.01754319 0 0 Z " fill="#163F34" transform="translate(307.4375,144.6875)"/>
<path d="M0 0 C9.9 0 19.8 0 30 0 C30 1.65 30 3.3 30 5 C22.08 5 14.16 5 6 5 C6 10.94 6 16.88 6 23 C12.6 23 19.2 23 26 23 C26 24.98 26 26.96 26 29 C19.73 29 13.46 29 7 29 C7 36.92 7 44.84 7 53 C4.69 53 2.38 53 0 53 C0 35.51 0 18.02 0 0 Z " fill="#595959" transform="translate(1581,199)"/>
<path d="M0 0 C9.57 0 19.14 0 29 0 C29 1.65 29 3.3 29 5 C21.41 5 13.82 5 6 5 C6 10.94 6 16.88 6 23 C12.27 23 18.54 23 25 23 C25 24.98 25 26.96 25 29 C18.73 29 12.46 29 6 29 C6 36.92 6 44.84 6 53 C4.02 53 2.04 53 0 53 C0 35.51 0 18.02 0 0 Z " fill="#555555" transform="translate(1203,199)"/>
<path d="M0 0 C11.88 0 23.76 0 36 0 C36 1.65 36 3.3 36 5 C31.38 5 26.76 5 22 5 C22 20.84 22 36.68 22 53 C19.69 53 17.38 53 15 53 C15 37.16 15 21.32 15 5 C10.05 5 5.1 5 0 5 C0 3.35 0 1.7 0 0 Z " fill="#585858" transform="translate(1676,199)"/>
<path d="M0 0 C11.88 0 23.76 0 36 0 C36 1.65 36 3.3 36 5 C31.05 5 26.1 5 21 5 C21 20.84 21 36.68 21 53 C18.69 53 16.38 53 14 53 C14 37.16 14 21.32 14 5 C9.38 5 4.76 5 0 5 C0 3.35 0 1.7 0 0 Z " fill="#575757" transform="translate(1635,199)"/>
<path d="M0 0 C2.31 0 4.62 0 7 0 C7 15.84 7 31.68 7 48 C13.27 48 19.54 48 26 48 C26 49.98 26 51.96 26 54 C17.42 54 8.84 54 0 54 C0 36.18 0 18.36 0 0 Z " fill="#5E5E5E" transform="translate(625,198)"/>
<path d="M0 0 C2.31 0 4.62 0 7 0 C7 15.51 7 31.02 7 47 C13.27 47 19.54 47 26 47 C26 48.98 26 50.96 26 53 C17.42 53 8.84 53 0 53 C0 35.51 0 18.02 0 0 Z " fill="#585858" transform="translate(1241,199)"/>
<path d="M0 0 C2.31 0 4.62 0 7 0 C7 15.51 7 31.02 7 47 C13.27 47 19.54 47 26 47 C26 48.98 26 50.96 26 53 C17.42 53 8.84 53 0 53 C0 35.51 0 18.02 0 0 Z " fill="#585858" transform="translate(976,199)"/>
<path d="M0 0 C14.19642857 -0.53571429 14.19642857 -0.53571429 17.8125 1.9375 C20.9929078 4.93617021 20.9929078 4.93617021 21.23828125 7.14453125 C21.43952201 14.37860682 21.43952201 14.37860682 19.1875 17.5625 C13.45333844 21.33066331 6.59693187 20.06052231 0 20 C0 13.4 0 6.8 0 0 Z " fill="#FBFBFB" transform="translate(549,204)"/>
<path d="M0 0 C2.31 0 4.62 0 7 0 C7 17.82 7 35.64 7 54 C4.69 54 2.38 54 0 54 C0 36.18 0 18.36 0 0 Z " fill="#5E5E5E" transform="translate(659,198)"/>
<path d="M0 0 C2.31 0 4.62 0 7 0 C7 17.49 7 34.98 7 53 C4.69 53 2.38 53 0 53 C0 35.51 0 18.02 0 0 Z " fill="#565656" transform="translate(1721,199)"/>
<path d="M0 0 C2.31 0 4.62 0 7 0 C7 17.49 7 34.98 7 53 C4.69 53 2.38 53 0 53 C0 35.51 0 18.02 0 0 Z " fill="#575757" transform="translate(1619,199)"/>
<path d="M0 0 C2.31 0 4.62 0 7 0 C7 17.49 7 34.98 7 53 C4.69 53 2.38 53 0 53 C0 35.51 0 18.02 0 0 Z " fill="#565656" transform="translate(523,199)"/>
<path d="M0 0 C2.536875 -0.103125 5.07375 -0.20625 7.6875 -0.3125 C8.47729248 -0.35802002 9.26708496 -0.40354004 10.08081055 -0.45043945 C14.13846356 -0.52996104 15.62826767 -0.28269173 18.984375 2.26953125 C21.45123033 5.61125969 21.68221135 7.08099072 21.43359375 11.06640625 C20.75194607 14.10618646 19.19767713 15.86696044 17 18 C13.93618406 19.53190797 10.73034134 19.10243613 7.375 19.0625 C4.94125 19.041875 2.5075 19.02125 0 19 C0 12.73 0 6.46 0 0 Z " fill="#FDFDFD" transform="translate(486,205)"/>
<path d="M0 0 C3.24958704 3.24958704 4.14576368 7.58761994 5.625 11.875 C5.94984375 12.78636719 6.2746875 13.69773438 6.609375 14.63671875 C6.91617188 15.51714844 7.22296875 16.39757812 7.5390625 17.3046875 C7.95986084 18.5110083 7.95986084 18.5110083 8.38916016 19.74169922 C9 22 9 22 9 26 C3.06 26 -2.88 26 -9 26 C-3.12727273 3.12727273 -3.12727273 3.12727273 0 0 Z " fill="#F7F7F7" transform="translate(944,208)"/>
<path d="M0 0 C0.66 0 1.32 0 2 0 C3.34117853 3.60129621 4.6715839 7.20647859 6 10.8125 C6.3815625 11.83666016 6.763125 12.86082031 7.15625 13.91601562 C7.5171875 14.89892578 7.878125 15.88183594 8.25 16.89453125 C8.75273438 18.25348511 8.75273438 18.25348511 9.265625 19.63989258 C10 22 10 22 10 25 C4.06 25 -1.88 25 -8 25 C-6.43889635 16.25781959 -3.21518143 8.24016625 0 0 Z " fill="#F8F8F8" transform="translate(1293,209)"/>
<path d="M0 0 C2.0625 -0.061875 4.125 -0.12375 6.25 -0.1875 C7.99023438 -0.23970703 7.99023438 -0.23970703 9.765625 -0.29296875 C13.26454845 0.02396272 14.62920876 0.43931529 17 3 C17.53125 4.9375 17.53125 4.9375 17.5 7 C17.5103125 7.680625 17.520625 8.36125 17.53125 9.0625 C17 11 17 11 15.390625 12.73828125 C12.20598914 14.41906129 9.82969235 14.29489077 6.25 14.1875 C4.1875 14.125625 2.125 14.06375 0 14 C0 9.38 0 4.76 0 0 Z " fill="#FDFDFD" transform="translate(1158,101)"/>
<path d="M0 0 C0.9583374 0.00523682 1.9166748 0.01047363 2.90405273 0.01586914 C4.45576172 0.02070312 4.45576172 0.02070312 6.03881836 0.02563477 C7.12743164 0.03401367 8.21604492 0.04239258 9.33764648 0.05102539 C10.97636719 0.05779297 10.97636719 0.05779297 12.64819336 0.06469727 C15.35723144 0.07652713 18.06616248 0.09300996 20.77514648 0.11352539 C20.77514648 0.77352539 20.77514648 1.43352539 20.77514648 2.11352539 C13.51514648 2.11352539 6.25514648 2.11352539 -1.22485352 2.11352539 C-1.22485352 6.40352539 -1.22485352 10.69352539 -1.22485352 15.11352539 C25.17514648 15.11352539 51.57514648 15.11352539 78.77514648 15.11352539 C78.77514648 10.49352539 78.77514648 5.87352539 78.77514648 1.11352539 C72.17514648 1.11352539 65.57514648 1.11352539 58.77514648 1.11352539 C58.77514648 0.78352539 58.77514648 0.45352539 58.77514648 0.11352539 C66.03514648 0.11352539 73.29514648 0.11352539 80.77514648 0.11352539 C80.77514648 5.39352539 80.77514648 10.67352539 80.77514648 16.11352539 C53.05514648 16.11352539 25.33514648 16.11352539 -3.22485352 16.11352539 C-3.22485352 0.1645514 -3.22485352 0.1645514 0 0 Z " fill="#0A241C" transform="translate(178.224853515625,108.886474609375)"/>
<path d="M0 0 C2.12261076 2.12261076 2.58711498 3.26899902 3.5078125 6.0625 C3.77207031 6.85914062 4.03632812 7.65578125 4.30859375 8.4765625 C4.57800781 9.30929688 4.84742188 10.14203125 5.125 11 C5.40214844 11.83273438 5.67929688 12.66546875 5.96484375 13.5234375 C8 19.71913485 8 19.71913485 8 22 C3.38 22 -1.24 22 -6 22 C-5.52960495 14.16008251 -2.77062812 7.27928865 0 0 Z " fill="#F0F3F2" transform="translate(1627,106)"/>
<path d="M0 0 C2.12261076 2.12261076 2.58711498 3.26899902 3.5078125 6.0625 C3.77207031 6.85914062 4.03632812 7.65578125 4.30859375 8.4765625 C4.57800781 9.30929688 4.84742188 10.14203125 5.125 11 C5.40214844 11.83273438 5.67929688 12.66546875 5.96484375 13.5234375 C8 19.71913485 8 19.71913485 8 22 C3.38 22 -1.24 22 -6 22 C-5.52960495 14.16008251 -2.77062812 7.27928865 0 0 Z " fill="#F0F3F2" transform="translate(1310,106)"/>
<path d="M0 0 C18.15 0 36.3 0 55 0 C55 6.93 55 13.86 55 21 C54.67 21 54.34 21 54 21 C54 14.4 54 7.8 54 1 C53.34 1.33 52.68 1.66 52 2 C50.39645548 2.09016377 48.78917778 2.11756075 47.18310547 2.11352539 C46.18221893 2.11344986 45.1813324 2.11337433 44.15011597 2.11329651 C43.06674957 2.10813522 41.98338318 2.10297394 40.8671875 2.09765625 C39.76021515 2.0962413 38.6532428 2.09482635 37.51272583 2.09336853 C33.96679007 2.08775772 30.42091677 2.07520337 26.875 2.0625 C24.47526133 2.05748639 22.07552167 2.05292325 19.67578125 2.04882812 C13.78383275 2.03778478 7.89192084 2.0210361 2 2 C2.02320312 3.27617187 2.04640625 4.55234375 2.0703125 5.8671875 C2.08906829 7.5364525 2.10726869 9.2057238 2.125 10.875 C2.15013672 12.13763672 2.15013672 12.13763672 2.17578125 13.42578125 C2.18222656 14.23144531 2.18867187 15.03710938 2.1953125 15.8671875 C2.20578613 16.61081543 2.21625977 17.35444336 2.22705078 18.12060547 C2 20 2 20 0 22 C0 14.74 0 7.48 0 0 Z " fill="#0D2921" transform="translate(105,237)"/>
<path d="M0 0 C0.33 0 0.66 0 1 0 C1.25 6.625 1.25 6.625 -1 10 C-3.13870239 10.36076355 -3.13870239 10.36076355 -5.81689453 10.34057617 C-6.81778107 10.34034958 -7.8186676 10.34012299 -8.84988403 10.33988953 C-9.93325043 10.32440567 -11.01661682 10.30892181 -12.1328125 10.29296875 C-13.79327103 10.28660149 -13.79327103 10.28660149 -15.48727417 10.28010559 C-19.0334271 10.26327214 -22.57901797 10.2256108 -26.125 10.1875 C-28.52473139 10.17245922 -30.92447167 10.15876977 -33.32421875 10.14648438 C-39.21633859 10.11335338 -45.10812915 10.06310777 -51 10 C-51 11.65 -51 13.3 -51 15 C-49.35 15.33 -47.7 15.66 -46 16 C-46 16.66 -46 17.32 -46 18 C-48.60623142 17.64780657 -50.60789115 17.23526531 -52.875 15.875 C-54.69201408 12.8466432 -53.73744186 10.31848838 -53 7 C-52 6 -52 6 -49.90562439 5.87974548 C-48.98407059 5.88196609 -48.06251678 5.88418671 -47.11303711 5.88647461 C-46.07203354 5.88655014 -45.03102997 5.88662567 -43.95848083 5.88670349 C-42.8262056 5.89186478 -41.69393036 5.89702606 -40.52734375 5.90234375 C-39.37456436 5.9037587 -38.22178497 5.90517365 -37.03407288 5.90663147 C-33.33518936 5.91224995 -29.63636536 5.92480558 -25.9375 5.9375 C-23.43684983 5.94251262 -20.93619871 5.94707594 -18.43554688 5.95117188 C-12.29034412 5.96222538 -6.14517631 5.97898148 0 6 C0 4.02 0 2.04 0 0 Z " fill="#3F5951" transform="translate(208,24)"/>
<path d="M0 0 C6.27 0 12.54 0 19 0 C17.30107223 3.39785555 13.42214288 4.19635324 10.0625 5.625 C9.32064453 5.94984375 8.57878906 6.2746875 7.81445312 6.609375 C2.27483259 9 2.27483259 9 0 9 C0 6.03 0 3.06 0 0 Z " fill="#F9F9F9" transform="translate(227,42)"/>
<path d="M0 0 C6.6 0 13.2 0 20 0 C20 2.64 20 5.28 20 8 C15.43263559 7.29937517 11.4300495 5.68729793 7.1875 3.9375 C6.49462891 3.65583984 5.80175781 3.37417969 5.08789062 3.08398438 C3.39032376 2.39325027 1.69493688 1.69716272 0 1 C0 0.67 0 0.34 0 0 Z " fill="#F4F6F5" transform="translate(188,42)"/>
<path d="M0 0 C0.9583374 0.00523682 1.9166748 0.01047363 2.90405273 0.01586914 C4.45576172 0.02070312 4.45576172 0.02070312 6.03881836 0.02563477 C7.12743164 0.03401367 8.21604492 0.04239258 9.33764648 0.05102539 C10.97636719 0.05779297 10.97636719 0.05779297 12.64819336 0.06469727 C15.35723144 0.07652713 18.06616248 0.09300996 20.77514648 0.11352539 C20.77514648 0.77352539 20.77514648 1.43352539 20.77514648 2.11352539 C13.51514648 2.11352539 6.25514648 2.11352539 -1.22485352 2.11352539 C-1.22485352 6.40352539 -1.22485352 10.69352539 -1.22485352 15.11352539 C-2.21485352 15.60852539 -2.21485352 15.60852539 -3.22485352 16.11352539 C-3.25170447 13.63428738 -3.27161899 11.15533699 -3.28735352 8.67602539 C-3.29992187 7.61544922 -3.29992187 7.61544922 -3.31274414 6.53344727 C-3.32138939 4.7265898 -3.27705363 2.91964936 -3.22485352 1.11352539 C-2.22485352 0.11352539 -2.22485352 0.11352539 0 0 Z " fill="#132F26" transform="translate(178.224853515625,108.886474609375)"/>
<path d="M0 0 C10.89 0 21.78 0 33 0 C33 2.64 33 5.28 33 8 C32.67 8 32.34 8 32 8 C31.67 6.35 31.34 4.7 31 3 C20.77 3 10.54 3 0 3 C0 2.01 0 1.02 0 0 Z " fill="#394E48" transform="translate(201,101)"/>
<path d="M0 0 C3.125 0.375 3.125 0.375 6 1 C7.32841008 6.43440487 7.32841008 6.43440487 5.875 8.9375 C4 10 4 10 1.375 9.75 C-1 9 -1 9 -2 8 C-2.1875 5.0625 -2.1875 5.0625 -2 2 C-1.34 1.34 -0.68 0.68 0 0 Z " fill="#5F5F5F" transform="translate(1544,221)"/>
<path d="M0 0 C3.29714793 0.32971479 4.6226839 0.6226839 7 3 C6.44444444 7.55555556 6.44444444 7.55555556 5 9 C2.0625 9.1875 2.0625 9.1875 -1 9 C-1.66 8.34 -2.32 7.68 -3 7 C-2.67028521 3.70285207 -2.3773161 2.3773161 0 0 Z " fill="#616161" transform="translate(1166,221)"/>
<path d="M0 0 C3.125 0.375 3.125 0.375 6 1 C7.32841008 6.43440487 7.32841008 6.43440487 5.875 8.9375 C4 10 4 10 1.375 9.75 C-1 9 -1 9 -2 8 C-2.1875 5.0625 -2.1875 5.0625 -2 2 C-1.34 1.34 -0.68 0.68 0 0 Z " fill="#5F5F5F" transform="translate(836,221)"/>
<path d="M0 0 C7.50769231 -0.36923077 7.50769231 -0.36923077 10 1.5 C10.495 2.2425 10.495 2.2425 11 3 C10.34 3 9.68 3 9 3 C8.67 3.66 8.34 4.32 8 5 C8 4.34 8 3.68 8 3 C4.7 3.33 1.4 3.66 -2 4 C-1.34 2.68 -0.68 1.36 0 0 Z " fill="#1B3A32" transform="translate(285,141)"/>
<path d="M0 0 C0.66 0 1.32 0 2 0 C2 2.64 2 5.28 2 8 C3.65 8.33 5.3 8.66 7 9 C7 9.66 7 10.32 7 11 C4.39376858 10.64780657 2.39210885 10.23526531 0.125 8.875 C-1.67626472 5.87289213 -0.68453372 3.29820792 0 0 Z " fill="#344D43" transform="translate(155,31)"/>
<path d="M0 0 C0.99 0 1.98 0 3 0 C2.855625 1.258125 2.71125 2.51625 2.5625 3.8125 C1.96183814 9.20129495 1.47449461 14.59883791 1 20 C0.67 20 0.34 20 0 20 C-0.19594676 16.85463232 -0.3803401 13.70869386 -0.5625 10.5625 C-0.61857422 9.66466797 -0.67464844 8.76683594 -0.73242188 7.84179688 C-0.78076172 6.98779297 -0.82910156 6.13378906 -0.87890625 5.25390625 C-0.9260376 4.46314697 -0.97316895 3.6723877 -1.02172852 2.85766602 C-1 1 -1 1 0 0 Z " fill="#1C3F37" transform="translate(303,145)"/>
<path d="M0 0 C1.21236328 0.01353516 1.21236328 0.01353516 2.44921875 0.02734375 C3.37154297 0.04474609 3.37154297 0.04474609 4.3125 0.0625 C4.3125 1.0525 4.3125 2.0425 4.3125 3.0625 C0.6825 3.0625 -2.9475 3.0625 -6.6875 3.0625 C-7.0175 2.4025 -7.3475 1.7425 -7.6875 1.0625 C-4.80538698 0.10179566 -2.98899956 -0.04331883 0 0 Z " fill="#1D3C34" transform="translate(157.6875,143.9375)"/>
<path d="M0 0 C0.70125 0.2475 1.4025 0.495 2.125 0.75 C0.00806276 3.18055758 -1.41021326 4.59507109 -4.5 5.625 C-5.28375 5.66625 -6.0675 5.7075 -6.875 5.75 C-7.535 5.09 -8.195 4.43 -8.875 3.75 C-3.58269231 -0.31153846 -3.58269231 -0.31153846 0 0 Z " fill="#29483F" transform="translate(140.875,149.25)"/>
<path d="M0 0 C0.99 0.33 1.98 0.66 3 1 C2.67 1.99 2.34 2.98 2 4 C1.34 4 0.68 4 0 4 C-0.66 5.32 -1.32 6.64 -2 8 C-2.99 7.34 -3.98 6.68 -5 6 C-3.35 4.02 -1.7 2.04 0 0 Z " fill="#1E4035" transform="translate(120,164)"/>
<path d="M0 0 C0.99 0.33 1.98 0.66 3 1 C2.39671875 1.45890625 1.7934375 1.9178125 1.171875 2.390625 C0.37265625 3.00421875 -0.4265625 3.6178125 -1.25 4.25 C-2.43335938 5.15492188 -2.43335938 5.15492188 -3.640625 6.078125 C-5.91631157 7.93182995 -7.96371558 9.88898954 -10 12 C-9.49452628 7.91944849 -7.49911118 6.33727705 -4.4375 3.75 C-3.61121094 3.04359375 -2.78492188 2.3371875 -1.93359375 1.609375 C-1.29550781 1.07828125 -0.65742188 0.5471875 0 0 Z " fill="#122E24" transform="translate(131,154)"/>
<path d="M0 0 C2.91517292 1.07401108 4.77810176 1.77810176 7 4 C7 4.66 7 5.32 7 6 C4.03 5.01 1.06 4.02 -2 3 C-1.34 2.01 -0.68 1.02 0 0 Z " fill="#345149" transform="translate(200,56)"/>
<path d="M0 0 C3.63 0.66 7.26 1.32 11 2 C10.67 2.66 10.34 3.32 10 4 C7.36 4 4.72 4 2 4 C1.34 2.68 0.68 1.36 0 0 Z " fill="#1A352F" transform="translate(302,312)"/>
<path d="M0 0 C2.31 0.66 4.62 1.32 7 2 C6.0409375 2.680625 6.0409375 2.680625 5.0625 3.375 C2.90297594 4.83921726 2.90297594 4.83921726 2 7 C1.01 7 0.02 7 -1 7 C-0.67 4.69 -0.34 2.38 0 0 Z " fill="#1C4338" transform="translate(200,102)"/>
<path d="M0 0 C2.97 0.99 5.94 1.98 9 3 C8.67 3.66 8.34 4.32 8 5 C4.33776842 4.50510384 2.33006074 3.94323463 0 1 C0 0.67 0 0.34 0 0 Z " fill="#29413B" transform="translate(138,311)"/>
</svg>
