<?xml version="1.0" encoding="UTF-8"?>
<svg version="1.1" xmlns="http://www.w3.org/2000/svg" width="2030" height="242">
<path d="M0 0 C669.9 0 1339.8 0 2030 0 C2030 79.86 2030 159.72 2030 242 C1360.1 242 690.2 242 0 242 C0 162.14 0 82.28 0 0 Z " fill="#FEFEFE" transform="translate(0,0)"/>
<path d="M0 0 C15.18 0 30.36 0 46 0 C46.33 6.6 46.66 13.2 47 20 C50.24261106 24.38600873 50.24261106 24.38600873 55 26 C57.79169513 26.2051089 60.48688877 26.31099013 63.27856445 26.31884766 C64.09859451 26.32889328 64.91862457 26.3389389 65.76350403 26.34928894 C68.4634229 26.38008319 71.16324277 26.39714559 73.86328125 26.4140625 C75.73944447 26.43277717 77.61559931 26.45235081 79.491745 26.4727478 C84.4219569 26.52404336 89.35219608 26.56368291 94.28253174 26.60089111 C100.20228373 26.64799346 106.12190062 26.70958031 112.04154205 26.76873779 C121.0276401 26.85691866 130.01371265 26.92670553 139 27 C139 40.53 139 54.06 139 68 C126.69041462 68.09062443 114.3810534 68.16390226 102.07120895 68.20724869 C96.35431197 68.22806022 90.63765648 68.25625985 84.92089844 68.30175781 C79.3965749 68.34544556 73.87248262 68.36918542 68.34799957 68.37950897 C66.24781915 68.38685933 64.14765037 68.40121217 62.04756927 68.42292023 C44.139687 68.60054874 29.46385828 66.197686 15.65625 53.7578125 C12.28255133 50.17723608 9.61435361 46.15297568 7 42 C6.59652344 41.37480469 6.19304687 40.74960938 5.77734375 40.10546875 C-1.13429154 28.04295696 0 13.28652404 0 0 Z " fill="#0D3E2F" transform="translate(181,173)"/>
<path d="M0 0 C26.73 0 53.46 0 81 0 C81.495 4.455 81.495 4.455 82 9 C84.31 9.66 86.62 10.32 89 11 C89 23.54 89 36.08 89 49 C76.3125 49.25 76.3125 49.25 72.3371582 49.29785156 C71.29390381 49.3284668 70.25064941 49.35908203 69.17578125 49.390625 C67.58117065 49.4220459 67.58117065 49.4220459 65.9543457 49.45410156 C62.34371844 50.12126647 60.68211881 51.55266173 58 54 C49.57675565 59.42570809 39.78906801 58.98927413 30.1875 57.375 C24.93775425 56.0256282 19.83460113 52.83460113 16 49 C10.72 48.67 5.44 48.34 0 48 C0 32.16 0 16.32 0 0 Z " fill="#0F4031" transform="translate(231,89)"/>
<path d="M0 0 C6.25664375 4.15470646 10.62265396 9.86796189 13 17 C14.40690304 36.9579245 14.40690304 36.9579245 8 45 C2.33158951 51.15578785 -3.69330203 55.90624972 -12.33984375 56.43359375 C-13.87230163 56.45063563 -15.40501339 56.45172561 -16.9375 56.4375 C-17.69740234 56.45748047 -18.45730469 56.47746094 -19.24023438 56.49804688 C-27.07530167 56.49135596 -33.59554842 53.22376905 -39.32421875 47.9296875 C-46.07160492 40.1599701 -48.13529252 31.80337535 -47.5234375 21.78515625 C-46.43662499 13.92604191 -43.04169289 8.13543895 -37 3 C-36.21625 2.29875 -35.4325 1.5975 -34.625 0.875 C-24.45135462 -6.39188956 -10.77876436 -6.32197108 0 0 Z " fill="#104032" transform="translate(1319,47)"/>
<path d="M0 0 C1.3303125 0.00773437 1.3303125 0.00773437 2.6875 0.015625 C3.574375 0.01046875 4.46125 0.0053125 5.375 0 C7.6875 0.265625 7.6875 0.265625 9.6875 2.265625 C9.8125 5.390625 9.8125 5.390625 9.6875 8.265625 C10.98486084 8.26038818 12.28222168 8.25515137 13.61889648 8.24975586 C18.41397415 8.23171031 23.2090488 8.22019463 28.00415039 8.21069336 C30.08293156 8.20565212 32.16170916 8.19881926 34.24047852 8.19018555 C37.22152586 8.17811078 40.20252649 8.17239476 43.18359375 8.16796875 C44.58671059 8.16022682 44.58671059 8.16022682 46.01817322 8.15232849 C46.87899002 8.15225296 47.73980682 8.15217743 48.62670898 8.15209961 C49.76921364 8.14876869 49.76921364 8.14876869 50.93479919 8.14537048 C52.6875 8.265625 52.6875 8.265625 53.6875 9.265625 C53.72830783 11.26520864 53.73004356 13.26607754 53.6875 15.265625 C53.06294922 15.54760742 52.43839844 15.82958984 51.79492188 16.12011719 C48.92503789 17.41698186 46.05626467 18.7162863 43.1875 20.015625 C42.20523438 20.4590625 41.22296875 20.9025 40.2109375 21.359375 C35.22067695 23.62162645 30.28136025 25.94410559 25.39453125 28.42138672 C23.11825111 29.5471557 20.7986468 30.52009118 18.4375 31.453125 C17.62796875 31.77667969 16.8184375 32.10023437 15.984375 32.43359375 C13.6875 33.265625 13.6875 33.265625 9.6875 34.265625 C9.6875 38.225625 9.6875 42.185625 9.6875 46.265625 C11.646875 46.245 13.60625 46.224375 15.625 46.203125 C17.64582876 46.18185312 19.66785801 46.19318447 21.6875 46.265625 C24.99573887 49.57386387 22.6875 55.58706872 22.6875 60.265625 C9.4875 60.265625 -3.7125 60.265625 -17.3125 60.265625 C-17.3125 47.265625 -17.3125 47.265625 -16.3125 46.265625 C-12.31029347 46.12207383 -8.31808317 46.22346097 -4.3125 46.265625 C-4.3125 42.305625 -4.3125 38.345625 -4.3125 34.265625 C-5.59125 33.87375 -6.87 33.481875 -8.1875 33.078125 C-11.65011385 31.92931386 -14.8265966 30.57223382 -18.0625 28.890625 C-21.88116195 26.90728895 -25.71180198 25.31437303 -29.75 23.828125 C-42.69939166 18.92794002 -42.69939166 18.92794002 -47.3125 15.265625 C-48.234375 12.703125 -48.234375 12.703125 -48.3125 10.265625 C-46.3125 8.265625 -46.3125 8.265625 -44.47750854 8.02511597 C-43.73582428 8.02955719 -42.99414001 8.03399841 -42.22998047 8.03857422 C-40.96889969 8.03880081 -40.96889969 8.03880081 -39.68234253 8.03903198 C-38.31977829 8.05451584 -38.31977829 8.05451584 -36.9296875 8.0703125 C-36.00028351 8.0731424 -35.07087952 8.07597229 -34.11331177 8.07888794 C-31.1379115 8.09010431 -28.16280965 8.1152114 -25.1875 8.140625 C-23.17318142 8.15065292 -21.15885814 8.1597791 -19.14453125 8.16796875 C-14.20040544 8.19004839 -9.25650335 8.22458807 -4.3125 8.265625 C-4.35375 7.316875 -4.395 6.368125 -4.4375 5.390625 C-4.28859975 1.66811871 -3.81842943 0.43860338 0 0 Z " fill="#133F32" transform="translate(269.3125,-0.265625)"/>
<path d="M0 0 C0.02464513 6.1055471 0.04283371 12.21106551 0.05493164 18.31665039 C0.05997288 20.39543156 0.06680574 22.47420916 0.07543945 24.55297852 C0.08751422 27.53402586 0.09323024 30.51502649 0.09765625 33.49609375 C0.10281754 34.43150497 0.10797882 35.3669162 0.11329651 36.33067322 C0.11337204 37.19149002 0.11344757 38.05230682 0.11352539 38.93920898 C0.115746 39.70087875 0.11796661 40.46254852 0.12025452 41.24729919 C0 43 0 43 -1 44 C-1.15786308 45.85174706 -1.25107356 47.7090911 -1.31640625 49.56640625 C-1.35451416 50.57904541 -1.39262207 51.59168457 -1.43188477 52.63500977 C-1.47498779 53.93108154 -1.51809082 55.22715332 -1.5625 56.5625 C-1.706875 60.666875 -1.85125 64.77125 -2 69 C-16.52 69 -31.04 69 -46 69 C-46.04125 64.38 -46.0825 59.76 -46.125 55 C-46.14320801 53.55882812 -46.16141602 52.11765625 -46.18017578 50.6328125 C-46.24889746 34.70711769 -41.74225693 23.96538472 -30.69921875 12.63671875 C-22.05682978 4.19444298 -12.0385024 -0.08730512 0 0 Z " fill="#0C3D2F" transform="translate(228,99)"/>
<path d="M0 0 C5.61 0 11.22 0 17 0 C17 19.8 17 39.6 17 60 C0 60 0 60 -3.96875 56.5546875 C-5.30566406 54.30810547 -5.30566406 54.30810547 -6.5 51.875 C-7.19561035 50.66094482 -7.19561035 50.66094482 -7.90527344 49.42236328 C-8.8505655 47.77150833 -9.77246614 46.10702836 -10.66992188 44.4296875 C-12.28435414 41.48056307 -14.07694733 38.68304869 -15.92871094 35.87890625 C-17.64798892 33.27139817 -19.31955281 30.63270059 -21 28 C-21.33 38.56 -21.66 49.12 -22 60 C-27.28 60 -32.56 60 -38 60 C-38 40.53 -38 21.06 -38 1 C-21 1 -21 1 -17.50390625 3.75390625 C-16.45654297 5.57397461 -16.45654297 5.57397461 -15.5625 7.5625 C-14.80792951 8.93075913 -14.05135338 10.29791374 -13.29296875 11.6640625 C-12.92606934 12.3746582 -12.55916992 13.08525391 -12.18115234 13.81738281 C-10.17255208 17.52901703 -7.7544722 20.95733277 -5.375 24.4375 C-3.93125 26.603125 -2.4875 28.76875 -1 31 C-0.67 20.77 -0.34 10.54 0 0 Z " fill="#104032" transform="translate(1378,43)"/>
<path d="M0 0 C5.61 0 11.22 0 17 0 C17 19.8 17 39.6 17 60 C0 60 0 60 -3.96875 56.5546875 C-5.30566406 54.30810547 -5.30566406 54.30810547 -6.5 51.875 C-7.19561035 50.66094482 -7.19561035 50.66094482 -7.90527344 49.42236328 C-8.8505655 47.77150833 -9.77246614 46.10702836 -10.66992188 44.4296875 C-12.28435414 41.48056307 -14.07694733 38.68304869 -15.92871094 35.87890625 C-17.64798892 33.27139817 -19.31955281 30.63270059 -21 28 C-21.33 38.56 -21.66 49.12 -22 60 C-27.28 60 -32.56 60 -38 60 C-38 40.53 -38 21.06 -38 1 C-21 1 -21 1 -17.50390625 3.75390625 C-16.45654297 5.57397461 -16.45654297 5.57397461 -15.5625 7.5625 C-14.80792951 8.93075913 -14.05135338 10.29791374 -13.29296875 11.6640625 C-12.92606934 12.3746582 -12.55916992 13.08525391 -12.18115234 13.81738281 C-10.17255208 17.52901703 -7.7544722 20.95733277 -5.375 24.4375 C-3.93125 26.603125 -2.4875 28.76875 -1 31 C-0.67 20.77 -0.34 10.54 0 0 Z " fill="#104032" transform="translate(784,43)"/>
<path d="M0 0 C5.61 0 11.22 0 17 0 C20.52654674 3.52654674 21.7831363 5.68044584 24 10 C26.23242183 13.53910017 28.56118485 17.01375248 30.875 20.5 C32.02164714 22.25819228 33.16509621 24.0184762 34.3046875 25.78125 C34.79952637 26.54501953 35.29436523 27.30878906 35.80419922 28.09570312 C37 30 37 30 38 32 C38.33 21.44 38.66 10.88 39 0 C44.28 0 49.56 0 55 0 C55 19.47 55 38.94 55 59 C38 59 38 59 34.34179688 56.36962891 C33.20275879 54.62979126 33.20275879 54.62979126 32.21875 52.7265625 C31.82345093 52.08762054 31.42815186 51.44867859 31.02087402 50.79037476 C29.78610549 48.76498992 28.64508609 46.70213291 27.5 44.625 C26.67625467 43.24139313 25.84686044 41.86113304 25.01171875 40.484375 C22.55183875 36.39132972 20.13652134 32.27304268 18 28 C17.67 38.23 17.34 48.46 17 59 C11.39 59 5.78 59 0 59 C0 39.53 0 20.06 0 0 Z " fill="#0F3F31" transform="translate(1069,44)"/>
<path d="M0 0 C5.28 0 10.56 0 16 0 C19.1594345 3.20659024 20.83045268 5.1952277 22.85693359 8.97314453 C24.7421326 12.31593013 26.89695706 15.48028626 29.0168457 18.67749023 C31.70948841 22.7643537 34.34926191 26.88583359 37 31 C37.33 20.77 37.66 10.54 38 0 C43.28 0 48.56 0 54 0 C54 19.47 54 38.94 54 59 C48.72 59 43.44 59 38 59 C34.8405655 55.79340976 33.16954732 53.8047723 31.14306641 50.02685547 C29.2578674 46.68406987 27.10304294 43.51971374 24.9831543 40.32250977 C22.29051159 36.2356463 19.65073809 32.11416641 17 28 C16.67 38.23 16.34 48.46 16 59 C10.72 59 5.44 59 0 59 C0 39.53 0 20.06 0 0 Z " fill="#0D3D2F" transform="translate(853,44)"/>
<path d="M0 0 C7.858125 -0.1546875 7.858125 -0.1546875 15.875 -0.3125 C17.50679199 -0.35802002 19.13858398 -0.40354004 20.81982422 -0.45043945 C29.10303539 -0.52910002 36.1326178 -0.19232183 43 5 C47.05019728 9.33856968 48.31196139 13.99789343 48.21484375 19.87890625 C47.72362817 24.72854371 45.67496672 28.18293503 42.625 31.875 C39.86610098 34.10839444 38.41283607 34.46353413 35 35 C35.39380859 35.69150146 35.78761719 36.38300293 36.19335938 37.09545898 C37.96444644 40.2082231 39.73226472 43.32283129 41.5 46.4375 C42.43005859 48.07041992 42.43005859 48.07041992 43.37890625 49.73632812 C43.96542969 50.77080078 44.55195312 51.80527344 45.15625 52.87109375 C45.70087891 53.82943115 46.24550781 54.78776855 46.80664062 55.77514648 C48 58 48 58 48 59 C41.73 59 35.46 59 29 59 C27.84371094 56.74349609 27.84371094 56.74349609 26.6640625 54.44140625 C25.65134651 52.48161328 24.63830906 50.52198639 23.625 48.5625 C23.11710937 47.56927734 22.60921875 46.57605469 22.0859375 45.55273438 C21.59609375 44.60849609 21.10625 43.66425781 20.6015625 42.69140625 C20.15119629 41.81685791 19.70083008 40.94230957 19.23681641 40.04125977 C18.1626678 37.85916106 18.1626678 37.85916106 16 37 C16 44.26 16 51.52 16 59 C10.72 59 5.44 59 0 59 C0 39.53 0 20.06 0 0 Z " fill="#0D3E30" transform="translate(1014,44)"/>
<path d="M0 0 C0.83265381 0.00523682 1.66530762 0.01047363 2.52319336 0.01586914 C3.42231445 0.0190918 4.32143555 0.02231445 5.24780273 0.02563477 C6.66609375 0.03820313 6.66609375 0.03820313 8.11303711 0.05102539 C9.06243164 0.05553711 10.01182617 0.06004883 10.98999023 0.06469727 C13.34356776 0.07652429 15.69702188 0.09300514 18.05053711 0.11352539 C20.79047141 7.65783652 23.528697 15.20276463 26.2647171 22.74849606 C27.53508741 26.2519097 28.80605487 29.75510432 30.07836914 33.2578125 C31.30521093 36.63540144 32.53050748 40.01354716 33.75471497 43.39209175 C34.2230531 44.68374324 34.69195647 45.97518992 35.16142273 47.26643181 C35.8166929 49.06901212 36.46980355 50.87237701 37.12280273 52.67578125 C37.68239685 54.21799599 37.68239685 54.21799599 38.2532959 55.79136658 C39.05053711 58.11352539 39.05053711 58.11352539 39.05053711 59.11352539 C33.11053711 59.11352539 27.17053711 59.11352539 21.05053711 59.11352539 C20.06053711 56.14352539 19.07053711 53.17352539 18.05053711 50.11352539 C11.12053711 49.78352539 4.19053711 49.45352539 -2.94946289 49.11352539 C-3.93946289 52.41352539 -4.92946289 55.71352539 -5.94946289 59.11352539 C-11.55946289 59.11352539 -17.16946289 59.11352539 -22.94946289 59.11352539 C-22.20235715 55.37799668 -21.37709861 52.23944893 -20.10766602 48.6965332 C-19.73057495 47.6390387 -19.35348389 46.58154419 -18.96496582 45.49200439 C-18.55766235 44.36163757 -18.15035889 43.23127075 -17.73071289 42.06665039 C-17.31277466 40.89970642 -16.89483643 39.73276245 -16.4642334 38.53045654 C-15.35591355 35.43925492 -14.2442548 32.34927869 -13.13140869 29.25970459 C-12.44817871 27.35995466 -11.76744432 25.45933019 -11.08764648 23.55834961 C-9.78428978 19.91415481 -8.47697099 16.2714084 -7.16821289 12.62915039 C-6.76090942 11.49068665 -6.35360596 10.3522229 -5.93395996 9.17926025 C-5.36832336 7.61193146 -5.36832336 7.61193146 -4.79125977 6.01293945 C-4.45896362 5.08870178 -4.12666748 4.16446411 -3.78430176 3.21221924 C-2.56595415 0.14942626 -2.56595415 0.14942626 0 0 Z " fill="#0F3F32" transform="translate(1152.949462890625,43.886474609375)"/>
<path d="M0 0 C0.83265381 0.00523682 1.66530762 0.01047363 2.52319336 0.01586914 C3.42231445 0.0190918 4.32143555 0.02231445 5.24780273 0.02563477 C6.66609375 0.03820313 6.66609375 0.03820313 8.11303711 0.05102539 C9.06243164 0.05553711 10.01182617 0.06004883 10.98999023 0.06469727 C13.34356776 0.07652429 15.69702188 0.09300514 18.05053711 0.11352539 C18.24210388 0.65286209 18.43367065 1.19219879 18.63104248 1.74787903 C20.64245326 7.41054443 22.65444048 13.07300479 24.66674805 18.73535156 C25.41559095 20.84272192 26.16429162 22.95014283 26.9128418 25.05761719 C27.99481533 28.10373333 29.07731677 31.14966145 30.15991211 34.19555664 C30.48924744 35.12310257 30.81858276 36.0506485 31.15789795 37.00630188 C31.47792786 37.90640488 31.79795776 38.80650787 32.12768555 39.73388672 C32.59507141 41.05122299 32.59507141 41.05122299 33.07189941 42.39517212 C33.76233952 44.3130015 34.4672662 46.22564558 35.18249512 48.1343689 C35.73254211 49.60651352 35.73254211 49.60651352 36.29370117 51.10839844 C36.62984436 51.99601364 36.96598755 52.88362885 37.31231689 53.79814148 C38.05053711 56.11352539 38.05053711 56.11352539 38.05053711 59.11352539 C32.44053711 59.11352539 26.83053711 59.11352539 21.05053711 59.11352539 C20.06053711 56.14352539 19.07053711 53.17352539 18.05053711 50.11352539 C11.12053711 50.11352539 4.19053711 50.11352539 -2.94946289 50.11352539 C-3.93946289 53.08352539 -4.92946289 56.05352539 -5.94946289 59.11352539 C-11.55946289 59.11352539 -17.16946289 59.11352539 -22.94946289 59.11352539 C-21.54346441 51.97417242 -19.38635269 45.36431905 -16.85180664 38.55102539 C-16.4574794 37.47852539 -16.06315216 36.40602539 -15.65687561 35.30102539 C-14.82834232 33.05115751 -13.99703433 30.80230967 -13.16308594 28.55444336 C-11.8814595 25.09868613 -10.60913214 21.63961049 -9.33813477 18.17993164 C-8.53073156 15.99093049 -7.72280755 13.80212135 -6.91430664 11.61352539 C-6.53201401 10.57510498 -6.14972137 9.53668457 -5.75584412 8.46679688 C-5.4020015 7.51490479 -5.04815887 6.5630127 -4.68359375 5.58227539 C-4.3720787 4.74116211 -4.06056366 3.90004883 -3.73960876 3.03344727 C-2.5523611 0.14863468 -2.5523611 0.14863468 0 0 Z " fill="#0F3F31" transform="translate(1423.949462890625,43.886474609375)"/>
<path d="M0 0 C12.54 0 25.08 0 38 0 C38 4.29 38 8.58 38 13 C30.74 13 23.48 13 16 13 C16 16.3 16 19.6 16 23 C22.27 23 28.54 23 35 23 C35 26.96 35 30.92 35 35 C28.73 35 22.46 35 16 35 C16 38.63 16 42.26 16 46 C23.26 46 30.52 46 38 46 C38 50.29 38 54.58 38 59 C25.46 59 12.92 59 0 59 C0 39.53 0 20.06 0 0 Z " fill="#0C3D2F" transform="translate(700,44)"/>
<path d="M0 0 C12.54 0 25.08 0 38 0 C38 4.29 38 8.58 38 13 C30.74 13 23.48 13 16 13 C16 16.3 16 19.6 16 23 C22.27 23 28.54 23 35 23 C35 26.96 35 30.92 35 35 C28.73 35 22.46 35 16 35 C16 38.63 16 42.26 16 46 C23.26 46 30.52 46 38 46 C38 50.29 38 54.58 38 59 C25.46 59 12.92 59 0 59 C0 39.53 0 20.06 0 0 Z " fill="#0D3E30" transform="translate(654,44)"/>
<path d="M0 0 C12.21 0 24.42 0 37 0 C37 4.29 37 8.58 37 13 C30.07 13 23.14 13 16 13 C16 16.3 16 19.6 16 23 C22.27 23 28.54 23 35 23 C35 26.96 35 30.92 35 35 C28.73 35 22.46 35 16 35 C16 38.63 16 42.26 16 46 C22.93 46 29.86 46 37 46 C37 50.29 37 54.58 37 59 C24.79 59 12.58 59 0 59 C0 39.53 0 20.06 0 0 Z " fill="#0C3D2F" transform="translate(968,44)"/>
<path d="M0 0 C14.19 0 28.38 0 43 0 C43 14.57392687 43 14.57392687 38.8125 19.1875 C37.89965936 20.24527071 36.99104884 21.30670172 36.0859375 22.37109375 C35.59319336 22.93683105 35.10044922 23.50256836 34.59277344 24.08544922 C31.49312201 27.81130245 28.74297282 31.80099418 25.9375 35.75 C24.82279529 37.30813703 23.70699872 38.86549382 22.58984375 40.421875 C22.11409912 41.08799805 21.63835449 41.75412109 21.14819336 42.44042969 C20 44 20 44 19 45 C26.92 45.33 34.84 45.66 43 46 C43 50.29 43 54.58 43 59 C28.81 59 14.62 59 0 59 C0 43.29230769 0 43.29230769 4.375 38.5 C5.29332547 37.44136329 6.2085884 36.38006377 7.12109375 35.31640625 C7.59530762 34.78160645 8.06952148 34.24680664 8.55810547 33.69580078 C11.05571901 30.7583772 13.23127582 27.59609275 15.4375 24.4375 C17.91772345 20.92506163 20.41949436 17.44067419 23 14 C11.615 13.505 11.615 13.505 0 13 C0 8.71 0 4.42 0 0 Z " fill="#0E3E30" transform="translate(602,44)"/>
<path d="M0 0 C15.51 0 31.02 0 47 0 C47 4.29 47 8.58 47 13 C42.05 13 37.1 13 32 13 C32 28.18 32 43.36 32 59 C26.39 59 20.78 59 15 59 C15 43.82 15 28.64 15 13 C10.05 13 5.1 13 0 13 C0 8.71 0 4.42 0 0 Z " fill="#114133" transform="translate(914,44)"/>
<path d="M0 0 C15.84 0 31.68 0 48 0 C48 4.29 48 8.58 48 13 C42.72 13 37.44 13 32 13 C32 28.18 32 43.36 32 59 C26.72 59 21.44 59 16 59 C16 43.82 16 28.64 16 13 C10.72 13 5.44 13 0 13 C0 8.71 0 4.42 0 0 Z " fill="#0D3E30" transform="translate(1194,44)"/>
<path d="M0 0 C5.28 0 10.56 0 16 0 C16 15.51 16 31.02 16 47 C22.27 47 28.54 47 35 47 C35 50.96 35 54.92 35 59 C23.45 59 11.9 59 0 59 C0 39.53 0 20.06 0 0 Z " fill="#0C3D2F" transform="translate(1468,44)"/>
<path d="M0 0 C9.24 0 18.48 0 28 0 C28 1.98 28 3.96 28 6 C34.6 6 41.2 6 48 6 C48 10.29 48 14.58 48 19 C25.56 19 3.12 19 -20 19 C-20 7 -20 7 -19 6 C-17.58429877 5.91348389 -16.164405 5.89295096 -14.74609375 5.90234375 C-13.46508789 5.90717773 -13.46508789 5.90717773 -12.15820312 5.91210938 C-11.26037109 5.92048828 -10.36253906 5.92886719 -9.4375 5.9375 C-8.53580078 5.94201172 -7.63410156 5.94652344 -6.70507812 5.95117188 C-4.46998686 5.96299775 -2.23502563 5.9794778 0 6 C0 4.02 0 2.04 0 0 Z " fill="#113E31" transform="translate(258,65)"/>
<path d="M0 0 C5.28 0 10.56 0 16 0 C16 19.47 16 38.94 16 59 C10.72 59 5.44 59 0 59 C0 39.53 0 20.06 0 0 Z " fill="#0C3D2F" transform="translate(1248,44)"/>
<path d="M0 0 C5.28 0 10.56 0 16 0 C16 19.47 16 38.94 16 59 C10.72 59 5.44 59 0 59 C0 39.53 0 20.06 0 0 Z " fill="#0C3D2F" transform="translate(827,44)"/>
<path d="M0 0 C7 0 7 0 9.06054688 1.93676758 C9.60775391 2.83032959 10.15496094 3.7238916 10.71875 4.64453125 C11.65267578 6.12663086 11.65267578 6.12663086 12.60546875 7.63867188 C13.23066406 8.68603516 13.85585937 9.73339844 14.5 10.8125 C15.12519531 11.81732422 15.75039062 12.82214844 16.39453125 13.85742188 C17.58756321 15.77788222 18.77056024 17.70464515 19.93945312 19.63989258 C22.89825697 24.46477615 25.96135957 29.22499361 29 34 C29.33 22.78 29.66 11.56 30 0 C32.31 0 34.62 0 37 0 C37 15.18 37 30.36 37 46 C30 46 30 46 27.61645508 43.61669922 C26.92447021 42.52373535 26.23248535 41.43077148 25.51953125 40.3046875 C25.13939377 39.71962433 24.75925629 39.13456116 24.36759949 38.5317688 C23.15892584 36.66013868 21.98575901 34.76898559 20.8125 32.875 C20.01333845 31.62354703 19.21192667 30.37352801 18.40820312 29.125 C16.92285631 26.81148013 15.45454328 24.49005684 13.99536133 22.15966797 C12.04691594 19.07429171 10.02416069 16.03624103 8 13 C7.67 23.89 7.34 34.78 7 46 C4.69 46 2.38 46 0 46 C0 30.82 0 15.64 0 0 Z " fill="#676767" transform="translate(1573,150)"/>
<path d="M0 0 C7 0 7 0 9.06054688 1.93676758 C9.60775391 2.83032959 10.15496094 3.7238916 10.71875 4.64453125 C11.65267578 6.12663086 11.65267578 6.12663086 12.60546875 7.63867188 C13.23066406 8.68603516 13.85585938 9.73339844 14.5 10.8125 C15.12519531 11.81732422 15.75039063 12.82214844 16.39453125 13.85742188 C17.58756321 15.77788222 18.77056024 17.70464515 19.93945312 19.63989258 C22.89825697 24.46477615 25.96135957 29.22499361 29 34 C29.33 22.78 29.66 11.56 30 0 C32.31 0 34.62 0 37 0 C37 15.18 37 30.36 37 46 C30 46 30 46 27.61645508 43.61669922 C26.92447021 42.52373535 26.23248535 41.43077148 25.51953125 40.3046875 C25.13939377 39.71962433 24.75925629 39.13456116 24.36759949 38.5317688 C23.15892584 36.66013868 21.98575901 34.76898559 20.8125 32.875 C20.01333845 31.62354703 19.21192667 30.37352801 18.40820312 29.125 C16.92285631 26.81148013 15.45454328 24.49005684 13.99536133 22.15966797 C12.04691594 19.07429171 10.02416069 16.03624103 8 13 C7.67 23.89 7.34 34.78 7 46 C4.69 46 2.38 46 0 46 C0 30.82 0 15.64 0 0 Z " fill="#676767" transform="translate(665,150)"/>
<path d="M0 0 C19 0 19 0 27 4 C30.26204423 7.56786088 30.52636807 11.1153386 30.34765625 15.78515625 C29.78975404 19.33943214 28.38894889 21.3595828 26 24 C19.3951718 28.06081734 13.57361304 27.21434754 6 27 C6 33.27 6 39.54 6 46 C4.02 46 2.04 46 0 46 C0 30.82 0 15.64 0 0 Z " fill="#5B5B5B" transform="translate(550,150)"/>
<path d="M0 0 C19 0 19 0 27 4 C30.26204423 7.56786088 30.52636807 11.1153386 30.34765625 15.78515625 C29.78975404 19.33943214 28.38894889 21.3595828 26 24 C19.3951718 28.06081734 13.57361304 27.21434754 6 27 C6 33.27 6 39.54 6 46 C4.02 46 2.04 46 0 46 C0 30.82 0 15.64 0 0 Z " fill="#5B5B5B" transform="translate(496,150)"/>
<path d="M0 0 C2.64 0 5.28 0 8 0 C10.28088001 6.24715205 12.55928529 12.49520247 14.8359375 18.74389648 C15.61140314 20.87138518 16.38744401 22.99866429 17.1640625 25.12573242 C18.27754074 28.17572543 19.38897654 31.22645582 20.5 34.27734375 C20.84998047 35.23462875 21.19996094 36.19191376 21.56054688 37.1782074 C21.88087891 38.05904495 22.20121094 38.93988251 22.53125 39.84741211 C22.81548828 40.62684677 23.09972656 41.40628143 23.39257812 42.20933533 C24 44 24 44 24 45 C21.69 45 19.38 45 17 45 C16.01 41.7 15.02 38.4 14 35 C4.1 35.495 4.1 35.495 -6 36 C-7.32 38.97 -8.64 41.94 -10 45 C-11.98 45 -13.96 45 -16 45 C-13.66903331 36.59509685 -10.70030632 28.43951877 -7.70166016 20.25634766 C-6.86695115 17.97803088 -6.03667068 15.69813591 -5.20703125 13.41796875 C-4.67733718 11.9660532 -4.14739836 10.51422691 -3.6171875 9.0625 C-3.3692746 8.3823584 -3.12136169 7.7022168 -2.86593628 7.00146484 C-1.11655888 2.23311776 -1.11655888 2.23311776 0 0 Z " fill="#5B5B5B" transform="translate(890,151)"/>
<path d="M0 0 C1.134375 0.020625 2.26875 0.04125 3.4375 0.0625 C7.03886636 7.77222119 9.96820701 15.6827307 12.86621094 23.67578125 C13.69397248 25.95532434 14.53032873 28.23159572 15.3671875 30.5078125 C15.89635313 31.96074829 16.42501744 33.41386679 16.953125 34.8671875 C17.3280307 35.88436356 17.3280307 35.88436356 17.71051025 36.92208862 C18.74079721 39.78360637 19.4375 41.99449044 19.4375 45.0625 C17.4575 45.0625 15.4775 45.0625 13.4375 45.0625 C12.4475 41.7625 11.4575 38.4625 10.4375 35.0625 C3.5075 35.0625 -3.4225 35.0625 -10.5625 35.0625 C-11.0575 37.5375 -11.0575 37.5375 -11.5625 40.0625 C-12.19687344 41.7417238 -12.85539322 43.41258418 -13.5625 45.0625 C-15.5425 45.0625 -17.5225 45.0625 -19.5625 45.0625 C-18.79592571 40.18541677 -17.10877722 35.70114081 -15.4375 31.078125 C-14.97706299 29.79382599 -14.97706299 29.79382599 -14.50732422 28.48358154 C-13.86010576 26.68098601 -13.2111433 24.87901582 -12.56054688 23.07763672 C-11.56158845 20.30997452 -10.56947937 17.53992501 -9.578125 14.76953125 C-8.94832251 13.01808318 -8.3181279 11.26677605 -7.6875 9.515625 C-7.38956543 8.68339417 -7.09163086 7.85116333 -6.78466797 6.99371338 C-4.27827042 0.07505738 -4.27827042 0.07505738 0 0 Z " fill="#5A5A5A" transform="translate(1192.5625,150.9375)"/>
<path d="M0 0 C4.59069775 2.58734978 6.97950165 5.37420291 9.5625 9.9375 C9.5625 10.5975 9.5625 11.2575 9.5625 11.9375 C6.375 12.3125 6.375 12.3125 2.5625 11.9375 C-0.125 9.0625 -0.125 9.0625 -2.4375 5.9375 C-6.61772536 3.3106778 -10.64451182 3.40401958 -15.4375 3.9375 C-20.79505096 5.85813148 -23.89587216 8.85424432 -26.4375 13.9375 C-27.25764023 23.9746529 -27.25764023 23.9746529 -23.4375 32.9375 C-18.83193597 37.09374071 -15.97942387 38.30914393 -9.890625 38.2109375 C-5.85177335 37.76074703 -2.60471589 36.5010818 0.5625 33.9375 C2.09497443 31.60432094 2.72169376 29.65775547 3.5625 26.9375 C4.0575 25.4525 4.0575 25.4525 4.5625 23.9375 C-1.3775 23.9375 -7.3175 23.9375 -13.4375 23.9375 C-13.4375 22.2875 -13.4375 20.6375 -13.4375 18.9375 C-5.1875 18.9375 3.0625 18.9375 11.5625 18.9375 C11.5625 27.67040098 10.63397028 31.18348077 5.3125 37.6875 C-1.2894454 43.08909169 -6.68926246 44.67615612 -15.3125 44.38671875 C-21.50819025 43.49608828 -24.9379364 40.4370636 -29.25 36.125 C-33.52137403 29.90099785 -35.75513537 23.5295895 -34.4375 15.9375 C-32.12390169 9.14066231 -28.57168051 3.78435896 -22.4375 -0.0625 C-15.22638358 -3.507149 -7.23673474 -3.29336431 0 0 Z " fill="#5D5D5D" transform="translate(1651.4375,152.0625)"/>
<path d="M0 0 C3.91940548 2.33000751 7.17795472 5.54454918 9.5625 9.4375 C9.5625 10.4275 9.5625 11.4175 9.5625 12.4375 C6.375 12.8125 6.375 12.8125 2.5625 12.4375 C-0.125 9.5625 -0.125 9.5625 -2.4375 6.4375 C-6.62756716 3.83286366 -10.63947415 3.67453523 -15.4375 4.4375 C-19.65789418 6.13880077 -22.60257655 8.39384569 -25.4375 11.9375 C-27.34596644 18.61713253 -27.72456452 25.61585855 -24.8125 32 C-20.60493026 36.31829526 -17.5562245 38.6636927 -11.4375 38.875 C-6.21698342 38.64733837 -2.45376993 37.45376993 1.3125 33.6875 C3.03390452 30.78931878 3.03390452 30.78931878 4.5625 24.4375 C-1.3775 24.4375 -7.3175 24.4375 -13.4375 24.4375 C-13.4375 22.7875 -13.4375 21.1375 -13.4375 19.4375 C-5.1875 19.4375 3.0625 19.4375 11.5625 19.4375 C11.5625 27.42891916 10.97152527 31.10415194 6.5625 37.4375 C-0.12117588 43.98882586 -6.00648713 44.86345079 -15.171875 44.78125 C-21.39890658 44.12577299 -25.276939 40.95874414 -29.3125 36.375 C-34.36040168 29.39701827 -34.133759 22.80142145 -33.4375 14.4375 C-31.84771441 8.22115275 -27.73909571 3.89841695 -22.4375 0.4375 C-15.7366677 -2.84545811 -6.84701942 -3.07983692 0 0 Z " fill="#5D5D5D" transform="translate(1297.4375,151.5625)"/>
<path d="M0 0 C1.98 0 3.96 0 6 0 C8.25415039 2.3515625 8.25415039 2.3515625 10.34765625 5.625 C10.72683701 6.20531982 11.10601776 6.78563965 11.49668884 7.38354492 C12.70539591 9.24358753 13.88384556 11.12080406 15.0625 13 C15.8581124 14.23430851 16.65562091 15.46739702 17.45507812 16.69921875 C21.37099349 22.75707537 25.17696107 28.88313771 29 35 C29.33 23.45 29.66 11.9 30 0 C31.98 0 33.96 0 36 0 C36 15.18 36 30.36 36 46 C29 46 29 46 27.15478516 44.38623047 C26.70409668 43.63744629 26.2534082 42.88866211 25.7890625 42.1171875 C25.26570313 41.27800781 24.74234375 40.43882812 24.203125 39.57421875 C23.68234375 38.68347656 23.1615625 37.79273438 22.625 36.875 C21.5756987 35.16395341 20.52621522 33.45301853 19.4765625 31.7421875 C18.32929687 29.84726563 17.18203125 27.95234375 16 26 C13.03 21.38 10.06 16.76 7 12 C6.67 23.22 6.34 34.44 6 46 C4.02 46 2.04 46 0 46 C0 30.82 0 15.64 0 0 Z " fill="#5C5C5C" transform="translate(1220,150)"/>
<path d="M0 0 C4.1632774 1.53860252 6.23014466 4.02655597 8.26953125 7.98046875 C10.19540171 13.30493415 9.60511725 18.27509633 7.3125 23.375 C5.35173798 26.78089112 3.82048479 28.67113572 0 30 C-4.59608368 30.53090076 -8.59039655 30.53984813 -12.9375 28.875 C-17.523349 24.70604637 -18.25858012 20.57873216 -18.5625 14.5625 C-18.45411618 8.98392095 -17.48888979 6.05679101 -13.5078125 2.171875 C-9.47402491 -0.96319308 -4.89259431 -0.4096485 0 0 Z " fill="#FAFBFB" transform="translate(1307,58)"/>
<path d="M0 0 C3.96374449 1.94710256 6.81807962 4.12103044 9 8 C9 9.32 9 10.64 9 12 C6.69 12 4.38 12 2 12 C1.67 10.35 1.34 8.7 1 7 C-3.50228878 5.55926759 -8.08340896 5.11541952 -12.4375 7.125 C-14.23578451 8.98664952 -14.23578451 8.98664952 -14.625 11.9375 C-14.27556461 15.17435868 -14.27556461 15.17435868 -11.625 17.1875 C-8.10319016 19.21546159 -4.29746475 20.13850756 -0.40625 21.22265625 C3.55239133 22.50150304 6.88715866 24.22991008 9.1640625 27.8515625 C10.62704533 31.6115651 9.94791146 35.15340278 9 39 C6.56261855 43.09131886 4.45170429 44.54157327 0 46 C-5.6081545 46.6491269 -10.44831795 46.76222978 -15.5625 44.25 C-19.56 40.56 -19.56 40.56 -21 38 C-21 36.68 -21 35.36 -21 34 C-18.1875 33.6875 -18.1875 33.6875 -15 34 C-13.25 36.4375 -13.25 36.4375 -12 39 C-9.6603331 40.16983345 -8.16608473 40.1661241 -5.5625 40.1875 C-4.78003906 40.20167969 -3.99757813 40.21585938 -3.19140625 40.23046875 C-0.70794013 40.14086064 -0.70794013 40.14086064 2 38 C2.36297936 36.02252878 2.36297936 36.02252878 2.1875 33.875 C2.125625 32.59625 2.06375 31.3175 2 30 C0.70954304 29.41399539 -0.58246888 28.83141538 -1.875 28.25 C-2.69097656 27.88261719 -3.50695313 27.51523438 -4.34765625 27.13671875 C-6.97373847 26.01125494 -9.62837437 25.0396334 -12.3125 24.0625 C-16.42222778 22.40071272 -18.97805445 21.13579772 -21 17 C-21.7345588 13.14891503 -21.90057295 9.68012029 -20.01171875 6.15625 C-14.55840419 -0.73214734 -8.2727694 -0.90812194 0 0 Z " fill="#5D5D5D" transform="translate(1047,150)"/>
<path d="M0 0 C2.83406724 2.00458415 4.67145122 3.90319419 6.5625 6.8125 C6.5625 7.8025 6.5625 8.7925 6.5625 9.8125 C3.75 10.0625 3.75 10.0625 0.5625 9.8125 C-1.125 7.875 -1.125 7.875 -2.4375 5.8125 C-6.03014452 4.61495183 -8.66467474 4.48155042 -12.4375 4.8125 C-15.06466577 6.27247987 -15.06466577 6.27247987 -16.4375 8.8125 C-16.92545724 11.88915737 -16.92545724 11.88915737 -15.4375 14.8125 C-11.0375906 17.58281333 -6.59657959 19.09828555 -1.6875 20.75 C2.67888222 22.31245023 5.43752922 23.46136936 7.5625 27.8125 C8.22367943 33.00748122 7.46529346 36.45830981 4.5625 40.8125 C0.69782591 44.67717409 -2.66492789 45.13234378 -7.9375 45.3125 C-13.47094896 45.13603466 -16.42058458 44.61799882 -20.4375 40.8125 C-23.28851475 37.7714176 -23.4375 37.1868888 -23.4375 32.8125 C-21.1275 32.8125 -18.8175 32.8125 -16.4375 32.8125 C-16.14875 33.616875 -15.86 34.42125 -15.5625 35.25 C-14.70487432 37.9451468 -14.70487432 37.9451468 -12.4375 38.8125 C-8.09210192 39.32421676 -4.59711068 39.57614606 -0.875 37.125 C0.84337645 34.36065528 1.13618682 33.00875513 0.5625 29.8125 C-2.29064431 25.78883495 -7.30881411 25.13188163 -11.8125 23.8828125 C-16.54850986 22.44880155 -19.34574577 20.67863754 -22.4375 16.8125 C-23.57563287 13.79671014 -23.72567352 11.01631154 -23.4375 7.8125 C-18.72150503 -1.98225879 -9.72672081 -3.36013991 0 0 Z " fill="#5B5B5B" transform="translate(1372.4375,151.1875)"/>
<path d="M0 0 C2.83406724 2.00458415 4.67145122 3.90319419 6.5625 6.8125 C6.5625 7.8025 6.5625 8.7925 6.5625 9.8125 C3.75 10.0625 3.75 10.0625 0.5625 9.8125 C-1.125 7.875 -1.125 7.875 -2.4375 5.8125 C-6.03014452 4.61495183 -8.66467474 4.48155042 -12.4375 4.8125 C-15.06466577 6.27247987 -15.06466577 6.27247987 -16.4375 8.8125 C-16.92545724 11.88915737 -16.92545724 11.88915737 -15.4375 14.8125 C-11.0375906 17.58281333 -6.59657959 19.09828555 -1.6875 20.75 C2.67888222 22.31245023 5.43752922 23.46136936 7.5625 27.8125 C8.22367943 33.00748122 7.46529346 36.45830981 4.5625 40.8125 C0.69782591 44.67717409 -2.66492789 45.13234378 -7.9375 45.3125 C-13.47094896 45.13603466 -16.42058458 44.61799882 -20.4375 40.8125 C-23.28851475 37.7714176 -23.4375 37.1868888 -23.4375 32.8125 C-21.1275 32.8125 -18.8175 32.8125 -16.4375 32.8125 C-16.14875 33.616875 -15.86 34.42125 -15.5625 35.25 C-14.70487432 37.9451468 -14.70487432 37.9451468 -12.4375 38.8125 C-8.09210192 39.32421676 -4.59711068 39.57614606 -0.875 37.125 C0.84337645 34.36065528 1.13618682 33.00875513 0.5625 29.8125 C-2.29064431 25.78883495 -7.30881411 25.13188163 -11.8125 23.8828125 C-16.54850986 22.44880155 -19.34574577 20.67863754 -22.4375 16.8125 C-23.57563287 13.79671014 -23.72567352 11.01631154 -23.4375 7.8125 C-18.72150503 -1.98225879 -9.72672081 -3.36013991 0 0 Z " fill="#5B5B5B" transform="translate(767.4375,151.1875)"/>
<path d="M0 0 C3.91075925 1.98968453 5.57689098 3.36533646 8 7 C8 8.32 8 9.64 8 11 C5.3125 11.3125 5.3125 11.3125 2 11 C1.21625 10.175 0.4325 9.35 -0.375 8.5 C-3.15848563 5.8490613 -3.53536798 5.62145381 -7.125 5.5625 C-11.0563515 5.70689812 -11.0563515 5.70689812 -14 8 C-14.39095876 11.07880023 -14.61820799 13.05442078 -14 16 C-10.64114198 19.24689609 -5.8460593 19.92981024 -1.44140625 21.18359375 C3.20539715 22.73748481 6.24729284 24.87093926 9 29 C9.42763893 34.30272272 9.53414849 37.75902182 6 42 C2.12476065 45.77325937 -1.2038532 46.34618394 -6.4375 46.5625 C-12.61913052 46.37197029 -15.59330095 45.3087724 -20 41 C-21.83218656 38.2915503 -22 37.31439938 -22 34 C-18.6875 33.6875 -18.6875 33.6875 -15 34 C-13.125 36.4375 -13.125 36.4375 -12 39 C-10.34233202 40.65766798 -8.39653595 40.21049503 -6.125 40.25 C-5.24070312 40.27578125 -4.35640625 40.3015625 -3.4453125 40.328125 C-0.96158428 40.19488911 -0.96158428 40.19488911 0.796875 38.671875 C2.66103405 36.08142021 2.3867669 34.09413521 2 31 C-0.79072207 26.95755701 -5.89672113 26.31233515 -10.375 25.0703125 C-15.10696797 23.63752539 -17.97555541 21.92948673 -21 18 C-21.91583771 14.25045266 -21.71129873 10.78410925 -21 7 C-15.83565772 -0.23007919 -8.32541659 -1.01321052 0 0 Z " fill="#5A5A5A" transform="translate(1691,150)"/>
<path d="M0 0 C8.25 0 16.5 0 25 0 C25 1.65 25 3.3 25 5 C18.73 5 12.46 5 6 5 C6 9.95 6 14.9 6 20 C11.61 20 17.22 20 23 20 C23 21.65 23 23.3 23 25 C17.39 25 11.78 25 6 25 C6 30.28 6 35.56 6 41 C12.27 41 18.54 41 25 41 C25 42.65 25 44.3 25 46 C16.75 46 8.5 46 0 46 C0 30.82 0 15.64 0 0 Z " fill="#606060" transform="translate(1316,150)"/>
<path d="M0 0 C8.25 0 16.5 0 25 0 C25 1.65 25 3.3 25 5 C18.73 5 12.46 5 6 5 C6 9.95 6 14.9 6 20 C11.61 20 17.22 20 23 20 C23 21.65 23 23.3 23 25 C17.39 25 11.78 25 6 25 C6 30.28 6 35.56 6 41 C12.27 41 18.54 41 25 41 C25 42.65 25 44.3 25 46 C16.75 46 8.5 46 0 46 C0 30.82 0 15.64 0 0 Z " fill="#606060" transform="translate(993,150)"/>
<path d="M0 0 C8.25 0 16.5 0 25 0 C25 1.65 25 3.3 25 5 C18.73 5 12.46 5 6 5 C6 9.95 6 14.9 6 20 C11.61 20 17.22 20 23 20 C23 21.65 23 23.3 23 25 C17.39 25 11.78 25 6 25 C6 30.28 6 35.56 6 41 C12.27 41 18.54 41 25 41 C25 42.65 25 44.3 25 46 C16.75 46 8.5 46 0 46 C0 30.82 0 15.64 0 0 Z " fill="#606060" transform="translate(711,150)"/>
<path d="M0 0 C8.25 0 16.5 0 25 0 C25 1.65 25 3.3 25 5 C18.73 5 12.46 5 6 5 C6 9.95 6 14.9 6 20 C11.61 20 17.22 20 23 20 C23 21.65 23 23.3 23 25 C17.39 25 11.78 25 6 25 C6 30.28 6 35.56 6 41 C12.27 41 18.54 41 25 41 C25 42.65 25 44.3 25 46 C16.75 46 8.5 46 0 46 C0 30.82 0 15.64 0 0 Z " fill="#606060" transform="translate(587,150)"/>
<path d="M0 0 C1.98 0 3.96 0 6 0 C9.56311284 8.32114338 12.78623955 16.72007453 15.8125 25.25 C16.21919922 26.38824219 16.62589844 27.52648437 17.04492188 28.69921875 C18.03275744 31.46515833 19.01774036 34.23207645 20 37 C23.92512734 27.77140108 27.49352976 18.44294262 30.95703125 9.03320312 C31.33730469 8.00775391 31.71757813 6.98230469 32.109375 5.92578125 C32.61936035 4.53999878 32.61936035 4.53999878 33.13964844 3.1262207 C34 1 34 1 35 0 C36.99958364 -0.04080783 39.00045254 -0.04254356 41 0 C39.07910106 5.86634246 37.05452827 11.68101812 34.8984375 17.46484375 C34.61650543 18.22422745 34.33457336 18.98361115 34.0440979 19.76600647 C33.45493175 21.3518435 32.86503091 22.93740776 32.27441406 24.52270508 C31.36842697 26.95514761 30.46530785 29.38864155 29.5625 31.82226562 C28.98714744 33.36985424 28.41163255 34.91738251 27.8359375 36.46484375 C27.56615082 37.19186996 27.29636414 37.91889618 27.0184021 38.66795349 C25.11537783 43.76924435 25.11537783 43.76924435 24 46 C21.69 46 19.38 46 17 46 C13.266062 37.26064022 9.82621407 28.43200222 6.49584961 19.53271484 C5.67509435 17.34188581 4.84842897 15.15334302 4.02148438 12.96484375 C3.49704154 11.56784129 2.97293975 10.17071073 2.44921875 8.7734375 C2.20241867 8.12144379 1.95561859 7.46945007 1.70133972 6.79769897 C0 2.22926906 0 2.22926906 0 0 Z " fill="#5D5D5D" transform="translate(946,150)"/>
<path d="M0 0 C1.98 0 3.96 0 6 0 C9.47892733 7.5255118 12.35682434 15.21044613 15.1875 23 C16.07431162 25.43841478 16.96349977 27.87596705 17.85546875 30.3125 C18.24371826 31.38113281 18.63196777 32.44976562 19.03198242 33.55078125 C19.77626641 35.90883227 19.77626641 35.90883227 21 37 C21.38857178 35.91468994 21.77714355 34.82937988 22.17749023 33.71118164 C23.61523711 29.6977873 25.05668184 25.68572959 26.49926758 21.67407227 C27.12398162 19.93517917 27.74768228 18.19592167 28.37036133 16.45629883 C29.26379639 13.96079325 30.16082716 11.46660629 31.05859375 8.97265625 C31.47739052 7.7992141 31.47739052 7.7992141 31.90464783 6.60206604 C33.88612829 1.11387171 33.88612829 1.11387171 35 0 C36.99958364 -0.04080783 39.00045254 -0.04254356 41 0 C38.61732496 8.73784925 35.44055724 17.17730045 32.27441406 25.65307617 C31.36595343 28.08673468 30.46393622 30.52271642 29.5625 32.95898438 C28.98735723 34.505349 28.41185002 36.05157814 27.8359375 37.59765625 C27.56615082 38.3267067 27.29636414 39.05575714 27.0184021 39.80690002 C25.11515188 44.88484812 25.11515188 44.88484812 24 46 C21.66702567 46.04092937 19.33294775 46.04241723 17 46 C14.89646842 40.57548454 12.79699145 35.14942357 10.70117188 29.72192383 C9.98840347 27.87774877 9.27455055 26.03399249 8.55957031 24.19067383 C7.52900803 21.53317235 6.50242198 18.87416359 5.4765625 16.21484375 C5.15877838 15.39789536 4.84099426 14.58094696 4.51358032 13.73924255 C2.76873515 9.20343541 1.2568118 4.6952074 0 0 Z " fill="#5C5C5C" transform="translate(829,150)"/>
<path d="M0 0 C3.5 0.1875 3.5 0.1875 5.5 1.1875 C5.52527002 7.72028786 5.54283292 14.25306321 5.55493164 20.78588867 C5.55997317 23.01017732 5.56680623 25.23446263 5.57543945 27.45874023 C5.58751298 30.64828309 5.59322996 33.83778229 5.59765625 37.02734375 C5.60281754 38.02837631 5.60797882 39.02940887 5.61329651 40.06077576 C5.61337204 40.98165482 5.61344757 41.90253387 5.61352539 42.85131836 C5.615746 43.66628281 5.61796661 44.48124725 5.62025452 45.32090759 C5.5 47.1875 5.5 47.1875 4.5 48.1875 C-1.23611111 48.46064815 -1.23611111 48.46064815 -3.5 48.1875 C-5.9062622 45.7812378 -5.75201459 45.23642823 -5.75878906 41.953125 C-5.76509338 41.07881836 -5.77139771 40.20451172 -5.77789307 39.30371094 C-5.7738446 38.35786133 -5.76979614 37.41201172 -5.765625 36.4375 C-5.76753845 35.46844727 -5.7694519 34.49939453 -5.77142334 33.50097656 C-5.77278579 31.44986715 -5.76908518 29.39874914 -5.76074219 27.34765625 C-5.75004359 24.20032461 -5.76063554 21.0535638 -5.7734375 17.90625 C-5.77211592 15.9166654 -5.76955355 13.92708116 -5.765625 11.9375 C-5.76967346 10.99165039 -5.77372192 10.04580078 -5.77789307 9.07128906 C-5.77158875 8.19698242 -5.76528442 7.32267578 -5.75878906 6.421875 C-5.75719788 5.65069336 -5.75560669 4.87951172 -5.75396729 4.08496094 C-5.24653409 0.29378495 -3.55591029 0.19049519 0 0 Z " fill="#0D3D2F" transform="translate(329.5,192.8125)"/>
<path d="M0 0 C8.58 0 17.16 0 26 0 C26 1.65 26 3.3 26 5 C19.73 5 13.46 5 7 5 C7 9.95 7 14.9 7 20 C12.28 20 17.56 20 23 20 C23 21.98 23 23.96 23 26 C17.72 26 12.44 26 7 26 C7 32.6 7 39.2 7 46 C4.69 46 2.38 46 0 46 C0 30.82 0 15.64 0 0 Z " fill="#6B6B6B" transform="translate(1437,150)"/>
<path d="M0 0 C3.5 0.1875 3.5 0.1875 5.5 1.1875 C5.54934154 7.27472746 5.58569167 13.3618392 5.60986328 19.44921875 C5.61993712 21.52117947 5.63359666 23.59312593 5.65087891 25.66503906 C5.67506664 28.63870764 5.68646908 31.6121887 5.6953125 34.5859375 C5.70563507 35.51618744 5.71595764 36.44643738 5.72659302 37.40487671 C5.72674408 38.26561798 5.72689514 39.12635925 5.72705078 40.01318359 C5.731492 40.77263275 5.73593323 41.53208191 5.74050903 42.31454468 C5.5 44.1875 5.5 44.1875 3.5 46.1875 C-1.76183915 46.74727012 -1.76183915 46.74727012 -4.1681366 44.92250061 C-5.7925128 42.80644749 -5.87463964 41.75876455 -5.87231445 39.11499023 C-5.87854324 38.30082138 -5.88477203 37.48665253 -5.89118958 36.64781189 C-5.88197983 35.7727449 -5.87277008 34.89767792 -5.86328125 33.99609375 C-5.86377975 33.0950441 -5.86427826 32.19399445 -5.86479187 31.26564026 C-5.86245198 29.36172275 -5.85272845 27.45780212 -5.83618164 25.55395508 C-5.81256222 22.63269545 -5.81562456 19.71234663 -5.82226562 16.79101562 C-5.81668982 14.94270287 -5.80958056 13.09439397 -5.80078125 11.24609375 C-5.80169266 10.36900253 -5.80260406 9.49191132 -5.80354309 8.58824158 C-5.70619689 0.30568912 -5.70619689 0.30568912 0 0 Z " fill="#194236" transform="translate(329.5,96.8125)"/>
<path d="M0 0 C3.5625 0.25 3.5625 0.25 6.5625 2.25 C6.85417512 5.06385206 6.95847908 7.65426945 6.92578125 10.46875 C6.92627975 11.28243042 6.92677826 12.09611084 6.92729187 12.93444824 C6.92494974 14.65603068 6.91521296 16.37761643 6.89868164 18.09912109 C6.87509319 20.73956813 6.87811877 23.3790057 6.88476562 26.01953125 C6.87918889 27.69011021 6.87207903 29.3606849 6.86328125 31.03125 C6.86464836 32.22034973 6.86464836 32.22034973 6.86604309 33.43347168 C6.79352347 39.01897653 6.79352347 39.01897653 4.5625 41.25 C2.6875 41.515625 2.6875 41.515625 0.5625 41.5 C-0.13875 41.50515625 -0.84 41.5103125 -1.5625 41.515625 C-3.4375 41.25 -3.4375 41.25 -5.4375 39.25 C-5.63732025 36.47664573 -5.717292 33.80530357 -5.703125 31.03125 C-5.70503845 30.21756958 -5.7069519 29.40388916 -5.70892334 28.56555176 C-5.71028527 26.843991 -5.70658828 25.12241997 -5.69824219 23.40087891 C-5.68754258 20.7605083 -5.698137 18.12081811 -5.7109375 15.48046875 C-5.70961591 13.80989433 -5.70705352 12.13932033 -5.703125 10.46875 C-5.70717346 9.67601685 -5.71122192 8.88328369 -5.71539307 8.06652832 C-5.64965324 0.41088387 -5.64965324 0.41088387 0 0 Z " fill="#1A463B" transform="translate(344.4375,195.75)"/>
<path d="M0 0 C1.051875 -0.02126953 1.051875 -0.02126953 2.125 -0.04296875 C4 0.1875 4 0.1875 6 2.1875 C6.19973733 4.88885323 6.27981573 7.48547211 6.265625 10.1875 C6.26753845 10.97898437 6.2694519 11.77046875 6.27142334 12.5859375 C6.27278518 14.2604199 6.26908882 15.93491285 6.26074219 17.609375 C6.2500424 20.17732381 6.26063725 22.74457303 6.2734375 25.3125 C6.2721159 26.93750155 6.26955351 28.56250266 6.265625 30.1875 C6.26967346 30.95835937 6.27372192 31.72921875 6.27789307 32.5234375 C6.22992132 37.95757868 6.22992132 37.95757868 4 40.1875 C2.125 40.48828125 2.125 40.48828125 0 40.5 C-0.70125 40.51675781 -1.4025 40.53351563 -2.125 40.55078125 C-2.74375 40.43089844 -3.3625 40.31101563 -4 40.1875 C-6.52561648 36.39907527 -6.25391573 33.40216671 -6.1953125 29.01953125 C-6.1924826 28.22471848 -6.18965271 27.4299057 -6.18673706 26.61100769 C-6.17554705 24.07385162 -6.15044491 21.53704928 -6.125 19 C-6.11496866 17.27930198 -6.10584308 15.55859841 -6.09765625 13.83789062 C-6.07561161 9.62095757 -6.04109006 5.40428875 -6 1.1875 C-3.77109005 0.07304502 -2.46944894 0.02269714 0 0 Z " fill="#21493E" transform="translate(345,99.8125)"/>
<path d="M0 0 C8.58 0 17.16 0 26 0 C26 1.65 26 3.3 26 5 C19.4 5 12.8 5 6 5 C6 10.28 6 15.56 6 21 C11.28 21 16.56 21 22 21 C22 22.32 22 23.64 22 25 C16.72 25 11.44 25 6 25 C6 31.93 6 38.86 6 46 C4.02 46 2.04 46 0 46 C0 30.82 0 15.64 0 0 Z " fill="#5C5C5C" transform="translate(1114,150)"/>
<path d="M0 0 C10.23 0 20.46 0 31 0 C31 1.65 31 3.3 31 5 C27.04 5 23.08 5 19 5 C19 18.53 19 32.06 19 46 C17.02 46 15.04 46 13 46 C13 32.47 13 18.94 13 5 C8.71 5 4.42 5 0 5 C0 3.35 0 1.7 0 0 Z " fill="#5E5E5E" transform="translate(1519,150)"/>
<path d="M0 0 C10.23 0 20.46 0 31 0 C31 1.65 31 3.3 31 5 C26.71 5 22.42 5 18 5 C18 18.53 18 32.06 18 46 C16.02 46 14.04 46 12 46 C12 32.47 12 18.94 12 5 C8.04 5 4.08 5 0 5 C0 3.35 0 1.7 0 0 Z " fill="#5D5D5D" transform="translate(1484,150)"/>
<path d="M0 0 C1.98 0 3.96 0 6 0 C6 13.53 6 27.06 6 41 C11.28 41 16.56 41 22 41 C22 42.65 22 44.3 22 46 C14.74 46 7.48 46 0 46 C0 30.82 0 15.64 0 0 Z " fill="#5C5C5C" transform="translate(1147,150)"/>
<path d="M0 0 C1.98 0 3.96 0 6 0 C6 13.53 6 27.06 6 41 C11.28 41 16.56 41 22 41 C22 42.65 22 44.3 22 46 C14.74 46 7.48 46 0 46 C0 30.82 0 15.64 0 0 Z " fill="#5B5B5B" transform="translate(921,150)"/>
<path d="M0 0 C1.98 0 3.96 0 6 0 C6 13.53 6 27.06 6 41 C11.28 41 16.56 41 22 41 C22 42.65 22 44.3 22 46 C14.74 46 7.48 46 0 46 C0 30.82 0 15.64 0 0 Z " fill="#5C5C5C" transform="translate(621,150)"/>
<path d="M0 0 C11.97506679 -0.4381122 11.97506679 -0.4381122 17 3 C18.56935594 6.13871188 18.35201103 8.53855822 18 12 C16.3125 14.9375 16.3125 14.9375 13 17 C8.57771908 17.41760038 4.46093817 17.22529991 0 17 C0 11.39 0 5.78 0 0 Z " fill="#FBFBFB" transform="translate(556,155)"/>
<path d="M0 0 C11.97506679 -0.4381122 11.97506679 -0.4381122 17 3 C18.56935594 6.13871188 18.35201103 8.53855822 18 12 C16.3125 14.9375 16.3125 14.9375 13 17 C8.57771908 17.41760038 4.46093817 17.22529991 0 17 C0 11.39 0 5.78 0 0 Z " fill="#FBFBFB" transform="translate(502,155)"/>
<path d="M0 0 C1.65 0 3.3 0 5 0 C5 14.85 5 29.7 5 45 C3.35 45 1.7 45 0 45 C0 30.15 0 15.3 0 0 Z " fill="#545454" transform="translate(1558,151)"/>
<path d="M0 0 C1.65 0 3.3 0 5 0 C5 14.85 5 29.7 5 45 C3.35 45 1.7 45 0 45 C0 30.15 0 15.3 0 0 Z " fill="#545454" transform="translate(1471,151)"/>
<path d="M0 0 C1.65 0 3.3 0 5 0 C5 14.85 5 29.7 5 45 C3.35 45 1.7 45 0 45 C0 30.15 0 15.3 0 0 Z " fill="#545454" transform="translate(650,151)"/>
<path d="M0 0 C1.65 0 3.3 0 5 0 C5 14.85 5 29.7 5 45 C3.35 45 1.7 45 0 45 C0 30.15 0 15.3 0 0 Z " fill="#545454" transform="translate(534,151)"/>
<path d="M0 0 C0 13.53 0 27.06 0 41 C-31.68 41 -63.36 41 -96 41 C-96 40.67 -96 40.34 -96 40 C-65.31 40 -34.62 40 -3 40 C-3 27.13 -3 14.26 -3 1 C-1 0 -1 0 0 0 Z " fill="#4E6760" transform="translate(320,200)"/>
<path d="M0 0 C2.39762941 2.14753655 3.55957647 3.90670958 4.60546875 6.94140625 C4.86650391 7.68970703 5.12753906 8.43800781 5.39648438 9.20898438 C5.65751953 9.98564453 5.91855469 10.76230469 6.1875 11.5625 C6.46013672 12.34302734 6.73277344 13.12355469 7.01367188 13.92773438 C9 19.69754464 9 19.69754464 9 22 C3.72 22 -1.56 22 -7 22 C-5.56006454 14.27670981 -2.94467554 7.2717751 0 0 Z " fill="#F7F7F7" transform="translate(893,159)"/>
<path d="M0 0 C2 1 2 1 2.86962891 3.04125977 C3.15241699 3.91580811 3.43520508 4.79035645 3.7265625 5.69140625 C4.0359375 6.63564453 4.3453125 7.57988281 4.6640625 8.55273438 C4.98117187 9.54595703 5.29828125 10.53917969 5.625 11.5625 C5.94984375 12.55958984 6.2746875 13.55667969 6.609375 14.58398438 C7.41295705 17.05381745 8.20733812 19.52664061 9 22 C3.72 22 -1.56 22 -7 22 C-5.875 15.25 -5.875 15.25 -4.58984375 11.9140625 C-4.32236328 11.21152344 -4.05488281 10.50898438 -3.77929688 9.78515625 C-3.50150391 9.07230469 -3.22371094 8.35945312 -2.9375 7.625 C-2.65583984 6.88894531 -2.37417969 6.15289062 -2.08398438 5.39453125 C-1.39433382 3.5944264 -0.69786068 1.7969379 0 0 Z " fill="#F7F7F7" transform="translate(1192,159)"/>
<path d="M0 0 C10.19694397 -0.48556876 10.19694397 -0.48556876 13.6875 1.625 C15.39437743 4.71363535 15.59152429 6.52479479 15 10 C12.72923956 12.27076044 11.41993272 12.95601263 8.203125 13.29296875 C5.46875 13.1953125 2.734375 13.09765625 0 13 C0 8.71 0 4.42 0 0 Z " fill="#EFF2F1" transform="translate(1030,57)"/>
<path d="M0 0 C3.5 0.1875 3.5 0.1875 5.5 1.1875 C5.5 16.3675 5.5 31.5475 5.5 47.1875 C4.51 46.5275 3.52 45.8675 2.5 45.1875 C2.13923645 43.31454468 2.13923645 43.31454468 2.15942383 41.01318359 C2.15965042 40.15244232 2.15987701 39.29170105 2.16011047 38.40487671 C2.18333626 37.0095018 2.18333626 37.0095018 2.20703125 35.5859375 C2.21127609 34.63433746 2.21552094 33.68273743 2.21989441 32.70230103 C2.23672104 29.65541586 2.27438046 26.60918609 2.3125 23.5625 C2.32754169 21.50000954 2.34123099 19.43750873 2.35351562 17.375 C2.38663761 12.3122465 2.43844716 7.24998446 2.5 2.1875 C1.18 2.1875 -0.14 2.1875 -1.5 2.1875 C-1.83 8.7875 -2.16 15.3875 -2.5 22.1875 C-2.83 22.1875 -3.16 22.1875 -3.5 22.1875 C-3.83 30.1075 -4.16 38.0275 -4.5 46.1875 C-4.83 46.1875 -5.16 46.1875 -5.5 46.1875 C-5.55059881 39.95788023 -5.58569062 33.7283132 -5.60986328 27.49853516 C-5.61993751 25.3780723 -5.63359733 23.25762339 -5.65087891 21.13720703 C-5.67506489 18.09404057 -5.68646869 15.05105734 -5.6953125 12.0078125 C-5.70563507 11.05568878 -5.71595764 10.10356506 -5.72659302 9.12258911 C-5.72674408 8.24182709 -5.72689514 7.36106506 -5.72705078 6.45361328 C-5.731492 5.67639923 -5.73593323 4.89918518 -5.74050903 4.09841919 C-5.26178325 0.29479371 -3.55962517 0.19069421 0 0 Z " fill="#35524A" transform="translate(329.5,192.8125)"/>
<path d="M0 0 C1.670625 0.061875 1.670625 0.061875 3.375 0.125 C3.375 0.455 3.375 0.785 3.375 1.125 C1.395 1.125 -0.585 1.125 -2.625 1.125 C-2.625 13.335 -2.625 25.545 -2.625 38.125 C-0.645 38.455 1.335 38.785 3.375 39.125 C3.375 27.245 3.375 15.365 3.375 3.125 C3.705 3.125 4.035 3.125 4.375 3.125 C4.54223026 8.37587844 4.70282815 13.62690094 4.85717773 18.87817383 C4.91067402 20.66599032 4.96600904 22.45375275 5.02319336 24.24145508 C5.10489235 26.80538266 5.18005945 29.36942953 5.25390625 31.93359375 C5.29445885 33.13984657 5.29445885 33.13984657 5.33583069 34.37046814 C5.38785627 36.28798422 5.38687441 38.20681503 5.375 40.125 C3.48011048 42.01988952 0.80360854 41.30519112 -1.71484375 41.35546875 C-3.625 41.125 -3.625 41.125 -5.625 39.125 C-5.82482025 36.35164573 -5.904792 33.68030357 -5.890625 30.90625 C-5.89253845 30.09256958 -5.8944519 29.27888916 -5.89642334 28.44055176 C-5.89778527 26.718991 -5.89408828 24.99741997 -5.88574219 23.27587891 C-5.87504258 20.6355083 -5.885637 17.99581811 -5.8984375 15.35546875 C-5.89711591 13.68489433 -5.89455352 12.01432033 -5.890625 10.34375 C-5.89467346 9.55101685 -5.89872192 8.75828369 -5.90289307 7.94152832 C-5.83642653 0.20125609 -5.83642653 0.20125609 0 0 Z " fill="#2F4E46" transform="translate(344.625,195.875)"/>
<path d="M0 0 C2.72863567 2.72863567 3.47085394 5.91006895 4.625 9.5 C4.85445312 10.18964844 5.08390625 10.87929687 5.3203125 11.58984375 C7 16.71888951 7 16.71888951 7 19 C2.71 19 -1.58 19 -6 19 C-4.29446483 12.50272314 -2.47390635 6.2436684 0 0 Z " fill="#E7ECEB" transform="translate(1431,62)"/>
<path d="M0 0 C2 1 2 1 3.2890625 4.2734375 C3.74216125 5.63806434 4.18713794 7.0054082 4.625 8.375 C4.85445312 9.06078125 5.08390625 9.7465625 5.3203125 10.453125 C6.28795001 13.413635 7 15.86608457 7 19 C3.04 19 -0.92 19 -5 19 C-4.39297368 12.3227105 -2.22368606 6.29872004 0 0 Z " fill="#E8ECEB" transform="translate(1160,62)"/>
<path d="M0 0 C5.94 0 11.88 0 18 0 C14.76866397 2.42350203 12.64082275 3.71529119 9 5.125 C8.154375 5.45757813 7.30875 5.79015625 6.4375 6.1328125 C4.3015372 6.89272234 2.20881938 7.49892523 0 8 C0 5.36 0 2.72 0 0 Z " fill="#E3E6E5" transform="translate(279,17)"/>
<path d="M0 0 C5.61 0 11.22 0 17 0 C17 2.31 17 4.62 17 7 C12.94180817 6.34496718 9.46028718 5.05440879 5.6875 3.4375 C4.61886719 2.98246094 3.55023438 2.52742188 2.44921875 2.05859375 C1.64097656 1.70925781 0.83273438 1.35992188 0 1 C0 0.67 0 0.34 0 0 Z " fill="#E4E7E6" transform="translate(248,17)"/>
<path d="M0 0 C0 12.54 0 25.08 0 38 C-0.33 38 -0.66 38 -1 38 C-1.495 20.675 -1.495 20.675 -2 3 C-4.31 3 -6.62 3 -9 3 C-9.66 2.34 -10.32 1.68 -11 1 C-7.05979642 -0.26086514 -4.52419701 0 0 0 Z " fill="#28433B" transform="translate(228,99)"/>
<path d="M0 0 C2.4375 0.1875 2.4375 0.1875 3.4375 1.1875 C3.625 3.625 3.625 3.625 3.4375 6.1875 C2.7775 6.8475 2.1175 7.5075 1.4375 8.1875 C-1.1875 7.8125 -1.1875 7.8125 -3.5625 7.1875 C-4.1875 4.8125 -4.1875 4.8125 -4.5625 2.1875 C-2.5625 0.1875 -2.5625 0.1875 0 0 Z " fill="#626262" transform="translate(1408.5625,169.8125)"/>
<path d="M0 0 C2.4375 0.1875 2.4375 0.1875 3.4375 1.1875 C3.625 3.625 3.625 3.625 3.4375 6.1875 C2.7775 6.8475 2.1175 7.5075 1.4375 8.1875 C-1.1875 7.8125 -1.1875 7.8125 -3.5625 7.1875 C-4.1875 4.8125 -4.1875 4.8125 -4.5625 2.1875 C-2.5625 0.1875 -2.5625 0.1875 0 0 Z " fill="#626262" transform="translate(1085.5625,169.8125)"/>
<path d="M0 0 C2.4375 0.1875 2.4375 0.1875 3.4375 1.1875 C3.625 3.625 3.625 3.625 3.4375 6.1875 C2.7775 6.8475 2.1175 7.5075 1.4375 8.1875 C-1.1875 7.8125 -1.1875 7.8125 -3.5625 7.1875 C-4.1875 4.8125 -4.1875 4.8125 -4.5625 2.1875 C-2.5625 0.1875 -2.5625 0.1875 0 0 Z " fill="#626262" transform="translate(803.5625,169.8125)"/>
<path d="M0 0 C1.134375 0.020625 2.26875 0.04125 3.4375 0.0625 C3.4375 1.0525 3.4375 2.0425 3.4375 3.0625 C1.7875 2.7325 0.1375 2.4025 -1.5625 2.0625 C-1.8925 8.6625 -2.2225 15.2625 -2.5625 22.0625 C-2.8925 22.0625 -3.2225 22.0625 -3.5625 22.0625 C-3.75840444 18.58375243 -3.94281592 15.10449096 -4.125 11.625 C-4.18107422 10.63177734 -4.23714844 9.63855469 -4.29492188 8.61523438 C-4.34326172 7.67099609 -4.39160156 6.72675781 -4.44140625 5.75390625 C-4.4885376 4.87935791 -4.53566895 4.00480957 -4.58422852 3.10375977 C-4.54602537 -0.48518937 -3.68825303 0.06470619 0 0 Z " fill="#1B3E35" transform="translate(329.5625,192.9375)"/>
<path d="M0 0 C2.05078125 0.03255208 4.1015625 0.06510417 6.15234375 0.09765625 C6.15234375 0.75765625 6.15234375 1.41765625 6.15234375 2.09765625 C3.84234375 2.09765625 1.53234375 2.09765625 -0.84765625 2.09765625 C-0.84765625 8.03765625 -0.84765625 13.97765625 -0.84765625 20.09765625 C-1.17765625 20.09765625 -1.50765625 20.09765625 -1.84765625 20.09765625 C-2.04360301 16.95228857 -2.22799635 13.80635011 -2.41015625 10.66015625 C-2.46623047 9.76232422 -2.52230469 8.86449219 -2.58007812 7.93945312 C-2.62841797 7.08544922 -2.67675781 6.23144531 -2.7265625 5.3515625 C-2.77369385 4.56080322 -2.8208252 3.77004395 -2.86938477 2.95532227 C-2.83970693 0.41803403 -2.52621122 0.13352068 0 0 Z " fill="#1A3C34" transform="translate(342.84765625,99.90234375)"/>
<path d="M0 0 C-0.47246642 4.25219775 -2.77272377 6.37314725 -6 9 C-8.16796875 8.63671875 -8.16796875 8.63671875 -10 8 C-8.71451591 6.66070495 -7.42141845 5.32871357 -6.125 4 C-5.04605469 2.88625 -5.04605469 2.88625 -3.9453125 1.75 C-2 0 -2 0 0 0 Z " fill="#1A3C32" transform="translate(202,109)"/>
<path d="M0 0 C3.3 0 6.6 0 10 0 C10.33 0.66 10.66 1.32 11 2 C10.01 3.485 10.01 3.485 9 5 C2.25 3.375 2.25 3.375 0 0 Z " fill="#46635B" transform="translate(267,0)"/>
<path d="M0 0 C0.66 0.33 1.32 0.66 2 1 C1.34 2.98 0.68 4.96 0 7 C-0.99 7 -1.98 7 -3 7 C-2.38722388 4.03824877 -1.74627478 2.61941217 0 0 Z " fill="#2B4940" transform="translate(190,120)"/>
<path d="M0 0 C2.4375 0.75 2.4375 0.75 5 2 C5.8125 4.125 5.8125 4.125 6 6 C3.37812506 4.95125002 2.20628639 4.35068687 0.75 1.875 C0.5025 1.25625 0.255 0.6375 0 0 Z " fill="#29433D" transform="translate(194,222)"/>
<path d="M0 0 C1.67542976 0.28604898 3.34385343 0.61781233 5 1 C5.33 1.99 5.66 2.98 6 4 C1.25 3.25 1.25 3.25 -1 1 C-0.67 0.67 -0.34 0.34 0 0 Z " fill="#314C44" transform="translate(230,17)"/>
</svg>
